<svg width="65" height="65" viewBox="0 0 100 100" fill="none" xmlns="http://www.w3.org/2000/svg">
<path d="M82.2916 89.5833H63.5416C60.6646 89.5833 58.3333 87.252 58.3333 84.3749V65.625C58.3333 63.3229 56.4687 61.4583 54.1666 61.4583H45.8333C43.5312 61.4583 41.6666 63.3229 41.6666 65.625V84.3749C41.6666 87.252 39.3354 89.5833 36.4583 89.5833H17.7083C14.8312 89.5833 12.5 87.252 12.5 84.3749V44.6104C12.5 39.8208 14.6958 35.2958 18.4562 32.3333L48.0646 9.00208C49.2 8.11041 50.8 8.11041 51.9333 9.00208L81.5458 32.3333C85.3062 35.2958 87.5 39.8187 87.5 44.6062V84.3749C87.5 87.252 85.1687 89.5833 82.2916 89.5833Z" fill="#D56C06"/>
</svg>
