<svg width="65" height="65" viewBox="0 0 100 100" fill="none" xmlns="http://www.w3.org/2000/svg">
<g clip-path="url(#clip0_145_30)">
<path d="M50 89C71.1168 89 88.2353 71.5391 88.2353 50C88.2353 28.4609 71.1168 11 50 11C28.8832 11 11.7647 28.4609 11.7647 50C11.7647 71.5391 28.8832 89 50 89Z" fill="#D56C06"/>
<path d="M45.6123 30.8197V70.459C45.6123 72.9307 47.5767 74.9344 49.9999 74.9344C52.4232 74.9344 54.3876 72.9307 54.3876 70.459V30.8197C54.3876 28.348 52.4232 26.3443 49.9999 26.3443C47.5767 26.3443 45.6123 28.348 45.6123 30.8197Z" fill="#FFF6EC"/>
<path d="M70.058 45.5245H31.196C28.7727 45.5245 26.8083 47.5282 26.8083 49.9999C26.8083 52.4716 28.7727 54.4753 31.196 54.4753H70.058C72.4812 54.4753 74.4457 52.4716 74.4457 49.9999C74.4457 47.5282 72.4812 45.5245 70.058 45.5245Z" fill="#FFF6EC"/>
</g>
<defs>
<clipPath id="clip0_145_30">
<rect width="78" height="78" fill="white" transform="translate(11 11)"/>
</clipPath>
</defs>
</svg>
