<svg width="100" height="100" viewBox="0 0 100 100" fill="none" xmlns="http://www.w3.org/2000/svg">
<g clip-path="url(#clip0_475_274)">
<path d="M49.9999 89C71.1167 89 88.2352 71.5391 88.2352 50C88.2352 28.4609 71.1167 11 49.9999 11C28.8832 11 11.7646 28.4609 11.7646 50C11.7646 71.5391 28.8832 89 49.9999 89Z" fill="#DCDCDC"/>
<path d="M45.6123 30.8197V70.459C45.6123 72.9307 47.5767 74.9344 50 74.9344C52.4232 74.9344 54.3876 72.9307 54.3876 70.459V30.8197C54.3876 28.348 52.4232 26.3443 50 26.3443C47.5767 26.3443 45.6123 28.348 45.6123 30.8197Z" fill="white"/>
<path d="M70.058 45.5245H31.196C28.7728 45.5245 26.8083 47.5282 26.8083 49.9999C26.8083 52.4716 28.7728 54.4753 31.196 54.4753H70.058C72.4813 54.4753 74.4457 52.4716 74.4457 49.9999C74.4457 47.5282 72.4813 45.5245 70.058 45.5245Z" fill="white"/>
</g>
<defs>
<clipPath id="clip0_475_274">
<rect width="78" height="78" fill="white" transform="translate(11 11)"/>
</clipPath>
</defs>
</svg>
