<svg width="1512" height="982" viewBox="0 0 1512 982" fill="none" xmlns="http://www.w3.org/2000/svg">
<ellipse cx="756" cy="1237.42" rx="756" ry="726.418" fill="#ECE8D9"/>
<ellipse cx="877.456" cy="22.2018" rx="232.485" ry="235.09" fill="#97BF02" fill-opacity="0.54"/>
<ellipse cx="357.485" cy="-91.9096" rx="232.485" ry="235.09" fill="#97BF02" fill-opacity="0.54"/>
<ellipse cx="1144.53" cy="197.91" rx="232.485" ry="235.09" fill="#97BF02" fill-opacity="0.54"/>
<ellipse cx="661.06" cy="143.408" rx="217.201" ry="219.635" fill="#FFCC4B"/>
<ellipse cx="103.399" cy="50.5477" rx="103.399" ry="50.5477" transform="matrix(0.983912 -0.178655 0.20312 0.979154 624.448 228.671)" fill="#3C3C3C"/>
<rect width="213.758" height="53.82" transform="matrix(0.983942 -0.178487 0.203309 0.979115 620 226.153)" fill="#FFCC4B"/>
<rect width="124.078" height="9.72072" rx="4.86036" transform="matrix(0.983912 -0.178655 0.20312 0.979154 823.942 243.806)" fill="#3C3C3C"/>
<ellipse cx="714.128" cy="240.09" rx="13.4723" ry="12.6044" fill="#D56C06"/>
<ellipse cx="683.038" cy="209.064" rx="5.18167" ry="4.84784" fill="#97BF0D"/>
<ellipse cx="747.292" cy="224.577" rx="5.18167" ry="4.84784" fill="#ECE8D9"/>
<ellipse cx="752.473" cy="252.695" rx="10.3633" ry="9.69568" fill="#97BF0D"/>
<ellipse cx="676.82" cy="261.421" rx="7.25434" ry="6.78698" fill="#ECE8D9"/>
<rect width="78.5976" height="31.0998" transform="matrix(0.985243 -0.171161 0.194677 0.980867 720.292 262.977)" fill="#3C3C3C"/>
<mask id="path-15-outside-1_614_276" maskUnits="userSpaceOnUse" x="657.317" y="362.421" width="160" height="54" fill="black">
<rect fill="white" x="657.317" y="362.421" width="160" height="54"/>
<path d="M659.681 403.421C659.228 403.421 658.82 403.263 658.457 402.945C658.14 402.583 657.981 402.175 657.981 401.721V368.741C657.981 368.288 658.117 367.903 658.389 367.585C658.706 367.223 659.069 367.041 659.477 367.041H678.517C679.016 367.041 679.424 367.2 679.741 367.517C680.058 367.835 680.217 368.243 680.217 368.741C680.217 369.195 680.058 369.603 679.741 369.965C679.424 370.283 679.016 370.441 678.517 370.441H661.381V382.273H675.593C676.092 382.273 676.5 382.432 676.817 382.749C677.134 383.067 677.293 383.475 677.293 383.973C677.293 384.427 677.134 384.835 676.817 385.197C676.5 385.515 676.092 385.673 675.593 385.673H661.381V400.021H678.653C679.152 400.021 679.56 400.18 679.877 400.497C680.194 400.815 680.353 401.223 680.353 401.721C680.353 402.175 680.194 402.583 679.877 402.945C679.56 403.263 679.152 403.421 678.653 403.421H659.681ZM708.814 402.809C707.816 401.767 707.046 400.452 706.502 398.865C704.96 400.316 703.26 401.449 701.402 402.265C699.588 403.036 697.616 403.421 695.486 403.421C693.4 403.421 691.746 403.036 690.522 402.265C689.298 401.495 688.436 400.543 687.938 399.409C687.439 398.276 687.19 397.211 687.19 396.213C687.19 395.125 687.371 394.083 687.734 393.085C688.142 392.043 688.754 391.136 689.57 390.365C690.703 389.323 692.222 388.439 694.126 387.713C696.03 386.988 698.364 386.625 701.13 386.625C702.58 386.625 704.122 386.693 705.754 386.829C705.572 384.789 704.892 383.18 703.714 382.001C702.535 380.777 700.767 380.165 698.41 380.165C697.503 380.165 696.574 380.256 695.622 380.437C694.67 380.573 693.944 380.732 693.446 380.913C692.856 381.14 692.426 381.253 692.154 381.253C691.7 381.253 691.292 381.095 690.93 380.777C690.567 380.415 690.386 380.029 690.386 379.621C690.386 378.76 690.771 378.193 691.542 377.921C692.312 377.695 693.332 377.445 694.602 377.173C695.916 376.901 697.186 376.765 698.41 376.765C702.127 376.765 704.847 377.785 706.57 379.825C708.338 381.865 709.222 384.517 709.222 387.781V393.969C709.222 395.511 709.38 396.803 709.698 397.845C710.06 398.843 710.582 399.727 711.262 400.497C711.579 400.815 711.738 401.2 711.738 401.653C711.738 402.107 711.556 402.515 711.194 402.877C710.876 403.195 710.491 403.353 710.038 403.353C709.584 403.353 709.176 403.172 708.814 402.809ZM695.486 400.021C697.435 400.021 699.294 399.591 701.062 398.729C702.83 397.823 704.416 396.463 705.822 394.649V390.229C704.144 390.093 702.58 390.025 701.13 390.025C696.823 390.025 693.786 390.909 692.018 392.677C691.474 393.221 691.088 393.788 690.862 394.377C690.68 394.967 690.59 395.579 690.59 396.213C690.59 397.12 690.975 397.981 691.746 398.797C692.562 399.613 693.808 400.021 695.486 400.021ZM733.375 403.421C729.204 403.421 726.235 402.56 724.467 400.837C722.699 399.069 721.815 396.712 721.815 393.765V380.165H717.531C717.077 380.165 716.669 380.007 716.307 379.689C715.989 379.327 715.831 378.919 715.831 378.465C715.831 377.967 715.989 377.559 716.307 377.241C716.669 376.924 717.077 376.765 717.531 376.765H721.815V369.897C721.815 369.399 721.973 368.991 722.291 368.673C722.653 368.356 723.061 368.197 723.515 368.197C724.013 368.197 724.421 368.356 724.739 368.673C725.056 368.991 725.215 369.399 725.215 369.897V376.765H734.259C734.757 376.765 735.165 376.924 735.483 377.241C735.8 377.559 735.959 377.967 735.959 378.465C735.959 378.919 735.8 379.327 735.483 379.689C735.165 380.007 734.757 380.165 734.259 380.165H725.215V393.765C725.215 397.936 727.935 400.021 733.375 400.021C733.873 400.021 734.282 400.203 734.599 400.565C734.916 400.883 735.075 401.268 735.075 401.721C735.075 402.175 734.893 402.583 734.531 402.945C734.213 403.263 733.828 403.421 733.375 403.421ZM746.262 362.825C747.033 362.825 747.69 363.143 748.234 363.777C748.778 364.367 749.05 365.183 749.05 366.225C749.05 367.268 748.778 368.061 748.234 368.605C747.69 369.149 747.055 369.421 746.33 369.421C745.514 369.421 744.811 369.149 744.222 368.605C743.678 368.016 743.406 367.223 743.406 366.225C743.406 365.183 743.678 364.367 744.222 363.777C744.766 363.143 745.446 362.825 746.262 362.825ZM744.63 378.465C744.63 377.967 744.789 377.559 745.106 377.241C745.469 376.924 745.877 376.765 746.33 376.765C746.829 376.765 747.237 376.924 747.554 377.241C747.871 377.559 748.03 377.967 748.03 378.465V401.721C748.03 402.175 747.871 402.583 747.554 402.945C747.237 403.263 746.829 403.421 746.33 403.421C745.877 403.421 745.469 403.263 745.106 402.945C744.789 402.583 744.63 402.175 744.63 401.721V378.465ZM781.243 403.421C780.789 403.421 780.381 403.263 780.019 402.945C779.701 402.583 779.543 402.175 779.543 401.721V388.121C779.543 385.311 778.999 383.293 777.911 382.069C776.868 380.8 775.44 380.165 773.627 380.165C771.723 380.165 769.909 380.687 768.187 381.729C766.464 382.727 764.877 383.951 763.427 385.401V401.721C763.427 402.175 763.268 402.583 762.951 402.945C762.633 403.263 762.225 403.421 761.727 403.421C761.273 403.421 760.865 403.263 760.503 402.945C760.185 402.583 760.027 402.175 760.027 401.721V378.465C760.027 377.967 760.185 377.559 760.503 377.241C760.865 376.924 761.273 376.765 761.727 376.765C762.225 376.765 762.633 376.924 762.951 377.241C763.268 377.559 763.427 377.967 763.427 378.465V380.913C764.968 379.689 766.577 378.692 768.255 377.921C769.932 377.151 771.723 376.765 773.627 376.765C775.349 376.765 776.913 377.105 778.319 377.785C779.724 378.465 780.835 379.644 781.651 381.321C782.512 382.953 782.943 385.22 782.943 388.121V401.721C782.943 402.175 782.784 402.583 782.467 402.945C782.149 403.263 781.741 403.421 781.243 403.421ZM799.063 415.729C798.61 415.729 798.202 415.548 797.839 415.185C797.522 414.868 797.363 414.483 797.363 414.029C797.363 413.576 797.522 413.168 797.839 412.805C798.202 412.488 798.61 412.329 799.063 412.329C803.914 412.329 807.45 411.06 809.671 408.521C811.938 406.028 813.071 402.719 813.071 398.593V398.321C811.575 399.727 809.943 400.792 808.175 401.517C806.407 402.243 804.594 402.605 802.735 402.605C800.877 402.605 799.063 402.197 797.295 401.381C795.573 400.565 794.145 399.273 793.011 397.505C791.923 395.737 791.379 393.471 791.379 390.705C791.379 387.849 792.037 385.379 793.351 383.293C794.666 381.208 796.366 379.599 798.451 378.465C800.582 377.332 802.781 376.765 805.047 376.765C806.634 376.765 808.039 376.901 809.263 377.173C810.533 377.445 811.802 377.831 813.071 378.329C813.162 377.831 813.366 377.445 813.683 377.173C814.001 376.901 814.363 376.765 814.771 376.765C815.27 376.765 815.678 376.924 815.995 377.241C816.313 377.559 816.471 377.967 816.471 378.465V398.593C816.471 403.761 815.089 407.909 812.323 411.037C809.558 414.165 805.138 415.729 799.063 415.729ZM802.735 399.205C804.685 399.205 806.566 398.707 808.379 397.709C810.193 396.667 811.757 395.171 813.071 393.221V382.069C811.666 381.435 810.374 380.959 809.195 380.641C808.017 380.324 806.634 380.165 805.047 380.165C803.325 380.165 801.67 380.596 800.083 381.457C798.497 382.319 797.205 383.543 796.207 385.129C795.255 386.716 794.779 388.575 794.779 390.705C794.779 392.655 795.165 394.264 795.935 395.533C796.706 396.803 797.703 397.732 798.927 398.321C800.151 398.911 801.421 399.205 802.735 399.205Z"/>
</mask>
<path d="M659.681 403.421C659.228 403.421 658.82 403.263 658.457 402.945C658.14 402.583 657.981 402.175 657.981 401.721V368.741C657.981 368.288 658.117 367.903 658.389 367.585C658.706 367.223 659.069 367.041 659.477 367.041H678.517C679.016 367.041 679.424 367.2 679.741 367.517C680.058 367.835 680.217 368.243 680.217 368.741C680.217 369.195 680.058 369.603 679.741 369.965C679.424 370.283 679.016 370.441 678.517 370.441H661.381V382.273H675.593C676.092 382.273 676.5 382.432 676.817 382.749C677.134 383.067 677.293 383.475 677.293 383.973C677.293 384.427 677.134 384.835 676.817 385.197C676.5 385.515 676.092 385.673 675.593 385.673H661.381V400.021H678.653C679.152 400.021 679.56 400.18 679.877 400.497C680.194 400.815 680.353 401.223 680.353 401.721C680.353 402.175 680.194 402.583 679.877 402.945C679.56 403.263 679.152 403.421 678.653 403.421H659.681ZM708.814 402.809C707.816 401.767 707.046 400.452 706.502 398.865C704.96 400.316 703.26 401.449 701.402 402.265C699.588 403.036 697.616 403.421 695.486 403.421C693.4 403.421 691.746 403.036 690.522 402.265C689.298 401.495 688.436 400.543 687.938 399.409C687.439 398.276 687.19 397.211 687.19 396.213C687.19 395.125 687.371 394.083 687.734 393.085C688.142 392.043 688.754 391.136 689.57 390.365C690.703 389.323 692.222 388.439 694.126 387.713C696.03 386.988 698.364 386.625 701.13 386.625C702.58 386.625 704.122 386.693 705.754 386.829C705.572 384.789 704.892 383.18 703.714 382.001C702.535 380.777 700.767 380.165 698.41 380.165C697.503 380.165 696.574 380.256 695.622 380.437C694.67 380.573 693.944 380.732 693.446 380.913C692.856 381.14 692.426 381.253 692.154 381.253C691.7 381.253 691.292 381.095 690.93 380.777C690.567 380.415 690.386 380.029 690.386 379.621C690.386 378.76 690.771 378.193 691.542 377.921C692.312 377.695 693.332 377.445 694.602 377.173C695.916 376.901 697.186 376.765 698.41 376.765C702.127 376.765 704.847 377.785 706.57 379.825C708.338 381.865 709.222 384.517 709.222 387.781V393.969C709.222 395.511 709.38 396.803 709.698 397.845C710.06 398.843 710.582 399.727 711.262 400.497C711.579 400.815 711.738 401.2 711.738 401.653C711.738 402.107 711.556 402.515 711.194 402.877C710.876 403.195 710.491 403.353 710.038 403.353C709.584 403.353 709.176 403.172 708.814 402.809ZM695.486 400.021C697.435 400.021 699.294 399.591 701.062 398.729C702.83 397.823 704.416 396.463 705.822 394.649V390.229C704.144 390.093 702.58 390.025 701.13 390.025C696.823 390.025 693.786 390.909 692.018 392.677C691.474 393.221 691.088 393.788 690.862 394.377C690.68 394.967 690.59 395.579 690.59 396.213C690.59 397.12 690.975 397.981 691.746 398.797C692.562 399.613 693.808 400.021 695.486 400.021ZM733.375 403.421C729.204 403.421 726.235 402.56 724.467 400.837C722.699 399.069 721.815 396.712 721.815 393.765V380.165H717.531C717.077 380.165 716.669 380.007 716.307 379.689C715.989 379.327 715.831 378.919 715.831 378.465C715.831 377.967 715.989 377.559 716.307 377.241C716.669 376.924 717.077 376.765 717.531 376.765H721.815V369.897C721.815 369.399 721.973 368.991 722.291 368.673C722.653 368.356 723.061 368.197 723.515 368.197C724.013 368.197 724.421 368.356 724.739 368.673C725.056 368.991 725.215 369.399 725.215 369.897V376.765H734.259C734.757 376.765 735.165 376.924 735.483 377.241C735.8 377.559 735.959 377.967 735.959 378.465C735.959 378.919 735.8 379.327 735.483 379.689C735.165 380.007 734.757 380.165 734.259 380.165H725.215V393.765C725.215 397.936 727.935 400.021 733.375 400.021C733.873 400.021 734.282 400.203 734.599 400.565C734.916 400.883 735.075 401.268 735.075 401.721C735.075 402.175 734.893 402.583 734.531 402.945C734.213 403.263 733.828 403.421 733.375 403.421ZM746.262 362.825C747.033 362.825 747.69 363.143 748.234 363.777C748.778 364.367 749.05 365.183 749.05 366.225C749.05 367.268 748.778 368.061 748.234 368.605C747.69 369.149 747.055 369.421 746.33 369.421C745.514 369.421 744.811 369.149 744.222 368.605C743.678 368.016 743.406 367.223 743.406 366.225C743.406 365.183 743.678 364.367 744.222 363.777C744.766 363.143 745.446 362.825 746.262 362.825ZM744.63 378.465C744.63 377.967 744.789 377.559 745.106 377.241C745.469 376.924 745.877 376.765 746.33 376.765C746.829 376.765 747.237 376.924 747.554 377.241C747.871 377.559 748.03 377.967 748.03 378.465V401.721C748.03 402.175 747.871 402.583 747.554 402.945C747.237 403.263 746.829 403.421 746.33 403.421C745.877 403.421 745.469 403.263 745.106 402.945C744.789 402.583 744.63 402.175 744.63 401.721V378.465ZM781.243 403.421C780.789 403.421 780.381 403.263 780.019 402.945C779.701 402.583 779.543 402.175 779.543 401.721V388.121C779.543 385.311 778.999 383.293 777.911 382.069C776.868 380.8 775.44 380.165 773.627 380.165C771.723 380.165 769.909 380.687 768.187 381.729C766.464 382.727 764.877 383.951 763.427 385.401V401.721C763.427 402.175 763.268 402.583 762.951 402.945C762.633 403.263 762.225 403.421 761.727 403.421C761.273 403.421 760.865 403.263 760.503 402.945C760.185 402.583 760.027 402.175 760.027 401.721V378.465C760.027 377.967 760.185 377.559 760.503 377.241C760.865 376.924 761.273 376.765 761.727 376.765C762.225 376.765 762.633 376.924 762.951 377.241C763.268 377.559 763.427 377.967 763.427 378.465V380.913C764.968 379.689 766.577 378.692 768.255 377.921C769.932 377.151 771.723 376.765 773.627 376.765C775.349 376.765 776.913 377.105 778.319 377.785C779.724 378.465 780.835 379.644 781.651 381.321C782.512 382.953 782.943 385.22 782.943 388.121V401.721C782.943 402.175 782.784 402.583 782.467 402.945C782.149 403.263 781.741 403.421 781.243 403.421ZM799.063 415.729C798.61 415.729 798.202 415.548 797.839 415.185C797.522 414.868 797.363 414.483 797.363 414.029C797.363 413.576 797.522 413.168 797.839 412.805C798.202 412.488 798.61 412.329 799.063 412.329C803.914 412.329 807.45 411.06 809.671 408.521C811.938 406.028 813.071 402.719 813.071 398.593V398.321C811.575 399.727 809.943 400.792 808.175 401.517C806.407 402.243 804.594 402.605 802.735 402.605C800.877 402.605 799.063 402.197 797.295 401.381C795.573 400.565 794.145 399.273 793.011 397.505C791.923 395.737 791.379 393.471 791.379 390.705C791.379 387.849 792.037 385.379 793.351 383.293C794.666 381.208 796.366 379.599 798.451 378.465C800.582 377.332 802.781 376.765 805.047 376.765C806.634 376.765 808.039 376.901 809.263 377.173C810.533 377.445 811.802 377.831 813.071 378.329C813.162 377.831 813.366 377.445 813.683 377.173C814.001 376.901 814.363 376.765 814.771 376.765C815.27 376.765 815.678 376.924 815.995 377.241C816.313 377.559 816.471 377.967 816.471 378.465V398.593C816.471 403.761 815.089 407.909 812.323 411.037C809.558 414.165 805.138 415.729 799.063 415.729ZM802.735 399.205C804.685 399.205 806.566 398.707 808.379 397.709C810.193 396.667 811.757 395.171 813.071 393.221V382.069C811.666 381.435 810.374 380.959 809.195 380.641C808.017 380.324 806.634 380.165 805.047 380.165C803.325 380.165 801.67 380.596 800.083 381.457C798.497 382.319 797.205 383.543 796.207 385.129C795.255 386.716 794.779 388.575 794.779 390.705C794.779 392.655 795.165 394.264 795.935 395.533C796.706 396.803 797.703 397.732 798.927 398.321C800.151 398.911 801.421 399.205 802.735 399.205Z" fill="#3C3C3C"/>
<path d="M658.457 402.945L658.156 403.209L658.173 403.229L658.193 403.246L658.457 402.945ZM658.389 367.585L658.088 367.322L658.085 367.325L658.389 367.585ZM679.741 367.517L679.458 367.8L679.458 367.8L679.741 367.517ZM679.741 369.965L680.024 370.248L680.033 370.239L680.042 370.229L679.741 369.965ZM661.381 370.441V370.041H660.981V370.441H661.381ZM661.381 382.273H660.981V382.673H661.381V382.273ZM676.817 385.197L677.1 385.48L677.109 385.471L677.118 385.461L676.817 385.197ZM661.381 385.673V385.273H660.981V385.673H661.381ZM661.381 400.021H660.981V400.421H661.381V400.021ZM679.877 402.945L680.16 403.228L680.169 403.219L680.178 403.209L679.877 402.945ZM659.681 403.021C659.331 403.021 659.015 402.902 658.72 402.644L658.193 403.246C658.624 403.623 659.124 403.821 659.681 403.821V403.021ZM658.758 402.682C658.5 402.387 658.381 402.071 658.381 401.721H657.581C657.581 402.278 657.779 402.778 658.156 403.209L658.758 402.682ZM658.381 401.721V368.741H657.581V401.721H658.381ZM658.381 368.741C658.381 368.375 658.488 368.084 658.693 367.846L658.085 367.325C657.746 367.721 657.581 368.201 657.581 368.741H658.381ZM658.69 367.849C658.946 367.556 659.205 367.441 659.477 367.441V366.641C658.932 366.641 658.466 366.89 658.088 367.322L658.69 367.849ZM659.477 367.441H678.517V366.641H659.477V367.441ZM678.517 367.441C678.922 367.441 679.224 367.566 679.458 367.8L680.024 367.234C679.623 366.833 679.109 366.641 678.517 366.641V367.441ZM679.458 367.8C679.692 368.034 679.817 368.336 679.817 368.741H680.617C680.617 368.149 680.425 367.635 680.024 367.234L679.458 367.8ZM679.817 368.741C679.817 369.091 679.698 369.407 679.44 369.702L680.042 370.229C680.419 369.798 680.617 369.298 680.617 368.741H679.817ZM679.458 369.682C679.224 369.916 678.922 370.041 678.517 370.041V370.841C679.109 370.841 679.623 370.649 680.024 370.248L679.458 369.682ZM678.517 370.041H661.381V370.841H678.517V370.041ZM660.981 370.441V382.273H661.781V370.441H660.981ZM661.381 382.673H675.593V381.873H661.381V382.673ZM675.593 382.673C675.998 382.673 676.3 382.798 676.534 383.032L677.1 382.466C676.699 382.065 676.185 381.873 675.593 381.873V382.673ZM676.534 383.032C676.768 383.266 676.893 383.568 676.893 383.973H677.693C677.693 383.381 677.501 382.867 677.1 382.466L676.534 383.032ZM676.893 383.973C676.893 384.323 676.774 384.639 676.516 384.934L677.118 385.461C677.495 385.03 677.693 384.53 677.693 383.973H676.893ZM676.534 384.914C676.3 385.148 675.998 385.273 675.593 385.273V386.073C676.185 386.073 676.699 385.881 677.1 385.48L676.534 384.914ZM675.593 385.273H661.381V386.073H675.593V385.273ZM660.981 385.673V400.021H661.781V385.673H660.981ZM661.381 400.421H678.653V399.621H661.381V400.421ZM678.653 400.421C679.058 400.421 679.36 400.546 679.594 400.78L680.16 400.214C679.759 399.813 679.245 399.621 678.653 399.621V400.421ZM679.594 400.78C679.828 401.014 679.953 401.316 679.953 401.721H680.753C680.753 401.129 680.561 400.615 680.16 400.214L679.594 400.78ZM679.953 401.721C679.953 402.071 679.834 402.387 679.576 402.682L680.178 403.209C680.555 402.778 680.753 402.278 680.753 401.721H679.953ZM679.594 402.662C679.36 402.896 679.058 403.021 678.653 403.021V403.821C679.245 403.821 679.759 403.629 680.16 403.228L679.594 402.662ZM678.653 403.021H659.681V403.821H678.653V403.021ZM708.814 402.809L708.524 403.086L708.531 403.092L708.814 402.809ZM706.502 398.865L706.88 398.736L706.679 398.149L706.227 398.574L706.502 398.865ZM701.402 402.265L701.558 402.633L701.562 402.632L701.402 402.265ZM690.522 402.265L690.735 401.927L690.735 401.927L690.522 402.265ZM687.938 399.409L688.304 399.248L688.304 399.248L687.938 399.409ZM687.734 393.085L687.361 392.939L687.358 392.949L687.734 393.085ZM689.57 390.365L689.299 390.071L689.295 390.074L689.57 390.365ZM694.126 387.713L694.268 388.087L694.268 388.087L694.126 387.713ZM705.754 386.829L705.72 387.228L706.194 387.267L706.152 386.794L705.754 386.829ZM703.714 382.001L703.425 382.279L703.431 382.284L703.714 382.001ZM695.622 380.437L695.678 380.833L695.687 380.832L695.696 380.83L695.622 380.437ZM693.446 380.913L693.309 380.537L693.302 380.54L693.446 380.913ZM690.93 380.777L690.647 381.06L690.656 381.07L690.666 381.078L690.93 380.777ZM691.542 377.921L691.429 377.538L691.418 377.541L691.408 377.544L691.542 377.921ZM694.602 377.173L694.521 376.782L694.518 376.782L694.602 377.173ZM706.57 379.825L706.264 380.083L706.267 380.087L706.57 379.825ZM709.698 397.845L709.315 397.962L709.318 397.972L709.322 397.982L709.698 397.845ZM711.262 400.497L710.962 400.762L710.97 400.771L710.979 400.78L711.262 400.497ZM711.194 402.877L711.476 403.16L711.476 403.16L711.194 402.877ZM701.062 398.729L701.237 399.089L701.244 399.085L701.062 398.729ZM705.822 394.649L706.138 394.894L706.222 394.786V394.649H705.822ZM705.822 390.229H706.222V389.86L705.854 389.831L705.822 390.229ZM692.018 392.677L692.3 392.96L692.3 392.96L692.018 392.677ZM690.862 394.377L690.488 394.234L690.483 394.246L690.479 394.26L690.862 394.377ZM691.746 398.797L691.455 399.072L691.463 399.08L691.746 398.797ZM709.103 402.533C708.151 401.538 707.408 400.276 706.88 398.736L706.123 398.995C706.683 400.628 707.481 401.995 708.524 403.086L709.103 402.533ZM706.227 398.574C704.718 399.995 703.056 401.102 701.241 401.899L701.562 402.632C703.465 401.796 705.203 400.637 706.776 399.157L706.227 398.574ZM701.245 401.897C699.485 402.645 697.567 403.021 695.486 403.021V403.821C697.666 403.821 699.691 403.427 701.558 402.633L701.245 401.897ZM695.486 403.021C693.444 403.021 691.873 402.643 690.735 401.927L690.308 402.604C691.619 403.429 693.356 403.821 695.486 403.821V403.021ZM690.735 401.927C689.567 401.191 688.765 400.297 688.304 399.248L687.571 399.57C688.107 400.788 689.029 401.798 690.308 402.604L690.735 401.927ZM688.304 399.248C687.822 398.154 687.59 397.143 687.59 396.213H686.79C686.79 397.278 687.056 398.398 687.571 399.57L688.304 399.248ZM687.59 396.213C687.59 395.171 687.763 394.174 688.109 393.222L687.358 392.949C686.979 393.991 686.79 395.08 686.79 396.213H687.59ZM688.106 393.231C688.492 392.243 689.071 391.386 689.844 390.656L689.295 390.074C688.436 390.886 687.791 391.842 687.361 392.94L688.106 393.231ZM689.84 390.66C690.926 389.66 692.397 388.8 694.268 388.087L693.983 387.339C692.046 388.077 690.479 388.985 689.299 390.071L689.84 390.66ZM694.268 388.087C696.113 387.384 698.397 387.025 701.13 387.025V386.225C698.332 386.225 695.946 386.592 693.983 387.339L694.268 388.087ZM701.13 387.025C702.568 387.025 704.098 387.093 705.72 387.228L705.787 386.431C704.145 386.294 702.593 386.225 701.13 386.225V387.025ZM706.152 386.794C705.964 384.682 705.256 382.978 703.996 381.718L703.431 382.284C704.529 383.382 705.18 384.896 705.355 386.865L706.152 386.794ZM704.002 381.724C702.722 380.395 700.832 379.765 698.41 379.765V380.565C700.701 380.565 702.348 381.159 703.425 382.279L704.002 381.724ZM698.41 379.765C697.476 379.765 696.522 379.859 695.547 380.044L695.696 380.83C696.625 380.653 697.53 380.565 698.41 380.565V379.765ZM695.565 380.041C694.604 380.179 693.846 380.342 693.309 380.537L693.582 381.289C694.042 381.122 694.735 380.968 695.678 380.833L695.565 380.041ZM693.302 380.54C692.714 380.766 692.344 380.853 692.154 380.853V381.653C692.507 381.653 692.999 381.514 693.589 381.287L693.302 380.54ZM692.154 380.853C691.804 380.853 691.488 380.734 691.193 380.476L690.666 381.078C691.097 381.455 691.597 381.653 692.154 381.653V380.853ZM691.212 380.494C690.904 380.186 690.786 379.898 690.786 379.621H689.986C689.986 380.161 690.229 380.643 690.647 381.06L691.212 380.494ZM690.786 379.621C690.786 379.25 690.868 378.977 691.005 378.775C691.141 378.575 691.354 378.412 691.675 378.298L691.408 377.544C690.959 377.703 690.593 377.959 690.344 378.325C690.096 378.69 689.986 379.131 689.986 379.621H690.786ZM691.654 378.305C692.412 378.082 693.421 377.835 694.685 377.564L694.518 376.782C693.244 377.055 692.213 377.307 691.429 377.538L691.654 378.305ZM694.683 377.565C695.973 377.298 697.215 377.165 698.41 377.165V376.365C697.156 376.365 695.859 376.505 694.521 376.782L694.683 377.565ZM698.41 377.165C702.057 377.165 704.644 378.165 706.264 380.083L706.875 379.567C705.05 377.406 702.196 376.365 698.41 376.365V377.165ZM706.267 380.087C707.96 382.04 708.822 384.592 708.822 387.781H709.622C709.622 384.442 708.715 381.69 706.872 379.563L706.267 380.087ZM708.822 387.781V393.969H709.622V387.781H708.822ZM708.822 393.969C708.822 395.535 708.982 396.869 709.315 397.962L710.08 397.729C709.778 396.736 709.622 395.486 709.622 393.969H708.822ZM709.322 397.982C709.701 399.025 710.247 399.953 710.962 400.762L711.561 400.233C710.916 399.501 710.42 398.66 710.073 397.709L709.322 397.982ZM710.979 400.78C711.22 401.022 711.338 401.305 711.338 401.653H712.138C712.138 401.095 711.938 400.608 711.544 400.214L710.979 400.78ZM711.338 401.653C711.338 401.986 711.209 402.296 710.911 402.594L711.476 403.16C711.903 402.733 712.138 402.227 712.138 401.653H711.338ZM710.911 402.594C710.669 402.836 710.386 402.953 710.038 402.953V403.753C710.596 403.753 711.083 403.553 711.476 403.16L710.911 402.594ZM710.038 402.953C709.705 402.953 709.395 402.825 709.096 402.526L708.531 403.092C708.958 403.519 709.464 403.753 710.038 403.753V402.953ZM695.486 400.421C697.496 400.421 699.415 399.977 701.237 399.089L700.886 398.37C699.172 399.205 697.374 399.621 695.486 399.621V400.421ZM701.244 399.085C703.072 398.148 704.702 396.747 706.138 394.894L705.505 394.404C704.13 396.178 702.587 397.497 700.879 398.373L701.244 399.085ZM706.222 394.649V390.229H705.422V394.649H706.222ZM705.854 389.831C704.167 389.694 702.593 389.625 701.13 389.625V390.425C702.568 390.425 704.121 390.493 705.789 390.628L705.854 389.831ZM701.13 389.625C696.788 389.625 693.616 390.513 691.735 392.394L692.3 392.96C693.955 391.306 696.858 390.425 701.13 390.425V389.625ZM691.735 392.394C691.16 392.97 690.739 393.582 690.488 394.234L691.235 394.521C691.438 393.994 691.788 393.473 692.3 392.96L691.735 392.394ZM690.479 394.26C690.286 394.888 690.19 395.54 690.19 396.213H690.99C690.99 395.617 691.075 395.045 691.244 394.495L690.479 394.26ZM690.19 396.213C690.19 397.245 690.631 398.2 691.455 399.072L692.036 398.523C691.318 397.762 690.99 396.995 690.99 396.213H690.19ZM691.463 399.08C692.382 399.999 693.75 400.421 695.486 400.421V399.621C693.866 399.621 692.741 399.227 692.028 398.514L691.463 399.08ZM724.467 400.837L724.184 401.12L724.188 401.124L724.467 400.837ZM721.815 380.165H722.215V379.765H721.815V380.165ZM716.307 379.689L716.006 379.953L716.023 379.973L716.043 379.99L716.307 379.689ZM716.307 377.241L716.043 376.94L716.033 376.949L716.024 376.958L716.307 377.241ZM721.815 376.765V377.165H722.215V376.765H721.815ZM722.291 368.673L722.027 368.372L722.017 368.381L722.008 368.39L722.291 368.673ZM724.739 368.673L725.022 368.39L725.022 368.39L724.739 368.673ZM725.215 376.765H724.815V377.165H725.215V376.765ZM735.483 379.689L735.766 379.972L735.775 379.963L735.784 379.953L735.483 379.689ZM725.215 380.165V379.765H724.815V380.165H725.215ZM734.599 400.565L734.298 400.829L734.307 400.839L734.316 400.848L734.599 400.565ZM734.531 402.945L734.248 402.662L734.248 402.662L734.531 402.945ZM733.375 403.021C729.241 403.021 726.402 402.164 724.746 400.551L724.188 401.124C726.068 402.956 729.167 403.821 733.375 403.821V403.021ZM724.75 400.554C723.07 398.875 722.215 396.626 722.215 393.765H721.415C721.415 396.798 722.328 399.264 724.184 401.12L724.75 400.554ZM722.215 393.765V380.165H721.415V393.765H722.215ZM721.815 379.765H717.531V380.565H721.815V379.765ZM717.531 379.765C717.181 379.765 716.865 379.646 716.57 379.388L716.043 379.99C716.474 380.367 716.974 380.565 717.531 380.565V379.765ZM716.608 379.426C716.35 379.131 716.231 378.815 716.231 378.465H715.431C715.431 379.022 715.629 379.522 716.006 379.953L716.608 379.426ZM716.231 378.465C716.231 378.06 716.356 377.758 716.59 377.524L716.024 376.958C715.623 377.359 715.431 377.873 715.431 378.465H716.231ZM716.57 377.542C716.865 377.284 717.181 377.165 717.531 377.165V376.365C716.974 376.365 716.474 376.563 716.043 376.94L716.57 377.542ZM717.531 377.165H721.815V376.365H717.531V377.165ZM722.215 376.765V369.897H721.415V376.765H722.215ZM722.215 369.897C722.215 369.492 722.34 369.19 722.574 368.956L722.008 368.39C721.607 368.791 721.415 369.305 721.415 369.897H722.215ZM722.554 368.974C722.849 368.716 723.165 368.597 723.515 368.597V367.797C722.958 367.797 722.458 367.995 722.027 368.372L722.554 368.974ZM723.515 368.597C723.92 368.597 724.222 368.722 724.456 368.956L725.022 368.39C724.621 367.989 724.107 367.797 723.515 367.797V368.597ZM724.456 368.956C724.69 369.19 724.815 369.492 724.815 369.897H725.615C725.615 369.305 725.423 368.791 725.022 368.39L724.456 368.956ZM724.815 369.897V376.765H725.615V369.897H724.815ZM725.215 377.165H734.259V376.365H725.215V377.165ZM734.259 377.165C734.664 377.165 734.966 377.29 735.2 377.524L735.766 376.958C735.365 376.557 734.851 376.365 734.259 376.365V377.165ZM735.2 377.524C735.434 377.758 735.559 378.06 735.559 378.465H736.359C736.359 377.873 736.167 377.359 735.766 376.958L735.2 377.524ZM735.559 378.465C735.559 378.815 735.44 379.131 735.182 379.426L735.784 379.953C736.161 379.522 736.359 379.022 736.359 378.465H735.559ZM735.2 379.406C734.966 379.64 734.664 379.765 734.259 379.765V380.565C734.851 380.565 735.365 380.373 735.766 379.972L735.2 379.406ZM734.259 379.765H725.215V380.565H734.259V379.765ZM724.815 380.165V393.765H725.615V380.165H724.815ZM724.815 393.765C724.815 395.945 725.531 397.64 727.011 398.775C728.472 399.894 730.615 400.421 733.375 400.421V399.621C730.695 399.621 728.758 399.106 727.498 398.14C726.259 397.189 725.615 395.756 725.615 393.765H724.815ZM733.375 400.421C733.763 400.421 734.059 400.556 734.298 400.829L734.9 400.302C734.504 399.849 733.984 399.621 733.375 399.621V400.421ZM734.316 400.848C734.557 401.09 734.675 401.373 734.675 401.721H735.475C735.475 401.163 735.275 400.676 734.882 400.282L734.316 400.848ZM734.675 401.721C734.675 402.054 734.546 402.364 734.248 402.662L734.814 403.228C735.241 402.801 735.475 402.295 735.475 401.721H734.675ZM734.248 402.662C734.007 402.904 733.723 403.021 733.375 403.021V403.821C733.933 403.821 734.42 403.621 734.814 403.228L734.248 402.662ZM748.234 363.777L747.93 364.038L747.935 364.043L747.94 364.049L748.234 363.777ZM748.234 368.605L748.517 368.888L748.517 368.888L748.234 368.605ZM744.222 368.605L743.928 368.877L743.939 368.888L743.951 368.899L744.222 368.605ZM744.222 363.777L744.516 364.049L744.521 364.043L744.526 364.038L744.222 363.777ZM745.106 377.241L744.842 376.94L744.832 376.949L744.823 376.958L745.106 377.241ZM747.554 402.945L747.837 403.228L747.846 403.219L747.855 403.209L747.554 402.945ZM745.106 402.945L744.805 403.209L744.822 403.229L744.842 403.246L745.106 402.945ZM746.262 363.225C746.905 363.225 747.455 363.483 747.93 364.038L748.538 363.517C747.925 362.802 747.16 362.425 746.262 362.425V363.225ZM747.94 364.049C748.397 364.544 748.65 365.252 748.65 366.225H749.45C749.45 365.113 749.159 364.189 748.528 363.506L747.94 364.049ZM748.65 366.225C748.65 367.201 748.397 367.877 747.951 368.322L748.517 368.888C749.159 368.246 749.45 367.335 749.45 366.225H748.65ZM747.951 368.322C747.477 368.796 746.942 369.021 746.33 369.021V369.821C747.168 369.821 747.903 369.502 748.517 368.888L747.951 368.322ZM746.33 369.021C745.613 369.021 745.007 368.786 744.493 368.311L743.951 368.899C744.615 369.513 745.415 369.821 746.33 369.821V369.021ZM744.516 368.334C744.056 367.835 743.806 367.148 743.806 366.225H743.006C743.006 367.298 743.3 368.196 743.928 368.877L744.516 368.334ZM743.806 366.225C743.806 365.252 744.059 364.544 744.516 364.049L743.928 363.506C743.297 364.189 743.006 365.113 743.006 366.225H743.806ZM744.526 364.038C744.996 363.489 745.566 363.225 746.262 363.225V362.425C745.326 362.425 744.536 362.796 743.918 363.517L744.526 364.038ZM745.03 378.465C745.03 378.06 745.155 377.758 745.389 377.524L744.823 376.958C744.422 377.359 744.23 377.873 744.23 378.465H745.03ZM745.369 377.542C745.664 377.284 745.98 377.165 746.33 377.165V376.365C745.773 376.365 745.273 376.563 744.842 376.94L745.369 377.542ZM746.33 377.165C746.735 377.165 747.037 377.29 747.271 377.524L747.837 376.958C747.436 376.557 746.922 376.365 746.33 376.365V377.165ZM747.271 377.524C747.505 377.758 747.63 378.06 747.63 378.465H748.43C748.43 377.873 748.238 377.359 747.837 376.958L747.271 377.524ZM747.63 378.465V401.721H748.43V378.465H747.63ZM747.63 401.721C747.63 402.071 747.511 402.387 747.253 402.682L747.855 403.209C748.232 402.778 748.43 402.278 748.43 401.721H747.63ZM747.271 402.662C747.037 402.896 746.735 403.021 746.33 403.021V403.821C746.922 403.821 747.436 403.629 747.837 403.228L747.271 402.662ZM746.33 403.021C745.98 403.021 745.664 402.902 745.369 402.644L744.842 403.246C745.273 403.623 745.773 403.821 746.33 403.821V403.021ZM745.407 402.682C745.149 402.387 745.03 402.071 745.03 401.721H744.23C744.23 402.278 744.428 402.778 744.805 403.209L745.407 402.682ZM745.03 401.721V378.465H744.23V401.721H745.03ZM780.019 402.945L779.718 403.209L779.735 403.229L779.755 403.246L780.019 402.945ZM777.911 382.069L777.601 382.323L777.606 382.329L777.612 382.335L777.911 382.069ZM768.187 381.729L768.387 382.076L768.394 382.071L768.187 381.729ZM763.427 385.401L763.144 385.118L763.027 385.236V385.401H763.427ZM762.951 402.945L763.233 403.228L763.243 403.219L763.252 403.209L762.951 402.945ZM760.503 402.945L760.202 403.209L760.219 403.229L760.239 403.246L760.503 402.945ZM760.503 377.241L760.239 376.94L760.229 376.949L760.22 376.958L760.503 377.241ZM762.951 377.241L763.233 376.958L762.951 377.241ZM763.427 380.913H763.027V381.742L763.675 381.227L763.427 380.913ZM768.255 377.921L768.088 377.558L768.088 377.558L768.255 377.921ZM778.319 377.785L778.144 378.145L778.144 378.145L778.319 377.785ZM781.651 381.321L781.291 381.496L781.297 381.508L781.651 381.321ZM782.467 402.945L782.749 403.228L782.759 403.219L782.768 403.209L782.467 402.945ZM781.243 403.021C780.893 403.021 780.577 402.902 780.282 402.644L779.755 403.246C780.186 403.623 780.686 403.821 781.243 403.821V403.021ZM780.32 402.682C780.062 402.387 779.943 402.071 779.943 401.721H779.143C779.143 402.278 779.341 402.778 779.718 403.209L780.32 402.682ZM779.943 401.721V388.121H779.143V401.721H779.943ZM779.943 388.121C779.943 385.277 779.395 383.138 778.21 381.804L777.612 382.335C778.602 383.449 779.143 385.344 779.143 388.121H779.943ZM778.22 381.815C777.093 380.443 775.546 379.765 773.627 379.765V380.565C775.334 380.565 776.643 381.157 777.601 382.323L778.22 381.815ZM773.627 379.765C771.645 379.765 769.761 380.309 767.979 381.387L768.394 382.071C770.058 381.064 771.8 380.565 773.627 380.565V379.765ZM767.986 381.383C766.232 382.398 764.618 383.644 763.144 385.118L763.709 385.684C765.136 384.257 766.695 383.055 768.387 382.075L767.986 381.383ZM763.027 385.401V401.721H763.827V385.401H763.027ZM763.027 401.721C763.027 402.071 762.907 402.387 762.65 402.682L763.252 403.209C763.628 402.778 763.827 402.278 763.827 401.721H763.027ZM762.668 402.662C762.434 402.896 762.132 403.021 761.727 403.021V403.821C762.318 403.821 762.832 403.629 763.233 403.228L762.668 402.662ZM761.727 403.021C761.377 403.021 761.061 402.902 760.766 402.644L760.239 403.246C760.67 403.623 761.17 403.821 761.727 403.821V403.021ZM760.804 402.682C760.546 402.387 760.427 402.071 760.427 401.721H759.627C759.627 402.278 759.825 402.778 760.202 403.209L760.804 402.682ZM760.427 401.721V378.465H759.627V401.721H760.427ZM760.427 378.465C760.427 378.06 760.552 377.758 760.785 377.524L760.22 376.958C759.819 377.359 759.627 377.873 759.627 378.465H760.427ZM760.766 377.542C761.061 377.284 761.377 377.165 761.727 377.165V376.365C761.17 376.365 760.67 376.563 760.239 376.94L760.766 377.542ZM761.727 377.165C762.132 377.165 762.434 377.29 762.668 377.524L763.233 376.958C762.832 376.557 762.318 376.365 761.727 376.365V377.165ZM762.668 377.524C762.901 377.758 763.027 378.06 763.027 378.465H763.827C763.827 377.873 763.634 377.359 763.233 376.958L762.668 377.524ZM763.027 378.465V380.913H763.827V378.465H763.027ZM763.675 381.227C765.193 380.021 766.775 379.041 768.422 378.285L768.088 377.558C766.379 378.343 764.743 379.357 763.178 380.6L763.675 381.227ZM768.422 378.285C770.045 377.539 771.778 377.165 773.627 377.165V376.365C771.667 376.365 769.819 376.762 768.088 377.558L768.422 378.285ZM773.627 377.165C775.295 377.165 776.799 377.494 778.144 378.145L778.493 377.425C777.028 376.716 775.403 376.365 773.627 376.365V377.165ZM778.144 378.145C779.454 378.779 780.506 379.883 781.291 381.496L782.01 381.146C781.163 379.404 779.994 378.152 778.493 377.425L778.144 378.145ZM781.297 381.508C782.115 383.059 782.543 385.251 782.543 388.121H783.343C783.343 385.188 782.909 382.848 782.004 381.135L781.297 381.508ZM782.543 388.121V401.721H783.343V388.121H782.543ZM782.543 401.721C782.543 402.071 782.423 402.387 782.166 402.682L782.768 403.209C783.144 402.778 783.343 402.278 783.343 401.721H782.543ZM782.184 402.662C781.95 402.896 781.648 403.021 781.243 403.021V403.821C781.834 403.821 782.348 403.629 782.749 403.228L782.184 402.662ZM797.839 412.805L797.576 412.504L797.556 412.522L797.538 412.542L797.839 412.805ZM809.671 408.521L809.375 408.252L809.37 408.258L809.671 408.521ZM813.071 398.321H813.471V397.397L812.797 398.03L813.071 398.321ZM808.175 401.517L808.327 401.887L808.327 401.887L808.175 401.517ZM797.295 401.381L797.124 401.743L797.128 401.744L797.295 401.381ZM793.011 397.505L792.671 397.715L792.675 397.721L793.011 397.505ZM793.351 383.293L793.013 383.08L793.013 383.08L793.351 383.293ZM798.451 378.465L798.264 378.112L798.26 378.114L798.451 378.465ZM809.263 377.173L809.177 377.564L809.18 377.564L809.263 377.173ZM813.071 378.329L812.925 378.702L813.378 378.879L813.465 378.401L813.071 378.329ZM813.683 377.173L813.944 377.477L813.944 377.477L813.683 377.173ZM812.323 411.037L812.623 411.302L812.623 411.302L812.323 411.037ZM808.379 397.709L808.572 398.06L808.579 398.056L808.379 397.709ZM813.071 393.221L813.403 393.445L813.471 393.344V393.221H813.071ZM813.071 382.069H813.471V381.811L813.236 381.705L813.071 382.069ZM800.083 381.457L799.893 381.106L799.893 381.106L800.083 381.457ZM796.207 385.129L795.869 384.916L795.864 384.923L796.207 385.129ZM795.935 395.533L795.593 395.741L795.593 395.741L795.935 395.533ZM798.927 398.321L799.101 397.961L799.101 397.961L798.927 398.321ZM799.063 415.329C798.73 415.329 798.421 415.201 798.122 414.902L797.557 415.468C797.983 415.895 798.49 416.129 799.063 416.129V415.329ZM798.122 414.902C797.881 414.661 797.763 414.378 797.763 414.029H796.963C796.963 414.587 797.163 415.075 797.557 415.468L798.122 414.902ZM797.763 414.029C797.763 413.679 797.882 413.363 798.14 413.069L797.538 412.542C797.162 412.972 796.963 413.473 796.963 414.029H797.763ZM798.103 413.106C798.398 412.848 798.713 412.729 799.063 412.729V411.929C798.507 411.929 798.007 412.127 797.576 412.504L798.103 413.106ZM799.063 412.729C803.978 412.729 807.647 411.443 809.972 408.785L809.37 408.258C807.253 410.677 803.851 411.929 799.063 411.929V412.729ZM809.967 408.79C812.315 406.208 813.471 402.795 813.471 398.593H812.671C812.671 402.642 811.561 405.848 809.375 408.252L809.967 408.79ZM813.471 398.593V398.321H812.671V398.593H813.471ZM812.797 398.03C811.334 399.404 809.743 400.442 808.024 401.147L808.327 401.887C810.144 401.142 811.816 400.049 813.345 398.613L812.797 398.03ZM808.024 401.147C806.302 401.853 804.54 402.205 802.735 402.205V403.005C804.648 403.005 806.512 402.632 808.327 401.887L808.024 401.147ZM802.735 402.205C800.937 402.205 799.181 401.811 797.463 401.018L797.128 401.744C798.946 402.584 800.816 403.005 802.735 403.005V402.205ZM797.467 401.02C795.818 400.239 794.445 399.001 793.348 397.289L792.675 397.721C793.844 399.546 795.327 400.891 797.124 401.743L797.467 401.02ZM793.352 397.296C792.314 395.608 791.779 393.42 791.779 390.705H790.979C790.979 393.521 791.533 395.866 792.671 397.715L793.352 397.296ZM791.779 390.705C791.779 387.913 792.421 385.518 793.69 383.507L793.013 383.08C791.652 385.239 790.979 387.786 790.979 390.705H791.779ZM793.69 383.507C794.969 381.477 796.62 379.916 798.642 378.817L798.26 378.114C796.113 379.281 794.363 380.939 793.013 383.08L793.69 383.507ZM798.639 378.818C800.716 377.714 802.85 377.165 805.047 377.165V376.365C802.711 376.365 800.448 376.95 798.264 378.112L798.639 378.818ZM805.047 377.165C806.612 377.165 807.987 377.299 809.177 377.564L809.35 376.783C808.091 376.503 806.656 376.365 805.047 376.365V377.165ZM809.18 377.564C810.427 377.832 811.675 378.21 812.925 378.702L813.218 377.957C811.929 377.451 810.639 377.059 809.347 376.782L809.18 377.564ZM813.465 378.401C813.543 377.973 813.71 377.677 813.944 377.477L813.423 376.87C813.022 377.213 812.781 377.689 812.678 378.258L813.465 378.401ZM813.944 377.477C814.19 377.265 814.461 377.165 814.771 377.165V376.365C814.265 376.365 813.811 376.537 813.423 376.87L813.944 377.477ZM814.771 377.165C815.177 377.165 815.479 377.29 815.713 377.524L816.278 376.958C815.877 376.557 815.363 376.365 814.771 376.365V377.165ZM815.713 377.524C815.946 377.758 816.071 378.06 816.071 378.465H816.871C816.871 377.873 816.679 377.359 816.278 376.958L815.713 377.524ZM816.071 378.465V398.593H816.871V378.465H816.071ZM816.071 398.593C816.071 403.688 814.71 407.734 812.024 410.772L812.623 411.302C815.467 408.085 816.871 403.835 816.871 398.593H816.071ZM812.024 410.772C809.364 413.781 805.077 415.329 799.063 415.329V416.129C805.199 416.129 809.753 414.549 812.623 411.302L812.024 410.772ZM802.735 399.605C804.756 399.605 806.704 399.087 808.572 398.06L808.187 397.359C806.429 398.326 804.613 398.805 802.735 398.805V399.605ZM808.579 398.056C810.451 396.979 812.058 395.439 813.403 393.445L812.74 392.998C811.455 394.903 809.934 396.354 808.18 397.363L808.579 398.056ZM813.471 393.221V382.069H812.671V393.221H813.471ZM813.236 381.705C811.816 381.063 810.503 380.579 809.299 380.255L809.091 381.028C810.245 381.338 811.516 381.806 812.907 382.434L813.236 381.705ZM809.299 380.255C808.078 379.926 806.659 379.765 805.047 379.765V380.565C806.609 380.565 807.955 380.722 809.091 381.028L809.299 380.255ZM805.047 379.765C803.255 379.765 801.535 380.214 799.893 381.106L800.274 381.809C801.805 380.978 803.395 380.565 805.047 380.565V379.765ZM799.893 381.106C798.243 382.001 796.901 383.274 795.869 384.916L796.546 385.342C797.508 383.811 798.75 382.636 800.274 381.809L799.893 381.106ZM795.864 384.923C794.87 386.581 794.379 388.513 794.379 390.705H795.179C795.179 388.636 795.641 386.851 796.55 385.335L795.864 384.923ZM794.379 390.705C794.379 392.705 794.775 394.392 795.593 395.741L796.277 395.326C795.555 394.136 795.179 392.604 795.179 390.705H794.379ZM795.593 395.741C796.4 397.07 797.454 398.056 798.754 398.682L799.101 397.961C797.953 397.408 797.012 396.535 796.277 395.326L795.593 395.741ZM798.754 398.682C800.03 399.296 801.359 399.605 802.735 399.605V398.805C801.483 398.805 800.273 398.525 799.101 397.961L798.754 398.682Z" fill="#3C3C3C" mask="url(#path-15-outside-1_614_276)"/>
<mask id="path-17-outside-2_614_276" maskUnits="userSpaceOnUse" x="809.251" y="450.402" width="68" height="23" fill="black">
<rect fill="white" x="809.251" y="450.402" width="68" height="23"/>
<path d="M825.691 472.002C824.785 470.775 823.731 469.402 822.531 467.882C821.358 466.362 820.145 464.815 818.891 463.242C817.638 461.642 816.425 460.095 815.251 458.602C814.105 457.109 813.078 455.789 812.171 454.642V471.402C812.171 471.669 812.078 471.909 811.891 472.122C811.705 472.309 811.465 472.402 811.171 472.402C810.905 472.402 810.665 472.309 810.451 472.122C810.265 471.909 810.171 471.669 810.171 471.402V452.002C810.171 451.709 810.265 451.469 810.451 451.282C810.665 451.095 810.891 451.002 811.131 451.002C811.665 451.002 812.025 451.135 812.211 451.402C812.878 452.282 813.745 453.415 814.811 454.802C815.878 456.162 817.038 457.655 818.291 459.282C819.571 460.882 820.851 462.509 822.131 464.162C823.438 465.789 824.638 467.322 825.731 468.762V452.002C825.731 451.709 825.825 451.469 826.011 451.282C826.225 451.095 826.465 451.002 826.731 451.002C827.025 451.002 827.265 451.095 827.451 451.282C827.638 451.469 827.731 451.709 827.731 452.002V471.402C827.731 471.669 827.638 471.909 827.451 472.122C827.265 472.309 827.038 472.402 826.771 472.402C826.238 472.402 825.878 472.269 825.691 472.002ZM846.362 472.042C845.775 471.429 845.322 470.655 845.002 469.722C844.095 470.575 843.095 471.242 842.002 471.722C840.935 472.175 839.775 472.402 838.522 472.402C837.295 472.402 836.322 472.175 835.602 471.722C834.882 471.269 834.375 470.709 834.082 470.042C833.789 469.375 833.642 468.749 833.642 468.162C833.642 467.522 833.749 466.909 833.962 466.322C834.202 465.709 834.562 465.175 835.042 464.722C835.709 464.109 836.602 463.589 837.722 463.162C838.842 462.735 840.215 462.522 841.842 462.522C842.695 462.522 843.602 462.562 844.562 462.642C844.455 461.442 844.055 460.495 843.362 459.802C842.669 459.082 841.629 458.722 840.242 458.722C839.709 458.722 839.162 458.775 838.602 458.882C838.042 458.962 837.615 459.055 837.322 459.162C836.975 459.295 836.722 459.362 836.562 459.362C836.295 459.362 836.055 459.269 835.842 459.082C835.629 458.869 835.522 458.642 835.522 458.402C835.522 457.895 835.749 457.562 836.202 457.402C836.655 457.269 837.255 457.122 838.002 456.962C838.775 456.802 839.522 456.722 840.242 456.722C842.429 456.722 844.029 457.322 845.042 458.522C846.082 459.722 846.602 461.282 846.602 463.202V466.842C846.602 467.749 846.695 468.509 846.882 469.122C847.095 469.709 847.402 470.229 847.802 470.682C847.989 470.869 848.082 471.095 848.082 471.362C848.082 471.629 847.975 471.869 847.762 472.082C847.575 472.269 847.349 472.362 847.082 472.362C846.815 472.362 846.575 472.255 846.362 472.042ZM838.522 470.402C839.669 470.402 840.762 470.149 841.802 469.642C842.842 469.109 843.775 468.309 844.602 467.242V464.642C843.615 464.562 842.695 464.522 841.842 464.522C839.309 464.522 837.522 465.042 836.482 466.082C836.162 466.402 835.935 466.735 835.802 467.082C835.695 467.429 835.642 467.789 835.642 468.162C835.642 468.695 835.869 469.202 836.322 469.682C836.802 470.162 837.535 470.402 838.522 470.402ZM875.73 472.402C875.463 472.402 875.223 472.309 875.01 472.122C874.823 471.909 874.73 471.669 874.73 471.402V463.002C874.73 461.429 874.41 460.322 873.77 459.682C873.157 459.042 872.357 458.722 871.37 458.722C870.383 458.722 869.423 459.002 868.49 459.562C867.557 460.122 866.703 460.829 865.93 461.682V471.402C865.93 471.669 865.837 471.909 865.65 472.122C865.463 472.309 865.223 472.402 864.93 472.402C864.663 472.402 864.423 472.309 864.21 472.122C864.023 471.909 863.93 471.669 863.93 471.402V463.002C863.93 461.429 863.61 460.322 862.97 459.682C862.357 459.042 861.557 458.722 860.57 458.722C859.583 458.722 858.61 459.029 857.65 459.642C856.69 460.229 855.823 460.949 855.05 461.802V471.402C855.05 471.669 854.957 471.909 854.77 472.122C854.583 472.309 854.343 472.402 854.05 472.402C853.783 472.402 853.543 472.309 853.33 472.122C853.143 471.909 853.05 471.669 853.05 471.402V457.722C853.05 457.429 853.143 457.189 853.33 457.002C853.543 456.815 853.783 456.722 854.05 456.722C854.343 456.722 854.583 456.815 854.77 457.002C854.957 457.189 855.05 457.429 855.05 457.722V459.082C855.903 458.389 856.797 457.829 857.73 457.402C858.663 456.949 859.61 456.722 860.57 456.722C861.61 456.722 862.557 456.909 863.41 457.282C864.263 457.655 864.917 458.389 865.37 459.482C866.277 458.655 867.237 457.989 868.25 457.482C869.29 456.975 870.33 456.722 871.37 456.722C872.357 456.722 873.25 456.895 874.05 457.242C874.85 457.589 875.49 458.215 875.97 459.122C876.477 460.002 876.73 461.295 876.73 463.002V471.402C876.73 471.669 876.637 471.909 876.45 472.122C876.263 472.309 876.023 472.402 875.73 472.402Z"/>
</mask>
<path d="M825.691 472.002C824.785 470.775 823.731 469.402 822.531 467.882C821.358 466.362 820.145 464.815 818.891 463.242C817.638 461.642 816.425 460.095 815.251 458.602C814.105 457.109 813.078 455.789 812.171 454.642V471.402C812.171 471.669 812.078 471.909 811.891 472.122C811.705 472.309 811.465 472.402 811.171 472.402C810.905 472.402 810.665 472.309 810.451 472.122C810.265 471.909 810.171 471.669 810.171 471.402V452.002C810.171 451.709 810.265 451.469 810.451 451.282C810.665 451.095 810.891 451.002 811.131 451.002C811.665 451.002 812.025 451.135 812.211 451.402C812.878 452.282 813.745 453.415 814.811 454.802C815.878 456.162 817.038 457.655 818.291 459.282C819.571 460.882 820.851 462.509 822.131 464.162C823.438 465.789 824.638 467.322 825.731 468.762V452.002C825.731 451.709 825.825 451.469 826.011 451.282C826.225 451.095 826.465 451.002 826.731 451.002C827.025 451.002 827.265 451.095 827.451 451.282C827.638 451.469 827.731 451.709 827.731 452.002V471.402C827.731 471.669 827.638 471.909 827.451 472.122C827.265 472.309 827.038 472.402 826.771 472.402C826.238 472.402 825.878 472.269 825.691 472.002ZM846.362 472.042C845.775 471.429 845.322 470.655 845.002 469.722C844.095 470.575 843.095 471.242 842.002 471.722C840.935 472.175 839.775 472.402 838.522 472.402C837.295 472.402 836.322 472.175 835.602 471.722C834.882 471.269 834.375 470.709 834.082 470.042C833.789 469.375 833.642 468.749 833.642 468.162C833.642 467.522 833.749 466.909 833.962 466.322C834.202 465.709 834.562 465.175 835.042 464.722C835.709 464.109 836.602 463.589 837.722 463.162C838.842 462.735 840.215 462.522 841.842 462.522C842.695 462.522 843.602 462.562 844.562 462.642C844.455 461.442 844.055 460.495 843.362 459.802C842.669 459.082 841.629 458.722 840.242 458.722C839.709 458.722 839.162 458.775 838.602 458.882C838.042 458.962 837.615 459.055 837.322 459.162C836.975 459.295 836.722 459.362 836.562 459.362C836.295 459.362 836.055 459.269 835.842 459.082C835.629 458.869 835.522 458.642 835.522 458.402C835.522 457.895 835.749 457.562 836.202 457.402C836.655 457.269 837.255 457.122 838.002 456.962C838.775 456.802 839.522 456.722 840.242 456.722C842.429 456.722 844.029 457.322 845.042 458.522C846.082 459.722 846.602 461.282 846.602 463.202V466.842C846.602 467.749 846.695 468.509 846.882 469.122C847.095 469.709 847.402 470.229 847.802 470.682C847.989 470.869 848.082 471.095 848.082 471.362C848.082 471.629 847.975 471.869 847.762 472.082C847.575 472.269 847.349 472.362 847.082 472.362C846.815 472.362 846.575 472.255 846.362 472.042ZM838.522 470.402C839.669 470.402 840.762 470.149 841.802 469.642C842.842 469.109 843.775 468.309 844.602 467.242V464.642C843.615 464.562 842.695 464.522 841.842 464.522C839.309 464.522 837.522 465.042 836.482 466.082C836.162 466.402 835.935 466.735 835.802 467.082C835.695 467.429 835.642 467.789 835.642 468.162C835.642 468.695 835.869 469.202 836.322 469.682C836.802 470.162 837.535 470.402 838.522 470.402ZM875.73 472.402C875.463 472.402 875.223 472.309 875.01 472.122C874.823 471.909 874.73 471.669 874.73 471.402V463.002C874.73 461.429 874.41 460.322 873.77 459.682C873.157 459.042 872.357 458.722 871.37 458.722C870.383 458.722 869.423 459.002 868.49 459.562C867.557 460.122 866.703 460.829 865.93 461.682V471.402C865.93 471.669 865.837 471.909 865.65 472.122C865.463 472.309 865.223 472.402 864.93 472.402C864.663 472.402 864.423 472.309 864.21 472.122C864.023 471.909 863.93 471.669 863.93 471.402V463.002C863.93 461.429 863.61 460.322 862.97 459.682C862.357 459.042 861.557 458.722 860.57 458.722C859.583 458.722 858.61 459.029 857.65 459.642C856.69 460.229 855.823 460.949 855.05 461.802V471.402C855.05 471.669 854.957 471.909 854.77 472.122C854.583 472.309 854.343 472.402 854.05 472.402C853.783 472.402 853.543 472.309 853.33 472.122C853.143 471.909 853.05 471.669 853.05 471.402V457.722C853.05 457.429 853.143 457.189 853.33 457.002C853.543 456.815 853.783 456.722 854.05 456.722C854.343 456.722 854.583 456.815 854.77 457.002C854.957 457.189 855.05 457.429 855.05 457.722V459.082C855.903 458.389 856.797 457.829 857.73 457.402C858.663 456.949 859.61 456.722 860.57 456.722C861.61 456.722 862.557 456.909 863.41 457.282C864.263 457.655 864.917 458.389 865.37 459.482C866.277 458.655 867.237 457.989 868.25 457.482C869.29 456.975 870.33 456.722 871.37 456.722C872.357 456.722 873.25 456.895 874.05 457.242C874.85 457.589 875.49 458.215 875.97 459.122C876.477 460.002 876.73 461.295 876.73 463.002V471.402C876.73 471.669 876.637 471.909 876.45 472.122C876.263 472.309 876.023 472.402 875.73 472.402Z" fill="#97BF0D"/>
<path d="M825.691 472.002L825.937 471.83L825.933 471.824L825.691 472.002ZM822.531 467.882L822.294 468.065L822.296 468.068L822.531 467.882ZM818.891 463.242L818.655 463.427L818.657 463.429L818.891 463.242ZM815.251 458.602L815.014 458.785L815.016 458.787L815.251 458.602ZM812.171 454.642L812.407 454.456L811.871 453.779V454.642H812.171ZM811.891 472.122L812.104 472.334L812.111 472.327L812.117 472.32L811.891 472.122ZM810.451 472.122L810.226 472.32L810.239 472.335L810.254 472.348L810.451 472.122ZM810.451 451.282L810.254 451.056L810.246 451.063L810.239 451.07L810.451 451.282ZM812.211 451.402L811.966 451.574L811.972 451.583L812.211 451.402ZM814.811 454.802L814.574 454.985L814.575 454.987L814.811 454.802ZM818.291 459.282L818.054 459.465L818.057 459.47L818.291 459.282ZM822.131 464.162L821.894 464.346L821.898 464.35L822.131 464.162ZM825.731 468.762L825.493 468.944L826.031 469.653V468.762H825.731ZM826.011 451.282L825.814 451.056L825.806 451.063L825.799 451.07L826.011 451.282ZM827.451 472.122L827.664 472.334L827.671 472.327L827.677 472.32L827.451 472.122ZM825.933 471.824C825.024 470.594 823.968 469.218 822.767 467.696L822.296 468.068C823.495 469.586 824.546 470.957 825.45 472.18L825.933 471.824ZM822.769 467.699C821.595 466.178 820.38 464.63 819.126 463.055L818.657 463.429C819.909 465.001 821.122 466.547 822.294 468.065L822.769 467.699ZM819.128 463.057C817.874 461.457 816.661 459.91 815.487 458.417L815.016 458.787C816.189 460.281 817.402 461.827 818.655 463.427L819.128 463.057ZM815.489 458.419C814.342 456.925 813.315 455.604 812.407 454.456L811.936 454.828C812.842 455.973 813.867 457.292 815.014 458.785L815.489 458.419ZM811.871 454.642V471.402H812.471V454.642H811.871ZM811.871 471.402C811.871 471.591 811.808 471.762 811.666 471.925L812.117 472.32C812.348 472.055 812.471 471.746 812.471 471.402H811.871ZM811.679 471.91C811.555 472.034 811.395 472.102 811.171 472.102V472.702C811.535 472.702 811.854 472.584 812.104 472.334L811.679 471.91ZM811.171 472.102C810.982 472.102 810.811 472.038 810.649 471.896L810.254 472.348C810.518 472.579 810.827 472.702 811.171 472.702V472.102ZM810.677 471.925C810.535 471.762 810.471 471.591 810.471 471.402H809.871C809.871 471.746 809.994 472.055 810.226 472.32L810.677 471.925ZM810.471 471.402V452.002H809.871V471.402H810.471ZM810.471 452.002C810.471 451.779 810.54 451.618 810.664 451.494L810.239 451.07C809.99 451.319 809.871 451.639 809.871 452.002H810.471ZM810.649 451.508C810.818 451.36 810.977 451.302 811.131 451.302V450.702C810.806 450.702 810.511 450.831 810.254 451.056L810.649 451.508ZM811.131 451.302C811.63 451.302 811.864 451.428 811.966 451.574L812.457 451.23C812.186 450.843 811.7 450.702 811.131 450.702V451.302ZM811.972 451.583C812.64 452.464 813.507 453.598 814.574 454.985L815.049 454.619C813.983 453.233 813.117 452.1 812.451 451.221L811.972 451.583ZM814.575 454.987C815.641 456.346 816.801 457.839 818.054 459.465L818.529 459.099C817.275 457.472 816.115 455.978 815.048 454.617L814.575 454.987ZM818.057 459.47C819.336 461.068 820.615 462.694 821.894 464.346L822.369 463.978C821.088 462.324 819.807 460.696 818.526 459.095L818.057 459.47ZM821.898 464.35C823.203 465.975 824.401 467.506 825.493 468.944L825.97 468.581C824.875 467.138 823.673 465.603 822.365 463.974L821.898 464.35ZM826.031 468.762V452.002H825.431V468.762H826.031ZM826.031 452.002C826.031 451.779 826.1 451.618 826.224 451.494L825.799 451.07C825.55 451.319 825.431 451.639 825.431 452.002H826.031ZM826.209 451.508C826.371 451.366 826.542 451.302 826.731 451.302V450.702C826.387 450.702 826.078 450.825 825.814 451.056L826.209 451.508ZM826.731 451.302C826.955 451.302 827.115 451.37 827.239 451.494L827.664 451.07C827.414 450.821 827.095 450.702 826.731 450.702V451.302ZM827.239 451.494C827.363 451.618 827.431 451.779 827.431 452.002H828.031C828.031 451.639 827.913 451.319 827.664 451.07L827.239 451.494ZM827.431 452.002V471.402H828.031V452.002H827.431ZM827.431 471.402C827.431 471.591 827.368 471.762 827.226 471.925L827.677 472.32C827.908 472.055 828.031 471.746 828.031 471.402H827.431ZM827.239 471.91C827.11 472.04 826.959 472.102 826.771 472.102V472.702C827.117 472.702 827.42 472.578 827.664 472.334L827.239 471.91ZM826.771 472.102C826.273 472.102 826.039 471.976 825.937 471.83L825.446 472.174C825.717 472.562 826.203 472.702 826.771 472.702V472.102ZM846.362 472.042L846.145 472.25L846.15 472.254L846.362 472.042ZM845.002 469.722L845.286 469.625L845.135 469.185L844.796 469.504L845.002 469.722ZM842.002 471.722L842.119 471.998L842.123 471.997L842.002 471.722ZM835.602 471.722L835.762 471.468L835.762 471.468L835.602 471.722ZM834.082 470.042L834.357 469.921L834.357 469.921L834.082 470.042ZM833.962 466.322L833.683 466.213L833.68 466.22L833.962 466.322ZM835.042 464.722L834.839 464.501L834.836 464.504L835.042 464.722ZM837.722 463.162L837.829 463.442L837.829 463.442L837.722 463.162ZM844.562 462.642L844.537 462.941L844.892 462.971L844.861 462.616L844.562 462.642ZM843.362 459.802L843.146 460.01L843.15 460.014L843.362 459.802ZM838.602 458.882L838.645 459.179L838.658 459.177L838.602 458.882ZM837.322 459.162L837.22 458.88L837.214 458.882L837.322 459.162ZM835.842 459.082L835.63 459.294L835.637 459.301L835.645 459.308L835.842 459.082ZM836.202 457.402L836.117 457.114L836.11 457.117L836.102 457.119L836.202 457.402ZM838.002 456.962L837.941 456.668L837.939 456.669L838.002 456.962ZM845.042 458.522L844.813 458.716L844.815 458.719L845.042 458.522ZM846.882 469.122L846.595 469.209L846.597 469.217L846.6 469.225L846.882 469.122ZM847.802 470.682L847.577 470.881L847.583 470.888L847.59 470.894L847.802 470.682ZM847.762 472.082L847.974 472.294L847.974 472.294L847.762 472.082ZM841.802 469.642L841.934 469.912L841.939 469.909L841.802 469.642ZM844.602 467.242L844.839 467.426L844.902 467.345V467.242H844.602ZM844.602 464.642H844.902V464.365L844.626 464.343L844.602 464.642ZM836.482 466.082L836.694 466.294L836.694 466.294L836.482 466.082ZM835.802 467.082L835.522 466.974L835.518 466.984L835.515 466.994L835.802 467.082ZM836.322 469.682L836.104 469.888L836.11 469.894L836.322 469.682ZM846.579 471.835C846.027 471.258 845.594 470.524 845.286 469.625L844.718 469.819C845.05 470.787 845.524 471.6 846.145 472.249L846.579 471.835ZM844.796 469.504C843.914 470.335 842.942 470.982 841.881 471.447L842.123 471.997C843.249 471.502 844.277 470.816 845.208 469.941L844.796 469.504ZM841.885 471.446C840.858 471.882 839.738 472.102 838.522 472.102V472.702C839.812 472.702 841.013 472.469 842.119 471.998L841.885 471.446ZM838.522 472.102C837.328 472.102 836.417 471.881 835.762 471.468L835.442 471.976C836.227 472.47 837.263 472.702 838.522 472.702V472.102ZM835.762 471.468C835.084 471.041 834.622 470.524 834.357 469.921L833.807 470.163C834.129 470.893 834.68 471.496 835.442 471.976L835.762 471.468ZM834.357 469.921C834.076 469.284 833.942 468.698 833.942 468.162H833.342C833.342 468.799 833.501 469.467 833.807 470.163L834.357 469.921ZM833.942 468.162C833.942 467.556 834.043 466.978 834.244 466.425L833.68 466.22C833.455 466.84 833.342 467.488 833.342 468.162H833.942ZM834.241 466.431C834.465 465.859 834.8 465.363 835.248 464.94L834.836 464.504C834.324 464.988 833.939 465.558 833.683 466.213L834.241 466.431ZM835.245 464.943C835.876 464.362 836.734 463.86 837.829 463.442L837.615 462.882C836.471 463.318 835.541 463.855 834.839 464.501L835.245 464.943ZM837.829 463.442C838.905 463.033 840.24 462.822 841.842 462.822V462.222C840.191 462.222 838.779 462.438 837.615 462.882L837.829 463.442ZM841.842 462.822C842.686 462.822 843.584 462.862 844.537 462.941L844.587 462.343C843.62 462.263 842.705 462.222 841.842 462.222V462.822ZM844.861 462.616C844.749 461.362 844.328 460.344 843.574 459.59L843.15 460.014C843.783 460.647 844.161 461.522 844.263 462.669L844.861 462.616ZM843.578 459.594C842.809 458.795 841.678 458.422 840.242 458.422V459.022C841.58 459.022 842.528 459.369 843.146 460.01L843.578 459.594ZM840.242 458.422C839.689 458.422 839.123 458.477 838.546 458.587L838.658 459.177C839.201 459.073 839.729 459.022 840.242 459.022V458.422ZM838.56 458.585C837.993 458.666 837.542 458.763 837.22 458.88L837.425 459.444C837.689 459.348 838.091 459.258 838.645 459.179L838.56 458.585ZM837.214 458.882C836.869 459.015 836.661 459.062 836.562 459.062V459.662C836.783 459.662 837.082 459.576 837.43 459.442L837.214 458.882ZM836.562 459.062C836.373 459.062 836.202 458.998 836.04 458.856L835.645 459.308C835.909 459.539 836.218 459.662 836.562 459.662V459.062ZM836.054 458.87C835.882 458.698 835.822 458.543 835.822 458.402H835.222C835.222 458.741 835.376 459.04 835.63 459.294L836.054 458.87ZM835.822 458.402C835.822 458.193 835.868 458.046 835.94 457.941C836.011 457.837 836.124 457.748 836.302 457.685L836.102 457.119C835.827 457.216 835.6 457.374 835.444 457.603C835.289 457.831 835.222 458.104 835.222 458.402H835.822ZM836.287 457.69C836.73 457.56 837.322 457.415 838.065 457.255L837.939 456.669C837.189 456.83 836.581 456.978 836.117 457.114L836.287 457.69ZM838.063 457.256C838.818 457.1 839.544 457.022 840.242 457.022V456.422C839.5 456.422 838.733 456.505 837.941 456.668L838.063 457.256ZM840.242 457.022C842.377 457.022 843.876 457.607 844.813 458.716L845.271 458.329C844.181 457.038 842.481 456.422 840.242 456.422V457.022ZM844.815 458.719C845.799 459.853 846.302 461.338 846.302 463.202H846.902C846.902 461.226 846.365 459.591 845.269 458.326L844.815 458.719ZM846.302 463.202V466.842H846.902V463.202H846.302ZM846.302 466.842C846.302 467.767 846.397 468.559 846.595 469.209L847.169 469.035C846.994 468.459 846.902 467.73 846.902 466.842H846.302ZM846.6 469.225C846.826 469.845 847.151 470.398 847.577 470.881L848.027 470.484C847.653 470.059 847.365 469.572 847.164 469.02L846.6 469.225ZM847.59 470.894C847.72 471.024 847.782 471.174 847.782 471.362H848.382C848.382 471.017 848.258 470.714 848.014 470.47L847.59 470.894ZM847.782 471.362C847.782 471.538 847.715 471.705 847.55 471.87L847.974 472.294C848.236 472.033 848.382 471.719 848.382 471.362H847.782ZM847.55 471.87C847.42 472 847.27 472.062 847.082 472.062V472.662C847.427 472.662 847.731 472.538 847.974 472.294L847.55 471.87ZM847.082 472.062C846.906 472.062 846.739 471.995 846.574 471.83L846.15 472.254C846.411 472.516 846.725 472.662 847.082 472.662V472.062ZM838.522 470.702C839.715 470.702 840.853 470.438 841.933 469.912L841.671 469.372C840.671 469.859 839.623 470.102 838.522 470.102V470.702ZM841.939 469.909C843.024 469.353 843.99 468.522 844.839 467.426L844.365 467.058C843.561 468.096 842.66 468.865 841.665 469.375L841.939 469.909ZM844.902 467.242V464.642H844.302V467.242H844.902ZM844.626 464.343C843.633 464.263 842.705 464.222 841.842 464.222V464.822C842.686 464.822 843.598 464.862 844.578 464.941L844.626 464.343ZM841.842 464.222C839.283 464.222 837.395 464.745 836.27 465.87L836.694 466.294C837.649 465.34 839.335 464.822 841.842 464.822V464.222ZM836.27 465.87C835.927 466.213 835.673 466.581 835.522 466.974L836.082 467.19C836.197 466.89 836.398 466.591 836.694 466.294L836.27 465.87ZM835.515 466.994C835.4 467.37 835.342 467.76 835.342 468.162H835.942C835.942 467.818 835.991 467.488 836.089 467.17L835.515 466.994ZM835.342 468.162C835.342 468.789 835.611 469.366 836.104 469.888L836.54 469.476C836.126 469.038 835.942 468.602 835.942 468.162H835.342ZM836.11 469.894C836.667 470.452 837.492 470.702 838.522 470.702V470.102C837.579 470.102 836.937 469.872 836.534 469.47L836.11 469.894ZM875.01 472.122L874.784 472.32L874.797 472.335L874.812 472.348L875.01 472.122ZM873.77 459.682L873.553 459.89L873.558 459.894L873.77 459.682ZM868.49 459.562L868.336 459.305L868.336 459.305L868.49 459.562ZM865.93 461.682L865.708 461.481L865.63 461.566V461.682H865.93ZM865.65 472.122L865.862 472.334L865.869 472.327L865.876 472.32L865.65 472.122ZM864.21 472.122L863.984 472.32L863.997 472.335L864.012 472.348L864.21 472.122ZM862.97 459.682L862.753 459.89L862.758 459.894L862.97 459.682ZM857.65 459.642L857.806 459.898L857.811 459.895L857.65 459.642ZM855.05 461.802L854.828 461.601L854.75 461.686V461.802H855.05ZM854.77 472.122L854.982 472.334L854.989 472.327L854.996 472.32L854.77 472.122ZM853.33 472.122L853.104 472.32L853.117 472.335L853.132 472.348L853.33 472.122ZM853.33 457.002L853.132 456.776L853.125 456.783L853.118 456.79L853.33 457.002ZM854.77 457.002L854.982 456.79L854.77 457.002ZM855.05 459.082H854.75V459.712L855.239 459.315L855.05 459.082ZM857.73 457.402L857.855 457.675L857.861 457.672L857.73 457.402ZM865.37 459.482L865.093 459.597L865.256 459.992L865.572 459.704L865.37 459.482ZM868.25 457.482L868.119 457.212L868.116 457.214L868.25 457.482ZM874.05 457.242L873.931 457.517L873.931 457.517L874.05 457.242ZM875.97 459.122L875.705 459.263L875.71 459.272L875.97 459.122ZM876.45 472.122L876.662 472.334L876.669 472.327L876.676 472.32L876.45 472.122ZM875.73 472.102C875.541 472.102 875.37 472.038 875.207 471.896L874.812 472.348C875.077 472.579 875.386 472.702 875.73 472.702V472.102ZM875.236 471.925C875.094 471.762 875.03 471.591 875.03 471.402H874.43C874.43 471.746 874.553 472.055 874.784 472.32L875.236 471.925ZM875.03 471.402V463.002H874.43V471.402H875.03ZM875.03 463.002C875.03 461.404 874.708 460.196 873.982 459.47L873.558 459.894C874.112 460.449 874.43 461.454 874.43 463.002H875.03ZM873.987 459.475C873.31 458.769 872.428 458.422 871.37 458.422V459.022C872.285 459.022 873.003 459.316 873.553 459.89L873.987 459.475ZM871.37 458.422C870.323 458.422 869.311 458.72 868.336 459.305L868.644 459.819C869.536 459.284 870.443 459.022 871.37 459.022V458.422ZM868.336 459.305C867.376 459.881 866.5 460.607 865.708 461.481L866.152 461.884C866.907 461.051 867.738 460.363 868.644 459.819L868.336 459.305ZM865.63 461.682V471.402H866.23V461.682H865.63ZM865.63 471.402C865.63 471.591 865.566 471.762 865.424 471.925L865.876 472.32C866.107 472.055 866.23 471.746 866.23 471.402H865.63ZM865.438 471.91C865.314 472.034 865.153 472.102 864.93 472.102V472.702C865.293 472.702 865.613 472.584 865.862 472.334L865.438 471.91ZM864.93 472.102C864.741 472.102 864.57 472.038 864.407 471.896L864.012 472.348C864.277 472.579 864.586 472.702 864.93 472.702V472.102ZM864.436 471.925C864.294 471.762 864.23 471.591 864.23 471.402H863.63C863.63 471.746 863.753 472.055 863.984 472.32L864.436 471.925ZM864.23 471.402V463.002H863.63V471.402H864.23ZM864.23 463.002C864.23 461.404 863.908 460.196 863.182 459.47L862.758 459.894C863.312 460.449 863.63 461.454 863.63 463.002H864.23ZM863.186 459.475C862.51 458.769 861.628 458.422 860.57 458.422V459.022C861.485 459.022 862.203 459.316 862.753 459.89L863.186 459.475ZM860.57 458.422C859.518 458.422 858.489 458.75 857.488 459.389L857.811 459.895C858.731 459.308 859.649 459.022 860.57 459.022V458.422ZM857.493 459.386C856.508 459.988 855.62 460.727 854.828 461.601L855.272 462.004C856.027 461.171 856.871 460.469 857.806 459.898L857.493 459.386ZM854.75 461.802V471.402H855.35V461.802H854.75ZM854.75 471.402C854.75 471.591 854.686 471.762 854.544 471.925L854.996 472.32C855.227 472.055 855.35 471.746 855.35 471.402H854.75ZM854.558 471.91C854.434 472.034 854.273 472.102 854.05 472.102V472.702C854.413 472.702 854.733 472.584 854.982 472.334L854.558 471.91ZM854.05 472.102C853.861 472.102 853.69 472.038 853.527 471.896L853.132 472.348C853.397 472.579 853.706 472.702 854.05 472.702V472.102ZM853.556 471.925C853.414 471.762 853.35 471.591 853.35 471.402H852.75C852.75 471.746 852.873 472.055 853.104 472.32L853.556 471.925ZM853.35 471.402V457.722H852.75V471.402H853.35ZM853.35 457.722C853.35 457.499 853.418 457.338 853.542 457.214L853.118 456.79C852.868 457.039 852.75 457.359 852.75 457.722H853.35ZM853.527 457.228C853.69 457.086 853.861 457.022 854.05 457.022V456.422C853.706 456.422 853.397 456.545 853.132 456.776L853.527 457.228ZM854.05 457.022C854.273 457.022 854.434 457.09 854.558 457.214L854.982 456.79C854.733 456.541 854.413 456.422 854.05 456.422V457.022ZM854.558 457.214C854.682 457.338 854.75 457.499 854.75 457.722H855.35C855.35 457.359 855.231 457.039 854.982 456.79L854.558 457.214ZM854.75 457.722V459.082H855.35V457.722H854.75ZM855.239 459.315C856.074 458.636 856.946 458.09 857.855 457.675L857.605 457.129C856.647 457.567 855.732 458.141 854.861 458.849L855.239 459.315ZM857.861 457.672C858.757 457.237 859.659 457.022 860.57 457.022V456.422C859.561 456.422 858.57 456.661 857.599 457.132L857.861 457.672ZM860.57 457.022C861.573 457.022 862.478 457.202 863.29 457.557L863.53 457.007C862.635 456.615 861.646 456.422 860.57 456.422V457.022ZM863.29 457.557C864.054 457.891 864.661 458.555 865.093 459.597L865.647 459.367C865.172 458.223 864.472 457.419 863.53 457.007L863.29 457.557ZM865.572 459.704C866.46 458.894 867.397 458.244 868.384 457.75L868.116 457.214C867.076 457.734 866.093 458.417 865.168 459.26L865.572 459.704ZM868.381 457.752C869.385 457.263 870.38 457.022 871.37 457.022V456.422C870.279 456.422 869.195 456.688 868.119 457.212L868.381 457.752ZM871.37 457.022C872.321 457.022 873.173 457.189 873.931 457.517L874.169 456.967C873.327 456.602 872.392 456.422 871.37 456.422V457.022ZM873.931 457.517C874.657 457.832 875.251 458.405 875.705 459.262L876.235 458.982C875.729 458.026 875.042 457.345 874.169 456.967L873.931 457.517ZM875.71 459.272C876.178 460.085 876.43 461.316 876.43 463.002H877.03C877.03 461.274 876.775 459.919 876.23 458.972L875.71 459.272ZM876.43 463.002V471.402H877.03V463.002H876.43ZM876.43 471.402C876.43 471.591 876.366 471.762 876.224 471.925L876.676 472.32C876.907 472.055 877.03 471.746 877.03 471.402H876.43ZM876.238 471.91C876.114 472.034 875.953 472.102 875.73 472.102V472.702C876.093 472.702 876.413 472.584 876.662 472.334L876.238 471.91Z" fill="#97BF0D" mask="url(#path-17-outside-2_614_276)"/>
<mask id="path-19-outside-3_614_276" maskUnits="userSpaceOnUse" x="659.262" y="450.402" width="68" height="23" fill="black">
<rect fill="white" x="659.262" y="450.402" width="68" height="23"/>
<path d="M675.702 472.002C674.795 470.775 673.742 469.402 672.542 467.882C671.368 466.362 670.155 464.815 668.902 463.242C667.648 461.642 666.435 460.095 665.262 458.602C664.115 457.109 663.088 455.789 662.182 454.642V471.402C662.182 471.669 662.088 471.909 661.902 472.122C661.715 472.309 661.475 472.402 661.182 472.402C660.915 472.402 660.675 472.309 660.462 472.122C660.275 471.909 660.182 471.669 660.182 471.402V452.002C660.182 451.709 660.275 451.469 660.462 451.282C660.675 451.095 660.902 451.002 661.142 451.002C661.675 451.002 662.035 451.135 662.222 451.402C662.888 452.282 663.755 453.415 664.822 454.802C665.888 456.162 667.048 457.655 668.302 459.282C669.582 460.882 670.862 462.509 672.142 464.162C673.448 465.789 674.648 467.322 675.742 468.762V452.002C675.742 451.709 675.835 451.469 676.022 451.282C676.235 451.095 676.475 451.002 676.742 451.002C677.035 451.002 677.275 451.095 677.462 451.282C677.648 451.469 677.742 451.709 677.742 452.002V471.402C677.742 471.669 677.648 471.909 677.462 472.122C677.275 472.309 677.048 472.402 676.782 472.402C676.248 472.402 675.888 472.269 675.702 472.002ZM696.372 472.042C695.786 471.429 695.332 470.655 695.012 469.722C694.106 470.575 693.106 471.242 692.012 471.722C690.946 472.175 689.786 472.402 688.532 472.402C687.306 472.402 686.332 472.175 685.612 471.722C684.892 471.269 684.386 470.709 684.092 470.042C683.799 469.375 683.652 468.749 683.652 468.162C683.652 467.522 683.759 466.909 683.972 466.322C684.212 465.709 684.572 465.175 685.052 464.722C685.719 464.109 686.612 463.589 687.732 463.162C688.852 462.735 690.226 462.522 691.852 462.522C692.706 462.522 693.612 462.562 694.572 462.642C694.466 461.442 694.066 460.495 693.372 459.802C692.679 459.082 691.639 458.722 690.252 458.722C689.719 458.722 689.172 458.775 688.612 458.882C688.052 458.962 687.626 459.055 687.332 459.162C686.986 459.295 686.732 459.362 686.572 459.362C686.306 459.362 686.066 459.269 685.852 459.082C685.639 458.869 685.532 458.642 685.532 458.402C685.532 457.895 685.759 457.562 686.212 457.402C686.666 457.269 687.266 457.122 688.012 456.962C688.786 456.802 689.532 456.722 690.252 456.722C692.439 456.722 694.039 457.322 695.052 458.522C696.092 459.722 696.612 461.282 696.612 463.202V466.842C696.612 467.749 696.706 468.509 696.892 469.122C697.106 469.709 697.412 470.229 697.812 470.682C697.999 470.869 698.092 471.095 698.092 471.362C698.092 471.629 697.986 471.869 697.772 472.082C697.586 472.269 697.359 472.362 697.092 472.362C696.826 472.362 696.586 472.255 696.372 472.042ZM688.532 470.402C689.679 470.402 690.772 470.149 691.812 469.642C692.852 469.109 693.786 468.309 694.612 467.242V464.642C693.626 464.562 692.706 464.522 691.852 464.522C689.319 464.522 687.532 465.042 686.492 466.082C686.172 466.402 685.946 466.735 685.812 467.082C685.706 467.429 685.652 467.789 685.652 468.162C685.652 468.695 685.879 469.202 686.332 469.682C686.812 470.162 687.546 470.402 688.532 470.402ZM725.74 472.402C725.473 472.402 725.233 472.309 725.02 472.122C724.833 471.909 724.74 471.669 724.74 471.402V463.002C724.74 461.429 724.42 460.322 723.78 459.682C723.167 459.042 722.367 458.722 721.38 458.722C720.393 458.722 719.433 459.002 718.5 459.562C717.567 460.122 716.713 460.829 715.94 461.682V471.402C715.94 471.669 715.847 471.909 715.66 472.122C715.473 472.309 715.233 472.402 714.94 472.402C714.673 472.402 714.433 472.309 714.22 472.122C714.033 471.909 713.94 471.669 713.94 471.402V463.002C713.94 461.429 713.62 460.322 712.98 459.682C712.367 459.042 711.567 458.722 710.58 458.722C709.593 458.722 708.62 459.029 707.66 459.642C706.7 460.229 705.833 460.949 705.06 461.802V471.402C705.06 471.669 704.967 471.909 704.78 472.122C704.593 472.309 704.353 472.402 704.06 472.402C703.793 472.402 703.553 472.309 703.34 472.122C703.153 471.909 703.06 471.669 703.06 471.402V457.722C703.06 457.429 703.153 457.189 703.34 457.002C703.553 456.815 703.793 456.722 704.06 456.722C704.353 456.722 704.593 456.815 704.78 457.002C704.967 457.189 705.06 457.429 705.06 457.722V459.082C705.913 458.389 706.807 457.829 707.74 457.402C708.673 456.949 709.62 456.722 710.58 456.722C711.62 456.722 712.567 456.909 713.42 457.282C714.273 457.655 714.927 458.389 715.38 459.482C716.287 458.655 717.247 457.989 718.26 457.482C719.3 456.975 720.34 456.722 721.38 456.722C722.367 456.722 723.26 456.895 724.06 457.242C724.86 457.589 725.5 458.215 725.98 459.122C726.487 460.002 726.74 461.295 726.74 463.002V471.402C726.74 471.669 726.647 471.909 726.46 472.122C726.273 472.309 726.033 472.402 725.74 472.402Z"/>
</mask>
<path d="M675.702 472.002C674.795 470.775 673.742 469.402 672.542 467.882C671.368 466.362 670.155 464.815 668.902 463.242C667.648 461.642 666.435 460.095 665.262 458.602C664.115 457.109 663.088 455.789 662.182 454.642V471.402C662.182 471.669 662.088 471.909 661.902 472.122C661.715 472.309 661.475 472.402 661.182 472.402C660.915 472.402 660.675 472.309 660.462 472.122C660.275 471.909 660.182 471.669 660.182 471.402V452.002C660.182 451.709 660.275 451.469 660.462 451.282C660.675 451.095 660.902 451.002 661.142 451.002C661.675 451.002 662.035 451.135 662.222 451.402C662.888 452.282 663.755 453.415 664.822 454.802C665.888 456.162 667.048 457.655 668.302 459.282C669.582 460.882 670.862 462.509 672.142 464.162C673.448 465.789 674.648 467.322 675.742 468.762V452.002C675.742 451.709 675.835 451.469 676.022 451.282C676.235 451.095 676.475 451.002 676.742 451.002C677.035 451.002 677.275 451.095 677.462 451.282C677.648 451.469 677.742 451.709 677.742 452.002V471.402C677.742 471.669 677.648 471.909 677.462 472.122C677.275 472.309 677.048 472.402 676.782 472.402C676.248 472.402 675.888 472.269 675.702 472.002ZM696.372 472.042C695.786 471.429 695.332 470.655 695.012 469.722C694.106 470.575 693.106 471.242 692.012 471.722C690.946 472.175 689.786 472.402 688.532 472.402C687.306 472.402 686.332 472.175 685.612 471.722C684.892 471.269 684.386 470.709 684.092 470.042C683.799 469.375 683.652 468.749 683.652 468.162C683.652 467.522 683.759 466.909 683.972 466.322C684.212 465.709 684.572 465.175 685.052 464.722C685.719 464.109 686.612 463.589 687.732 463.162C688.852 462.735 690.226 462.522 691.852 462.522C692.706 462.522 693.612 462.562 694.572 462.642C694.466 461.442 694.066 460.495 693.372 459.802C692.679 459.082 691.639 458.722 690.252 458.722C689.719 458.722 689.172 458.775 688.612 458.882C688.052 458.962 687.626 459.055 687.332 459.162C686.986 459.295 686.732 459.362 686.572 459.362C686.306 459.362 686.066 459.269 685.852 459.082C685.639 458.869 685.532 458.642 685.532 458.402C685.532 457.895 685.759 457.562 686.212 457.402C686.666 457.269 687.266 457.122 688.012 456.962C688.786 456.802 689.532 456.722 690.252 456.722C692.439 456.722 694.039 457.322 695.052 458.522C696.092 459.722 696.612 461.282 696.612 463.202V466.842C696.612 467.749 696.706 468.509 696.892 469.122C697.106 469.709 697.412 470.229 697.812 470.682C697.999 470.869 698.092 471.095 698.092 471.362C698.092 471.629 697.986 471.869 697.772 472.082C697.586 472.269 697.359 472.362 697.092 472.362C696.826 472.362 696.586 472.255 696.372 472.042ZM688.532 470.402C689.679 470.402 690.772 470.149 691.812 469.642C692.852 469.109 693.786 468.309 694.612 467.242V464.642C693.626 464.562 692.706 464.522 691.852 464.522C689.319 464.522 687.532 465.042 686.492 466.082C686.172 466.402 685.946 466.735 685.812 467.082C685.706 467.429 685.652 467.789 685.652 468.162C685.652 468.695 685.879 469.202 686.332 469.682C686.812 470.162 687.546 470.402 688.532 470.402ZM725.74 472.402C725.473 472.402 725.233 472.309 725.02 472.122C724.833 471.909 724.74 471.669 724.74 471.402V463.002C724.74 461.429 724.42 460.322 723.78 459.682C723.167 459.042 722.367 458.722 721.38 458.722C720.393 458.722 719.433 459.002 718.5 459.562C717.567 460.122 716.713 460.829 715.94 461.682V471.402C715.94 471.669 715.847 471.909 715.66 472.122C715.473 472.309 715.233 472.402 714.94 472.402C714.673 472.402 714.433 472.309 714.22 472.122C714.033 471.909 713.94 471.669 713.94 471.402V463.002C713.94 461.429 713.62 460.322 712.98 459.682C712.367 459.042 711.567 458.722 710.58 458.722C709.593 458.722 708.62 459.029 707.66 459.642C706.7 460.229 705.833 460.949 705.06 461.802V471.402C705.06 471.669 704.967 471.909 704.78 472.122C704.593 472.309 704.353 472.402 704.06 472.402C703.793 472.402 703.553 472.309 703.34 472.122C703.153 471.909 703.06 471.669 703.06 471.402V457.722C703.06 457.429 703.153 457.189 703.34 457.002C703.553 456.815 703.793 456.722 704.06 456.722C704.353 456.722 704.593 456.815 704.78 457.002C704.967 457.189 705.06 457.429 705.06 457.722V459.082C705.913 458.389 706.807 457.829 707.74 457.402C708.673 456.949 709.62 456.722 710.58 456.722C711.62 456.722 712.567 456.909 713.42 457.282C714.273 457.655 714.927 458.389 715.38 459.482C716.287 458.655 717.247 457.989 718.26 457.482C719.3 456.975 720.34 456.722 721.38 456.722C722.367 456.722 723.26 456.895 724.06 457.242C724.86 457.589 725.5 458.215 725.98 459.122C726.487 460.002 726.74 461.295 726.74 463.002V471.402C726.74 471.669 726.647 471.909 726.46 472.122C726.273 472.309 726.033 472.402 725.74 472.402Z" fill="#D56C06"/>
<path d="M675.702 472.002L675.948 471.83L675.943 471.824L675.702 472.002ZM672.542 467.882L672.304 468.065L672.306 468.068L672.542 467.882ZM668.902 463.242L668.666 463.427L668.667 463.429L668.902 463.242ZM665.262 458.602L665.024 458.785L665.026 458.787L665.262 458.602ZM662.182 454.642L662.417 454.456L661.882 453.779V454.642H662.182ZM661.902 472.122L662.114 472.334L662.121 472.327L662.127 472.32L661.902 472.122ZM660.462 472.122L660.236 472.32L660.249 472.335L660.264 472.348L660.462 472.122ZM660.462 451.282L660.264 451.056L660.257 451.063L660.25 451.07L660.462 451.282ZM662.222 451.402L661.976 451.574L661.983 451.583L662.222 451.402ZM664.822 454.802L664.584 454.985L664.586 454.987L664.822 454.802ZM668.302 459.282L668.064 459.465L668.067 459.47L668.302 459.282ZM672.142 464.162L671.904 464.346L671.908 464.35L672.142 464.162ZM675.742 468.762L675.503 468.944L676.042 469.653V468.762H675.742ZM676.022 451.282L675.824 451.056L675.817 451.063L675.81 451.07L676.022 451.282ZM677.462 472.122L677.674 472.334L677.681 472.327L677.687 472.32L677.462 472.122ZM675.943 471.824C675.034 470.594 673.979 469.218 672.777 467.696L672.306 468.068C673.505 469.586 674.556 470.957 675.46 472.18L675.943 471.824ZM672.779 467.699C671.605 466.178 670.391 464.63 669.136 463.055L668.667 463.429C669.919 465.001 671.132 466.547 672.304 468.065L672.779 467.699ZM669.138 463.057C667.884 461.457 666.671 459.91 665.498 458.417L665.026 458.787C666.199 460.281 667.412 461.827 668.666 463.427L669.138 463.057ZM665.5 458.419C664.352 456.925 663.325 455.604 662.417 454.456L661.946 454.828C662.852 455.973 663.878 457.292 665.024 458.785L665.5 458.419ZM661.882 454.642V471.402H662.482V454.642H661.882ZM661.882 471.402C661.882 471.591 661.818 471.762 661.676 471.925L662.127 472.32C662.359 472.055 662.482 471.746 662.482 471.402H661.882ZM661.69 471.91C661.566 472.034 661.405 472.102 661.182 472.102V472.702C661.545 472.702 661.864 472.584 662.114 472.334L661.69 471.91ZM661.182 472.102C660.993 472.102 660.822 472.038 660.659 471.896L660.264 472.348C660.528 472.579 660.838 472.702 661.182 472.702V472.102ZM660.687 471.925C660.545 471.762 660.482 471.591 660.482 471.402H659.882C659.882 471.746 660.005 472.055 660.236 472.32L660.687 471.925ZM660.482 471.402V452.002H659.882V471.402H660.482ZM660.482 452.002C660.482 451.779 660.55 451.618 660.674 451.494L660.25 451.07C660 451.319 659.882 451.639 659.882 452.002H660.482ZM660.659 451.508C660.828 451.36 660.987 451.302 661.142 451.302V450.702C660.816 450.702 660.522 450.831 660.264 451.056L660.659 451.508ZM661.142 451.302C661.64 451.302 661.874 451.428 661.976 451.574L662.467 451.23C662.196 450.843 661.71 450.702 661.142 450.702V451.302ZM661.983 451.583C662.65 452.464 663.517 453.598 664.584 454.985L665.06 454.619C663.993 453.233 663.127 452.1 662.461 451.221L661.983 451.583ZM664.586 454.987C665.652 456.346 666.811 457.839 668.064 459.465L668.539 459.099C667.286 457.472 666.125 455.978 665.058 454.617L664.586 454.987ZM668.067 459.47C669.346 461.068 670.625 462.694 671.905 464.346L672.379 463.978C671.098 462.324 669.817 460.696 668.536 459.095L668.067 459.47ZM671.908 464.35C673.213 465.975 674.411 467.506 675.503 468.944L675.981 468.581C674.885 467.138 673.684 465.603 672.376 463.974L671.908 464.35ZM676.042 468.762V452.002H675.442V468.762H676.042ZM676.042 452.002C676.042 451.779 676.11 451.618 676.234 451.494L675.81 451.07C675.56 451.319 675.442 451.639 675.442 452.002H676.042ZM676.219 451.508C676.382 451.366 676.553 451.302 676.742 451.302V450.702C676.398 450.702 676.088 450.825 675.824 451.056L676.219 451.508ZM676.742 451.302C676.965 451.302 677.126 451.37 677.25 451.494L677.674 451.07C677.424 450.821 677.105 450.702 676.742 450.702V451.302ZM677.25 451.494C677.373 451.618 677.442 451.779 677.442 452.002H678.042C678.042 451.639 677.923 451.319 677.674 451.07L677.25 451.494ZM677.442 452.002V471.402H678.042V452.002H677.442ZM677.442 471.402C677.442 471.591 677.378 471.762 677.236 471.925L677.687 472.32C677.919 472.055 678.042 471.746 678.042 471.402H677.442ZM677.25 471.91C677.12 472.04 676.97 472.102 676.782 472.102V472.702C677.127 472.702 677.43 472.578 677.674 472.334L677.25 471.91ZM676.782 472.102C676.283 472.102 676.05 471.976 675.947 471.83L675.456 472.174C675.727 472.562 676.214 472.702 676.782 472.702V472.102ZM696.372 472.042L696.155 472.25L696.16 472.254L696.372 472.042ZM695.012 469.722L695.296 469.625L695.145 469.185L694.807 469.504L695.012 469.722ZM692.012 471.722L692.13 471.998L692.133 471.997L692.012 471.722ZM685.612 471.722L685.772 471.468L685.772 471.468L685.612 471.722ZM684.092 470.042L684.367 469.921L684.367 469.921L684.092 470.042ZM683.972 466.322L683.693 466.213L683.69 466.22L683.972 466.322ZM685.052 464.722L684.849 464.501L684.846 464.504L685.052 464.722ZM687.732 463.162L687.839 463.442L687.839 463.442L687.732 463.162ZM694.572 462.642L694.547 462.941L694.903 462.971L694.871 462.616L694.572 462.642ZM693.372 459.802L693.156 460.01L693.16 460.014L693.372 459.802ZM688.612 458.882L688.655 459.179L688.668 459.177L688.612 458.882ZM687.332 459.162L687.23 458.88L687.225 458.882L687.332 459.162ZM685.852 459.082L685.64 459.294L685.647 459.301L685.655 459.308L685.852 459.082ZM686.212 457.402L686.128 457.114L686.12 457.117L686.112 457.119L686.212 457.402ZM688.012 456.962L687.952 456.668L687.949 456.669L688.012 456.962ZM695.052 458.522L694.823 458.716L694.826 458.719L695.052 458.522ZM696.892 469.122L696.605 469.209L696.608 469.217L696.61 469.225L696.892 469.122ZM697.812 470.682L697.587 470.881L697.594 470.888L697.6 470.894L697.812 470.682ZM697.772 472.082L697.984 472.294L697.984 472.294L697.772 472.082ZM691.812 469.642L691.944 469.912L691.949 469.909L691.812 469.642ZM694.612 467.242L694.849 467.426L694.912 467.345V467.242H694.612ZM694.612 464.642H694.912V464.365L694.637 464.343L694.612 464.642ZM686.492 466.082L686.704 466.294L686.704 466.294L686.492 466.082ZM685.812 467.082L685.532 466.974L685.529 466.984L685.526 466.994L685.812 467.082ZM686.332 469.682L686.114 469.888L686.12 469.894L686.332 469.682ZM696.589 471.835C696.037 471.258 695.604 470.524 695.296 469.625L694.729 469.819C695.06 470.787 695.534 471.6 696.156 472.249L696.589 471.835ZM694.807 469.504C693.924 470.335 692.952 470.982 691.892 471.447L692.133 471.997C693.259 471.502 694.287 470.816 695.218 469.941L694.807 469.504ZM691.895 471.446C690.868 471.882 689.749 472.102 688.532 472.102V472.702C689.823 472.702 691.023 472.469 692.13 471.998L691.895 471.446ZM688.532 472.102C687.339 472.102 686.428 471.881 685.772 471.468L685.453 471.976C686.237 472.47 687.273 472.702 688.532 472.702V472.102ZM685.772 471.468C685.094 471.041 684.632 470.524 684.367 469.921L683.818 470.163C684.139 470.893 684.691 471.496 685.453 471.976L685.772 471.468ZM684.367 469.921C684.086 469.284 683.952 468.698 683.952 468.162H683.352C683.352 468.799 683.512 469.467 683.818 470.163L684.367 469.921ZM683.952 468.162C683.952 467.556 684.053 466.978 684.254 466.425L683.69 466.22C683.465 466.84 683.352 467.488 683.352 468.162H683.952ZM684.252 466.431C684.476 465.859 684.81 465.363 685.258 464.94L684.846 464.504C684.334 464.988 683.949 465.558 683.693 466.213L684.252 466.431ZM685.255 464.943C685.887 464.362 686.744 463.86 687.839 463.442L687.626 462.882C686.481 463.318 685.551 463.855 684.849 464.501L685.255 464.943ZM687.839 463.442C688.915 463.033 690.25 462.822 691.852 462.822V462.222C690.201 462.222 688.789 462.438 687.626 462.882L687.839 463.442ZM691.852 462.822C692.696 462.822 693.595 462.862 694.547 462.941L694.597 462.343C693.63 462.263 692.715 462.222 691.852 462.222V462.822ZM694.871 462.616C694.76 461.362 694.338 460.344 693.584 459.59L693.16 460.014C693.793 460.647 694.172 461.522 694.274 462.669L694.871 462.616ZM693.588 459.594C692.819 458.795 691.688 458.422 690.252 458.422V459.022C691.59 459.022 692.539 459.369 693.156 460.01L693.588 459.594ZM690.252 458.422C689.699 458.422 689.133 458.477 688.556 458.587L688.668 459.177C689.211 459.073 689.739 459.022 690.252 459.022V458.422ZM688.57 458.585C688.003 458.666 687.552 458.763 687.23 458.88L687.435 459.444C687.699 459.348 688.102 459.258 688.655 459.179L688.57 458.585ZM687.225 458.882C686.879 459.015 686.672 459.062 686.572 459.062V459.662C686.793 459.662 687.093 459.576 687.44 459.442L687.225 458.882ZM686.572 459.062C686.383 459.062 686.212 458.998 686.05 458.856L685.655 459.308C685.919 459.539 686.228 459.662 686.572 459.662V459.062ZM686.064 458.87C685.892 458.698 685.832 458.543 685.832 458.402H685.232C685.232 458.741 685.386 459.04 685.64 459.294L686.064 458.87ZM685.832 458.402C685.832 458.193 685.879 458.046 685.95 457.941C686.021 457.837 686.134 457.748 686.312 457.685L686.112 457.119C685.837 457.216 685.61 457.374 685.454 457.603C685.299 457.831 685.232 458.104 685.232 458.402H685.832ZM686.297 457.69C686.74 457.56 687.332 457.415 688.075 457.255L687.949 456.669C687.199 456.83 686.591 456.978 686.128 457.114L686.297 457.69ZM688.073 457.256C688.828 457.1 689.555 457.022 690.252 457.022V456.422C689.51 456.422 688.743 456.505 687.952 456.668L688.073 457.256ZM690.252 457.022C692.387 457.022 693.887 457.607 694.823 458.716L695.282 458.329C694.191 457.038 692.491 456.422 690.252 456.422V457.022ZM694.826 458.719C695.809 459.853 696.312 461.338 696.312 463.202H696.912C696.912 461.226 696.376 459.591 695.279 458.326L694.826 458.719ZM696.312 463.202V466.842H696.912V463.202H696.312ZM696.312 466.842C696.312 467.767 696.407 468.559 696.605 469.209L697.179 469.035C697.004 468.459 696.912 467.73 696.912 466.842H696.312ZM696.61 469.225C696.836 469.845 697.162 470.398 697.587 470.881L698.037 470.484C697.663 470.059 697.375 469.572 697.174 469.02L696.61 469.225ZM697.6 470.894C697.73 471.024 697.792 471.174 697.792 471.362H698.392C698.392 471.017 698.268 470.714 698.024 470.47L697.6 470.894ZM697.792 471.362C697.792 471.538 697.725 471.705 697.56 471.87L697.984 472.294C698.246 472.033 698.392 471.719 698.392 471.362H697.792ZM697.56 471.87C697.43 472 697.28 472.062 697.092 472.062V472.662C697.438 472.662 697.741 472.538 697.984 472.294L697.56 471.87ZM697.092 472.062C696.916 472.062 696.75 471.995 696.584 471.83L696.16 472.254C696.422 472.516 696.735 472.662 697.092 472.662V472.062ZM688.532 470.702C689.725 470.702 690.863 470.438 691.944 469.912L691.681 469.372C690.682 469.859 689.633 470.102 688.532 470.102V470.702ZM691.949 469.909C693.034 469.353 694 468.522 694.849 467.426L694.375 467.058C693.571 468.096 692.671 468.865 691.675 469.375L691.949 469.909ZM694.912 467.242V464.642H694.312V467.242H694.912ZM694.637 464.343C693.643 464.263 692.715 464.222 691.852 464.222V464.822C692.696 464.822 693.608 464.862 694.588 464.941L694.637 464.343ZM691.852 464.222C689.293 464.222 687.405 464.745 686.28 465.87L686.704 466.294C687.659 465.34 689.345 464.822 691.852 464.822V464.222ZM686.28 465.87C685.937 466.213 685.684 466.581 685.532 466.974L686.092 467.19C686.208 466.89 686.408 466.591 686.704 466.294L686.28 465.87ZM685.526 466.994C685.41 467.37 685.352 467.76 685.352 468.162H685.952C685.952 467.818 686.001 467.488 686.099 467.17L685.526 466.994ZM685.352 468.162C685.352 468.789 685.621 469.366 686.114 469.888L686.55 469.476C686.137 469.038 685.952 468.602 685.952 468.162H685.352ZM686.12 469.894C686.678 470.452 687.502 470.702 688.532 470.702V470.102C687.589 470.102 686.947 469.872 686.544 469.47L686.12 469.894ZM725.02 472.122L724.794 472.32L724.808 472.335L724.823 472.348L725.02 472.122ZM723.78 459.682L723.564 459.89L723.568 459.894L723.78 459.682ZM718.5 459.562L718.346 459.305L718.346 459.305L718.5 459.562ZM715.94 461.682L715.718 461.481L715.64 461.566V461.682H715.94ZM715.66 472.122L715.872 472.334L715.879 472.327L715.886 472.32L715.66 472.122ZM714.22 472.122L713.994 472.32L714.008 472.335L714.023 472.348L714.22 472.122ZM712.98 459.682L712.764 459.89L712.768 459.894L712.98 459.682ZM707.66 459.642L707.817 459.898L707.822 459.895L707.66 459.642ZM705.06 461.802L704.838 461.601L704.76 461.686V461.802H705.06ZM704.78 472.122L704.992 472.334L704.999 472.327L705.006 472.32L704.78 472.122ZM703.34 472.122L703.114 472.32L703.128 472.335L703.143 472.348L703.34 472.122ZM703.34 457.002L703.143 456.776L703.135 456.783L703.128 456.79L703.34 457.002ZM704.78 457.002L704.992 456.79L704.78 457.002ZM705.06 459.082H704.76V459.712L705.249 459.315L705.06 459.082ZM707.74 457.402L707.865 457.675L707.871 457.672L707.74 457.402ZM715.38 459.482L715.103 459.597L715.267 459.992L715.582 459.704L715.38 459.482ZM718.26 457.482L718.129 457.212L718.126 457.214L718.26 457.482ZM724.06 457.242L723.941 457.517L723.941 457.517L724.06 457.242ZM725.98 459.122L725.715 459.263L725.72 459.272L725.98 459.122ZM726.46 472.122L726.672 472.334L726.679 472.327L726.686 472.32L726.46 472.122ZM725.74 472.102C725.551 472.102 725.38 472.038 725.218 471.896L724.823 472.348C725.087 472.579 725.396 472.702 725.74 472.702V472.102ZM725.246 471.925C725.104 471.762 725.04 471.591 725.04 471.402H724.44C724.44 471.746 724.563 472.055 724.794 472.32L725.246 471.925ZM725.04 471.402V463.002H724.44V471.402H725.04ZM725.04 463.002C725.04 461.404 724.718 460.196 723.992 459.47L723.568 459.894C724.122 460.449 724.44 461.454 724.44 463.002H725.04ZM723.997 459.475C723.32 458.769 722.438 458.422 721.38 458.422V459.022C722.295 459.022 723.013 459.316 723.564 459.89L723.997 459.475ZM721.38 458.422C720.334 458.422 719.321 458.72 718.346 459.305L718.655 459.819C719.546 459.284 720.453 459.022 721.38 459.022V458.422ZM718.346 459.305C717.386 459.881 716.51 460.607 715.718 461.481L716.162 461.884C716.917 461.051 717.748 460.363 718.655 459.819L718.346 459.305ZM715.64 461.682V471.402H716.24V461.682H715.64ZM715.64 471.402C715.64 471.591 715.576 471.762 715.434 471.925L715.886 472.32C716.117 472.055 716.24 471.746 716.24 471.402H715.64ZM715.448 471.91C715.324 472.034 715.164 472.102 714.94 472.102V472.702C715.303 472.702 715.623 472.584 715.872 472.334L715.448 471.91ZM714.94 472.102C714.751 472.102 714.58 472.038 714.418 471.896L714.023 472.348C714.287 472.579 714.596 472.702 714.94 472.702V472.102ZM714.446 471.925C714.304 471.762 714.24 471.591 714.24 471.402H713.64C713.64 471.746 713.763 472.055 713.994 472.32L714.446 471.925ZM714.24 471.402V463.002H713.64V471.402H714.24ZM714.24 463.002C714.24 461.404 713.918 460.196 713.192 459.47L712.768 459.894C713.322 460.449 713.64 461.454 713.64 463.002H714.24ZM713.197 459.475C712.52 458.769 711.638 458.422 710.58 458.422V459.022C711.495 459.022 712.213 459.316 712.764 459.89L713.197 459.475ZM710.58 458.422C709.528 458.422 708.499 458.75 707.499 459.389L707.822 459.895C708.741 459.308 709.659 459.022 710.58 459.022V458.422ZM707.504 459.386C706.519 459.988 705.63 460.727 704.838 461.601L705.282 462.004C706.037 461.171 706.882 460.469 707.817 459.898L707.504 459.386ZM704.76 461.802V471.402H705.36V461.802H704.76ZM704.76 471.402C704.76 471.591 704.696 471.762 704.554 471.925L705.006 472.32C705.237 472.055 705.36 471.746 705.36 471.402H704.76ZM704.568 471.91C704.444 472.034 704.284 472.102 704.06 472.102V472.702C704.423 472.702 704.743 472.584 704.992 472.334L704.568 471.91ZM704.06 472.102C703.871 472.102 703.7 472.038 703.538 471.896L703.143 472.348C703.407 472.579 703.716 472.702 704.06 472.702V472.102ZM703.566 471.925C703.424 471.762 703.36 471.591 703.36 471.402H702.76C702.76 471.746 702.883 472.055 703.114 472.32L703.566 471.925ZM703.36 471.402V457.722H702.76V471.402H703.36ZM703.36 457.722C703.36 457.499 703.428 457.338 703.552 457.214L703.128 456.79C702.879 457.039 702.76 457.359 702.76 457.722H703.36ZM703.538 457.228C703.7 457.086 703.871 457.022 704.06 457.022V456.422C703.716 456.422 703.407 456.545 703.143 456.776L703.538 457.228ZM704.06 457.022C704.284 457.022 704.444 457.09 704.568 457.214L704.992 456.79C704.743 456.541 704.423 456.422 704.06 456.422V457.022ZM704.568 457.214C704.692 457.338 704.76 457.499 704.76 457.722H705.36C705.36 457.359 705.242 457.039 704.992 456.79L704.568 457.214ZM704.76 457.722V459.082H705.36V457.722H704.76ZM705.249 459.315C706.084 458.636 706.956 458.09 707.865 457.675L707.615 457.129C706.657 457.567 705.743 458.141 704.871 458.849L705.249 459.315ZM707.871 457.672C708.767 457.237 709.669 457.022 710.58 457.022V456.422C709.571 456.422 708.58 456.661 707.609 457.132L707.871 457.672ZM710.58 457.022C711.584 457.022 712.489 457.202 713.3 457.557L713.54 457.007C712.645 456.615 711.657 456.422 710.58 456.422V457.022ZM713.3 457.557C714.064 457.891 714.671 458.555 715.103 459.597L715.657 459.367C715.183 458.223 714.483 457.419 713.54 457.007L713.3 457.557ZM715.582 459.704C716.47 458.894 717.408 458.244 718.394 457.75L718.126 457.214C717.086 457.734 716.103 458.417 715.178 459.26L715.582 459.704ZM718.392 457.752C719.395 457.263 720.391 457.022 721.38 457.022V456.422C720.29 456.422 719.205 456.688 718.129 457.212L718.392 457.752ZM721.38 457.022C722.331 457.022 723.183 457.189 723.941 457.517L724.179 456.967C723.337 456.602 722.402 456.422 721.38 456.422V457.022ZM723.941 457.517C724.668 457.832 725.261 458.405 725.715 459.262L726.245 458.982C725.739 458.026 725.053 457.345 724.179 456.967L723.941 457.517ZM725.72 459.272C726.188 460.085 726.44 461.316 726.44 463.002H727.04C727.04 461.274 726.785 459.919 726.24 458.972L725.72 459.272ZM726.44 463.002V471.402H727.04V463.002H726.44ZM726.44 471.402C726.44 471.591 726.376 471.762 726.234 471.925L726.686 472.32C726.917 472.055 727.04 471.746 727.04 471.402H726.44ZM726.248 471.91C726.124 472.034 725.964 472.102 725.74 472.102V472.702C726.103 472.702 726.423 472.584 726.672 472.334L726.248 471.91Z" fill="#D56C06" mask="url(#path-19-outside-3_614_276)"/>
</svg>
