<svg width="393" height="852" viewBox="0 0 393 852" fill="none" xmlns="http://www.w3.org/2000/svg">
<circle cx="189" cy="948" r="515" fill="#ECE8D9"/>
<circle cx="248.5" cy="76.5" r="144.5" fill="#97BF02" fill-opacity="0.54"/>
<circle cx="-40.5" cy="-46.5" r="144.5" fill="#97BF02" fill-opacity="0.54"/>
<circle cx="414.5" cy="184.5" r="144.5" fill="#97BF02" fill-opacity="0.54"/>
<circle cx="114" cy="151" r="135" fill="#FFCC4B"/>
<ellipse cx="159.652" cy="232.515" rx="62.8753" ry="32.6951" transform="rotate(-10.9834 159.652 232.515)" fill="#3C3C3C"/>
<rect x="89" y="210.765" width="129.984" height="34.812" transform="rotate(-10.9834 89 210.765)" fill="#FFCC4B"/>
<rect x="212.734" y="222.213" width="75.4503" height="6.28753" rx="3.14376" transform="rotate(-10.9834 212.734 222.213)" fill="#3C3C3C"/>
<circle cx="146.108" cy="219.803" r="8.17378" fill="#D56C06"/>
<circle cx="127.246" cy="199.683" r="3.14376" fill="#97BF0D"/>
<circle cx="166.228" cy="209.743" r="3.14376" fill="#ECE8D9"/>
<circle cx="169.372" cy="227.977" r="6.28753" fill="#97BF0D"/>
<circle cx="123.473" cy="233.636" r="4.40127" fill="#ECE8D9"/>
<rect x="149.849" y="234.645" width="47.7852" height="20.1201" transform="rotate(-10.5193 149.849 234.645)" fill="#3C3C3C"/>
<mask id="path-15-outside-1_545_276" maskUnits="userSpaceOnUse" x="114" y="303" width="160" height="54" fill="black">
<rect fill="white" x="114" y="303" width="160" height="54"/>
<path d="M116.364 344C115.911 344 115.503 343.841 115.14 343.524C114.823 343.161 114.664 342.753 114.664 342.3V309.32C114.664 308.867 114.8 308.481 115.072 308.164C115.389 307.801 115.752 307.62 116.16 307.62H135.2C135.699 307.62 136.107 307.779 136.424 308.096C136.741 308.413 136.9 308.821 136.9 309.32C136.9 309.773 136.741 310.181 136.424 310.544C136.107 310.861 135.699 311.02 135.2 311.02H118.064V322.852H132.276C132.775 322.852 133.183 323.011 133.5 323.328C133.817 323.645 133.976 324.053 133.976 324.552C133.976 325.005 133.817 325.413 133.5 325.776C133.183 326.093 132.775 326.252 132.276 326.252H118.064V340.6H135.336C135.835 340.6 136.243 340.759 136.56 341.076C136.877 341.393 137.036 341.801 137.036 342.3C137.036 342.753 136.877 343.161 136.56 343.524C136.243 343.841 135.835 344 135.336 344H116.364ZM165.497 343.388C164.499 342.345 163.729 341.031 163.185 339.444C161.643 340.895 159.943 342.028 158.085 342.844C156.271 343.615 154.299 344 152.169 344C150.083 344 148.429 343.615 147.205 342.844C145.981 342.073 145.119 341.121 144.621 339.988C144.122 338.855 143.873 337.789 143.873 336.792C143.873 335.704 144.054 334.661 144.417 333.664C144.825 332.621 145.437 331.715 146.253 330.944C147.386 329.901 148.905 329.017 150.809 328.292C152.713 327.567 155.047 327.204 157.813 327.204C159.263 327.204 160.805 327.272 162.437 327.408C162.255 325.368 161.575 323.759 160.397 322.58C159.218 321.356 157.45 320.744 155.093 320.744C154.186 320.744 153.257 320.835 152.305 321.016C151.353 321.152 150.627 321.311 150.129 321.492C149.539 321.719 149.109 321.832 148.837 321.832C148.383 321.832 147.975 321.673 147.613 321.356C147.25 320.993 147.069 320.608 147.069 320.2C147.069 319.339 147.454 318.772 148.225 318.5C148.995 318.273 150.015 318.024 151.285 317.752C152.599 317.48 153.869 317.344 155.093 317.344C158.81 317.344 161.53 318.364 163.253 320.404C165.021 322.444 165.905 325.096 165.905 328.36V334.548C165.905 336.089 166.063 337.381 166.381 338.424C166.743 339.421 167.265 340.305 167.945 341.076C168.262 341.393 168.421 341.779 168.421 342.232C168.421 342.685 168.239 343.093 167.877 343.456C167.559 343.773 167.174 343.932 166.721 343.932C166.267 343.932 165.859 343.751 165.497 343.388ZM152.169 340.6C154.118 340.6 155.977 340.169 157.745 339.308C159.513 338.401 161.099 337.041 162.505 335.228V330.808C160.827 330.672 159.263 330.604 157.813 330.604C153.506 330.604 150.469 331.488 148.701 333.256C148.157 333.8 147.771 334.367 147.545 334.956C147.363 335.545 147.273 336.157 147.273 336.792C147.273 337.699 147.658 338.56 148.429 339.376C149.245 340.192 150.491 340.6 152.169 340.6ZM190.058 344C185.887 344 182.918 343.139 181.15 341.416C179.382 339.648 178.498 337.291 178.498 334.344V320.744H174.214C173.761 320.744 173.353 320.585 172.99 320.268C172.673 319.905 172.514 319.497 172.514 319.044C172.514 318.545 172.673 318.137 172.99 317.82C173.353 317.503 173.761 317.344 174.214 317.344H178.498V310.476C178.498 309.977 178.657 309.569 178.974 309.252C179.337 308.935 179.745 308.776 180.198 308.776C180.697 308.776 181.105 308.935 181.422 309.252C181.739 309.569 181.898 309.977 181.898 310.476V317.344H190.942C191.441 317.344 191.849 317.503 192.166 317.82C192.483 318.137 192.642 318.545 192.642 319.044C192.642 319.497 192.483 319.905 192.166 320.268C191.849 320.585 191.441 320.744 190.942 320.744H181.898V334.344C181.898 338.515 184.618 340.6 190.058 340.6C190.557 340.6 190.965 340.781 191.282 341.144C191.599 341.461 191.758 341.847 191.758 342.3C191.758 342.753 191.577 343.161 191.214 343.524C190.897 343.841 190.511 344 190.058 344ZM202.945 303.404C203.716 303.404 204.373 303.721 204.917 304.356C205.461 304.945 205.733 305.761 205.733 306.804C205.733 307.847 205.461 308.64 204.917 309.184C204.373 309.728 203.738 310 203.013 310C202.197 310 201.494 309.728 200.905 309.184C200.361 308.595 200.089 307.801 200.089 306.804C200.089 305.761 200.361 304.945 200.905 304.356C201.449 303.721 202.129 303.404 202.945 303.404ZM201.313 319.044C201.313 318.545 201.472 318.137 201.789 317.82C202.152 317.503 202.56 317.344 203.013 317.344C203.512 317.344 203.92 317.503 204.237 317.82C204.554 318.137 204.713 318.545 204.713 319.044V342.3C204.713 342.753 204.554 343.161 204.237 343.524C203.92 343.841 203.512 344 203.013 344C202.56 344 202.152 343.841 201.789 343.524C201.472 343.161 201.313 342.753 201.313 342.3V319.044ZM237.926 344C237.472 344 237.064 343.841 236.702 343.524C236.384 343.161 236.226 342.753 236.226 342.3V328.7C236.226 325.889 235.682 323.872 234.594 322.648C233.551 321.379 232.123 320.744 230.31 320.744C228.406 320.744 226.592 321.265 224.87 322.308C223.147 323.305 221.56 324.529 220.11 325.98V342.3C220.11 342.753 219.951 343.161 219.634 343.524C219.316 343.841 218.908 344 218.41 344C217.956 344 217.548 343.841 217.186 343.524C216.868 343.161 216.71 342.753 216.71 342.3V319.044C216.71 318.545 216.868 318.137 217.186 317.82C217.548 317.503 217.956 317.344 218.41 317.344C218.908 317.344 219.316 317.503 219.634 317.82C219.951 318.137 220.11 318.545 220.11 319.044V321.492C221.651 320.268 223.26 319.271 224.938 318.5C226.615 317.729 228.406 317.344 230.31 317.344C232.032 317.344 233.596 317.684 235.002 318.364C236.407 319.044 237.518 320.223 238.334 321.9C239.195 323.532 239.626 325.799 239.626 328.7V342.3C239.626 342.753 239.467 343.161 239.15 343.524C238.832 343.841 238.424 344 237.926 344ZM255.746 356.308C255.293 356.308 254.885 356.127 254.522 355.764C254.205 355.447 254.046 355.061 254.046 354.608C254.046 354.155 254.205 353.747 254.522 353.384C254.885 353.067 255.293 352.908 255.746 352.908C260.597 352.908 264.133 351.639 266.354 349.1C268.621 346.607 269.754 343.297 269.754 339.172V338.9C268.258 340.305 266.626 341.371 264.858 342.096C263.09 342.821 261.277 343.184 259.418 343.184C257.56 343.184 255.746 342.776 253.978 341.96C252.256 341.144 250.828 339.852 249.694 338.084C248.606 336.316 248.062 334.049 248.062 331.284C248.062 328.428 248.72 325.957 250.034 323.872C251.349 321.787 253.049 320.177 255.134 319.044C257.265 317.911 259.464 317.344 261.73 317.344C263.317 317.344 264.722 317.48 265.946 317.752C267.216 318.024 268.485 318.409 269.754 318.908C269.845 318.409 270.049 318.024 270.366 317.752C270.684 317.48 271.046 317.344 271.454 317.344C271.953 317.344 272.361 317.503 272.678 317.82C272.996 318.137 273.154 318.545 273.154 319.044V339.172C273.154 344.34 271.772 348.488 269.006 351.616C266.241 354.744 261.821 356.308 255.746 356.308ZM259.418 339.784C261.368 339.784 263.249 339.285 265.062 338.288C266.876 337.245 268.44 335.749 269.754 333.8V322.648C268.349 322.013 267.057 321.537 265.878 321.22C264.7 320.903 263.317 320.744 261.73 320.744C260.008 320.744 258.353 321.175 256.766 322.036C255.18 322.897 253.888 324.121 252.89 325.708C251.938 327.295 251.462 329.153 251.462 331.284C251.462 333.233 251.848 334.843 252.618 336.112C253.389 337.381 254.386 338.311 255.61 338.9C256.834 339.489 258.104 339.784 259.418 339.784Z"/>
</mask>
<path d="M116.364 344C115.911 344 115.503 343.841 115.14 343.524C114.823 343.161 114.664 342.753 114.664 342.3V309.32C114.664 308.867 114.8 308.481 115.072 308.164C115.389 307.801 115.752 307.62 116.16 307.62H135.2C135.699 307.62 136.107 307.779 136.424 308.096C136.741 308.413 136.9 308.821 136.9 309.32C136.9 309.773 136.741 310.181 136.424 310.544C136.107 310.861 135.699 311.02 135.2 311.02H118.064V322.852H132.276C132.775 322.852 133.183 323.011 133.5 323.328C133.817 323.645 133.976 324.053 133.976 324.552C133.976 325.005 133.817 325.413 133.5 325.776C133.183 326.093 132.775 326.252 132.276 326.252H118.064V340.6H135.336C135.835 340.6 136.243 340.759 136.56 341.076C136.877 341.393 137.036 341.801 137.036 342.3C137.036 342.753 136.877 343.161 136.56 343.524C136.243 343.841 135.835 344 135.336 344H116.364ZM165.497 343.388C164.499 342.345 163.729 341.031 163.185 339.444C161.643 340.895 159.943 342.028 158.085 342.844C156.271 343.615 154.299 344 152.169 344C150.083 344 148.429 343.615 147.205 342.844C145.981 342.073 145.119 341.121 144.621 339.988C144.122 338.855 143.873 337.789 143.873 336.792C143.873 335.704 144.054 334.661 144.417 333.664C144.825 332.621 145.437 331.715 146.253 330.944C147.386 329.901 148.905 329.017 150.809 328.292C152.713 327.567 155.047 327.204 157.813 327.204C159.263 327.204 160.805 327.272 162.437 327.408C162.255 325.368 161.575 323.759 160.397 322.58C159.218 321.356 157.45 320.744 155.093 320.744C154.186 320.744 153.257 320.835 152.305 321.016C151.353 321.152 150.627 321.311 150.129 321.492C149.539 321.719 149.109 321.832 148.837 321.832C148.383 321.832 147.975 321.673 147.613 321.356C147.25 320.993 147.069 320.608 147.069 320.2C147.069 319.339 147.454 318.772 148.225 318.5C148.995 318.273 150.015 318.024 151.285 317.752C152.599 317.48 153.869 317.344 155.093 317.344C158.81 317.344 161.53 318.364 163.253 320.404C165.021 322.444 165.905 325.096 165.905 328.36V334.548C165.905 336.089 166.063 337.381 166.381 338.424C166.743 339.421 167.265 340.305 167.945 341.076C168.262 341.393 168.421 341.779 168.421 342.232C168.421 342.685 168.239 343.093 167.877 343.456C167.559 343.773 167.174 343.932 166.721 343.932C166.267 343.932 165.859 343.751 165.497 343.388ZM152.169 340.6C154.118 340.6 155.977 340.169 157.745 339.308C159.513 338.401 161.099 337.041 162.505 335.228V330.808C160.827 330.672 159.263 330.604 157.813 330.604C153.506 330.604 150.469 331.488 148.701 333.256C148.157 333.8 147.771 334.367 147.545 334.956C147.363 335.545 147.273 336.157 147.273 336.792C147.273 337.699 147.658 338.56 148.429 339.376C149.245 340.192 150.491 340.6 152.169 340.6ZM190.058 344C185.887 344 182.918 343.139 181.15 341.416C179.382 339.648 178.498 337.291 178.498 334.344V320.744H174.214C173.761 320.744 173.353 320.585 172.99 320.268C172.673 319.905 172.514 319.497 172.514 319.044C172.514 318.545 172.673 318.137 172.99 317.82C173.353 317.503 173.761 317.344 174.214 317.344H178.498V310.476C178.498 309.977 178.657 309.569 178.974 309.252C179.337 308.935 179.745 308.776 180.198 308.776C180.697 308.776 181.105 308.935 181.422 309.252C181.739 309.569 181.898 309.977 181.898 310.476V317.344H190.942C191.441 317.344 191.849 317.503 192.166 317.82C192.483 318.137 192.642 318.545 192.642 319.044C192.642 319.497 192.483 319.905 192.166 320.268C191.849 320.585 191.441 320.744 190.942 320.744H181.898V334.344C181.898 338.515 184.618 340.6 190.058 340.6C190.557 340.6 190.965 340.781 191.282 341.144C191.599 341.461 191.758 341.847 191.758 342.3C191.758 342.753 191.577 343.161 191.214 343.524C190.897 343.841 190.511 344 190.058 344ZM202.945 303.404C203.716 303.404 204.373 303.721 204.917 304.356C205.461 304.945 205.733 305.761 205.733 306.804C205.733 307.847 205.461 308.64 204.917 309.184C204.373 309.728 203.738 310 203.013 310C202.197 310 201.494 309.728 200.905 309.184C200.361 308.595 200.089 307.801 200.089 306.804C200.089 305.761 200.361 304.945 200.905 304.356C201.449 303.721 202.129 303.404 202.945 303.404ZM201.313 319.044C201.313 318.545 201.472 318.137 201.789 317.82C202.152 317.503 202.56 317.344 203.013 317.344C203.512 317.344 203.92 317.503 204.237 317.82C204.554 318.137 204.713 318.545 204.713 319.044V342.3C204.713 342.753 204.554 343.161 204.237 343.524C203.92 343.841 203.512 344 203.013 344C202.56 344 202.152 343.841 201.789 343.524C201.472 343.161 201.313 342.753 201.313 342.3V319.044ZM237.926 344C237.472 344 237.064 343.841 236.702 343.524C236.384 343.161 236.226 342.753 236.226 342.3V328.7C236.226 325.889 235.682 323.872 234.594 322.648C233.551 321.379 232.123 320.744 230.31 320.744C228.406 320.744 226.592 321.265 224.87 322.308C223.147 323.305 221.56 324.529 220.11 325.98V342.3C220.11 342.753 219.951 343.161 219.634 343.524C219.316 343.841 218.908 344 218.41 344C217.956 344 217.548 343.841 217.186 343.524C216.868 343.161 216.71 342.753 216.71 342.3V319.044C216.71 318.545 216.868 318.137 217.186 317.82C217.548 317.503 217.956 317.344 218.41 317.344C218.908 317.344 219.316 317.503 219.634 317.82C219.951 318.137 220.11 318.545 220.11 319.044V321.492C221.651 320.268 223.26 319.271 224.938 318.5C226.615 317.729 228.406 317.344 230.31 317.344C232.032 317.344 233.596 317.684 235.002 318.364C236.407 319.044 237.518 320.223 238.334 321.9C239.195 323.532 239.626 325.799 239.626 328.7V342.3C239.626 342.753 239.467 343.161 239.15 343.524C238.832 343.841 238.424 344 237.926 344ZM255.746 356.308C255.293 356.308 254.885 356.127 254.522 355.764C254.205 355.447 254.046 355.061 254.046 354.608C254.046 354.155 254.205 353.747 254.522 353.384C254.885 353.067 255.293 352.908 255.746 352.908C260.597 352.908 264.133 351.639 266.354 349.1C268.621 346.607 269.754 343.297 269.754 339.172V338.9C268.258 340.305 266.626 341.371 264.858 342.096C263.09 342.821 261.277 343.184 259.418 343.184C257.56 343.184 255.746 342.776 253.978 341.96C252.256 341.144 250.828 339.852 249.694 338.084C248.606 336.316 248.062 334.049 248.062 331.284C248.062 328.428 248.72 325.957 250.034 323.872C251.349 321.787 253.049 320.177 255.134 319.044C257.265 317.911 259.464 317.344 261.73 317.344C263.317 317.344 264.722 317.48 265.946 317.752C267.216 318.024 268.485 318.409 269.754 318.908C269.845 318.409 270.049 318.024 270.366 317.752C270.684 317.48 271.046 317.344 271.454 317.344C271.953 317.344 272.361 317.503 272.678 317.82C272.996 318.137 273.154 318.545 273.154 319.044V339.172C273.154 344.34 271.772 348.488 269.006 351.616C266.241 354.744 261.821 356.308 255.746 356.308ZM259.418 339.784C261.368 339.784 263.249 339.285 265.062 338.288C266.876 337.245 268.44 335.749 269.754 333.8V322.648C268.349 322.013 267.057 321.537 265.878 321.22C264.7 320.903 263.317 320.744 261.73 320.744C260.008 320.744 258.353 321.175 256.766 322.036C255.18 322.897 253.888 324.121 252.89 325.708C251.938 327.295 251.462 329.153 251.462 331.284C251.462 333.233 251.848 334.843 252.618 336.112C253.389 337.381 254.386 338.311 255.61 338.9C256.834 339.489 258.104 339.784 259.418 339.784Z" fill="#3C3C3C"/>
<path d="M115.14 343.524L114.839 343.787L114.857 343.807L114.877 343.825L115.14 343.524ZM115.072 308.164L114.771 307.901L114.768 307.904L115.072 308.164ZM136.424 308.096L136.141 308.379L136.141 308.379L136.424 308.096ZM136.424 310.544L136.707 310.827L136.716 310.817L136.725 310.807L136.424 310.544ZM118.064 311.02V310.62H117.664V311.02H118.064ZM118.064 322.852H117.664V323.252H118.064V322.852ZM133.5 325.776L133.783 326.059L133.792 326.049L133.801 326.039L133.5 325.776ZM118.064 326.252V325.852H117.664V326.252H118.064ZM118.064 340.6H117.664V341H118.064V340.6ZM136.56 343.524L136.843 343.807L136.852 343.797L136.861 343.787L136.56 343.524ZM116.364 343.6C116.014 343.6 115.698 343.481 115.403 343.223L114.877 343.825C115.307 344.202 115.807 344.4 116.364 344.4V343.6ZM115.441 343.261C115.183 342.966 115.064 342.65 115.064 342.3H114.264C114.264 342.857 114.462 343.357 114.839 343.787L115.441 343.261ZM115.064 342.3V309.32H114.264V342.3H115.064ZM115.064 309.32C115.064 308.953 115.171 308.663 115.376 308.424L114.768 307.904C114.429 308.3 114.264 308.78 114.264 309.32H115.064ZM115.373 308.427C115.63 308.134 115.888 308.02 116.16 308.02V307.22C115.616 307.22 115.149 307.468 114.771 307.901L115.373 308.427ZM116.16 308.02H135.2V307.22H116.16V308.02ZM135.2 308.02C135.605 308.02 135.908 308.145 136.141 308.379L136.707 307.813C136.306 307.412 135.792 307.22 135.2 307.22V308.02ZM136.141 308.379C136.375 308.612 136.5 308.914 136.5 309.32H137.3C137.3 308.728 137.108 308.214 136.707 307.813L136.141 308.379ZM136.5 309.32C136.5 309.67 136.381 309.986 136.123 310.281L136.725 310.807C137.102 310.377 137.3 309.877 137.3 309.32H136.5ZM136.141 310.261C135.908 310.495 135.606 310.62 135.2 310.62V311.42C135.792 311.42 136.306 311.228 136.707 310.827L136.141 310.261ZM135.2 310.62H118.064V311.42H135.2V310.62ZM117.664 311.02V322.852H118.464V311.02H117.664ZM118.064 323.252H132.276V322.452H118.064V323.252ZM132.276 323.252C132.682 323.252 132.984 323.377 133.217 323.611L133.783 323.045C133.382 322.644 132.868 322.452 132.276 322.452V323.252ZM133.217 323.611C133.451 323.844 133.576 324.146 133.576 324.552H134.376C134.376 323.96 134.184 323.446 133.783 323.045L133.217 323.611ZM133.576 324.552C133.576 324.902 133.457 325.218 133.199 325.513L133.801 326.039C134.178 325.609 134.376 325.109 134.376 324.552H133.576ZM133.217 325.493C132.984 325.727 132.682 325.852 132.276 325.852V326.652C132.868 326.652 133.382 326.46 133.783 326.059L133.217 325.493ZM132.276 325.852H118.064V326.652H132.276V325.852ZM117.664 326.252V340.6H118.464V326.252H117.664ZM118.064 341H135.336V340.2H118.064V341ZM135.336 341C135.742 341 136.044 341.125 136.277 341.359L136.843 340.793C136.442 340.392 135.928 340.2 135.336 340.2V341ZM136.277 341.359C136.511 341.592 136.636 341.895 136.636 342.3H137.436C137.436 341.708 137.244 341.194 136.843 340.793L136.277 341.359ZM136.636 342.3C136.636 342.65 136.517 342.966 136.259 343.261L136.861 343.787C137.238 343.357 137.436 342.857 137.436 342.3H136.636ZM136.277 343.241C136.044 343.475 135.742 343.6 135.336 343.6V344.4C135.928 344.4 136.442 344.208 136.843 343.807L136.277 343.241ZM135.336 343.6H116.364V344.4H135.336V343.6ZM165.497 343.388L165.208 343.665L165.214 343.671L165.497 343.388ZM163.185 339.444L163.563 339.314L163.362 338.728L162.911 339.153L163.185 339.444ZM158.085 342.844L158.241 343.212L158.245 343.21L158.085 342.844ZM147.205 342.844L147.418 342.506L147.205 342.844ZM144.621 339.988L144.987 339.827L144.621 339.988ZM144.417 333.664L144.044 333.518L144.041 333.527L144.417 333.664ZM146.253 330.944L145.982 330.65L145.978 330.653L146.253 330.944ZM150.809 328.292L150.951 328.666L150.809 328.292ZM162.437 327.408L162.403 327.807L162.877 327.846L162.835 327.373L162.437 327.408ZM160.397 322.58L160.108 322.858L160.114 322.863L160.397 322.58ZM152.305 321.016L152.361 321.412L152.37 321.411L152.38 321.409L152.305 321.016ZM150.129 321.492L149.992 321.116L149.985 321.119L150.129 321.492ZM147.613 321.356L147.33 321.639L147.339 321.648L147.349 321.657L147.613 321.356ZM148.225 318.5L148.112 318.116L148.102 318.119L148.092 318.123L148.225 318.5ZM151.285 317.752L151.204 317.36L151.201 317.361L151.285 317.752ZM163.253 320.404L162.947 320.662L162.95 320.666L163.253 320.404ZM166.381 338.424L165.998 338.54L166.001 338.551L166.005 338.561L166.381 338.424ZM167.945 341.076L167.645 341.341L167.653 341.35L167.662 341.359L167.945 341.076ZM167.877 343.456L168.16 343.739L167.877 343.456ZM157.745 339.308L157.92 339.668L157.927 339.664L157.745 339.308ZM162.505 335.228L162.821 335.473L162.905 335.365V335.228H162.505ZM162.505 330.808H162.905V330.439L162.537 330.409L162.505 330.808ZM148.701 333.256L148.983 333.539L148.701 333.256ZM147.545 334.956L147.171 334.812L147.166 334.825L147.162 334.838L147.545 334.956ZM148.429 339.376L148.138 339.651L148.146 339.659L148.429 339.376ZM165.786 343.112C164.834 342.117 164.091 340.855 163.563 339.314L162.806 339.574C163.366 341.206 164.164 342.574 165.208 343.664L165.786 343.112ZM162.911 339.153C161.401 340.573 159.739 341.681 157.924 342.478L158.245 343.21C160.148 342.375 161.886 341.216 163.459 339.735L162.911 339.153ZM157.928 342.476C156.168 343.224 154.25 343.6 152.169 343.6V344.4C154.349 344.4 156.374 344.005 158.241 343.212L157.928 342.476ZM152.169 343.6C150.127 343.6 148.556 343.222 147.418 342.506L146.992 343.182C148.302 344.007 150.039 344.4 152.169 344.4V343.6ZM147.418 342.506C146.25 341.77 145.448 340.876 144.987 339.827L144.255 340.149C144.79 341.367 145.712 342.377 146.992 343.182L147.418 342.506ZM144.987 339.827C144.505 338.732 144.273 337.722 144.273 336.792H143.473C143.473 337.856 143.739 338.977 144.255 340.149L144.987 339.827ZM144.273 336.792C144.273 335.749 144.446 334.753 144.793 333.801L144.041 333.527C143.662 334.57 143.473 335.659 143.473 336.792H144.273ZM144.789 333.81C145.176 332.822 145.754 331.965 146.527 331.235L145.978 330.653C145.119 331.464 144.474 332.42 144.044 333.518L144.789 333.81ZM146.523 331.238C147.609 330.239 149.08 329.379 150.951 328.666L150.666 327.918C148.729 328.656 147.162 329.563 145.982 330.65L146.523 331.238ZM150.951 328.666C152.797 327.963 155.08 327.604 157.813 327.604V326.804C155.015 326.804 152.629 327.171 150.666 327.918L150.951 328.666ZM157.813 327.604C159.251 327.604 160.781 327.671 162.403 327.807L162.47 327.009C160.828 326.873 159.276 326.804 157.813 326.804V327.604ZM162.835 327.373C162.647 325.261 161.939 323.556 160.68 322.297L160.114 322.863C161.212 323.961 161.863 325.475 162.038 327.443L162.835 327.373ZM160.685 322.303C159.405 320.974 157.516 320.344 155.093 320.344V321.144C157.384 321.144 159.031 321.738 160.109 322.857L160.685 322.303ZM155.093 320.344C154.159 320.344 153.205 320.437 152.23 320.623L152.38 321.409C153.309 321.232 154.213 321.144 155.093 321.144V320.344ZM152.248 320.62C151.287 320.757 150.529 320.921 149.992 321.116L150.265 321.868C150.725 321.701 151.418 321.547 152.361 321.412L152.248 320.62ZM149.985 321.119C149.397 321.345 149.028 321.432 148.837 321.432V322.232C149.19 322.232 149.682 322.092 150.272 321.865L149.985 321.119ZM148.837 321.432C148.487 321.432 148.171 321.313 147.876 321.055L147.349 321.657C147.78 322.034 148.28 322.232 148.837 322.232V321.432ZM147.896 321.073C147.588 320.765 147.469 320.476 147.469 320.2H146.669C146.669 320.74 146.912 321.221 147.33 321.639L147.896 321.073ZM147.469 320.2C147.469 319.829 147.551 319.556 147.688 319.354C147.824 319.154 148.037 318.99 148.358 318.877L148.092 318.123C147.642 318.282 147.276 318.537 147.027 318.904C146.779 319.269 146.669 319.71 146.669 320.2H147.469ZM148.338 318.884C149.095 318.661 150.104 318.414 151.368 318.143L151.201 317.361C149.927 317.634 148.896 317.886 148.112 318.116L148.338 318.884ZM151.366 318.144C152.656 317.877 153.898 317.744 155.093 317.744V316.944C153.839 316.944 152.542 317.083 151.204 317.36L151.366 318.144ZM155.093 317.744C158.74 317.744 161.327 318.743 162.947 320.662L163.558 320.146C161.733 317.985 158.879 316.944 155.093 316.944V317.744ZM162.95 320.666C164.643 322.619 165.505 325.171 165.505 328.36H166.305C166.305 325.021 165.398 322.269 163.555 320.142L162.95 320.666ZM165.505 328.36V334.548H166.305V328.36H165.505ZM165.505 334.548C165.505 336.114 165.666 337.448 165.998 338.54L166.763 338.308C166.461 337.315 166.305 336.065 166.305 334.548H165.505ZM166.005 338.561C166.384 339.604 166.931 340.531 167.645 341.341L168.245 340.811C167.599 340.079 167.103 339.239 166.757 338.287L166.005 338.561ZM167.662 341.359C167.903 341.6 168.021 341.884 168.021 342.232H168.821C168.821 341.674 168.621 341.186 168.228 340.793L167.662 341.359ZM168.021 342.232C168.021 342.565 167.892 342.875 167.594 343.173L168.16 343.739C168.586 343.312 168.821 342.806 168.821 342.232H168.021ZM167.594 343.173C167.352 343.415 167.069 343.532 166.721 343.532V344.332C167.279 344.332 167.766 344.132 168.16 343.739L167.594 343.173ZM166.721 343.532C166.388 343.532 166.078 343.404 165.78 343.105L165.214 343.671C165.641 344.098 166.147 344.332 166.721 344.332V343.532ZM152.169 341C154.179 341 156.098 340.555 157.92 339.668L157.569 338.948C155.856 339.783 154.057 340.2 152.169 340.2V341ZM157.927 339.664C159.755 338.727 161.385 337.326 162.821 335.473L162.188 334.983C160.814 336.757 159.271 338.076 157.562 338.952L157.927 339.664ZM162.905 335.228V330.808H162.105V335.228H162.905ZM162.537 330.409C160.851 330.273 159.276 330.204 157.813 330.204V331.004C159.251 331.004 160.804 331.071 162.472 331.207L162.537 330.409ZM157.813 330.204C153.471 330.204 150.3 331.091 148.418 332.973L148.983 333.539C150.638 331.885 153.541 331.004 157.813 331.004V330.204ZM148.418 332.973C147.843 333.548 147.422 334.161 147.171 334.812L147.918 335.1C148.121 334.573 148.471 334.052 148.983 333.539L148.418 332.973ZM147.162 334.838C146.969 335.467 146.873 336.119 146.873 336.792H147.673C147.673 336.196 147.758 335.624 147.927 335.074L147.162 334.838ZM146.873 336.792C146.873 337.824 147.315 338.779 148.138 339.651L148.719 339.101C148.001 338.341 147.673 337.574 147.673 336.792H146.873ZM148.146 339.659C149.065 340.578 150.433 341 152.169 341V340.2C150.549 340.2 149.424 339.806 148.711 339.093L148.146 339.659ZM181.15 341.416L180.867 341.699L180.871 341.702L181.15 341.416ZM178.498 320.744H178.898V320.344H178.498V320.744ZM172.99 320.268L172.689 320.531L172.706 320.551L172.727 320.569L172.99 320.268ZM172.99 317.82L172.727 317.519L172.717 317.528L172.707 317.537L172.99 317.82ZM178.498 317.344V317.744H178.898V317.344H178.498ZM178.974 309.252L178.711 308.951L178.701 308.96L178.691 308.969L178.974 309.252ZM181.422 309.252L181.705 308.969V308.969L181.422 309.252ZM181.898 317.344H181.498V317.744H181.898V317.344ZM192.166 320.268L192.449 320.551L192.458 320.541L192.467 320.531L192.166 320.268ZM181.898 320.744V320.344H181.498V320.744H181.898ZM191.282 341.144L190.981 341.407L190.99 341.417L190.999 341.427L191.282 341.144ZM191.214 343.524L190.931 343.241H190.931L191.214 343.524ZM190.058 343.6C185.924 343.6 183.085 342.743 181.429 341.13L180.871 341.702C182.751 343.534 185.85 344.4 190.058 344.4V343.6ZM181.433 341.133C179.753 339.453 178.898 337.205 178.898 334.344H178.098C178.098 337.376 179.011 339.843 180.867 341.699L181.433 341.133ZM178.898 334.344V320.744H178.098V334.344H178.898ZM178.498 320.344H174.214V321.144H178.498V320.344ZM174.214 320.344C173.864 320.344 173.548 320.225 173.253 319.967L172.727 320.569C173.157 320.946 173.657 321.144 174.214 321.144V320.344ZM173.291 320.005C173.033 319.71 172.914 319.394 172.914 319.044H172.114C172.114 319.601 172.312 320.101 172.689 320.531L173.291 320.005ZM172.914 319.044C172.914 318.638 173.039 318.336 173.273 318.103L172.707 317.537C172.306 317.938 172.114 318.452 172.114 319.044H172.914ZM173.253 318.121C173.548 317.863 173.864 317.744 174.214 317.744V316.944C173.657 316.944 173.157 317.142 172.727 317.519L173.253 318.121ZM174.214 317.744H178.498V316.944H174.214V317.744ZM178.898 317.344V310.476H178.098V317.344H178.898ZM178.898 310.476C178.898 310.07 179.023 309.768 179.257 309.535L178.691 308.969C178.29 309.37 178.098 309.884 178.098 310.476H178.898ZM179.237 309.553C179.532 309.295 179.848 309.176 180.198 309.176V308.376C179.641 308.376 179.141 308.574 178.711 308.951L179.237 309.553ZM180.198 309.176C180.603 309.176 180.905 309.301 181.139 309.535L181.705 308.969C181.304 308.568 180.79 308.376 180.198 308.376V309.176ZM181.139 309.535C181.373 309.768 181.498 310.07 181.498 310.476H182.298C182.298 309.884 182.106 309.37 181.705 308.969L181.139 309.535ZM181.498 310.476V317.344H182.298V310.476H181.498ZM181.898 317.744H190.942V316.944H181.898V317.744ZM190.942 317.744C191.347 317.744 191.649 317.869 191.883 318.103L192.449 317.537C192.048 317.136 191.534 316.944 190.942 316.944V317.744ZM191.883 318.103C192.117 318.336 192.242 318.638 192.242 319.044H193.042C193.042 318.452 192.85 317.938 192.449 317.537L191.883 318.103ZM192.242 319.044C192.242 319.394 192.123 319.71 191.865 320.005L192.467 320.531C192.844 320.101 193.042 319.601 193.042 319.044H192.242ZM191.883 319.985C191.649 320.219 191.347 320.344 190.942 320.344V321.144C191.534 321.144 192.048 320.952 192.449 320.551L191.883 319.985ZM190.942 320.344H181.898V321.144H190.942V320.344ZM181.498 320.744V334.344H182.298V320.744H181.498ZM181.498 334.344C181.498 336.524 182.214 338.218 183.695 339.353C185.155 340.473 187.298 341 190.058 341V340.2C187.378 340.2 185.441 339.684 184.181 338.719C182.942 337.768 182.298 336.335 182.298 334.344H181.498ZM190.058 341C190.446 341 190.743 341.135 190.981 341.407L191.583 340.881C191.187 340.428 190.667 340.2 190.058 340.2V341ZM190.999 341.427C191.241 341.668 191.358 341.952 191.358 342.3H192.158C192.158 341.742 191.958 341.254 191.565 340.861L190.999 341.427ZM191.358 342.3C191.358 342.633 191.229 342.943 190.931 343.241L191.497 343.807C191.924 343.38 192.158 342.874 192.158 342.3H191.358ZM190.931 343.241C190.69 343.483 190.406 343.6 190.058 343.6V344.4C190.616 344.4 191.104 344.2 191.497 343.807L190.931 343.241ZM204.917 304.356L204.613 304.616L204.618 304.622L204.623 304.627L204.917 304.356ZM204.917 309.184L205.2 309.467L204.917 309.184ZM200.905 309.184L200.611 309.455L200.622 309.467L200.634 309.478L200.905 309.184ZM200.905 304.356L201.199 304.627L201.204 304.622L201.209 304.616L200.905 304.356ZM201.789 317.82L201.526 317.519L201.516 317.528L201.506 317.537L201.789 317.82ZM204.237 343.524L204.52 343.807L204.529 343.797L204.538 343.787L204.237 343.524ZM201.789 343.524L201.488 343.787L201.506 343.807L201.526 343.825L201.789 343.524ZM202.945 303.804C203.588 303.804 204.138 304.062 204.613 304.616L205.221 304.096C204.608 303.381 203.843 303.004 202.945 303.004V303.804ZM204.623 304.627C205.08 305.123 205.333 305.831 205.333 306.804H206.133C206.133 305.692 205.842 304.768 205.211 304.085L204.623 304.627ZM205.333 306.804C205.333 307.779 205.08 308.456 204.634 308.901L205.2 309.467C205.842 308.824 206.133 307.914 206.133 306.804H205.333ZM204.634 308.901C204.16 309.375 203.625 309.6 203.013 309.6V310.4C203.851 310.4 204.586 310.081 205.2 309.467L204.634 308.901ZM203.013 309.6C202.296 309.6 201.69 309.365 201.176 308.89L200.634 309.478C201.298 310.091 202.098 310.4 203.013 310.4V309.6ZM201.199 308.913C200.739 308.414 200.489 307.726 200.489 306.804H199.689C199.689 307.876 199.983 308.775 200.611 309.455L201.199 308.913ZM200.489 306.804C200.489 305.831 200.742 305.123 201.199 304.627L200.611 304.085C199.98 304.768 199.689 305.692 199.689 306.804H200.489ZM201.209 304.616C201.679 304.068 202.249 303.804 202.945 303.804V303.004C202.009 303.004 201.219 303.375 200.601 304.096L201.209 304.616ZM201.713 319.044C201.713 318.638 201.838 318.336 202.072 318.103L201.506 317.537C201.105 317.938 200.913 318.452 200.913 319.044H201.713ZM202.052 318.121C202.347 317.863 202.663 317.744 203.013 317.744V316.944C202.456 316.944 201.956 317.142 201.526 317.519L202.052 318.121ZM203.013 317.744C203.419 317.744 203.721 317.869 203.954 318.103L204.52 317.537C204.119 317.136 203.605 316.944 203.013 316.944V317.744ZM203.954 318.103C204.188 318.336 204.313 318.638 204.313 319.044H205.113C205.113 318.452 204.921 317.938 204.52 317.537L203.954 318.103ZM204.313 319.044V342.3H205.113V319.044H204.313ZM204.313 342.3C204.313 342.65 204.194 342.966 203.936 343.261L204.538 343.787C204.915 343.357 205.113 342.857 205.113 342.3H204.313ZM203.954 343.241C203.721 343.475 203.419 343.6 203.013 343.6V344.4C203.605 344.4 204.119 344.208 204.52 343.807L203.954 343.241ZM203.013 343.6C202.663 343.6 202.347 343.481 202.052 343.223L201.526 343.825C201.956 344.202 202.456 344.4 203.013 344.4V343.6ZM202.09 343.261C201.832 342.966 201.713 342.65 201.713 342.3H200.913C200.913 342.857 201.111 343.357 201.488 343.787L202.09 343.261ZM201.713 342.3V319.044H200.913V342.3H201.713ZM236.702 343.524L236.401 343.787L236.418 343.807L236.438 343.825L236.702 343.524ZM234.594 322.648L234.285 322.902L234.29 322.908L234.295 322.914L234.594 322.648ZM224.87 322.308L225.07 322.654L225.077 322.65L224.87 322.308ZM220.11 325.98L219.827 325.697L219.71 325.814V325.98H220.11ZM219.634 343.524L219.917 343.807L219.926 343.797L219.935 343.787L219.634 343.524ZM217.186 343.524L216.885 343.787L216.902 343.807L216.922 343.825L217.186 343.524ZM217.186 317.82L216.922 317.519L216.912 317.528L216.903 317.537L217.186 317.82ZM219.634 317.82L219.917 317.537L219.634 317.82ZM220.11 321.492H219.71V322.32L220.358 321.805L220.11 321.492ZM224.938 318.5L224.771 318.137L224.938 318.5ZM235.002 318.364L234.827 318.724L235.002 318.364ZM238.334 321.9L237.974 322.075L237.98 322.087L238.334 321.9ZM239.15 343.524L239.433 343.807L239.442 343.797L239.451 343.787L239.15 343.524ZM237.926 343.6C237.576 343.6 237.26 343.481 236.965 343.223L236.438 343.825C236.869 344.202 237.369 344.4 237.926 344.4V343.6ZM237.003 343.261C236.745 342.966 236.626 342.65 236.626 342.3H235.826C235.826 342.857 236.024 343.357 236.401 343.787L237.003 343.261ZM236.626 342.3V328.7H235.826V342.3H236.626ZM236.626 328.7C236.626 325.856 236.079 323.716 234.893 322.382L234.295 322.914C235.285 324.028 235.826 325.923 235.826 328.7H236.626ZM234.903 322.394C233.776 321.022 232.229 320.344 230.31 320.344V321.144C232.017 321.144 233.326 321.735 234.285 322.902L234.903 322.394ZM230.31 320.344C228.328 320.344 226.444 320.888 224.663 321.966L225.077 322.65C226.741 321.643 228.483 321.144 230.31 321.144V320.344ZM224.669 321.962C222.916 322.977 221.301 324.223 219.827 325.697L220.393 326.263C221.819 324.836 223.378 323.634 225.07 322.654L224.669 321.962ZM219.71 325.98V342.3H220.51V325.98H219.71ZM219.71 342.3C219.71 342.65 219.591 342.966 219.333 343.261L219.935 343.787C220.311 343.357 220.51 342.857 220.51 342.3H219.71ZM219.351 343.241C219.117 343.475 218.815 343.6 218.41 343.6V344.4C219.002 344.4 219.516 344.208 219.917 343.807L219.351 343.241ZM218.41 343.6C218.06 343.6 217.744 343.481 217.449 343.223L216.922 343.825C217.353 344.202 217.853 344.4 218.41 344.4V343.6ZM217.487 343.261C217.229 342.966 217.11 342.65 217.11 342.3H216.31C216.31 342.857 216.508 343.357 216.885 343.787L217.487 343.261ZM217.11 342.3V319.044H216.31V342.3H217.11ZM217.11 319.044C217.11 318.638 217.235 318.336 217.469 318.103L216.903 317.537C216.502 317.938 216.31 318.452 216.31 319.044H217.11ZM217.449 318.121C217.744 317.863 218.06 317.744 218.41 317.744V316.944C217.853 316.944 217.353 317.142 216.922 317.519L217.449 318.121ZM218.41 317.744C218.815 317.744 219.117 317.869 219.351 318.103L219.917 317.537C219.516 317.136 219.002 316.944 218.41 316.944V317.744ZM219.351 318.103C219.584 318.336 219.71 318.638 219.71 319.044H220.51C220.51 318.452 220.318 317.938 219.917 317.537L219.351 318.103ZM219.71 319.044V321.492H220.51V319.044H219.71ZM220.358 321.805C221.876 320.6 223.458 319.62 225.105 318.863L224.771 318.137C223.062 318.921 221.426 319.936 219.861 321.179L220.358 321.805ZM225.105 318.863C226.728 318.118 228.461 317.744 230.31 317.744V316.944C228.35 316.944 226.502 317.341 224.771 318.137L225.105 318.863ZM230.31 317.744C231.978 317.744 233.482 318.073 234.827 318.724L235.176 318.004C233.711 317.295 232.086 316.944 230.31 316.944V317.744ZM234.827 318.724C236.137 319.358 237.189 320.462 237.974 322.075L238.693 321.725C237.846 319.983 236.677 318.73 235.176 318.004L234.827 318.724ZM237.98 322.087C238.798 323.637 239.226 325.83 239.226 328.7H240.026C240.026 325.767 239.592 323.427 238.687 321.713L237.98 322.087ZM239.226 328.7V342.3H240.026V328.7H239.226ZM239.226 342.3C239.226 342.65 239.107 342.966 238.849 343.261L239.451 343.787C239.827 343.357 240.026 342.857 240.026 342.3H239.226ZM238.867 343.241C238.633 343.475 238.331 343.6 237.926 343.6V344.4C238.518 344.4 239.032 344.208 239.433 343.807L238.867 343.241ZM254.522 353.384L254.259 353.083L254.239 353.101L254.221 353.121L254.522 353.384ZM266.354 349.1L266.058 348.831L266.053 348.837L266.354 349.1ZM269.754 338.9H270.154V337.975L269.481 338.608L269.754 338.9ZM264.858 342.096L265.01 342.466L264.858 342.096ZM253.978 341.96L253.807 342.322L253.811 342.323L253.978 341.96ZM249.694 338.084L249.354 338.294L249.358 338.3L249.694 338.084ZM250.034 323.872L249.696 323.659L250.034 323.872ZM255.134 319.044L254.947 318.691L254.943 318.693L255.134 319.044ZM265.946 317.752L265.86 318.142L265.863 318.143L265.946 317.752ZM269.754 318.908L269.608 319.28L270.061 319.458L270.148 318.98L269.754 318.908ZM270.366 317.752L270.627 318.056L270.366 317.752ZM269.006 351.616L269.306 351.881L269.006 351.616ZM265.062 338.288L265.255 338.639L265.262 338.635L265.062 338.288ZM269.754 333.8L270.086 334.024L270.154 333.922V333.8H269.754ZM269.754 322.648H270.154V322.39L269.919 322.283L269.754 322.648ZM256.766 322.036L256.576 321.684L256.766 322.036ZM252.89 325.708L252.552 325.495L252.547 325.502L252.89 325.708ZM252.618 336.112L252.277 336.32L252.618 336.112ZM255.61 338.9L255.784 338.54L255.61 338.9ZM255.746 355.908C255.413 355.908 255.104 355.78 254.805 355.481L254.24 356.047C254.667 356.474 255.173 356.708 255.746 356.708V355.908ZM254.805 355.481C254.564 355.24 254.446 354.956 254.446 354.608H253.646C253.646 355.166 253.846 355.654 254.24 356.047L254.805 355.481ZM254.446 354.608C254.446 354.258 254.566 353.942 254.824 353.647L254.221 353.121C253.845 353.551 253.646 354.051 253.646 354.608H254.446ZM254.786 353.685C255.081 353.427 255.396 353.308 255.746 353.308V352.508C255.19 352.508 254.69 352.706 254.259 353.083L254.786 353.685ZM255.746 353.308C260.661 353.308 264.33 352.021 266.656 349.363L266.053 348.837C263.937 351.256 260.534 352.508 255.746 352.508V353.308ZM266.65 349.369C268.998 346.786 270.154 343.373 270.154 339.172H269.354C269.354 343.221 268.244 346.427 266.058 348.831L266.65 349.369ZM270.154 339.172V338.9H269.354V339.172H270.154ZM269.481 338.608C268.018 339.983 266.426 341.02 264.707 341.726L265.01 342.466C266.827 341.721 268.499 340.628 270.028 339.192L269.481 338.608ZM264.707 341.726C262.985 342.432 261.224 342.784 259.418 342.784V343.584C261.331 343.584 263.195 343.211 265.01 342.466L264.707 341.726ZM259.418 342.784C257.62 342.784 255.864 342.39 254.146 341.597L253.811 342.323C255.629 343.162 257.499 343.584 259.418 343.584V342.784ZM254.15 341.599C252.502 340.818 251.128 339.58 250.031 337.868L249.358 338.3C250.527 340.124 252.01 341.47 253.807 342.321L254.15 341.599ZM250.035 337.874C248.997 336.187 248.462 333.999 248.462 331.284H247.662C247.662 334.099 248.216 336.445 249.354 338.294L250.035 337.874ZM248.462 331.284C248.462 328.491 249.104 326.097 250.373 324.085L249.696 323.659C248.335 325.817 247.662 328.365 247.662 331.284H248.462ZM250.373 324.085C251.652 322.056 253.303 320.495 255.325 319.395L254.943 318.693C252.796 319.86 251.046 321.518 249.696 323.659L250.373 324.085ZM255.322 319.397C257.399 318.293 259.534 317.744 261.73 317.744V316.944C259.394 316.944 257.131 317.529 254.947 318.691L255.322 319.397ZM261.73 317.744C263.295 317.744 264.671 317.878 265.86 318.142L266.033 317.362C264.774 317.082 263.339 316.944 261.73 316.944V317.744ZM265.863 318.143C267.11 318.41 268.358 318.789 269.608 319.28L269.901 318.536C268.612 318.029 267.322 317.638 266.03 317.361L265.863 318.143ZM270.148 318.98C270.226 318.551 270.393 318.256 270.627 318.056L270.106 317.448C269.705 317.792 269.464 318.267 269.361 318.836L270.148 318.98ZM270.627 318.056C270.874 317.844 271.144 317.744 271.454 317.744V316.944C270.948 316.944 270.494 317.116 270.106 317.448L270.627 318.056ZM271.454 317.744C271.86 317.744 272.162 317.869 272.396 318.103L272.961 317.537C272.56 317.136 272.046 316.944 271.454 316.944V317.744ZM272.396 318.103C272.629 318.336 272.754 318.638 272.754 319.044H273.554C273.554 318.452 273.362 317.938 272.961 317.537L272.396 318.103ZM272.754 319.044V339.172H273.554V319.044H272.754ZM272.754 339.172C272.754 344.267 271.393 348.312 268.707 351.351L269.306 351.881C272.15 348.664 273.554 344.413 273.554 339.172H272.754ZM268.707 351.351C266.047 354.36 261.76 355.908 255.746 355.908V356.708C261.883 356.708 266.436 355.128 269.306 351.881L268.707 351.351ZM259.418 340.184C261.439 340.184 263.387 339.666 265.255 338.638L264.87 337.938C263.112 338.904 261.296 339.384 259.418 339.384V340.184ZM265.262 338.635C267.134 337.558 268.742 336.017 270.086 334.024L269.423 333.576C268.138 335.481 266.617 336.933 264.863 337.941L265.262 338.635ZM270.154 333.8V322.648H269.354V333.8H270.154ZM269.919 322.283C268.499 321.642 267.186 321.158 265.982 320.834L265.774 321.606C266.928 321.917 268.199 322.385 269.59 323.013L269.919 322.283ZM265.982 320.834C264.762 320.505 263.342 320.344 261.73 320.344V321.144C263.292 321.144 264.638 321.3 265.774 321.606L265.982 320.834ZM261.73 320.344C259.938 320.344 258.218 320.793 256.576 321.684L256.957 322.388C258.488 321.556 260.078 321.144 261.73 321.144V320.344ZM256.576 321.684C254.926 322.58 253.584 323.853 252.552 325.495L253.229 325.921C254.191 324.39 255.433 323.215 256.957 322.388L256.576 321.684ZM252.547 325.502C251.553 327.16 251.062 329.092 251.062 331.284H251.862C251.862 329.215 252.324 327.429 253.233 325.914L252.547 325.502ZM251.062 331.284C251.062 333.284 251.458 334.971 252.277 336.32L252.96 335.904C252.238 334.714 251.862 333.182 251.862 331.284H251.062ZM252.277 336.32C253.083 337.649 254.137 338.634 255.437 339.26L255.784 338.54C254.636 337.987 253.695 337.114 252.96 335.904L252.277 336.32ZM255.437 339.26C256.713 339.875 258.042 340.184 259.418 340.184V339.384C258.166 339.384 256.956 339.104 255.784 338.54L255.437 339.26Z" fill="#3C3C3C" mask="url(#path-15-outside-1_545_276)"/>
<mask id="path-17-outside-2_545_276" maskUnits="userSpaceOnUse" x="205" y="359" width="68" height="23" fill="black">
<rect fill="white" x="205" y="359" width="68" height="23"/>
<path d="M221.44 380.6C220.533 379.373 219.48 378 218.28 376.48C217.107 374.96 215.893 373.413 214.64 371.84C213.387 370.24 212.173 368.693 211 367.2C209.853 365.707 208.827 364.387 207.92 363.24V380C207.92 380.267 207.827 380.507 207.64 380.72C207.453 380.907 207.213 381 206.92 381C206.653 381 206.413 380.907 206.2 380.72C206.013 380.507 205.92 380.267 205.92 380V360.6C205.92 360.307 206.013 360.067 206.2 359.88C206.413 359.693 206.64 359.6 206.88 359.6C207.413 359.6 207.773 359.733 207.96 360C208.627 360.88 209.493 362.013 210.56 363.4C211.627 364.76 212.787 366.253 214.04 367.88C215.32 369.48 216.6 371.107 217.88 372.76C219.187 374.387 220.387 375.92 221.48 377.36V360.6C221.48 360.307 221.573 360.067 221.76 359.88C221.973 359.693 222.213 359.6 222.48 359.6C222.773 359.6 223.013 359.693 223.2 359.88C223.387 360.067 223.48 360.307 223.48 360.6V380C223.48 380.267 223.387 380.507 223.2 380.72C223.013 380.907 222.787 381 222.52 381C221.987 381 221.627 380.867 221.44 380.6ZM242.111 380.64C241.524 380.027 241.071 379.253 240.751 378.32C239.844 379.173 238.844 379.84 237.751 380.32C236.684 380.773 235.524 381 234.271 381C233.044 381 232.071 380.773 231.351 380.32C230.631 379.867 230.124 379.307 229.831 378.64C229.537 377.973 229.391 377.347 229.391 376.76C229.391 376.12 229.497 375.507 229.711 374.92C229.951 374.307 230.311 373.773 230.791 373.32C231.457 372.707 232.351 372.187 233.471 371.76C234.591 371.333 235.964 371.12 237.591 371.12C238.444 371.12 239.351 371.16 240.311 371.24C240.204 370.04 239.804 369.093 239.111 368.4C238.417 367.68 237.377 367.32 235.991 367.32C235.457 367.32 234.911 367.373 234.351 367.48C233.791 367.56 233.364 367.653 233.071 367.76C232.724 367.893 232.471 367.96 232.311 367.96C232.044 367.96 231.804 367.867 231.591 367.68C231.377 367.467 231.271 367.24 231.271 367C231.271 366.493 231.497 366.16 231.951 366C232.404 365.867 233.004 365.72 233.751 365.56C234.524 365.4 235.271 365.32 235.991 365.32C238.177 365.32 239.777 365.92 240.791 367.12C241.831 368.32 242.351 369.88 242.351 371.8V375.44C242.351 376.347 242.444 377.107 242.631 377.72C242.844 378.307 243.151 378.827 243.551 379.28C243.737 379.467 243.831 379.693 243.831 379.96C243.831 380.227 243.724 380.467 243.511 380.68C243.324 380.867 243.097 380.96 242.831 380.96C242.564 380.96 242.324 380.853 242.111 380.64ZM234.271 379C235.417 379 236.511 378.747 237.551 378.24C238.591 377.707 239.524 376.907 240.351 375.84V373.24C239.364 373.16 238.444 373.12 237.591 373.12C235.057 373.12 233.271 373.64 232.231 374.68C231.911 375 231.684 375.333 231.551 375.68C231.444 376.027 231.391 376.387 231.391 376.76C231.391 377.293 231.617 377.8 232.071 378.28C232.551 378.76 233.284 379 234.271 379ZM271.478 381C271.212 381 270.972 380.907 270.758 380.72C270.572 380.507 270.478 380.267 270.478 380V371.6C270.478 370.027 270.158 368.92 269.518 368.28C268.905 367.64 268.105 367.32 267.118 367.32C266.132 367.32 265.172 367.6 264.238 368.16C263.305 368.72 262.452 369.427 261.678 370.28V380C261.678 380.267 261.585 380.507 261.398 380.72C261.212 380.907 260.972 381 260.678 381C260.412 381 260.172 380.907 259.958 380.72C259.772 380.507 259.678 380.267 259.678 380V371.6C259.678 370.027 259.358 368.92 258.718 368.28C258.105 367.64 257.305 367.32 256.318 367.32C255.332 367.32 254.358 367.627 253.398 368.24C252.438 368.827 251.572 369.547 250.798 370.4V380C250.798 380.267 250.705 380.507 250.518 380.72C250.332 380.907 250.092 381 249.798 381C249.532 381 249.292 380.907 249.078 380.72C248.892 380.507 248.798 380.267 248.798 380V366.32C248.798 366.027 248.892 365.787 249.078 365.6C249.292 365.413 249.532 365.32 249.798 365.32C250.092 365.32 250.332 365.413 250.518 365.6C250.705 365.787 250.798 366.027 250.798 366.32V367.68C251.652 366.987 252.545 366.427 253.478 366C254.412 365.547 255.358 365.32 256.318 365.32C257.358 365.32 258.305 365.507 259.158 365.88C260.012 366.253 260.665 366.987 261.118 368.08C262.025 367.253 262.985 366.587 263.998 366.08C265.038 365.573 266.078 365.32 267.118 365.32C268.105 365.32 268.998 365.493 269.798 365.84C270.598 366.187 271.238 366.813 271.718 367.72C272.225 368.6 272.478 369.893 272.478 371.6V380C272.478 380.267 272.385 380.507 272.198 380.72C272.012 380.907 271.772 381 271.478 381Z"/>
</mask>
<path d="M221.44 380.6C220.533 379.373 219.48 378 218.28 376.48C217.107 374.96 215.893 373.413 214.64 371.84C213.387 370.24 212.173 368.693 211 367.2C209.853 365.707 208.827 364.387 207.92 363.24V380C207.92 380.267 207.827 380.507 207.64 380.72C207.453 380.907 207.213 381 206.92 381C206.653 381 206.413 380.907 206.2 380.72C206.013 380.507 205.92 380.267 205.92 380V360.6C205.92 360.307 206.013 360.067 206.2 359.88C206.413 359.693 206.64 359.6 206.88 359.6C207.413 359.6 207.773 359.733 207.96 360C208.627 360.88 209.493 362.013 210.56 363.4C211.627 364.76 212.787 366.253 214.04 367.88C215.32 369.48 216.6 371.107 217.88 372.76C219.187 374.387 220.387 375.92 221.48 377.36V360.6C221.48 360.307 221.573 360.067 221.76 359.88C221.973 359.693 222.213 359.6 222.48 359.6C222.773 359.6 223.013 359.693 223.2 359.88C223.387 360.067 223.48 360.307 223.48 360.6V380C223.48 380.267 223.387 380.507 223.2 380.72C223.013 380.907 222.787 381 222.52 381C221.987 381 221.627 380.867 221.44 380.6ZM242.111 380.64C241.524 380.027 241.071 379.253 240.751 378.32C239.844 379.173 238.844 379.84 237.751 380.32C236.684 380.773 235.524 381 234.271 381C233.044 381 232.071 380.773 231.351 380.32C230.631 379.867 230.124 379.307 229.831 378.64C229.537 377.973 229.391 377.347 229.391 376.76C229.391 376.12 229.497 375.507 229.711 374.92C229.951 374.307 230.311 373.773 230.791 373.32C231.457 372.707 232.351 372.187 233.471 371.76C234.591 371.333 235.964 371.12 237.591 371.12C238.444 371.12 239.351 371.16 240.311 371.24C240.204 370.04 239.804 369.093 239.111 368.4C238.417 367.68 237.377 367.32 235.991 367.32C235.457 367.32 234.911 367.373 234.351 367.48C233.791 367.56 233.364 367.653 233.071 367.76C232.724 367.893 232.471 367.96 232.311 367.96C232.044 367.96 231.804 367.867 231.591 367.68C231.377 367.467 231.271 367.24 231.271 367C231.271 366.493 231.497 366.16 231.951 366C232.404 365.867 233.004 365.72 233.751 365.56C234.524 365.4 235.271 365.32 235.991 365.32C238.177 365.32 239.777 365.92 240.791 367.12C241.831 368.32 242.351 369.88 242.351 371.8V375.44C242.351 376.347 242.444 377.107 242.631 377.72C242.844 378.307 243.151 378.827 243.551 379.28C243.737 379.467 243.831 379.693 243.831 379.96C243.831 380.227 243.724 380.467 243.511 380.68C243.324 380.867 243.097 380.96 242.831 380.96C242.564 380.96 242.324 380.853 242.111 380.64ZM234.271 379C235.417 379 236.511 378.747 237.551 378.24C238.591 377.707 239.524 376.907 240.351 375.84V373.24C239.364 373.16 238.444 373.12 237.591 373.12C235.057 373.12 233.271 373.64 232.231 374.68C231.911 375 231.684 375.333 231.551 375.68C231.444 376.027 231.391 376.387 231.391 376.76C231.391 377.293 231.617 377.8 232.071 378.28C232.551 378.76 233.284 379 234.271 379ZM271.478 381C271.212 381 270.972 380.907 270.758 380.72C270.572 380.507 270.478 380.267 270.478 380V371.6C270.478 370.027 270.158 368.92 269.518 368.28C268.905 367.64 268.105 367.32 267.118 367.32C266.132 367.32 265.172 367.6 264.238 368.16C263.305 368.72 262.452 369.427 261.678 370.28V380C261.678 380.267 261.585 380.507 261.398 380.72C261.212 380.907 260.972 381 260.678 381C260.412 381 260.172 380.907 259.958 380.72C259.772 380.507 259.678 380.267 259.678 380V371.6C259.678 370.027 259.358 368.92 258.718 368.28C258.105 367.64 257.305 367.32 256.318 367.32C255.332 367.32 254.358 367.627 253.398 368.24C252.438 368.827 251.572 369.547 250.798 370.4V380C250.798 380.267 250.705 380.507 250.518 380.72C250.332 380.907 250.092 381 249.798 381C249.532 381 249.292 380.907 249.078 380.72C248.892 380.507 248.798 380.267 248.798 380V366.32C248.798 366.027 248.892 365.787 249.078 365.6C249.292 365.413 249.532 365.32 249.798 365.32C250.092 365.32 250.332 365.413 250.518 365.6C250.705 365.787 250.798 366.027 250.798 366.32V367.68C251.652 366.987 252.545 366.427 253.478 366C254.412 365.547 255.358 365.32 256.318 365.32C257.358 365.32 258.305 365.507 259.158 365.88C260.012 366.253 260.665 366.987 261.118 368.08C262.025 367.253 262.985 366.587 263.998 366.08C265.038 365.573 266.078 365.32 267.118 365.32C268.105 365.32 268.998 365.493 269.798 365.84C270.598 366.187 271.238 366.813 271.718 367.72C272.225 368.6 272.478 369.893 272.478 371.6V380C272.478 380.267 272.385 380.507 272.198 380.72C272.012 380.907 271.772 381 271.478 381Z" fill="#97BF0D"/>
<path d="M221.44 380.6L221.686 380.428L221.681 380.422L221.44 380.6ZM218.28 376.48L218.043 376.663L218.045 376.666L218.28 376.48ZM214.64 371.84L214.404 372.025L214.405 372.027L214.64 371.84ZM211 367.2L210.762 367.383L210.764 367.385L211 367.2ZM207.92 363.24L208.155 363.054L207.62 362.377V363.24H207.92ZM207.64 380.72L207.852 380.932L207.859 380.925L207.866 380.918L207.64 380.72ZM206.2 380.72L205.974 380.918L205.987 380.933L206.002 380.946L206.2 380.72ZM206.2 359.88L206.002 359.654L205.995 359.661L205.988 359.668L206.2 359.88ZM207.96 360L207.714 360.172L207.721 360.181L207.96 360ZM210.56 363.4L210.322 363.583L210.324 363.585L210.56 363.4ZM214.04 367.88L213.802 368.063L213.806 368.067L214.04 367.88ZM217.88 372.76L217.643 372.944L217.646 372.948L217.88 372.76ZM221.48 377.36L221.241 377.541L221.78 378.251V377.36H221.48ZM221.76 359.88L221.562 359.654L221.555 359.661L221.548 359.668L221.76 359.88ZM223.2 380.72L223.412 380.932L223.419 380.925L223.426 380.918L223.2 380.72ZM221.681 380.422C220.772 379.192 219.717 377.816 218.515 376.294L218.045 376.666C219.243 378.184 220.294 379.555 221.199 380.778L221.681 380.422ZM218.517 376.297C217.343 374.775 216.129 373.228 214.875 371.653L214.405 372.027C215.658 373.599 216.87 375.145 218.043 376.663L218.517 376.297ZM214.876 371.655C213.623 370.055 212.409 368.508 211.236 367.015L210.764 367.385C211.937 368.879 213.151 370.425 214.404 372.025L214.876 371.655ZM211.238 367.017C210.091 365.523 209.063 364.202 208.155 363.054L207.685 363.426C208.59 364.571 209.616 365.89 210.762 367.383L211.238 367.017ZM207.62 363.24V380H208.22V363.24H207.62ZM207.62 380C207.62 380.189 207.556 380.36 207.414 380.522L207.866 380.918C208.097 380.653 208.22 380.344 208.22 380H207.62ZM207.428 380.508C207.304 380.632 207.143 380.7 206.92 380.7V381.3C207.283 381.3 207.603 381.182 207.852 380.932L207.428 380.508ZM206.92 380.7C206.731 380.7 206.56 380.636 206.398 380.494L206.002 380.946C206.267 381.177 206.576 381.3 206.92 381.3V380.7ZM206.426 380.522C206.284 380.36 206.22 380.189 206.22 380H205.62C205.62 380.344 205.743 380.653 205.974 380.918L206.426 380.522ZM206.22 380V360.6H205.62V380H206.22ZM206.22 360.6C206.22 360.377 206.288 360.216 206.412 360.092L205.988 359.668C205.738 359.917 205.62 360.237 205.62 360.6H206.22ZM206.398 360.106C206.567 359.958 206.725 359.9 206.88 359.9V359.3C206.555 359.3 206.26 359.429 206.002 359.654L206.398 360.106ZM206.88 359.9C207.379 359.9 207.612 360.026 207.714 360.172L208.206 359.828C207.935 359.44 207.448 359.3 206.88 359.3V359.9ZM207.721 360.181C208.388 361.062 209.255 362.196 210.322 363.583L210.798 363.217C209.731 361.831 208.865 360.698 208.199 359.819L207.721 360.181ZM210.324 363.585C211.39 364.944 212.549 366.437 213.802 368.063L214.278 367.697C213.024 366.07 211.863 364.576 210.796 363.215L210.324 363.585ZM213.806 368.067C215.085 369.666 216.364 371.292 217.643 372.944L218.117 372.576C216.836 370.922 215.555 369.294 214.274 367.693L213.806 368.067ZM217.646 372.948C218.951 374.573 220.15 376.104 221.241 377.541L221.719 377.179C220.624 375.736 219.422 374.201 218.114 372.572L217.646 372.948ZM221.78 377.36V360.6H221.18V377.36H221.78ZM221.78 360.6C221.78 360.377 221.848 360.216 221.972 360.092L221.548 359.668C221.298 359.917 221.18 360.237 221.18 360.6H221.78ZM221.958 360.106C222.12 359.964 222.291 359.9 222.48 359.9V359.3C222.136 359.3 221.827 359.423 221.562 359.654L221.958 360.106ZM222.48 359.9C222.703 359.9 222.864 359.968 222.988 360.092L223.412 359.668C223.163 359.418 222.843 359.3 222.48 359.3V359.9ZM222.988 360.092C223.112 360.216 223.18 360.377 223.18 360.6H223.78C223.78 360.237 223.662 359.917 223.412 359.668L222.988 360.092ZM223.18 360.6V380H223.78V360.6H223.18ZM223.18 380C223.18 380.189 223.116 380.36 222.974 380.522L223.426 380.918C223.657 380.653 223.78 380.344 223.78 380H223.18ZM222.988 380.508C222.858 380.638 222.708 380.7 222.52 380.7V381.3C222.865 381.3 223.169 381.176 223.412 380.932L222.988 380.508ZM222.52 380.7C222.021 380.7 221.788 380.574 221.686 380.428L221.194 380.772C221.465 381.16 221.952 381.3 222.52 381.3V380.7ZM242.111 380.64L241.894 380.847L241.898 380.852L242.111 380.64ZM240.751 378.32L241.034 378.223L240.884 377.783L240.545 378.102L240.751 378.32ZM237.751 380.32L237.868 380.596L237.871 380.595L237.751 380.32ZM231.351 380.32L231.51 380.066L231.351 380.32ZM229.831 378.64L230.105 378.519L229.831 378.64ZM229.711 374.92L229.431 374.811L229.429 374.817L229.711 374.92ZM230.791 373.32L230.587 373.099L230.585 373.102L230.791 373.32ZM233.471 371.76L233.577 372.04L233.471 371.76ZM240.311 371.24L240.286 371.539L240.641 371.569L240.609 371.213L240.311 371.24ZM239.111 368.4L238.894 368.608L238.898 368.612L239.111 368.4ZM234.351 367.48L234.393 367.777L234.407 367.775L234.351 367.48ZM233.071 367.76L232.968 367.478L232.963 367.48L233.071 367.76ZM231.591 367.68L231.378 367.892L231.386 367.899L231.393 367.906L231.591 367.68ZM231.951 366L231.866 365.712L231.858 365.714L231.851 365.717L231.951 366ZM233.751 365.56L233.69 365.266L233.688 365.267L233.751 365.56ZM240.791 367.12L240.561 367.314L240.564 367.316L240.791 367.12ZM242.631 377.72L242.344 377.807L242.346 377.815L242.349 377.823L242.631 377.72ZM243.551 379.28L243.326 379.478L243.332 379.486L243.338 379.492L243.551 379.28ZM243.511 380.68L243.723 380.892L243.511 380.68ZM237.551 378.24L237.682 378.51L237.688 378.507L237.551 378.24ZM240.351 375.84L240.588 376.024L240.651 375.943V375.84H240.351ZM240.351 373.24H240.651V372.963L240.375 372.941L240.351 373.24ZM232.231 374.68L232.443 374.892L232.231 374.68ZM231.551 375.68L231.271 375.572L231.267 375.582L231.264 375.592L231.551 375.68ZM232.071 378.28L231.852 378.486L231.858 378.492L232.071 378.28ZM242.327 380.433C241.775 379.855 241.343 379.122 241.034 378.223L240.467 378.417C240.799 379.385 241.273 380.198 241.894 380.847L242.327 380.433ZM240.545 378.102C239.662 378.932 238.691 379.58 237.63 380.045L237.871 380.595C238.997 380.1 240.026 379.414 240.956 378.538L240.545 378.102ZM237.633 380.044C236.607 380.48 235.487 380.7 234.271 380.7V381.3C235.561 381.3 236.761 381.066 237.868 380.596L237.633 380.044ZM234.271 380.7C233.077 380.7 232.166 380.479 231.51 380.066L231.191 380.574C231.975 381.068 233.011 381.3 234.271 381.3V380.7ZM231.51 380.066C230.832 379.639 230.371 379.122 230.105 378.519L229.556 378.761C229.877 379.491 230.429 380.094 231.191 380.574L231.51 380.066ZM230.105 378.519C229.825 377.882 229.691 377.296 229.691 376.76H229.091C229.091 377.397 229.25 378.065 229.556 378.761L230.105 378.519ZM229.691 376.76C229.691 376.154 229.791 375.575 229.993 375.023L229.429 374.817C229.203 375.438 229.091 376.086 229.091 376.76H229.691ZM229.99 375.029C230.214 374.457 230.549 373.961 230.997 373.538L230.585 373.102C230.073 373.586 229.687 374.156 229.431 374.811L229.99 375.029ZM230.994 373.541C231.625 372.96 232.482 372.458 233.577 372.04L233.364 371.48C232.219 371.916 231.29 372.453 230.588 373.099L230.994 373.541ZM233.577 372.04C234.654 371.63 235.988 371.42 237.591 371.42V370.82C235.94 370.82 234.528 371.036 233.364 371.48L233.577 372.04ZM237.591 371.42C238.435 371.42 239.333 371.46 240.286 371.539L240.336 370.941C239.368 370.86 238.453 370.82 237.591 370.82V371.42ZM240.609 371.213C240.498 369.96 240.076 368.942 239.323 368.188L238.898 368.612C239.531 369.245 239.91 370.12 240.012 371.267L240.609 371.213ZM239.327 368.192C238.558 367.393 237.426 367.02 235.991 367.02V367.62C237.328 367.62 238.277 367.967 238.895 368.608L239.327 368.192ZM235.991 367.02C235.437 367.02 234.872 367.075 234.294 367.185L234.407 367.775C234.95 367.671 235.477 367.62 235.991 367.62V367.02ZM234.308 367.183C233.741 367.264 233.291 367.361 232.968 367.478L233.173 368.042C233.437 367.946 233.84 367.856 234.393 367.777L234.308 367.183ZM232.963 367.48C232.617 367.613 232.41 367.66 232.311 367.66V368.26C232.531 368.26 232.831 368.174 233.178 368.04L232.963 367.48ZM232.311 367.66C232.121 367.66 231.951 367.596 231.788 367.454L231.393 367.906C231.657 368.137 231.966 368.26 232.311 368.26V367.66ZM231.803 367.468C231.63 367.296 231.571 367.141 231.571 367H230.971C230.971 367.339 231.124 367.638 231.378 367.892L231.803 367.468ZM231.571 367C231.571 366.791 231.617 366.644 231.689 366.539C231.76 366.435 231.872 366.346 232.05 366.283L231.851 365.717C231.576 365.814 231.348 365.972 231.193 366.201C231.038 366.429 230.971 366.702 230.971 367H231.571ZM232.035 366.288C232.478 366.157 233.07 366.013 233.813 365.853L233.688 365.267C232.938 365.427 232.329 365.576 231.866 365.712L232.035 366.288ZM233.811 365.854C234.567 365.698 235.293 365.62 235.991 365.62V365.02C235.248 365.02 234.481 365.102 233.69 365.266L233.811 365.854ZM235.991 365.62C238.125 365.62 239.625 366.205 240.561 367.314L241.02 366.926C239.93 365.635 238.229 365.02 235.991 365.02V365.62ZM240.564 367.316C241.547 368.451 242.051 369.936 242.051 371.8H242.651C242.651 369.824 242.114 368.189 241.017 366.924L240.564 367.316ZM242.051 371.8V375.44H242.651V371.8H242.051ZM242.051 375.44C242.051 376.365 242.146 377.157 242.344 377.807L242.918 377.633C242.742 377.057 242.651 376.328 242.651 375.44H242.051ZM242.349 377.823C242.574 378.443 242.9 378.996 243.326 379.478L243.776 379.082C243.401 378.657 243.113 378.17 242.913 377.617L242.349 377.823ZM243.338 379.492C243.468 379.622 243.531 379.772 243.531 379.96H244.131C244.131 379.615 244.006 379.311 243.763 379.068L243.338 379.492ZM243.531 379.96C243.531 380.136 243.464 380.303 243.298 380.468L243.723 380.892C243.984 380.631 244.131 380.317 244.131 379.96H243.531ZM243.298 380.468C243.169 380.598 243.019 380.66 242.831 380.66V381.26C243.176 381.26 243.479 381.136 243.723 380.892L243.298 380.468ZM242.831 380.66C242.654 380.66 242.488 380.593 242.323 380.428L241.898 380.852C242.16 381.114 242.474 381.26 242.831 381.26V380.66ZM234.271 379.3C235.463 379.3 236.601 379.036 237.682 378.51L237.419 377.97C236.42 378.457 235.371 378.7 234.271 378.7V379.3ZM237.688 378.507C238.772 377.951 239.738 377.12 240.588 376.024L240.113 375.656C239.31 376.694 238.409 377.463 237.414 377.973L237.688 378.507ZM240.651 375.84V373.24H240.051V375.84H240.651ZM240.375 372.941C239.381 372.86 238.453 372.82 237.591 372.82V373.42C238.435 373.42 239.347 373.46 240.326 373.539L240.375 372.941ZM237.591 372.82C235.031 372.82 233.144 373.343 232.018 374.468L232.443 374.892C233.397 373.937 235.083 373.42 237.591 373.42V372.82ZM232.018 374.468C231.675 374.811 231.422 375.179 231.271 375.572L231.831 375.788C231.946 375.488 232.146 375.189 232.443 374.892L232.018 374.468ZM231.264 375.592C231.148 375.968 231.091 376.358 231.091 376.76H231.691C231.691 376.416 231.74 376.085 231.837 375.768L231.264 375.592ZM231.091 376.76C231.091 377.387 231.36 377.964 231.853 378.486L232.289 378.074C231.875 377.636 231.691 377.2 231.691 376.76H231.091ZM231.858 378.492C232.416 379.05 233.24 379.3 234.271 379.3V378.7C233.327 378.7 232.685 378.47 232.283 378.068L231.858 378.492ZM270.758 380.72L270.533 380.918L270.546 380.933L270.561 380.946L270.758 380.72ZM269.518 368.28L269.302 368.488L269.306 368.492L269.518 368.28ZM264.238 368.16L264.084 367.903L264.238 368.16ZM261.678 370.28L261.456 370.079L261.378 370.164V370.28H261.678ZM261.398 380.72L261.611 380.932L261.618 380.925L261.624 380.918L261.398 380.72ZM259.958 380.72L259.733 380.918L259.746 380.933L259.761 380.946L259.958 380.72ZM258.718 368.28L258.502 368.488L258.506 368.492L258.718 368.28ZM253.398 368.24L253.555 368.496L253.56 368.493L253.398 368.24ZM250.798 370.4L250.576 370.199L250.498 370.284V370.4H250.798ZM250.518 380.72L250.731 380.932L250.738 380.925L250.744 380.918L250.518 380.72ZM249.078 380.72L248.853 380.918L248.866 380.933L248.881 380.946L249.078 380.72ZM249.078 365.6L248.881 365.374L248.873 365.381L248.866 365.388L249.078 365.6ZM250.518 365.6L250.731 365.388L250.518 365.6ZM250.798 367.68H250.498V368.31L250.988 367.913L250.798 367.68ZM253.478 366L253.603 366.273L253.61 366.27L253.478 366ZM261.118 368.08L260.841 368.195L261.005 368.589L261.321 368.302L261.118 368.08ZM263.998 366.08L263.867 365.81L263.864 365.812L263.998 366.08ZM269.798 365.84L269.679 366.115V366.115L269.798 365.84ZM271.718 367.72L271.453 367.86L271.458 367.87L271.718 367.72ZM272.198 380.72L272.411 380.932L272.418 380.925L272.424 380.918L272.198 380.72ZM271.478 380.7C271.289 380.7 271.118 380.636 270.956 380.494L270.561 380.946C270.825 381.177 271.134 381.3 271.478 381.3V380.7ZM270.984 380.522C270.842 380.36 270.778 380.189 270.778 380H270.178C270.178 380.344 270.301 380.653 270.533 380.918L270.984 380.522ZM270.778 380V371.6H270.178V380H270.778ZM270.778 371.6C270.778 370.002 270.456 368.794 269.731 368.068L269.306 368.492C269.861 369.046 270.178 370.052 270.178 371.6H270.778ZM269.735 368.072C269.058 367.366 268.177 367.02 267.118 367.02V367.62C268.034 367.62 268.752 367.914 269.302 368.488L269.735 368.072ZM267.118 367.02C266.072 367.02 265.059 367.318 264.084 367.903L264.393 368.417C265.284 367.882 266.192 367.62 267.118 367.62V367.02ZM264.084 367.903C263.124 368.479 262.248 369.205 261.456 370.079L261.901 370.481C262.655 369.649 263.486 368.961 264.393 368.417L264.084 367.903ZM261.378 370.28V380H261.978V370.28H261.378ZM261.378 380C261.378 380.189 261.315 380.36 261.173 380.522L261.624 380.918C261.855 380.653 261.978 380.344 261.978 380H261.378ZM261.186 380.508C261.062 380.632 260.902 380.7 260.678 380.7V381.3C261.042 381.3 261.361 381.182 261.611 380.932L261.186 380.508ZM260.678 380.7C260.489 380.7 260.318 380.636 260.156 380.494L259.761 380.946C260.025 381.177 260.334 381.3 260.678 381.3V380.7ZM260.184 380.522C260.042 380.36 259.978 380.189 259.978 380H259.378C259.378 380.344 259.501 380.653 259.733 380.918L260.184 380.522ZM259.978 380V371.6H259.378V380H259.978ZM259.978 371.6C259.978 370.002 259.656 368.794 258.931 368.068L258.506 368.492C259.061 369.046 259.378 370.052 259.378 371.6H259.978ZM258.935 368.072C258.258 367.366 257.377 367.02 256.318 367.02V367.62C257.234 367.62 257.952 367.914 258.502 368.488L258.935 368.072ZM256.318 367.02C255.266 367.02 254.238 367.348 253.237 367.987L253.56 368.493C254.479 367.905 255.397 367.62 256.318 367.62V367.02ZM253.242 367.984C252.257 368.586 251.368 369.324 250.576 370.199L251.021 370.601C251.775 369.769 252.62 369.067 253.555 368.496L253.242 367.984ZM250.498 370.4V380H251.098V370.4H250.498ZM250.498 380C250.498 380.189 250.435 380.36 250.293 380.522L250.744 380.918C250.975 380.653 251.098 380.344 251.098 380H250.498ZM250.306 380.508C250.182 380.632 250.022 380.7 249.798 380.7V381.3C250.162 381.3 250.481 381.182 250.731 380.932L250.306 380.508ZM249.798 380.7C249.609 380.7 249.438 380.636 249.276 380.494L248.881 380.946C249.145 381.177 249.454 381.3 249.798 381.3V380.7ZM249.304 380.522C249.162 380.36 249.098 380.189 249.098 380H248.498C248.498 380.344 248.621 380.653 248.853 380.918L249.304 380.522ZM249.098 380V366.32H248.498V380H249.098ZM249.098 366.32C249.098 366.097 249.167 365.936 249.291 365.812L248.866 365.388C248.617 365.637 248.498 365.957 248.498 366.32H249.098ZM249.276 365.826C249.438 365.684 249.609 365.62 249.798 365.62V365.02C249.454 365.02 249.145 365.143 248.881 365.374L249.276 365.826ZM249.798 365.62C250.022 365.62 250.182 365.688 250.306 365.812L250.731 365.388C250.481 365.138 250.162 365.02 249.798 365.02V365.62ZM250.306 365.812C250.43 365.936 250.498 366.097 250.498 366.32H251.098C251.098 365.957 250.98 365.637 250.731 365.388L250.306 365.812ZM250.498 366.32V367.68H251.098V366.32H250.498ZM250.988 367.913C251.823 367.234 252.695 366.688 253.603 366.273L253.354 365.727C252.396 366.165 251.481 366.739 250.609 367.447L250.988 367.913ZM253.61 366.27C254.505 365.835 255.407 365.62 256.318 365.62V365.02C255.309 365.02 254.318 365.259 253.347 365.73L253.61 366.27ZM256.318 365.62C257.322 365.62 258.227 365.8 259.038 366.155L259.279 365.605C258.383 365.213 257.395 365.02 256.318 365.02V365.62ZM259.038 366.155C259.803 366.489 260.409 367.153 260.841 368.195L261.396 367.965C260.921 366.82 260.221 366.017 259.279 365.605L259.038 366.155ZM261.321 368.302C262.209 367.492 263.146 366.842 264.133 366.348L263.864 365.812C262.824 366.332 261.842 367.015 260.916 367.858L261.321 368.302ZM264.13 366.35C265.134 365.861 266.129 365.62 267.118 365.62V365.02C266.028 365.02 264.943 365.286 263.867 365.81L264.13 366.35ZM267.118 365.62C268.069 365.62 268.921 365.787 269.679 366.115L269.918 365.565C269.075 365.2 268.141 365.02 267.118 365.02V365.62ZM269.679 366.115C270.406 366.43 270.999 367.003 271.453 367.86L271.984 367.58C271.478 366.624 270.791 365.943 269.918 365.565L269.679 366.115ZM271.458 367.87C271.927 368.683 272.178 369.914 272.178 371.6H272.778C272.778 369.872 272.524 368.517 271.978 367.57L271.458 367.87ZM272.178 371.6V380H272.778V371.6H272.178ZM272.178 380C272.178 380.189 272.115 380.36 271.973 380.522L272.424 380.918C272.655 380.653 272.778 380.344 272.778 380H272.178ZM271.986 380.508C271.862 380.632 271.702 380.7 271.478 380.7V381.3C271.842 381.3 272.161 381.182 272.411 380.932L271.986 380.508Z" fill="#97BF0D" mask="url(#path-17-outside-2_545_276)"/>
<mask id="path-19-outside-3_545_276" maskUnits="userSpaceOnUse" x="114" y="359" width="68" height="23" fill="black">
<rect fill="white" x="114" y="359" width="68" height="23"/>
<path d="M130.44 380.6C129.533 379.373 128.48 378 127.28 376.48C126.107 374.96 124.893 373.413 123.64 371.84C122.387 370.24 121.173 368.693 120 367.2C118.853 365.707 117.827 364.387 116.92 363.24V380C116.92 380.267 116.827 380.507 116.64 380.72C116.453 380.907 116.213 381 115.92 381C115.653 381 115.413 380.907 115.2 380.72C115.013 380.507 114.92 380.267 114.92 380V360.6C114.92 360.307 115.013 360.067 115.2 359.88C115.413 359.693 115.64 359.6 115.88 359.6C116.413 359.6 116.773 359.733 116.96 360C117.627 360.88 118.493 362.013 119.56 363.4C120.627 364.76 121.787 366.253 123.04 367.88C124.32 369.48 125.6 371.107 126.88 372.76C128.187 374.387 129.387 375.92 130.48 377.36V360.6C130.48 360.307 130.573 360.067 130.76 359.88C130.973 359.693 131.213 359.6 131.48 359.6C131.773 359.6 132.013 359.693 132.2 359.88C132.387 360.067 132.48 360.307 132.48 360.6V380C132.48 380.267 132.387 380.507 132.2 380.72C132.013 380.907 131.787 381 131.52 381C130.987 381 130.627 380.867 130.44 380.6ZM151.111 380.64C150.524 380.027 150.071 379.253 149.751 378.32C148.844 379.173 147.844 379.84 146.751 380.32C145.684 380.773 144.524 381 143.271 381C142.044 381 141.071 380.773 140.351 380.32C139.631 379.867 139.124 379.307 138.831 378.64C138.537 377.973 138.391 377.347 138.391 376.76C138.391 376.12 138.497 375.507 138.711 374.92C138.951 374.307 139.311 373.773 139.791 373.32C140.457 372.707 141.351 372.187 142.471 371.76C143.591 371.333 144.964 371.12 146.591 371.12C147.444 371.12 148.351 371.16 149.311 371.24C149.204 370.04 148.804 369.093 148.111 368.4C147.417 367.68 146.377 367.32 144.991 367.32C144.457 367.32 143.911 367.373 143.351 367.48C142.791 367.56 142.364 367.653 142.071 367.76C141.724 367.893 141.471 367.96 141.311 367.96C141.044 367.96 140.804 367.867 140.591 367.68C140.377 367.467 140.271 367.24 140.271 367C140.271 366.493 140.497 366.16 140.951 366C141.404 365.867 142.004 365.72 142.751 365.56C143.524 365.4 144.271 365.32 144.991 365.32C147.177 365.32 148.777 365.92 149.791 367.12C150.831 368.32 151.351 369.88 151.351 371.8V375.44C151.351 376.347 151.444 377.107 151.631 377.72C151.844 378.307 152.151 378.827 152.551 379.28C152.737 379.467 152.831 379.693 152.831 379.96C152.831 380.227 152.724 380.467 152.511 380.68C152.324 380.867 152.097 380.96 151.831 380.96C151.564 380.96 151.324 380.853 151.111 380.64ZM143.271 379C144.417 379 145.511 378.747 146.551 378.24C147.591 377.707 148.524 376.907 149.351 375.84V373.24C148.364 373.16 147.444 373.12 146.591 373.12C144.057 373.12 142.271 373.64 141.231 374.68C140.911 375 140.684 375.333 140.551 375.68C140.444 376.027 140.391 376.387 140.391 376.76C140.391 377.293 140.617 377.8 141.071 378.28C141.551 378.76 142.284 379 143.271 379ZM180.478 381C180.212 381 179.972 380.907 179.758 380.72C179.572 380.507 179.478 380.267 179.478 380V371.6C179.478 370.027 179.158 368.92 178.518 368.28C177.905 367.64 177.105 367.32 176.118 367.32C175.132 367.32 174.172 367.6 173.238 368.16C172.305 368.72 171.452 369.427 170.678 370.28V380C170.678 380.267 170.585 380.507 170.398 380.72C170.212 380.907 169.972 381 169.678 381C169.412 381 169.172 380.907 168.958 380.72C168.772 380.507 168.678 380.267 168.678 380V371.6C168.678 370.027 168.358 368.92 167.718 368.28C167.105 367.64 166.305 367.32 165.318 367.32C164.332 367.32 163.358 367.627 162.398 368.24C161.438 368.827 160.572 369.547 159.798 370.4V380C159.798 380.267 159.705 380.507 159.518 380.72C159.332 380.907 159.092 381 158.798 381C158.532 381 158.292 380.907 158.078 380.72C157.892 380.507 157.798 380.267 157.798 380V366.32C157.798 366.027 157.892 365.787 158.078 365.6C158.292 365.413 158.532 365.32 158.798 365.32C159.092 365.32 159.332 365.413 159.518 365.6C159.705 365.787 159.798 366.027 159.798 366.32V367.68C160.652 366.987 161.545 366.427 162.478 366C163.412 365.547 164.358 365.32 165.318 365.32C166.358 365.32 167.305 365.507 168.158 365.88C169.012 366.253 169.665 366.987 170.118 368.08C171.025 367.253 171.985 366.587 172.998 366.08C174.038 365.573 175.078 365.32 176.118 365.32C177.105 365.32 177.998 365.493 178.798 365.84C179.598 366.187 180.238 366.813 180.718 367.72C181.225 368.6 181.478 369.893 181.478 371.6V380C181.478 380.267 181.385 380.507 181.198 380.72C181.012 380.907 180.772 381 180.478 381Z"/>
</mask>
<path d="M130.44 380.6C129.533 379.373 128.48 378 127.28 376.48C126.107 374.96 124.893 373.413 123.64 371.84C122.387 370.24 121.173 368.693 120 367.2C118.853 365.707 117.827 364.387 116.92 363.24V380C116.92 380.267 116.827 380.507 116.64 380.72C116.453 380.907 116.213 381 115.92 381C115.653 381 115.413 380.907 115.2 380.72C115.013 380.507 114.92 380.267 114.92 380V360.6C114.92 360.307 115.013 360.067 115.2 359.88C115.413 359.693 115.64 359.6 115.88 359.6C116.413 359.6 116.773 359.733 116.96 360C117.627 360.88 118.493 362.013 119.56 363.4C120.627 364.76 121.787 366.253 123.04 367.88C124.32 369.48 125.6 371.107 126.88 372.76C128.187 374.387 129.387 375.92 130.48 377.36V360.6C130.48 360.307 130.573 360.067 130.76 359.88C130.973 359.693 131.213 359.6 131.48 359.6C131.773 359.6 132.013 359.693 132.2 359.88C132.387 360.067 132.48 360.307 132.48 360.6V380C132.48 380.267 132.387 380.507 132.2 380.72C132.013 380.907 131.787 381 131.52 381C130.987 381 130.627 380.867 130.44 380.6ZM151.111 380.64C150.524 380.027 150.071 379.253 149.751 378.32C148.844 379.173 147.844 379.84 146.751 380.32C145.684 380.773 144.524 381 143.271 381C142.044 381 141.071 380.773 140.351 380.32C139.631 379.867 139.124 379.307 138.831 378.64C138.537 377.973 138.391 377.347 138.391 376.76C138.391 376.12 138.497 375.507 138.711 374.92C138.951 374.307 139.311 373.773 139.791 373.32C140.457 372.707 141.351 372.187 142.471 371.76C143.591 371.333 144.964 371.12 146.591 371.12C147.444 371.12 148.351 371.16 149.311 371.24C149.204 370.04 148.804 369.093 148.111 368.4C147.417 367.68 146.377 367.32 144.991 367.32C144.457 367.32 143.911 367.373 143.351 367.48C142.791 367.56 142.364 367.653 142.071 367.76C141.724 367.893 141.471 367.96 141.311 367.96C141.044 367.96 140.804 367.867 140.591 367.68C140.377 367.467 140.271 367.24 140.271 367C140.271 366.493 140.497 366.16 140.951 366C141.404 365.867 142.004 365.72 142.751 365.56C143.524 365.4 144.271 365.32 144.991 365.32C147.177 365.32 148.777 365.92 149.791 367.12C150.831 368.32 151.351 369.88 151.351 371.8V375.44C151.351 376.347 151.444 377.107 151.631 377.72C151.844 378.307 152.151 378.827 152.551 379.28C152.737 379.467 152.831 379.693 152.831 379.96C152.831 380.227 152.724 380.467 152.511 380.68C152.324 380.867 152.097 380.96 151.831 380.96C151.564 380.96 151.324 380.853 151.111 380.64ZM143.271 379C144.417 379 145.511 378.747 146.551 378.24C147.591 377.707 148.524 376.907 149.351 375.84V373.24C148.364 373.16 147.444 373.12 146.591 373.12C144.057 373.12 142.271 373.64 141.231 374.68C140.911 375 140.684 375.333 140.551 375.68C140.444 376.027 140.391 376.387 140.391 376.76C140.391 377.293 140.617 377.8 141.071 378.28C141.551 378.76 142.284 379 143.271 379ZM180.478 381C180.212 381 179.972 380.907 179.758 380.72C179.572 380.507 179.478 380.267 179.478 380V371.6C179.478 370.027 179.158 368.92 178.518 368.28C177.905 367.64 177.105 367.32 176.118 367.32C175.132 367.32 174.172 367.6 173.238 368.16C172.305 368.72 171.452 369.427 170.678 370.28V380C170.678 380.267 170.585 380.507 170.398 380.72C170.212 380.907 169.972 381 169.678 381C169.412 381 169.172 380.907 168.958 380.72C168.772 380.507 168.678 380.267 168.678 380V371.6C168.678 370.027 168.358 368.92 167.718 368.28C167.105 367.64 166.305 367.32 165.318 367.32C164.332 367.32 163.358 367.627 162.398 368.24C161.438 368.827 160.572 369.547 159.798 370.4V380C159.798 380.267 159.705 380.507 159.518 380.72C159.332 380.907 159.092 381 158.798 381C158.532 381 158.292 380.907 158.078 380.72C157.892 380.507 157.798 380.267 157.798 380V366.32C157.798 366.027 157.892 365.787 158.078 365.6C158.292 365.413 158.532 365.32 158.798 365.32C159.092 365.32 159.332 365.413 159.518 365.6C159.705 365.787 159.798 366.027 159.798 366.32V367.68C160.652 366.987 161.545 366.427 162.478 366C163.412 365.547 164.358 365.32 165.318 365.32C166.358 365.32 167.305 365.507 168.158 365.88C169.012 366.253 169.665 366.987 170.118 368.08C171.025 367.253 171.985 366.587 172.998 366.08C174.038 365.573 175.078 365.32 176.118 365.32C177.105 365.32 177.998 365.493 178.798 365.84C179.598 366.187 180.238 366.813 180.718 367.72C181.225 368.6 181.478 369.893 181.478 371.6V380C181.478 380.267 181.385 380.507 181.198 380.72C181.012 380.907 180.772 381 180.478 381Z" fill="#D56C06"/>
<path d="M130.44 380.6L130.686 380.428L130.681 380.422L130.44 380.6ZM127.28 376.48L127.043 376.663L127.045 376.666L127.28 376.48ZM123.64 371.84L123.404 372.025L123.405 372.027L123.64 371.84ZM120 367.2L119.762 367.383L119.764 367.385L120 367.2ZM116.92 363.24L117.155 363.054L116.62 362.377V363.24H116.92ZM116.64 380.72L116.852 380.932L116.859 380.925L116.866 380.918L116.64 380.72ZM115.2 380.72L114.974 380.918L114.987 380.933L115.002 380.946L115.2 380.72ZM115.2 359.88L115.002 359.654L114.995 359.661L114.988 359.668L115.2 359.88ZM116.96 360L116.714 360.172L116.721 360.181L116.96 360ZM119.56 363.4L119.322 363.583L119.324 363.585L119.56 363.4ZM123.04 367.88L122.802 368.063L122.806 368.067L123.04 367.88ZM126.88 372.76L126.643 372.944L126.646 372.948L126.88 372.76ZM130.48 377.36L130.241 377.541L130.78 378.251V377.36H130.48ZM130.76 359.88L130.562 359.654L130.555 359.661L130.548 359.668L130.76 359.88ZM132.2 380.72L132.412 380.932L132.419 380.925L132.426 380.918L132.2 380.72ZM130.681 380.422C129.772 379.192 128.717 377.816 127.515 376.294L127.045 376.666C128.243 378.184 129.294 379.555 130.199 380.778L130.681 380.422ZM127.517 376.297C126.343 374.775 125.129 373.228 123.875 371.653L123.405 372.027C124.658 373.599 125.87 375.145 127.043 376.663L127.517 376.297ZM123.876 371.655C122.623 370.055 121.409 368.508 120.236 367.015L119.764 367.385C120.937 368.879 122.151 370.425 123.404 372.025L123.876 371.655ZM120.238 367.017C119.091 365.523 118.063 364.202 117.155 363.054L116.685 363.426C117.59 364.571 118.616 365.89 119.762 367.383L120.238 367.017ZM116.62 363.24V380H117.22V363.24H116.62ZM116.62 380C116.62 380.189 116.556 380.36 116.414 380.522L116.866 380.918C117.097 380.653 117.22 380.344 117.22 380H116.62ZM116.428 380.508C116.304 380.632 116.143 380.7 115.92 380.7V381.3C116.283 381.3 116.603 381.182 116.852 380.932L116.428 380.508ZM115.92 380.7C115.731 380.7 115.56 380.636 115.398 380.494L115.002 380.946C115.267 381.177 115.576 381.3 115.92 381.3V380.7ZM115.426 380.522C115.284 380.36 115.22 380.189 115.22 380H114.62C114.62 380.344 114.743 380.653 114.974 380.918L115.426 380.522ZM115.22 380V360.6H114.62V380H115.22ZM115.22 360.6C115.22 360.377 115.288 360.216 115.412 360.092L114.988 359.668C114.738 359.917 114.62 360.237 114.62 360.6H115.22ZM115.398 360.106C115.567 359.958 115.725 359.9 115.88 359.9V359.3C115.555 359.3 115.26 359.429 115.002 359.654L115.398 360.106ZM115.88 359.9C116.379 359.9 116.612 360.026 116.714 360.172L117.206 359.828C116.935 359.44 116.448 359.3 115.88 359.3V359.9ZM116.721 360.181C117.388 361.062 118.255 362.196 119.322 363.583L119.798 363.217C118.731 361.831 117.865 360.698 117.199 359.819L116.721 360.181ZM119.324 363.585C120.39 364.944 121.549 366.437 122.802 368.063L123.278 367.697C122.024 366.07 120.863 364.576 119.796 363.215L119.324 363.585ZM122.806 368.067C124.085 369.666 125.364 371.292 126.643 372.944L127.117 372.576C125.836 370.922 124.555 369.294 123.274 367.693L122.806 368.067ZM126.646 372.948C127.951 374.573 129.15 376.104 130.241 377.541L130.719 377.179C129.624 375.736 128.422 374.201 127.114 372.572L126.646 372.948ZM130.78 377.36V360.6H130.18V377.36H130.78ZM130.78 360.6C130.78 360.377 130.848 360.216 130.972 360.092L130.548 359.668C130.298 359.917 130.18 360.237 130.18 360.6H130.78ZM130.958 360.106C131.12 359.964 131.291 359.9 131.48 359.9V359.3C131.136 359.3 130.827 359.423 130.562 359.654L130.958 360.106ZM131.48 359.9C131.703 359.9 131.864 359.968 131.988 360.092L132.412 359.668C132.163 359.418 131.843 359.3 131.48 359.3V359.9ZM131.988 360.092C132.112 360.216 132.18 360.377 132.18 360.6H132.78C132.78 360.237 132.662 359.917 132.412 359.668L131.988 360.092ZM132.18 360.6V380H132.78V360.6H132.18ZM132.18 380C132.18 380.189 132.116 380.36 131.974 380.522L132.426 380.918C132.657 380.653 132.78 380.344 132.78 380H132.18ZM131.988 380.508C131.858 380.638 131.708 380.7 131.52 380.7V381.3C131.865 381.3 132.169 381.176 132.412 380.932L131.988 380.508ZM131.52 380.7C131.021 380.7 130.788 380.574 130.686 380.428L130.194 380.772C130.465 381.16 130.952 381.3 131.52 381.3V380.7ZM151.111 380.64L150.894 380.847L150.898 380.852L151.111 380.64ZM149.751 378.32L150.034 378.223L149.884 377.783L149.545 378.102L149.751 378.32ZM146.751 380.32L146.868 380.596L146.871 380.595L146.751 380.32ZM140.351 380.32L140.51 380.066L140.351 380.32ZM138.831 378.64L139.105 378.519L138.831 378.64ZM138.711 374.92L138.431 374.811L138.429 374.817L138.711 374.92ZM139.791 373.32L139.587 373.099L139.585 373.102L139.791 373.32ZM142.471 371.76L142.577 372.04L142.471 371.76ZM149.311 371.24L149.286 371.539L149.641 371.569L149.609 371.213L149.311 371.24ZM148.111 368.4L147.894 368.608L147.898 368.612L148.111 368.4ZM143.351 367.48L143.393 367.777L143.407 367.775L143.351 367.48ZM142.071 367.76L141.968 367.478L141.963 367.48L142.071 367.76ZM140.591 367.68L140.378 367.892L140.386 367.899L140.393 367.906L140.591 367.68ZM140.951 366L140.866 365.712L140.858 365.714L140.851 365.717L140.951 366ZM142.751 365.56L142.69 365.266L142.688 365.267L142.751 365.56ZM149.791 367.12L149.561 367.314L149.564 367.316L149.791 367.12ZM151.631 377.72L151.344 377.807L151.346 377.815L151.349 377.823L151.631 377.72ZM152.551 379.28L152.326 379.478L152.332 379.486L152.338 379.492L152.551 379.28ZM152.511 380.68L152.723 380.892L152.511 380.68ZM146.551 378.24L146.682 378.51L146.688 378.507L146.551 378.24ZM149.351 375.84L149.588 376.024L149.651 375.943V375.84H149.351ZM149.351 373.24H149.651V372.963L149.375 372.941L149.351 373.24ZM141.231 374.68L141.443 374.892L141.231 374.68ZM140.551 375.68L140.271 375.572L140.267 375.582L140.264 375.592L140.551 375.68ZM141.071 378.28L140.852 378.486L140.858 378.492L141.071 378.28ZM151.327 380.433C150.775 379.855 150.343 379.122 150.034 378.223L149.467 378.417C149.799 379.385 150.273 380.198 150.894 380.847L151.327 380.433ZM149.545 378.102C148.662 378.932 147.691 379.58 146.63 380.045L146.871 380.595C147.997 380.1 149.026 379.414 149.956 378.538L149.545 378.102ZM146.633 380.044C145.607 380.48 144.487 380.7 143.271 380.7V381.3C144.561 381.3 145.761 381.066 146.868 380.596L146.633 380.044ZM143.271 380.7C142.077 380.7 141.166 380.479 140.51 380.066L140.191 380.574C140.975 381.068 142.011 381.3 143.271 381.3V380.7ZM140.51 380.066C139.832 379.639 139.371 379.122 139.105 378.519L138.556 378.761C138.877 379.491 139.429 380.094 140.191 380.574L140.51 380.066ZM139.105 378.519C138.825 377.882 138.691 377.296 138.691 376.76H138.091C138.091 377.397 138.25 378.065 138.556 378.761L139.105 378.519ZM138.691 376.76C138.691 376.154 138.791 375.575 138.993 375.023L138.429 374.817C138.203 375.438 138.091 376.086 138.091 376.76H138.691ZM138.99 375.029C139.214 374.457 139.549 373.961 139.997 373.538L139.585 373.102C139.073 373.586 138.687 374.156 138.431 374.811L138.99 375.029ZM139.994 373.541C140.625 372.96 141.482 372.458 142.577 372.04L142.364 371.48C141.219 371.916 140.29 372.453 139.588 373.099L139.994 373.541ZM142.577 372.04C143.654 371.63 144.988 371.42 146.591 371.42V370.82C144.94 370.82 143.528 371.036 142.364 371.48L142.577 372.04ZM146.591 371.42C147.435 371.42 148.333 371.46 149.286 371.539L149.336 370.941C148.368 370.86 147.453 370.82 146.591 370.82V371.42ZM149.609 371.213C149.498 369.96 149.076 368.942 148.323 368.188L147.898 368.612C148.531 369.245 148.91 370.12 149.012 371.267L149.609 371.213ZM148.327 368.192C147.558 367.393 146.426 367.02 144.991 367.02V367.62C146.328 367.62 147.277 367.967 147.895 368.608L148.327 368.192ZM144.991 367.02C144.437 367.02 143.872 367.075 143.294 367.185L143.407 367.775C143.95 367.671 144.477 367.62 144.991 367.62V367.02ZM143.308 367.183C142.741 367.264 142.291 367.361 141.968 367.478L142.173 368.042C142.437 367.946 142.84 367.856 143.393 367.777L143.308 367.183ZM141.963 367.48C141.617 367.613 141.41 367.66 141.311 367.66V368.26C141.531 368.26 141.831 368.174 142.178 368.04L141.963 367.48ZM141.311 367.66C141.121 367.66 140.951 367.596 140.788 367.454L140.393 367.906C140.657 368.137 140.966 368.26 141.311 368.26V367.66ZM140.803 367.468C140.63 367.296 140.571 367.141 140.571 367H139.971C139.971 367.339 140.124 367.638 140.378 367.892L140.803 367.468ZM140.571 367C140.571 366.791 140.617 366.644 140.689 366.539C140.76 366.435 140.872 366.346 141.05 366.283L140.851 365.717C140.576 365.814 140.348 365.972 140.193 366.201C140.038 366.429 139.971 366.702 139.971 367H140.571ZM141.035 366.288C141.478 366.157 142.07 366.013 142.813 365.853L142.688 365.267C141.938 365.427 141.329 365.576 140.866 365.712L141.035 366.288ZM142.811 365.854C143.567 365.698 144.293 365.62 144.991 365.62V365.02C144.248 365.02 143.481 365.102 142.69 365.266L142.811 365.854ZM144.991 365.62C147.125 365.62 148.625 366.205 149.561 367.314L150.02 366.926C148.93 365.635 147.229 365.02 144.991 365.02V365.62ZM149.564 367.316C150.547 368.451 151.051 369.936 151.051 371.8H151.651C151.651 369.824 151.114 368.189 150.017 366.924L149.564 367.316ZM151.051 371.8V375.44H151.651V371.8H151.051ZM151.051 375.44C151.051 376.365 151.146 377.157 151.344 377.807L151.918 377.633C151.742 377.057 151.651 376.328 151.651 375.44H151.051ZM151.349 377.823C151.574 378.443 151.9 378.996 152.326 379.478L152.776 379.082C152.401 378.657 152.113 378.17 151.913 377.617L151.349 377.823ZM152.338 379.492C152.468 379.622 152.531 379.772 152.531 379.96H153.131C153.131 379.615 153.006 379.311 152.763 379.068L152.338 379.492ZM152.531 379.96C152.531 380.136 152.464 380.303 152.298 380.468L152.723 380.892C152.984 380.631 153.131 380.317 153.131 379.96H152.531ZM152.298 380.468C152.169 380.598 152.019 380.66 151.831 380.66V381.26C152.176 381.26 152.479 381.136 152.723 380.892L152.298 380.468ZM151.831 380.66C151.654 380.66 151.488 380.593 151.323 380.428L150.898 380.852C151.16 381.114 151.474 381.26 151.831 381.26V380.66ZM143.271 379.3C144.463 379.3 145.601 379.036 146.682 378.51L146.419 377.97C145.42 378.457 144.371 378.7 143.271 378.7V379.3ZM146.688 378.507C147.772 377.951 148.738 377.12 149.588 376.024L149.113 375.656C148.31 376.694 147.409 377.463 146.414 377.973L146.688 378.507ZM149.651 375.84V373.24H149.051V375.84H149.651ZM149.375 372.941C148.381 372.86 147.453 372.82 146.591 372.82V373.42C147.435 373.42 148.347 373.46 149.326 373.539L149.375 372.941ZM146.591 372.82C144.031 372.82 142.144 373.343 141.018 374.468L141.443 374.892C142.397 373.937 144.083 373.42 146.591 373.42V372.82ZM141.018 374.468C140.675 374.811 140.422 375.179 140.271 375.572L140.831 375.788C140.946 375.488 141.146 375.189 141.443 374.892L141.018 374.468ZM140.264 375.592C140.148 375.968 140.091 376.358 140.091 376.76H140.691C140.691 376.416 140.74 376.085 140.837 375.768L140.264 375.592ZM140.091 376.76C140.091 377.387 140.36 377.964 140.853 378.486L141.289 378.074C140.875 377.636 140.691 377.2 140.691 376.76H140.091ZM140.858 378.492C141.416 379.05 142.24 379.3 143.271 379.3V378.7C142.327 378.7 141.685 378.47 141.283 378.068L140.858 378.492ZM179.758 380.72L179.533 380.918L179.546 380.933L179.561 380.946L179.758 380.72ZM178.518 368.28L178.302 368.488L178.306 368.492L178.518 368.28ZM173.238 368.16L173.084 367.903L173.238 368.16ZM170.678 370.28L170.456 370.079L170.378 370.164V370.28H170.678ZM170.398 380.72L170.611 380.932L170.618 380.925L170.624 380.918L170.398 380.72ZM168.958 380.72L168.733 380.918L168.746 380.933L168.761 380.946L168.958 380.72ZM167.718 368.28L167.502 368.488L167.506 368.492L167.718 368.28ZM162.398 368.24L162.555 368.496L162.56 368.493L162.398 368.24ZM159.798 370.4L159.576 370.199L159.498 370.284V370.4H159.798ZM159.518 380.72L159.731 380.932L159.738 380.925L159.744 380.918L159.518 380.72ZM158.078 380.72L157.853 380.918L157.866 380.933L157.881 380.946L158.078 380.72ZM158.078 365.6L157.881 365.374L157.873 365.381L157.866 365.388L158.078 365.6ZM159.518 365.6L159.731 365.388L159.518 365.6ZM159.798 367.68H159.498V368.31L159.988 367.913L159.798 367.68ZM162.478 366L162.603 366.273L162.61 366.27L162.478 366ZM170.118 368.08L169.841 368.195L170.005 368.589L170.321 368.302L170.118 368.08ZM172.998 366.08L172.867 365.81L172.864 365.812L172.998 366.08ZM178.798 365.84L178.679 366.115V366.115L178.798 365.84ZM180.718 367.72L180.453 367.86L180.458 367.87L180.718 367.72ZM181.198 380.72L181.411 380.932L181.418 380.925L181.424 380.918L181.198 380.72ZM180.478 380.7C180.289 380.7 180.118 380.636 179.956 380.494L179.561 380.946C179.825 381.177 180.134 381.3 180.478 381.3V380.7ZM179.984 380.522C179.842 380.36 179.778 380.189 179.778 380H179.178C179.178 380.344 179.301 380.653 179.533 380.918L179.984 380.522ZM179.778 380V371.6H179.178V380H179.778ZM179.778 371.6C179.778 370.002 179.456 368.794 178.731 368.068L178.306 368.492C178.861 369.046 179.178 370.052 179.178 371.6H179.778ZM178.735 368.072C178.058 367.366 177.177 367.02 176.118 367.02V367.62C177.034 367.62 177.752 367.914 178.302 368.488L178.735 368.072ZM176.118 367.02C175.072 367.02 174.059 367.318 173.084 367.903L173.393 368.417C174.284 367.882 175.192 367.62 176.118 367.62V367.02ZM173.084 367.903C172.124 368.479 171.248 369.205 170.456 370.079L170.901 370.481C171.655 369.649 172.486 368.961 173.393 368.417L173.084 367.903ZM170.378 370.28V380H170.978V370.28H170.378ZM170.378 380C170.378 380.189 170.315 380.36 170.173 380.522L170.624 380.918C170.855 380.653 170.978 380.344 170.978 380H170.378ZM170.186 380.508C170.062 380.632 169.902 380.7 169.678 380.7V381.3C170.042 381.3 170.361 381.182 170.611 380.932L170.186 380.508ZM169.678 380.7C169.489 380.7 169.318 380.636 169.156 380.494L168.761 380.946C169.025 381.177 169.334 381.3 169.678 381.3V380.7ZM169.184 380.522C169.042 380.36 168.978 380.189 168.978 380H168.378C168.378 380.344 168.501 380.653 168.733 380.918L169.184 380.522ZM168.978 380V371.6H168.378V380H168.978ZM168.978 371.6C168.978 370.002 168.656 368.794 167.931 368.068L167.506 368.492C168.061 369.046 168.378 370.052 168.378 371.6H168.978ZM167.935 368.072C167.258 367.366 166.377 367.02 165.318 367.02V367.62C166.234 367.62 166.952 367.914 167.502 368.488L167.935 368.072ZM165.318 367.02C164.266 367.02 163.238 367.348 162.237 367.987L162.56 368.493C163.479 367.905 164.397 367.62 165.318 367.62V367.02ZM162.242 367.984C161.257 368.586 160.368 369.324 159.576 370.199L160.021 370.601C160.775 369.769 161.62 369.067 162.555 368.496L162.242 367.984ZM159.498 370.4V380H160.098V370.4H159.498ZM159.498 380C159.498 380.189 159.435 380.36 159.293 380.522L159.744 380.918C159.975 380.653 160.098 380.344 160.098 380H159.498ZM159.306 380.508C159.182 380.632 159.022 380.7 158.798 380.7V381.3C159.162 381.3 159.481 381.182 159.731 380.932L159.306 380.508ZM158.798 380.7C158.609 380.7 158.438 380.636 158.276 380.494L157.881 380.946C158.145 381.177 158.454 381.3 158.798 381.3V380.7ZM158.304 380.522C158.162 380.36 158.098 380.189 158.098 380H157.498C157.498 380.344 157.621 380.653 157.853 380.918L158.304 380.522ZM158.098 380V366.32H157.498V380H158.098ZM158.098 366.32C158.098 366.097 158.167 365.936 158.291 365.812L157.866 365.388C157.617 365.637 157.498 365.957 157.498 366.32H158.098ZM158.276 365.826C158.438 365.684 158.609 365.62 158.798 365.62V365.02C158.454 365.02 158.145 365.143 157.881 365.374L158.276 365.826ZM158.798 365.62C159.022 365.62 159.182 365.688 159.306 365.812L159.731 365.388C159.481 365.138 159.162 365.02 158.798 365.02V365.62ZM159.306 365.812C159.43 365.936 159.498 366.097 159.498 366.32H160.098C160.098 365.957 159.98 365.637 159.731 365.388L159.306 365.812ZM159.498 366.32V367.68H160.098V366.32H159.498ZM159.988 367.913C160.823 367.234 161.695 366.688 162.603 366.273L162.354 365.727C161.396 366.165 160.481 366.739 159.609 367.447L159.988 367.913ZM162.61 366.27C163.505 365.835 164.407 365.62 165.318 365.62V365.02C164.309 365.02 163.318 365.259 162.347 365.73L162.61 366.27ZM165.318 365.62C166.322 365.62 167.227 365.8 168.038 366.155L168.279 365.605C167.383 365.213 166.395 365.02 165.318 365.02V365.62ZM168.038 366.155C168.803 366.489 169.409 367.153 169.841 368.195L170.396 367.965C169.921 366.82 169.221 366.017 168.279 365.605L168.038 366.155ZM170.321 368.302C171.209 367.492 172.146 366.842 173.133 366.348L172.864 365.812C171.824 366.332 170.842 367.015 169.916 367.858L170.321 368.302ZM173.13 366.35C174.134 365.861 175.129 365.62 176.118 365.62V365.02C175.028 365.02 173.943 365.286 172.867 365.81L173.13 366.35ZM176.118 365.62C177.069 365.62 177.921 365.787 178.679 366.115L178.918 365.565C178.075 365.2 177.141 365.02 176.118 365.02V365.62ZM178.679 366.115C179.406 366.43 179.999 367.003 180.453 367.86L180.984 367.58C180.478 366.624 179.791 365.943 178.918 365.565L178.679 366.115ZM180.458 367.87C180.927 368.683 181.178 369.914 181.178 371.6H181.778C181.778 369.872 181.524 368.517 180.978 367.57L180.458 367.87ZM181.178 371.6V380H181.778V371.6H181.178ZM181.178 380C181.178 380.189 181.115 380.36 180.973 380.522L181.424 380.918C181.655 380.653 181.778 380.344 181.778 380H181.178ZM180.986 380.508C180.862 380.632 180.702 380.7 180.478 380.7V381.3C180.842 381.3 181.161 381.182 181.411 380.932L180.986 380.508Z" fill="#D56C06" mask="url(#path-19-outside-3_545_276)"/>
</svg>
