<svg width="199" height="203" viewBox="0 0 199 203" fill="none" xmlns="http://www.w3.org/2000/svg">
<ellipse cx="70.6515" cy="46.5149" rx="62.8753" ry="32.6951" transform="rotate(-10.9834 70.6515 46.5149)" fill="#3C3C3C"/>
<rect y="24.7652" width="129.984" height="34.812" transform="rotate(-10.9834 0 24.7652)" fill="#FFCC4B"/>
<rect x="123.734" y="36.2127" width="75.4503" height="6.28753" rx="3.14376" transform="rotate(-10.9834 123.734 36.2127)" fill="#3C3C3C"/>
<circle cx="57.1085" cy="33.8034" r="8.17378" fill="#D56C06"/>
<circle cx="38.2458" cy="13.6833" r="3.14376" fill="#97BF0D"/>
<circle cx="77.2285" cy="23.7434" r="3.14376" fill="#ECE8D9"/>
<circle cx="80.3722" cy="41.9773" r="6.28753" fill="#97BF0D"/>
<circle cx="34.4733" cy="47.636" r="4.40127" fill="#ECE8D9"/>
<rect x="60.8486" y="48.6451" width="47.7852" height="20.1201" transform="rotate(-10.5193 60.8486 48.6451)" fill="#3C3C3C"/>
<mask id="path-10-outside-1_531_277" maskUnits="userSpaceOnUse" x="25" y="117" width="160" height="54" fill="black">
<rect fill="white" x="25" y="117" width="160" height="54"/>
<path d="M27.364 158C26.9107 158 26.5027 157.841 26.14 157.524C25.8227 157.161 25.664 156.753 25.664 156.3V123.32C25.664 122.867 25.8 122.481 26.072 122.164C26.3893 121.801 26.752 121.62 27.16 121.62H46.2C46.6987 121.62 47.1067 121.779 47.424 122.096C47.7413 122.413 47.9 122.821 47.9 123.32C47.9 123.773 47.7413 124.181 47.424 124.544C47.1067 124.861 46.6987 125.02 46.2 125.02H29.064V136.852H43.276C43.7747 136.852 44.1827 137.011 44.5 137.328C44.8173 137.645 44.976 138.053 44.976 138.552C44.976 139.005 44.8173 139.413 44.5 139.776C44.1827 140.093 43.7747 140.252 43.276 140.252H29.064V154.6H46.336C46.8347 154.6 47.2427 154.759 47.56 155.076C47.8773 155.393 48.036 155.801 48.036 156.3C48.036 156.753 47.8773 157.161 47.56 157.524C47.2427 157.841 46.8347 158 46.336 158H27.364ZM76.4967 157.388C75.4993 156.345 74.7287 155.031 74.1847 153.444C72.6433 154.895 70.9433 156.028 69.0847 156.844C67.2713 157.615 65.2993 158 63.1687 158C61.0833 158 59.4287 157.615 58.2047 156.844C56.9807 156.073 56.1193 155.121 55.6207 153.988C55.122 152.855 54.8727 151.789 54.8727 150.792C54.8727 149.704 55.054 148.661 55.4167 147.664C55.8247 146.621 56.4367 145.715 57.2527 144.944C58.386 143.901 59.9047 143.017 61.8087 142.292C63.7127 141.567 66.0473 141.204 68.8127 141.204C70.2633 141.204 71.8047 141.272 73.4367 141.408C73.2553 139.368 72.5753 137.759 71.3967 136.58C70.218 135.356 68.45 134.744 66.0927 134.744C65.186 134.744 64.2567 134.835 63.3047 135.016C62.3527 135.152 61.6273 135.311 61.1287 135.492C60.5393 135.719 60.1087 135.832 59.8367 135.832C59.3833 135.832 58.9753 135.673 58.6127 135.356C58.25 134.993 58.0687 134.608 58.0687 134.2C58.0687 133.339 58.454 132.772 59.2247 132.5C59.9953 132.273 61.0153 132.024 62.2847 131.752C63.5993 131.48 64.8687 131.344 66.0927 131.344C69.81 131.344 72.53 132.364 74.2527 134.404C76.0207 136.444 76.9047 139.096 76.9047 142.36V148.548C76.9047 150.089 77.0633 151.381 77.3807 152.424C77.7433 153.421 78.2647 154.305 78.9447 155.076C79.262 155.393 79.4207 155.779 79.4207 156.232C79.4207 156.685 79.2393 157.093 78.8767 157.456C78.5593 157.773 78.174 157.932 77.7207 157.932C77.2673 157.932 76.8593 157.751 76.4967 157.388ZM63.1687 154.6C65.118 154.6 66.9767 154.169 68.7447 153.308C70.5127 152.401 72.0993 151.041 73.5047 149.228V144.808C71.8273 144.672 70.2633 144.604 68.8127 144.604C64.506 144.604 61.4687 145.488 59.7007 147.256C59.1567 147.8 58.7713 148.367 58.5447 148.956C58.3633 149.545 58.2727 150.157 58.2727 150.792C58.2727 151.699 58.658 152.56 59.4287 153.376C60.2447 154.192 61.4913 154.6 63.1687 154.6ZM101.058 158C96.8873 158 93.9179 157.139 92.1499 155.416C90.3819 153.648 89.4979 151.291 89.4979 148.344V134.744H85.2139C84.7606 134.744 84.3526 134.585 83.9899 134.268C83.6726 133.905 83.5139 133.497 83.5139 133.044C83.5139 132.545 83.6726 132.137 83.9899 131.82C84.3526 131.503 84.7606 131.344 85.2139 131.344H89.4979V124.476C89.4979 123.977 89.6566 123.569 89.9739 123.252C90.3366 122.935 90.7446 122.776 91.1979 122.776C91.6966 122.776 92.1046 122.935 92.4219 123.252C92.7393 123.569 92.8979 123.977 92.8979 124.476V131.344H101.942C102.441 131.344 102.849 131.503 103.166 131.82C103.483 132.137 103.642 132.545 103.642 133.044C103.642 133.497 103.483 133.905 103.166 134.268C102.849 134.585 102.441 134.744 101.942 134.744H92.8979V148.344C92.8979 152.515 95.6179 154.6 101.058 154.6C101.557 154.6 101.965 154.781 102.282 155.144C102.599 155.461 102.758 155.847 102.758 156.3C102.758 156.753 102.577 157.161 102.214 157.524C101.897 157.841 101.511 158 101.058 158ZM113.945 117.404C114.716 117.404 115.373 117.721 115.917 118.356C116.461 118.945 116.733 119.761 116.733 120.804C116.733 121.847 116.461 122.64 115.917 123.184C115.373 123.728 114.738 124 114.013 124C113.197 124 112.494 123.728 111.905 123.184C111.361 122.595 111.089 121.801 111.089 120.804C111.089 119.761 111.361 118.945 111.905 118.356C112.449 117.721 113.129 117.404 113.945 117.404ZM112.313 133.044C112.313 132.545 112.472 132.137 112.789 131.82C113.152 131.503 113.56 131.344 114.013 131.344C114.512 131.344 114.92 131.503 115.237 131.82C115.554 132.137 115.713 132.545 115.713 133.044V156.3C115.713 156.753 115.554 157.161 115.237 157.524C114.92 157.841 114.512 158 114.013 158C113.56 158 113.152 157.841 112.789 157.524C112.472 157.161 112.313 156.753 112.313 156.3V133.044ZM148.926 158C148.472 158 148.064 157.841 147.702 157.524C147.384 157.161 147.226 156.753 147.226 156.3V142.7C147.226 139.889 146.682 137.872 145.594 136.648C144.551 135.379 143.123 134.744 141.31 134.744C139.406 134.744 137.592 135.265 135.87 136.308C134.147 137.305 132.56 138.529 131.11 139.98V156.3C131.11 156.753 130.951 157.161 130.634 157.524C130.316 157.841 129.908 158 129.41 158C128.956 158 128.548 157.841 128.186 157.524C127.868 157.161 127.71 156.753 127.71 156.3V133.044C127.71 132.545 127.868 132.137 128.186 131.82C128.548 131.503 128.956 131.344 129.41 131.344C129.908 131.344 130.316 131.503 130.634 131.82C130.951 132.137 131.11 132.545 131.11 133.044V135.492C132.651 134.268 134.26 133.271 135.938 132.5C137.615 131.729 139.406 131.344 141.31 131.344C143.032 131.344 144.596 131.684 146.002 132.364C147.407 133.044 148.518 134.223 149.334 135.9C150.195 137.532 150.626 139.799 150.626 142.7V156.3C150.626 156.753 150.467 157.161 150.15 157.524C149.832 157.841 149.424 158 148.926 158ZM166.746 170.308C166.293 170.308 165.885 170.127 165.522 169.764C165.205 169.447 165.046 169.061 165.046 168.608C165.046 168.155 165.205 167.747 165.522 167.384C165.885 167.067 166.293 166.908 166.746 166.908C171.597 166.908 175.133 165.639 177.354 163.1C179.621 160.607 180.754 157.297 180.754 153.172V152.9C179.258 154.305 177.626 155.371 175.858 156.096C174.09 156.821 172.277 157.184 170.418 157.184C168.56 157.184 166.746 156.776 164.978 155.96C163.256 155.144 161.828 153.852 160.694 152.084C159.606 150.316 159.062 148.049 159.062 145.284C159.062 142.428 159.72 139.957 161.034 137.872C162.349 135.787 164.049 134.177 166.134 133.044C168.265 131.911 170.464 131.344 172.73 131.344C174.317 131.344 175.722 131.48 176.946 131.752C178.216 132.024 179.485 132.409 180.754 132.908C180.845 132.409 181.049 132.024 181.366 131.752C181.684 131.48 182.046 131.344 182.454 131.344C182.953 131.344 183.361 131.503 183.678 131.82C183.996 132.137 184.154 132.545 184.154 133.044V153.172C184.154 158.34 182.772 162.488 180.006 165.616C177.241 168.744 172.821 170.308 166.746 170.308ZM170.418 153.784C172.368 153.784 174.249 153.285 176.062 152.288C177.876 151.245 179.44 149.749 180.754 147.8V136.648C179.349 136.013 178.057 135.537 176.878 135.22C175.7 134.903 174.317 134.744 172.73 134.744C171.008 134.744 169.353 135.175 167.766 136.036C166.18 136.897 164.888 138.121 163.89 139.708C162.938 141.295 162.462 143.153 162.462 145.284C162.462 147.233 162.848 148.843 163.618 150.112C164.389 151.381 165.386 152.311 166.61 152.9C167.834 153.489 169.104 153.784 170.418 153.784Z"/>
</mask>
<path d="M27.364 158C26.9107 158 26.5027 157.841 26.14 157.524C25.8227 157.161 25.664 156.753 25.664 156.3V123.32C25.664 122.867 25.8 122.481 26.072 122.164C26.3893 121.801 26.752 121.62 27.16 121.62H46.2C46.6987 121.62 47.1067 121.779 47.424 122.096C47.7413 122.413 47.9 122.821 47.9 123.32C47.9 123.773 47.7413 124.181 47.424 124.544C47.1067 124.861 46.6987 125.02 46.2 125.02H29.064V136.852H43.276C43.7747 136.852 44.1827 137.011 44.5 137.328C44.8173 137.645 44.976 138.053 44.976 138.552C44.976 139.005 44.8173 139.413 44.5 139.776C44.1827 140.093 43.7747 140.252 43.276 140.252H29.064V154.6H46.336C46.8347 154.6 47.2427 154.759 47.56 155.076C47.8773 155.393 48.036 155.801 48.036 156.3C48.036 156.753 47.8773 157.161 47.56 157.524C47.2427 157.841 46.8347 158 46.336 158H27.364ZM76.4967 157.388C75.4993 156.345 74.7287 155.031 74.1847 153.444C72.6433 154.895 70.9433 156.028 69.0847 156.844C67.2713 157.615 65.2993 158 63.1687 158C61.0833 158 59.4287 157.615 58.2047 156.844C56.9807 156.073 56.1193 155.121 55.6207 153.988C55.122 152.855 54.8727 151.789 54.8727 150.792C54.8727 149.704 55.054 148.661 55.4167 147.664C55.8247 146.621 56.4367 145.715 57.2527 144.944C58.386 143.901 59.9047 143.017 61.8087 142.292C63.7127 141.567 66.0473 141.204 68.8127 141.204C70.2633 141.204 71.8047 141.272 73.4367 141.408C73.2553 139.368 72.5753 137.759 71.3967 136.58C70.218 135.356 68.45 134.744 66.0927 134.744C65.186 134.744 64.2567 134.835 63.3047 135.016C62.3527 135.152 61.6273 135.311 61.1287 135.492C60.5393 135.719 60.1087 135.832 59.8367 135.832C59.3833 135.832 58.9753 135.673 58.6127 135.356C58.25 134.993 58.0687 134.608 58.0687 134.2C58.0687 133.339 58.454 132.772 59.2247 132.5C59.9953 132.273 61.0153 132.024 62.2847 131.752C63.5993 131.48 64.8687 131.344 66.0927 131.344C69.81 131.344 72.53 132.364 74.2527 134.404C76.0207 136.444 76.9047 139.096 76.9047 142.36V148.548C76.9047 150.089 77.0633 151.381 77.3807 152.424C77.7433 153.421 78.2647 154.305 78.9447 155.076C79.262 155.393 79.4207 155.779 79.4207 156.232C79.4207 156.685 79.2393 157.093 78.8767 157.456C78.5593 157.773 78.174 157.932 77.7207 157.932C77.2673 157.932 76.8593 157.751 76.4967 157.388ZM63.1687 154.6C65.118 154.6 66.9767 154.169 68.7447 153.308C70.5127 152.401 72.0993 151.041 73.5047 149.228V144.808C71.8273 144.672 70.2633 144.604 68.8127 144.604C64.506 144.604 61.4687 145.488 59.7007 147.256C59.1567 147.8 58.7713 148.367 58.5447 148.956C58.3633 149.545 58.2727 150.157 58.2727 150.792C58.2727 151.699 58.658 152.56 59.4287 153.376C60.2447 154.192 61.4913 154.6 63.1687 154.6ZM101.058 158C96.8873 158 93.9179 157.139 92.1499 155.416C90.3819 153.648 89.4979 151.291 89.4979 148.344V134.744H85.2139C84.7606 134.744 84.3526 134.585 83.9899 134.268C83.6726 133.905 83.5139 133.497 83.5139 133.044C83.5139 132.545 83.6726 132.137 83.9899 131.82C84.3526 131.503 84.7606 131.344 85.2139 131.344H89.4979V124.476C89.4979 123.977 89.6566 123.569 89.9739 123.252C90.3366 122.935 90.7446 122.776 91.1979 122.776C91.6966 122.776 92.1046 122.935 92.4219 123.252C92.7393 123.569 92.8979 123.977 92.8979 124.476V131.344H101.942C102.441 131.344 102.849 131.503 103.166 131.82C103.483 132.137 103.642 132.545 103.642 133.044C103.642 133.497 103.483 133.905 103.166 134.268C102.849 134.585 102.441 134.744 101.942 134.744H92.8979V148.344C92.8979 152.515 95.6179 154.6 101.058 154.6C101.557 154.6 101.965 154.781 102.282 155.144C102.599 155.461 102.758 155.847 102.758 156.3C102.758 156.753 102.577 157.161 102.214 157.524C101.897 157.841 101.511 158 101.058 158ZM113.945 117.404C114.716 117.404 115.373 117.721 115.917 118.356C116.461 118.945 116.733 119.761 116.733 120.804C116.733 121.847 116.461 122.64 115.917 123.184C115.373 123.728 114.738 124 114.013 124C113.197 124 112.494 123.728 111.905 123.184C111.361 122.595 111.089 121.801 111.089 120.804C111.089 119.761 111.361 118.945 111.905 118.356C112.449 117.721 113.129 117.404 113.945 117.404ZM112.313 133.044C112.313 132.545 112.472 132.137 112.789 131.82C113.152 131.503 113.56 131.344 114.013 131.344C114.512 131.344 114.92 131.503 115.237 131.82C115.554 132.137 115.713 132.545 115.713 133.044V156.3C115.713 156.753 115.554 157.161 115.237 157.524C114.92 157.841 114.512 158 114.013 158C113.56 158 113.152 157.841 112.789 157.524C112.472 157.161 112.313 156.753 112.313 156.3V133.044ZM148.926 158C148.472 158 148.064 157.841 147.702 157.524C147.384 157.161 147.226 156.753 147.226 156.3V142.7C147.226 139.889 146.682 137.872 145.594 136.648C144.551 135.379 143.123 134.744 141.31 134.744C139.406 134.744 137.592 135.265 135.87 136.308C134.147 137.305 132.56 138.529 131.11 139.98V156.3C131.11 156.753 130.951 157.161 130.634 157.524C130.316 157.841 129.908 158 129.41 158C128.956 158 128.548 157.841 128.186 157.524C127.868 157.161 127.71 156.753 127.71 156.3V133.044C127.71 132.545 127.868 132.137 128.186 131.82C128.548 131.503 128.956 131.344 129.41 131.344C129.908 131.344 130.316 131.503 130.634 131.82C130.951 132.137 131.11 132.545 131.11 133.044V135.492C132.651 134.268 134.26 133.271 135.938 132.5C137.615 131.729 139.406 131.344 141.31 131.344C143.032 131.344 144.596 131.684 146.002 132.364C147.407 133.044 148.518 134.223 149.334 135.9C150.195 137.532 150.626 139.799 150.626 142.7V156.3C150.626 156.753 150.467 157.161 150.15 157.524C149.832 157.841 149.424 158 148.926 158ZM166.746 170.308C166.293 170.308 165.885 170.127 165.522 169.764C165.205 169.447 165.046 169.061 165.046 168.608C165.046 168.155 165.205 167.747 165.522 167.384C165.885 167.067 166.293 166.908 166.746 166.908C171.597 166.908 175.133 165.639 177.354 163.1C179.621 160.607 180.754 157.297 180.754 153.172V152.9C179.258 154.305 177.626 155.371 175.858 156.096C174.09 156.821 172.277 157.184 170.418 157.184C168.56 157.184 166.746 156.776 164.978 155.96C163.256 155.144 161.828 153.852 160.694 152.084C159.606 150.316 159.062 148.049 159.062 145.284C159.062 142.428 159.72 139.957 161.034 137.872C162.349 135.787 164.049 134.177 166.134 133.044C168.265 131.911 170.464 131.344 172.73 131.344C174.317 131.344 175.722 131.48 176.946 131.752C178.216 132.024 179.485 132.409 180.754 132.908C180.845 132.409 181.049 132.024 181.366 131.752C181.684 131.48 182.046 131.344 182.454 131.344C182.953 131.344 183.361 131.503 183.678 131.82C183.996 132.137 184.154 132.545 184.154 133.044V153.172C184.154 158.34 182.772 162.488 180.006 165.616C177.241 168.744 172.821 170.308 166.746 170.308ZM170.418 153.784C172.368 153.784 174.249 153.285 176.062 152.288C177.876 151.245 179.44 149.749 180.754 147.8V136.648C179.349 136.013 178.057 135.537 176.878 135.22C175.7 134.903 174.317 134.744 172.73 134.744C171.008 134.744 169.353 135.175 167.766 136.036C166.18 136.897 164.888 138.121 163.89 139.708C162.938 141.295 162.462 143.153 162.462 145.284C162.462 147.233 162.848 148.843 163.618 150.112C164.389 151.381 165.386 152.311 166.61 152.9C167.834 153.489 169.104 153.784 170.418 153.784Z" fill="#3C3C3C"/>
<path d="M26.14 157.524L25.839 157.787L25.8565 157.807L25.8766 157.825L26.14 157.524ZM26.072 122.164L25.771 121.901L25.7683 121.904L26.072 122.164ZM47.424 122.096L47.1412 122.379L47.1412 122.379L47.424 122.096ZM47.424 124.544L47.7068 124.827L47.7163 124.817L47.725 124.807L47.424 124.544ZM29.064 125.02V124.62H28.664V125.02H29.064ZM29.064 136.852H28.664V137.252H29.064V136.852ZM44.5 139.776L44.7828 140.059L44.7923 140.049L44.801 140.039L44.5 139.776ZM29.064 140.252V139.852H28.664V140.252H29.064ZM29.064 154.6H28.664V155H29.064V154.6ZM47.56 157.524L47.8428 157.807L47.8523 157.797L47.861 157.787L47.56 157.524ZM27.364 157.6C27.014 157.6 26.6981 157.481 26.4034 157.223L25.8766 157.825C26.3072 158.202 26.8073 158.4 27.364 158.4V157.6ZM26.441 157.261C26.1831 156.966 26.064 156.65 26.064 156.3H25.264C25.264 156.857 25.4622 157.357 25.839 157.787L26.441 157.261ZM26.064 156.3V123.32H25.264V156.3H26.064ZM26.064 123.32C26.064 122.953 26.1713 122.663 26.3757 122.424L25.7683 121.904C25.4287 122.3 25.264 122.78 25.264 123.32H26.064ZM26.373 122.427C26.6295 122.134 26.8885 122.02 27.16 122.02V121.22C26.6155 121.22 26.1491 121.468 25.771 121.901L26.373 122.427ZM27.16 122.02H46.2V121.22H27.16V122.02ZM46.2 122.02C46.6055 122.02 46.9075 122.145 47.1412 122.379L47.7068 121.813C47.3058 121.412 46.7918 121.22 46.2 121.22V122.02ZM47.1412 122.379C47.3748 122.612 47.5 122.914 47.5 123.32H48.3C48.3 122.728 48.1079 122.214 47.7068 121.813L47.1412 122.379ZM47.5 123.32C47.5 123.67 47.3809 123.986 47.123 124.281L47.725 124.807C48.1018 124.377 48.3 123.877 48.3 123.32H47.5ZM47.1412 124.261C46.9075 124.495 46.6055 124.62 46.2 124.62V125.42C46.7918 125.42 47.3058 125.228 47.7068 124.827L47.1412 124.261ZM46.2 124.62H29.064V125.42H46.2V124.62ZM28.664 125.02V136.852H29.464V125.02H28.664ZM29.064 137.252H43.276V136.452H29.064V137.252ZM43.276 137.252C43.6815 137.252 43.9835 137.377 44.2172 137.611L44.7828 137.045C44.3818 136.644 43.8678 136.452 43.276 136.452V137.252ZM44.2172 137.611C44.4508 137.844 44.576 138.146 44.576 138.552H45.376C45.376 137.96 45.1839 137.446 44.7828 137.045L44.2172 137.611ZM44.576 138.552C44.576 138.902 44.4569 139.218 44.199 139.513L44.801 140.039C45.1778 139.609 45.376 139.109 45.376 138.552H44.576ZM44.2172 139.493C43.9835 139.727 43.6815 139.852 43.276 139.852V140.652C43.8678 140.652 44.3818 140.46 44.7828 140.059L44.2172 139.493ZM43.276 139.852H29.064V140.652H43.276V139.852ZM28.664 140.252V154.6H29.464V140.252H28.664ZM29.064 155H46.336V154.2H29.064V155ZM46.336 155C46.7415 155 47.0435 155.125 47.2772 155.359L47.8428 154.793C47.4418 154.392 46.9278 154.2 46.336 154.2V155ZM47.2772 155.359C47.5108 155.592 47.636 155.895 47.636 156.3H48.436C48.436 155.708 48.2439 155.194 47.8428 154.793L47.2772 155.359ZM47.636 156.3C47.636 156.65 47.5169 156.966 47.259 157.261L47.861 157.787C48.2378 157.357 48.436 156.857 48.436 156.3H47.636ZM47.2772 157.241C47.0435 157.475 46.7415 157.6 46.336 157.6V158.4C46.9278 158.4 47.4418 158.208 47.8428 157.807L47.2772 157.241ZM46.336 157.6H27.364V158.4H46.336V157.6ZM76.4967 157.388L76.2075 157.665L76.2138 157.671L76.4967 157.388ZM74.1847 153.444L74.563 153.314L74.362 152.728L73.9105 153.153L74.1847 153.444ZM69.0847 156.844L69.2411 157.212L69.2455 157.21L69.0847 156.844ZM58.2047 156.844L58.4178 156.506L58.2047 156.844ZM55.6207 153.988L55.9868 153.827L55.6207 153.988ZM55.4167 147.664L55.044 147.518L55.0407 147.527L55.4167 147.664ZM57.2527 144.944L56.9818 144.65L56.978 144.653L57.2527 144.944ZM61.8087 142.292L61.9511 142.666L61.8087 142.292ZM73.4367 141.408L73.4034 141.807L73.8772 141.846L73.8351 141.373L73.4367 141.408ZM71.3967 136.58L71.1085 136.858L71.1138 136.863L71.3967 136.58ZM63.3047 135.016L63.3612 135.412L63.3704 135.411L63.3795 135.409L63.3047 135.016ZM61.1287 135.492L60.9919 135.116L60.9851 135.119L61.1287 135.492ZM58.6127 135.356L58.3298 135.639L58.3392 135.648L58.3493 135.657L58.6127 135.356ZM59.2247 132.5L59.1118 132.116L59.1016 132.119L59.0915 132.123L59.2247 132.5ZM62.2847 131.752L62.2036 131.36L62.2008 131.361L62.2847 131.752ZM74.2527 134.404L73.947 134.662L73.9504 134.666L74.2527 134.404ZM77.3807 152.424L76.998 152.54L77.0011 152.551L77.0047 152.561L77.3807 152.424ZM78.9447 155.076L78.6447 155.341L78.653 155.35L78.6618 155.359L78.9447 155.076ZM78.8767 157.456L79.1595 157.739L78.8767 157.456ZM68.7447 153.308L68.9199 153.668L68.9272 153.664L68.7447 153.308ZM73.5047 149.228L73.8208 149.473L73.9047 149.365V149.228H73.5047ZM73.5047 144.808H73.9047V144.439L73.537 144.409L73.5047 144.808ZM59.7007 147.256L59.9835 147.539L59.7007 147.256ZM58.5447 148.956L58.1713 148.812L58.1664 148.825L58.1623 148.838L58.5447 148.956ZM59.4287 153.376L59.1377 153.651L59.1458 153.659L59.4287 153.376ZM76.7857 157.112C75.8344 156.117 75.0913 154.855 74.563 153.314L73.8063 153.574C74.366 155.206 75.1642 156.574 76.2076 157.664L76.7857 157.112ZM73.9105 153.153C72.401 154.573 70.739 155.681 68.9239 156.478L69.2455 157.21C71.1477 156.375 72.8857 155.216 74.4588 153.735L73.9105 153.153ZM68.9282 156.476C67.1683 157.224 65.25 157.6 63.1687 157.6V158.4C65.3487 158.4 67.3744 158.005 69.2411 157.212L68.9282 156.476ZM63.1687 157.6C61.1272 157.6 59.5557 157.222 58.4178 156.506L57.9915 157.182C59.3016 158.007 61.0395 158.4 63.1687 158.4V157.6ZM58.4178 156.506C57.2497 155.77 56.4482 154.876 55.9868 153.827L55.2545 154.149C55.7905 155.367 56.7116 156.377 57.9915 157.182L58.4178 156.506ZM55.9868 153.827C55.5052 152.732 55.2727 151.722 55.2727 150.792H54.4727C54.4727 151.856 54.7388 152.977 55.2545 154.149L55.9868 153.827ZM55.2727 150.792C55.2727 149.749 55.4462 148.753 55.7926 147.801L55.0407 147.527C54.6617 148.57 54.4727 149.659 54.4727 150.792H55.2727ZM55.7892 147.81C56.1756 146.822 56.7541 145.965 57.5273 145.235L56.978 144.653C56.1192 145.464 55.4737 146.42 55.0442 147.518L55.7892 147.81ZM57.5235 145.238C58.6095 144.239 60.08 143.379 61.9511 142.666L61.6663 141.918C59.7293 142.656 58.1625 143.563 56.9818 144.65L57.5235 145.238ZM61.9511 142.666C63.7965 141.963 66.0797 141.604 68.8127 141.604V140.804C66.0149 140.804 63.6288 141.171 61.6663 141.918L61.9511 142.666ZM68.8127 141.604C70.2509 141.604 71.7811 141.671 73.4034 141.807L73.4699 141.009C71.8282 140.873 70.2757 140.804 68.8127 140.804V141.604ZM73.8351 141.373C73.6474 139.261 72.9387 137.556 71.6795 136.297L71.1138 136.863C72.2119 137.961 72.8632 139.475 73.0382 141.443L73.8351 141.373ZM71.6848 136.303C70.4053 134.974 68.5156 134.344 66.0927 134.344V135.144C68.3844 135.144 70.0307 135.738 71.1085 136.857L71.6848 136.303ZM66.0927 134.344C65.1592 134.344 64.2048 134.437 63.2298 134.623L63.3795 135.409C64.3085 135.232 65.2128 135.144 66.0927 135.144V134.344ZM63.2481 134.62C62.287 134.757 61.5295 134.921 60.992 135.116L61.2654 135.868C61.7252 135.701 62.4184 135.547 63.3612 135.412L63.2481 134.62ZM60.9851 135.119C60.3968 135.345 60.0275 135.432 59.8367 135.432V136.232C60.1898 136.232 60.6818 136.092 61.2722 135.865L60.9851 135.119ZM59.8367 135.432C59.4867 135.432 59.1708 135.313 58.8761 135.055L58.3493 135.657C58.7798 136.034 59.28 136.232 59.8367 136.232V135.432ZM58.8955 135.073C58.5875 134.765 58.4687 134.476 58.4687 134.2H57.6687C57.6687 134.74 57.9125 135.221 58.3298 135.639L58.8955 135.073ZM58.4687 134.2C58.4687 133.829 58.5512 133.556 58.6884 133.354C58.8244 133.154 59.037 132.99 59.3578 132.877L59.0915 132.123C58.6417 132.282 58.2762 132.537 58.0269 132.904C57.7787 133.269 57.6687 133.71 57.6687 134.2H58.4687ZM59.3375 132.884C60.0946 132.661 61.1038 132.414 62.3685 132.143L62.2008 131.361C60.9269 131.634 59.896 131.886 59.1118 132.116L59.3375 132.884ZM62.3657 132.144C63.6562 131.877 64.8984 131.744 66.0927 131.744V130.944C64.839 130.944 63.5424 131.083 62.2036 131.36L62.3657 132.144ZM66.0927 131.744C69.7405 131.744 72.3268 132.743 73.947 134.662L74.5583 134.146C72.7332 131.985 69.8795 130.944 66.0927 130.944V131.744ZM73.9504 134.666C75.6428 136.619 76.5047 139.171 76.5047 142.36H77.3047C77.3047 139.021 76.3985 136.269 74.5549 134.142L73.9504 134.666ZM76.5047 142.36V148.548H77.3047V142.36H76.5047ZM76.5047 148.548C76.5047 150.114 76.6655 151.448 76.998 152.54L77.7633 152.308C77.4611 151.315 77.3047 150.065 77.3047 148.548H76.5047ZM77.0047 152.561C77.3839 153.604 77.9305 154.531 78.6447 155.341L79.2446 154.811C78.5988 154.079 78.1027 153.239 77.7566 152.287L77.0047 152.561ZM78.6618 155.359C78.9033 155.6 79.0207 155.884 79.0207 156.232H79.8207C79.8207 155.674 79.6207 155.186 79.2275 154.793L78.6618 155.359ZM79.0207 156.232C79.0207 156.565 78.8922 156.875 78.5938 157.173L79.1595 157.739C79.5864 157.312 79.8207 156.806 79.8207 156.232H79.0207ZM78.5938 157.173C78.3523 157.415 78.0691 157.532 77.7207 157.532V158.332C78.2789 158.332 78.7663 158.132 79.1595 157.739L78.5938 157.173ZM77.7207 157.532C77.3877 157.532 77.0779 157.404 76.7795 157.105L76.2138 157.671C76.6408 158.098 77.147 158.332 77.7207 158.332V157.532ZM63.1687 155C65.1793 155 67.0978 154.555 68.9198 153.668L68.5695 152.948C66.8555 153.783 65.0567 154.2 63.1687 154.2V155ZM68.9272 153.664C70.7548 152.727 72.3851 151.326 73.8208 149.473L73.1885 148.983C71.8135 150.757 70.2705 152.076 68.5621 152.952L68.9272 153.664ZM73.9047 149.228V144.808H73.1047V149.228H73.9047ZM73.537 144.409C71.8506 144.273 70.2757 144.204 68.8127 144.204V145.004C70.251 145.004 71.8041 145.071 73.4723 145.207L73.537 144.409ZM68.8127 144.204C64.4713 144.204 61.2995 145.091 59.4178 146.973L59.9835 147.539C61.6378 145.885 64.5407 145.004 68.8127 145.004V144.204ZM59.4178 146.973C58.8427 147.548 58.422 148.161 58.1713 148.812L58.918 149.1C59.1207 148.573 59.4706 148.052 59.9835 147.539L59.4178 146.973ZM58.1623 148.838C57.9689 149.467 57.8727 150.119 57.8727 150.792H58.6727C58.6727 150.196 58.7577 149.624 58.927 149.074L58.1623 148.838ZM57.8727 150.792C57.8727 151.824 58.3146 152.779 59.1379 153.651L59.7195 153.101C59.0014 152.341 58.6727 151.574 58.6727 150.792H57.8727ZM59.1458 153.659C60.0651 154.578 61.4334 155 63.1687 155V154.2C61.5493 154.2 60.4242 153.806 59.7115 153.093L59.1458 153.659ZM92.1499 155.416L91.8671 155.699L91.8708 155.702L92.1499 155.416ZM89.4979 134.744H89.8979V134.344H89.4979V134.744ZM83.9899 134.268L83.6889 134.531L83.7065 134.551L83.7265 134.569L83.9899 134.268ZM83.9899 131.82L83.7265 131.519L83.7165 131.528L83.7071 131.537L83.9899 131.82ZM89.4979 131.344V131.744H89.8979V131.344H89.4979ZM89.9739 123.252L89.7105 122.951L89.7005 122.96L89.6911 122.969L89.9739 123.252ZM92.4219 123.252L92.7048 122.969V122.969L92.4219 123.252ZM92.8979 131.344H92.4979V131.744H92.8979V131.344ZM103.166 134.268L103.449 134.551L103.458 134.541L103.467 134.531L103.166 134.268ZM92.8979 134.744V134.344H92.4979V134.744H92.8979ZM102.282 155.144L101.981 155.407L101.99 155.417L101.999 155.427L102.282 155.144ZM102.214 157.524L101.931 157.241H101.931L102.214 157.524ZM101.058 157.6C96.9242 157.6 94.0851 156.743 92.4291 155.13L91.8708 155.702C93.7508 157.534 96.8503 158.4 101.058 158.4V157.6ZM92.4328 155.133C90.7531 153.453 89.8979 151.205 89.8979 148.344H89.0979C89.0979 151.376 90.0108 153.843 91.8671 155.699L92.4328 155.133ZM89.8979 148.344V134.744H89.0979V148.344H89.8979ZM89.4979 134.344H85.2139V135.144H89.4979V134.344ZM85.2139 134.344C84.8639 134.344 84.5481 134.225 84.2533 133.967L83.7265 134.569C84.1571 134.946 84.6573 135.144 85.2139 135.144V134.344ZM84.291 134.005C84.0331 133.71 83.9139 133.394 83.9139 133.044H83.1139C83.1139 133.601 83.3121 134.101 83.6889 134.531L84.291 134.005ZM83.9139 133.044C83.9139 132.638 84.0391 132.336 84.2728 132.103L83.7071 131.537C83.3061 131.938 83.1139 132.452 83.1139 133.044H83.9139ZM84.2533 132.121C84.5481 131.863 84.8639 131.744 85.2139 131.744V130.944C84.6573 130.944 84.1571 131.142 83.7265 131.519L84.2533 132.121ZM85.2139 131.744H89.4979V130.944H85.2139V131.744ZM89.8979 131.344V124.476H89.0979V131.344H89.8979ZM89.8979 124.476C89.8979 124.07 90.0231 123.768 90.2568 123.535L89.6911 122.969C89.2901 123.37 89.0979 123.884 89.0979 124.476H89.8979ZM90.2373 123.553C90.5321 123.295 90.8479 123.176 91.1979 123.176V122.376C90.6413 122.376 90.1411 122.574 89.7105 122.951L90.2373 123.553ZM91.1979 123.176C91.6034 123.176 91.9054 123.301 92.1391 123.535L92.7048 122.969C92.3038 122.568 91.7898 122.376 91.1979 122.376V123.176ZM92.1391 123.535C92.3727 123.768 92.4979 124.07 92.4979 124.476H93.2979C93.2979 123.884 93.1058 123.37 92.7048 122.969L92.1391 123.535ZM92.4979 124.476V131.344H93.2979V124.476H92.4979ZM92.8979 131.744H101.942V130.944H92.8979V131.744ZM101.942 131.744C102.347 131.744 102.649 131.869 102.883 132.103L103.449 131.537C103.048 131.136 102.534 130.944 101.942 130.944V131.744ZM102.883 132.103C103.117 132.336 103.242 132.638 103.242 133.044H104.042C104.042 132.452 103.85 131.938 103.449 131.537L102.883 132.103ZM103.242 133.044C103.242 133.394 103.123 133.71 102.865 134.005L103.467 134.531C103.844 134.101 104.042 133.601 104.042 133.044H103.242ZM102.883 133.985C102.649 134.219 102.347 134.344 101.942 134.344V135.144C102.534 135.144 103.048 134.952 103.449 134.551L102.883 133.985ZM101.942 134.344H92.8979V135.144H101.942V134.344ZM92.4979 134.744V148.344H93.2979V134.744H92.4979ZM92.4979 148.344C92.4979 150.524 93.2142 152.218 94.6946 153.353C96.1548 154.473 98.2981 155 101.058 155V154.2C98.3778 154.2 96.4411 153.684 95.1813 152.719C93.9417 151.768 93.2979 150.335 93.2979 148.344H92.4979ZM101.058 155C101.446 155 101.743 155.135 101.981 155.407L102.583 154.881C102.187 154.428 101.667 154.2 101.058 154.2V155ZM101.999 155.427C102.241 155.668 102.358 155.952 102.358 156.3H103.158C103.158 155.742 102.958 155.254 102.565 154.861L101.999 155.427ZM102.358 156.3C102.358 156.633 102.229 156.943 101.931 157.241L102.497 157.807C102.924 157.38 103.158 156.874 103.158 156.3H102.358ZM101.931 157.241C101.69 157.483 101.406 157.6 101.058 157.6V158.4C101.616 158.4 102.104 158.2 102.497 157.807L101.931 157.241ZM115.917 118.356L115.613 118.616L115.618 118.622L115.623 118.627L115.917 118.356ZM115.917 123.184L116.2 123.467L115.917 123.184ZM111.905 123.184L111.611 123.455L111.622 123.467L111.634 123.478L111.905 123.184ZM111.905 118.356L112.199 118.627L112.204 118.622L112.209 118.616L111.905 118.356ZM112.789 131.82L112.526 131.519L112.516 131.528L112.506 131.537L112.789 131.82ZM115.237 157.524L115.52 157.807L115.529 157.797L115.538 157.787L115.237 157.524ZM112.789 157.524L112.488 157.787L112.506 157.807L112.526 157.825L112.789 157.524ZM113.945 117.804C114.588 117.804 115.138 118.062 115.613 118.616L116.221 118.096C115.608 117.381 114.843 117.004 113.945 117.004V117.804ZM115.623 118.627C116.08 119.123 116.333 119.831 116.333 120.804H117.133C117.133 119.692 116.842 118.768 116.211 118.085L115.623 118.627ZM116.333 120.804C116.333 121.779 116.08 122.456 115.634 122.901L116.2 123.467C116.842 122.824 117.133 121.914 117.133 120.804H116.333ZM115.634 122.901C115.16 123.375 114.625 123.6 114.013 123.6V124.4C114.851 124.4 115.586 124.081 116.2 123.467L115.634 122.901ZM114.013 123.6C113.296 123.6 112.69 123.365 112.176 122.89L111.634 123.478C112.298 124.091 113.098 124.4 114.013 124.4V123.6ZM112.199 122.913C111.739 122.414 111.489 121.726 111.489 120.804H110.689C110.689 121.876 110.983 122.775 111.611 123.455L112.199 122.913ZM111.489 120.804C111.489 119.831 111.742 119.123 112.199 118.627L111.611 118.085C110.98 118.768 110.689 119.692 110.689 120.804H111.489ZM112.209 118.616C112.679 118.068 113.249 117.804 113.945 117.804V117.004C113.009 117.004 112.219 117.375 111.601 118.096L112.209 118.616ZM112.713 133.044C112.713 132.638 112.838 132.336 113.072 132.103L112.506 131.537C112.105 131.938 111.913 132.452 111.913 133.044H112.713ZM113.052 132.121C113.347 131.863 113.663 131.744 114.013 131.744V130.944C113.456 130.944 112.956 131.142 112.526 131.519L113.052 132.121ZM114.013 131.744C114.419 131.744 114.721 131.869 114.954 132.103L115.52 131.537C115.119 131.136 114.605 130.944 114.013 130.944V131.744ZM114.954 132.103C115.188 132.336 115.313 132.638 115.313 133.044H116.113C116.113 132.452 115.921 131.938 115.52 131.537L114.954 132.103ZM115.313 133.044V156.3H116.113V133.044H115.313ZM115.313 156.3C115.313 156.65 115.194 156.966 114.936 157.261L115.538 157.787C115.915 157.357 116.113 156.857 116.113 156.3H115.313ZM114.954 157.241C114.721 157.475 114.419 157.6 114.013 157.6V158.4C114.605 158.4 115.119 158.208 115.52 157.807L114.954 157.241ZM114.013 157.6C113.663 157.6 113.347 157.481 113.052 157.223L112.526 157.825C112.956 158.202 113.456 158.4 114.013 158.4V157.6ZM113.09 157.261C112.832 156.966 112.713 156.65 112.713 156.3H111.913C111.913 156.857 112.111 157.357 112.488 157.787L113.09 157.261ZM112.713 156.3V133.044H111.913V156.3H112.713ZM147.702 157.524L147.401 157.787L147.418 157.807L147.438 157.825L147.702 157.524ZM145.594 136.648L145.285 136.902L145.29 136.908L145.295 136.914L145.594 136.648ZM135.87 136.308L136.07 136.654L136.077 136.65L135.87 136.308ZM131.11 139.98L130.827 139.697L130.71 139.814V139.98H131.11ZM130.634 157.524L130.917 157.807L130.926 157.797L130.935 157.787L130.634 157.524ZM128.186 157.524L127.885 157.787L127.902 157.807L127.922 157.825L128.186 157.524ZM128.186 131.82L127.922 131.519L127.912 131.528L127.903 131.537L128.186 131.82ZM130.634 131.82L130.917 131.537L130.634 131.82ZM131.11 135.492H130.71V136.32L131.358 135.805L131.11 135.492ZM135.938 132.5L135.771 132.137L135.938 132.5ZM146.002 132.364L145.827 132.724L146.002 132.364ZM149.334 135.9L148.974 136.075L148.98 136.087L149.334 135.9ZM150.15 157.524L150.433 157.807L150.442 157.797L150.451 157.787L150.15 157.524ZM148.926 157.6C148.576 157.6 148.26 157.481 147.965 157.223L147.438 157.825C147.869 158.202 148.369 158.4 148.926 158.4V157.6ZM148.003 157.261C147.745 156.966 147.626 156.65 147.626 156.3H146.826C146.826 156.857 147.024 157.357 147.401 157.787L148.003 157.261ZM147.626 156.3V142.7H146.826V156.3H147.626ZM147.626 142.7C147.626 139.856 147.079 137.716 145.893 136.382L145.295 136.914C146.285 138.028 146.826 139.923 146.826 142.7H147.626ZM145.903 136.394C144.776 135.022 143.229 134.344 141.31 134.344V135.144C143.017 135.144 144.326 135.735 145.285 136.902L145.903 136.394ZM141.31 134.344C139.328 134.344 137.444 134.888 135.663 135.966L136.077 136.65C137.741 135.643 139.483 135.144 141.31 135.144V134.344ZM135.669 135.962C133.916 136.977 132.301 138.223 130.827 139.697L131.393 140.263C132.819 138.836 134.378 137.634 136.07 136.654L135.669 135.962ZM130.71 139.98V156.3H131.51V139.98H130.71ZM130.71 156.3C130.71 156.65 130.591 156.966 130.333 157.261L130.935 157.787C131.311 157.357 131.51 156.857 131.51 156.3H130.71ZM130.351 157.241C130.117 157.475 129.815 157.6 129.41 157.6V158.4C130.002 158.4 130.516 158.208 130.917 157.807L130.351 157.241ZM129.41 157.6C129.06 157.6 128.744 157.481 128.449 157.223L127.922 157.825C128.353 158.202 128.853 158.4 129.41 158.4V157.6ZM128.487 157.261C128.229 156.966 128.11 156.65 128.11 156.3H127.31C127.31 156.857 127.508 157.357 127.885 157.787L128.487 157.261ZM128.11 156.3V133.044H127.31V156.3H128.11ZM128.11 133.044C128.11 132.638 128.235 132.336 128.469 132.103L127.903 131.537C127.502 131.938 127.31 132.452 127.31 133.044H128.11ZM128.449 132.121C128.744 131.863 129.06 131.744 129.41 131.744V130.944C128.853 130.944 128.353 131.142 127.922 131.519L128.449 132.121ZM129.41 131.744C129.815 131.744 130.117 131.869 130.351 132.103L130.917 131.537C130.516 131.136 130.002 130.944 129.41 130.944V131.744ZM130.351 132.103C130.584 132.336 130.71 132.638 130.71 133.044H131.51C131.51 132.452 131.318 131.938 130.917 131.537L130.351 132.103ZM130.71 133.044V135.492H131.51V133.044H130.71ZM131.358 135.805C132.876 134.6 134.458 133.62 136.105 132.863L135.771 132.137C134.062 132.921 132.426 133.936 130.861 135.179L131.358 135.805ZM136.105 132.863C137.728 132.118 139.461 131.744 141.31 131.744V130.944C139.35 130.944 137.502 131.341 135.771 132.137L136.105 132.863ZM141.31 131.744C142.978 131.744 144.482 132.073 145.827 132.724L146.176 132.004C144.711 131.295 143.086 130.944 141.31 130.944V131.744ZM145.827 132.724C147.137 133.358 148.189 134.462 148.974 136.075L149.693 135.725C148.846 133.983 147.677 132.73 146.176 132.004L145.827 132.724ZM148.98 136.087C149.798 137.637 150.226 139.83 150.226 142.7H151.026C151.026 139.767 150.592 137.427 149.687 135.713L148.98 136.087ZM150.226 142.7V156.3H151.026V142.7H150.226ZM150.226 156.3C150.226 156.65 150.107 156.966 149.849 157.261L150.451 157.787C150.827 157.357 151.026 156.857 151.026 156.3H150.226ZM149.867 157.241C149.633 157.475 149.331 157.6 148.926 157.6V158.4C149.518 158.4 150.032 158.208 150.433 157.807L149.867 157.241ZM165.522 167.384L165.259 167.083L165.239 167.101L165.221 167.121L165.522 167.384ZM177.354 163.1L177.058 162.831L177.053 162.837L177.354 163.1ZM180.754 152.9H181.154V151.975L180.481 152.608L180.754 152.9ZM175.858 156.096L176.01 156.466L175.858 156.096ZM164.978 155.96L164.807 156.322L164.811 156.323L164.978 155.96ZM160.694 152.084L160.354 152.294L160.358 152.3L160.694 152.084ZM161.034 137.872L160.696 137.659L161.034 137.872ZM166.134 133.044L165.947 132.691L165.943 132.693L166.134 133.044ZM176.946 131.752L176.86 132.142L176.863 132.143L176.946 131.752ZM180.754 132.908L180.608 133.28L181.061 133.458L181.148 132.98L180.754 132.908ZM181.366 131.752L181.627 132.056L181.366 131.752ZM180.006 165.616L180.306 165.881L180.006 165.616ZM176.062 152.288L176.255 152.639L176.262 152.635L176.062 152.288ZM180.754 147.8L181.086 148.024L181.154 147.922V147.8H180.754ZM180.754 136.648H181.154V136.39L180.919 136.283L180.754 136.648ZM167.766 136.036L167.576 135.684L167.766 136.036ZM163.89 139.708L163.552 139.495L163.547 139.502L163.89 139.708ZM163.618 150.112L163.277 150.32L163.618 150.112ZM166.61 152.9L166.784 152.54L166.61 152.9ZM166.746 169.908C166.413 169.908 166.104 169.78 165.805 169.481L165.24 170.047C165.667 170.474 166.173 170.708 166.746 170.708V169.908ZM165.805 169.481C165.564 169.24 165.446 168.956 165.446 168.608H164.646C164.646 169.166 164.846 169.654 165.24 170.047L165.805 169.481ZM165.446 168.608C165.446 168.258 165.566 167.942 165.824 167.647L165.221 167.121C164.845 167.551 164.646 168.051 164.646 168.608H165.446ZM165.786 167.685C166.081 167.427 166.396 167.308 166.746 167.308V166.508C166.19 166.508 165.69 166.706 165.259 167.083L165.786 167.685ZM166.746 167.308C171.661 167.308 175.33 166.021 177.656 163.363L177.053 162.837C174.937 165.256 171.534 166.508 166.746 166.508V167.308ZM177.65 163.369C179.998 160.786 181.154 157.373 181.154 153.172H180.354C180.354 157.221 179.244 160.427 177.058 162.831L177.65 163.369ZM181.154 153.172V152.9H180.354V153.172H181.154ZM180.481 152.608C179.018 153.983 177.426 155.02 175.707 155.726L176.01 156.466C177.827 155.721 179.499 154.628 181.028 153.192L180.481 152.608ZM175.707 155.726C173.985 156.432 172.224 156.784 170.418 156.784V157.584C172.331 157.584 174.195 157.211 176.01 156.466L175.707 155.726ZM170.418 156.784C168.62 156.784 166.864 156.39 165.146 155.597L164.811 156.323C166.629 157.162 168.499 157.584 170.418 157.584V156.784ZM165.15 155.599C163.502 154.818 162.128 153.58 161.031 151.868L160.358 152.3C161.527 154.124 163.01 155.47 164.807 156.321L165.15 155.599ZM161.035 151.874C159.997 150.187 159.462 147.999 159.462 145.284H158.662C158.662 148.099 159.216 150.445 160.354 152.294L161.035 151.874ZM159.462 145.284C159.462 142.491 160.104 140.097 161.373 138.085L160.696 137.659C159.335 139.817 158.662 142.365 158.662 145.284H159.462ZM161.373 138.085C162.652 136.056 164.303 134.495 166.325 133.395L165.943 132.693C163.796 133.86 162.046 135.518 160.696 137.659L161.373 138.085ZM166.322 133.397C168.399 132.293 170.534 131.744 172.73 131.744V130.944C170.394 130.944 168.131 131.529 165.947 132.691L166.322 133.397ZM172.73 131.744C174.295 131.744 175.671 131.878 176.86 132.142L177.033 131.362C175.774 131.082 174.339 130.944 172.73 130.944V131.744ZM176.863 132.143C178.11 132.41 179.358 132.789 180.608 133.28L180.901 132.536C179.612 132.029 178.322 131.638 177.03 131.361L176.863 132.143ZM181.148 132.98C181.226 132.551 181.393 132.256 181.627 132.056L181.106 131.448C180.705 131.792 180.464 132.267 180.361 132.836L181.148 132.98ZM181.627 132.056C181.874 131.844 182.144 131.744 182.454 131.744V130.944C181.948 130.944 181.494 131.116 181.106 131.448L181.627 132.056ZM182.454 131.744C182.86 131.744 183.162 131.869 183.396 132.103L183.961 131.537C183.56 131.136 183.046 130.944 182.454 130.944V131.744ZM183.396 132.103C183.629 132.336 183.754 132.638 183.754 133.044H184.554C184.554 132.452 184.362 131.938 183.961 131.537L183.396 132.103ZM183.754 133.044V153.172H184.554V133.044H183.754ZM183.754 153.172C183.754 158.267 182.393 162.312 179.707 165.351L180.306 165.881C183.15 162.664 184.554 158.413 184.554 153.172H183.754ZM179.707 165.351C177.047 168.36 172.76 169.908 166.746 169.908V170.708C172.883 170.708 177.436 169.128 180.306 165.881L179.707 165.351ZM170.418 154.184C172.439 154.184 174.387 153.666 176.255 152.638L175.87 151.938C174.112 152.904 172.296 153.384 170.418 153.384V154.184ZM176.262 152.635C178.134 151.558 179.742 150.017 181.086 148.024L180.423 147.576C179.138 149.481 177.617 150.933 175.863 151.941L176.262 152.635ZM181.154 147.8V136.648H180.354V147.8H181.154ZM180.919 136.283C179.499 135.642 178.186 135.158 176.982 134.834L176.774 135.606C177.928 135.917 179.199 136.385 180.59 137.013L180.919 136.283ZM176.982 134.834C175.762 134.505 174.342 134.344 172.73 134.344V135.144C174.292 135.144 175.638 135.3 176.774 135.606L176.982 134.834ZM172.73 134.344C170.938 134.344 169.218 134.793 167.576 135.684L167.957 136.388C169.488 135.556 171.078 135.144 172.73 135.144V134.344ZM167.576 135.684C165.926 136.58 164.584 137.853 163.552 139.495L164.229 139.921C165.191 138.39 166.433 137.215 167.957 136.388L167.576 135.684ZM163.547 139.502C162.553 141.16 162.062 143.092 162.062 145.284H162.862C162.862 143.215 163.324 141.429 164.233 139.914L163.547 139.502ZM162.062 145.284C162.062 147.284 162.458 148.971 163.277 150.32L163.96 149.904C163.238 148.714 162.862 147.182 162.862 145.284H162.062ZM163.277 150.32C164.083 151.649 165.137 152.634 166.437 153.26L166.784 152.54C165.636 151.987 164.695 151.114 163.96 149.904L163.277 150.32ZM166.437 153.26C167.713 153.875 169.042 154.184 170.418 154.184V153.384C169.166 153.384 167.956 153.104 166.784 152.54L166.437 153.26Z" fill="#3C3C3C" mask="url(#path-10-outside-1_531_277)"/>
<mask id="path-12-outside-2_531_277" maskUnits="userSpaceOnUse" x="116" y="173" width="68" height="23" fill="black">
<rect fill="white" x="116" y="173" width="68" height="23"/>
<path d="M132.44 194.6C131.533 193.373 130.48 192 129.28 190.48C128.107 188.96 126.893 187.413 125.64 185.84C124.387 184.24 123.173 182.693 122 181.2C120.853 179.707 119.827 178.387 118.92 177.24V194C118.92 194.267 118.827 194.507 118.64 194.72C118.453 194.907 118.213 195 117.92 195C117.653 195 117.413 194.907 117.2 194.72C117.013 194.507 116.92 194.267 116.92 194V174.6C116.92 174.307 117.013 174.067 117.2 173.88C117.413 173.693 117.64 173.6 117.88 173.6C118.413 173.6 118.773 173.733 118.96 174C119.627 174.88 120.493 176.013 121.56 177.4C122.627 178.76 123.787 180.253 125.04 181.88C126.32 183.48 127.6 185.107 128.88 186.76C130.187 188.387 131.387 189.92 132.48 191.36V174.6C132.48 174.307 132.573 174.067 132.76 173.88C132.973 173.693 133.213 173.6 133.48 173.6C133.773 173.6 134.013 173.693 134.2 173.88C134.387 174.067 134.48 174.307 134.48 174.6V194C134.48 194.267 134.387 194.507 134.2 194.72C134.013 194.907 133.787 195 133.52 195C132.987 195 132.627 194.867 132.44 194.6ZM153.111 194.64C152.524 194.027 152.071 193.253 151.751 192.32C150.844 193.173 149.844 193.84 148.751 194.32C147.684 194.773 146.524 195 145.271 195C144.044 195 143.071 194.773 142.351 194.32C141.631 193.867 141.124 193.307 140.831 192.64C140.537 191.973 140.391 191.347 140.391 190.76C140.391 190.12 140.497 189.507 140.711 188.92C140.951 188.307 141.311 187.773 141.791 187.32C142.457 186.707 143.351 186.187 144.471 185.76C145.591 185.333 146.964 185.12 148.591 185.12C149.444 185.12 150.351 185.16 151.311 185.24C151.204 184.04 150.804 183.093 150.111 182.4C149.417 181.68 148.377 181.32 146.991 181.32C146.457 181.32 145.911 181.373 145.351 181.48C144.791 181.56 144.364 181.653 144.071 181.76C143.724 181.893 143.471 181.96 143.311 181.96C143.044 181.96 142.804 181.867 142.591 181.68C142.377 181.467 142.271 181.24 142.271 181C142.271 180.493 142.497 180.16 142.951 180C143.404 179.867 144.004 179.72 144.751 179.56C145.524 179.4 146.271 179.32 146.991 179.32C149.177 179.32 150.777 179.92 151.791 181.12C152.831 182.32 153.351 183.88 153.351 185.8V189.44C153.351 190.347 153.444 191.107 153.631 191.72C153.844 192.307 154.151 192.827 154.551 193.28C154.737 193.467 154.831 193.693 154.831 193.96C154.831 194.227 154.724 194.467 154.511 194.68C154.324 194.867 154.097 194.96 153.831 194.96C153.564 194.96 153.324 194.853 153.111 194.64ZM145.271 193C146.417 193 147.511 192.747 148.551 192.24C149.591 191.707 150.524 190.907 151.351 189.84V187.24C150.364 187.16 149.444 187.12 148.591 187.12C146.057 187.12 144.271 187.64 143.231 188.68C142.911 189 142.684 189.333 142.551 189.68C142.444 190.027 142.391 190.387 142.391 190.76C142.391 191.293 142.617 191.8 143.071 192.28C143.551 192.76 144.284 193 145.271 193ZM182.478 195C182.212 195 181.972 194.907 181.758 194.72C181.572 194.507 181.478 194.267 181.478 194V185.6C181.478 184.027 181.158 182.92 180.518 182.28C179.905 181.64 179.105 181.32 178.118 181.32C177.132 181.32 176.172 181.6 175.238 182.16C174.305 182.72 173.452 183.427 172.678 184.28V194C172.678 194.267 172.585 194.507 172.398 194.72C172.212 194.907 171.972 195 171.678 195C171.412 195 171.172 194.907 170.958 194.72C170.772 194.507 170.678 194.267 170.678 194V185.6C170.678 184.027 170.358 182.92 169.718 182.28C169.105 181.64 168.305 181.32 167.318 181.32C166.332 181.32 165.358 181.627 164.398 182.24C163.438 182.827 162.572 183.547 161.798 184.4V194C161.798 194.267 161.705 194.507 161.518 194.72C161.332 194.907 161.092 195 160.798 195C160.532 195 160.292 194.907 160.078 194.72C159.892 194.507 159.798 194.267 159.798 194V180.32C159.798 180.027 159.892 179.787 160.078 179.6C160.292 179.413 160.532 179.32 160.798 179.32C161.092 179.32 161.332 179.413 161.518 179.6C161.705 179.787 161.798 180.027 161.798 180.32V181.68C162.652 180.987 163.545 180.427 164.478 180C165.412 179.547 166.358 179.32 167.318 179.32C168.358 179.32 169.305 179.507 170.158 179.88C171.012 180.253 171.665 180.987 172.118 182.08C173.025 181.253 173.985 180.587 174.998 180.08C176.038 179.573 177.078 179.32 178.118 179.32C179.105 179.32 179.998 179.493 180.798 179.84C181.598 180.187 182.238 180.813 182.718 181.72C183.225 182.6 183.478 183.893 183.478 185.6V194C183.478 194.267 183.385 194.507 183.198 194.72C183.012 194.907 182.772 195 182.478 195Z"/>
</mask>
<path d="M132.44 194.6C131.533 193.373 130.48 192 129.28 190.48C128.107 188.96 126.893 187.413 125.64 185.84C124.387 184.24 123.173 182.693 122 181.2C120.853 179.707 119.827 178.387 118.92 177.24V194C118.92 194.267 118.827 194.507 118.64 194.72C118.453 194.907 118.213 195 117.92 195C117.653 195 117.413 194.907 117.2 194.72C117.013 194.507 116.92 194.267 116.92 194V174.6C116.92 174.307 117.013 174.067 117.2 173.88C117.413 173.693 117.64 173.6 117.88 173.6C118.413 173.6 118.773 173.733 118.96 174C119.627 174.88 120.493 176.013 121.56 177.4C122.627 178.76 123.787 180.253 125.04 181.88C126.32 183.48 127.6 185.107 128.88 186.76C130.187 188.387 131.387 189.92 132.48 191.36V174.6C132.48 174.307 132.573 174.067 132.76 173.88C132.973 173.693 133.213 173.6 133.48 173.6C133.773 173.6 134.013 173.693 134.2 173.88C134.387 174.067 134.48 174.307 134.48 174.6V194C134.48 194.267 134.387 194.507 134.2 194.72C134.013 194.907 133.787 195 133.52 195C132.987 195 132.627 194.867 132.44 194.6ZM153.111 194.64C152.524 194.027 152.071 193.253 151.751 192.32C150.844 193.173 149.844 193.84 148.751 194.32C147.684 194.773 146.524 195 145.271 195C144.044 195 143.071 194.773 142.351 194.32C141.631 193.867 141.124 193.307 140.831 192.64C140.537 191.973 140.391 191.347 140.391 190.76C140.391 190.12 140.497 189.507 140.711 188.92C140.951 188.307 141.311 187.773 141.791 187.32C142.457 186.707 143.351 186.187 144.471 185.76C145.591 185.333 146.964 185.12 148.591 185.12C149.444 185.12 150.351 185.16 151.311 185.24C151.204 184.04 150.804 183.093 150.111 182.4C149.417 181.68 148.377 181.32 146.991 181.32C146.457 181.32 145.911 181.373 145.351 181.48C144.791 181.56 144.364 181.653 144.071 181.76C143.724 181.893 143.471 181.96 143.311 181.96C143.044 181.96 142.804 181.867 142.591 181.68C142.377 181.467 142.271 181.24 142.271 181C142.271 180.493 142.497 180.16 142.951 180C143.404 179.867 144.004 179.72 144.751 179.56C145.524 179.4 146.271 179.32 146.991 179.32C149.177 179.32 150.777 179.92 151.791 181.12C152.831 182.32 153.351 183.88 153.351 185.8V189.44C153.351 190.347 153.444 191.107 153.631 191.72C153.844 192.307 154.151 192.827 154.551 193.28C154.737 193.467 154.831 193.693 154.831 193.96C154.831 194.227 154.724 194.467 154.511 194.68C154.324 194.867 154.097 194.96 153.831 194.96C153.564 194.96 153.324 194.853 153.111 194.64ZM145.271 193C146.417 193 147.511 192.747 148.551 192.24C149.591 191.707 150.524 190.907 151.351 189.84V187.24C150.364 187.16 149.444 187.12 148.591 187.12C146.057 187.12 144.271 187.64 143.231 188.68C142.911 189 142.684 189.333 142.551 189.68C142.444 190.027 142.391 190.387 142.391 190.76C142.391 191.293 142.617 191.8 143.071 192.28C143.551 192.76 144.284 193 145.271 193ZM182.478 195C182.212 195 181.972 194.907 181.758 194.72C181.572 194.507 181.478 194.267 181.478 194V185.6C181.478 184.027 181.158 182.92 180.518 182.28C179.905 181.64 179.105 181.32 178.118 181.32C177.132 181.32 176.172 181.6 175.238 182.16C174.305 182.72 173.452 183.427 172.678 184.28V194C172.678 194.267 172.585 194.507 172.398 194.72C172.212 194.907 171.972 195 171.678 195C171.412 195 171.172 194.907 170.958 194.72C170.772 194.507 170.678 194.267 170.678 194V185.6C170.678 184.027 170.358 182.92 169.718 182.28C169.105 181.64 168.305 181.32 167.318 181.32C166.332 181.32 165.358 181.627 164.398 182.24C163.438 182.827 162.572 183.547 161.798 184.4V194C161.798 194.267 161.705 194.507 161.518 194.72C161.332 194.907 161.092 195 160.798 195C160.532 195 160.292 194.907 160.078 194.72C159.892 194.507 159.798 194.267 159.798 194V180.32C159.798 180.027 159.892 179.787 160.078 179.6C160.292 179.413 160.532 179.32 160.798 179.32C161.092 179.32 161.332 179.413 161.518 179.6C161.705 179.787 161.798 180.027 161.798 180.32V181.68C162.652 180.987 163.545 180.427 164.478 180C165.412 179.547 166.358 179.32 167.318 179.32C168.358 179.32 169.305 179.507 170.158 179.88C171.012 180.253 171.665 180.987 172.118 182.08C173.025 181.253 173.985 180.587 174.998 180.08C176.038 179.573 177.078 179.32 178.118 179.32C179.105 179.32 179.998 179.493 180.798 179.84C181.598 180.187 182.238 180.813 182.718 181.72C183.225 182.6 183.478 183.893 183.478 185.6V194C183.478 194.267 183.385 194.507 183.198 194.72C183.012 194.907 182.772 195 182.478 195Z" fill="#97BF0D"/>
<path d="M132.44 194.6L132.686 194.428L132.681 194.422L132.44 194.6ZM129.28 190.48L129.043 190.663L129.045 190.666L129.28 190.48ZM125.64 185.84L125.404 186.025L125.405 186.027L125.64 185.84ZM122 181.2L121.762 181.383L121.764 181.385L122 181.2ZM118.92 177.24L119.155 177.054L118.62 176.377V177.24H118.92ZM118.64 194.72L118.852 194.932L118.859 194.925L118.866 194.918L118.64 194.72ZM117.2 194.72L116.974 194.918L116.987 194.933L117.002 194.946L117.2 194.72ZM117.2 173.88L117.002 173.654L116.995 173.661L116.988 173.668L117.2 173.88ZM118.96 174L118.714 174.172L118.721 174.181L118.96 174ZM121.56 177.4L121.322 177.583L121.324 177.585L121.56 177.4ZM125.04 181.88L124.802 182.063L124.806 182.067L125.04 181.88ZM128.88 186.76L128.643 186.944L128.646 186.948L128.88 186.76ZM132.48 191.36L132.241 191.541L132.78 192.251V191.36H132.48ZM132.76 173.88L132.562 173.654L132.555 173.661L132.548 173.668L132.76 173.88ZM134.2 194.72L134.412 194.932L134.419 194.925L134.426 194.918L134.2 194.72ZM132.681 194.422C131.772 193.192 130.717 191.816 129.515 190.294L129.045 190.666C130.243 192.184 131.294 193.555 132.199 194.778L132.681 194.422ZM129.517 190.297C128.343 188.775 127.129 187.228 125.875 185.653L125.405 186.027C126.658 187.599 127.87 189.145 129.043 190.663L129.517 190.297ZM125.876 185.655C124.623 184.055 123.409 182.508 122.236 181.015L121.764 181.385C122.937 182.879 124.151 184.425 125.404 186.025L125.876 185.655ZM122.238 181.017C121.091 179.523 120.063 178.202 119.155 177.054L118.685 177.426C119.59 178.571 120.616 179.89 121.762 181.383L122.238 181.017ZM118.62 177.24V194H119.22V177.24H118.62ZM118.62 194C118.62 194.189 118.556 194.36 118.414 194.522L118.866 194.918C119.097 194.653 119.22 194.344 119.22 194H118.62ZM118.428 194.508C118.304 194.632 118.143 194.7 117.92 194.7V195.3C118.283 195.3 118.603 195.182 118.852 194.932L118.428 194.508ZM117.92 194.7C117.731 194.7 117.56 194.636 117.398 194.494L117.002 194.946C117.267 195.177 117.576 195.3 117.92 195.3V194.7ZM117.426 194.522C117.284 194.36 117.22 194.189 117.22 194H116.62C116.62 194.344 116.743 194.653 116.974 194.918L117.426 194.522ZM117.22 194V174.6H116.62V194H117.22ZM117.22 174.6C117.22 174.377 117.288 174.216 117.412 174.092L116.988 173.668C116.738 173.917 116.62 174.237 116.62 174.6H117.22ZM117.398 174.106C117.567 173.958 117.725 173.9 117.88 173.9V173.3C117.555 173.3 117.26 173.429 117.002 173.654L117.398 174.106ZM117.88 173.9C118.379 173.9 118.612 174.026 118.714 174.172L119.206 173.828C118.935 173.44 118.448 173.3 117.88 173.3V173.9ZM118.721 174.181C119.388 175.062 120.255 176.196 121.322 177.583L121.798 177.217C120.731 175.831 119.865 174.698 119.199 173.819L118.721 174.181ZM121.324 177.585C122.39 178.944 123.549 180.437 124.802 182.063L125.278 181.697C124.024 180.07 122.863 178.576 121.796 177.215L121.324 177.585ZM124.806 182.067C126.085 183.666 127.364 185.292 128.643 186.944L129.117 186.576C127.836 184.922 126.555 183.294 125.274 181.693L124.806 182.067ZM128.646 186.948C129.951 188.573 131.15 190.104 132.241 191.541L132.719 191.179C131.624 189.736 130.422 188.201 129.114 186.572L128.646 186.948ZM132.78 191.36V174.6H132.18V191.36H132.78ZM132.78 174.6C132.78 174.377 132.848 174.216 132.972 174.092L132.548 173.668C132.298 173.917 132.18 174.237 132.18 174.6H132.78ZM132.958 174.106C133.12 173.964 133.291 173.9 133.48 173.9V173.3C133.136 173.3 132.827 173.423 132.562 173.654L132.958 174.106ZM133.48 173.9C133.703 173.9 133.864 173.968 133.988 174.092L134.412 173.668C134.163 173.418 133.843 173.3 133.48 173.3V173.9ZM133.988 174.092C134.112 174.216 134.18 174.377 134.18 174.6H134.78C134.78 174.237 134.662 173.917 134.412 173.668L133.988 174.092ZM134.18 174.6V194H134.78V174.6H134.18ZM134.18 194C134.18 194.189 134.116 194.36 133.974 194.522L134.426 194.918C134.657 194.653 134.78 194.344 134.78 194H134.18ZM133.988 194.508C133.858 194.638 133.708 194.7 133.52 194.7V195.3C133.865 195.3 134.169 195.176 134.412 194.932L133.988 194.508ZM133.52 194.7C133.021 194.7 132.788 194.574 132.686 194.428L132.194 194.772C132.465 195.16 132.952 195.3 133.52 195.3V194.7ZM153.111 194.64L152.894 194.847L152.898 194.852L153.111 194.64ZM151.751 192.32L152.034 192.223L151.884 191.783L151.545 192.102L151.751 192.32ZM148.751 194.32L148.868 194.596L148.871 194.595L148.751 194.32ZM142.351 194.32L142.51 194.066L142.351 194.32ZM140.831 192.64L141.105 192.519L140.831 192.64ZM140.711 188.92L140.431 188.811L140.429 188.817L140.711 188.92ZM141.791 187.32L141.587 187.099L141.585 187.102L141.791 187.32ZM144.471 185.76L144.577 186.04L144.471 185.76ZM151.311 185.24L151.286 185.539L151.641 185.569L151.609 185.213L151.311 185.24ZM150.111 182.4L149.894 182.608L149.898 182.612L150.111 182.4ZM145.351 181.48L145.393 181.777L145.407 181.775L145.351 181.48ZM144.071 181.76L143.968 181.478L143.963 181.48L144.071 181.76ZM142.591 181.68L142.378 181.892L142.386 181.899L142.393 181.906L142.591 181.68ZM142.951 180L142.866 179.712L142.858 179.714L142.851 179.717L142.951 180ZM144.751 179.56L144.69 179.266L144.688 179.267L144.751 179.56ZM151.791 181.12L151.561 181.314L151.564 181.316L151.791 181.12ZM153.631 191.72L153.344 191.807L153.346 191.815L153.349 191.823L153.631 191.72ZM154.551 193.28L154.326 193.478L154.332 193.486L154.338 193.492L154.551 193.28ZM154.511 194.68L154.723 194.892L154.511 194.68ZM148.551 192.24L148.682 192.51L148.688 192.507L148.551 192.24ZM151.351 189.84L151.588 190.024L151.651 189.943V189.84H151.351ZM151.351 187.24H151.651V186.963L151.375 186.941L151.351 187.24ZM143.231 188.68L143.443 188.892L143.231 188.68ZM142.551 189.68L142.271 189.572L142.267 189.582L142.264 189.592L142.551 189.68ZM143.071 192.28L142.852 192.486L142.858 192.492L143.071 192.28ZM153.327 194.433C152.775 193.855 152.343 193.122 152.034 192.223L151.467 192.417C151.799 193.385 152.273 194.198 152.894 194.847L153.327 194.433ZM151.545 192.102C150.662 192.932 149.691 193.58 148.63 194.045L148.871 194.595C149.997 194.1 151.026 193.414 151.956 192.538L151.545 192.102ZM148.633 194.044C147.607 194.48 146.487 194.7 145.271 194.7V195.3C146.561 195.3 147.761 195.066 148.868 194.596L148.633 194.044ZM145.271 194.7C144.077 194.7 143.166 194.479 142.51 194.066L142.191 194.574C142.975 195.068 144.011 195.3 145.271 195.3V194.7ZM142.51 194.066C141.832 193.639 141.371 193.122 141.105 192.519L140.556 192.761C140.877 193.491 141.429 194.094 142.191 194.574L142.51 194.066ZM141.105 192.519C140.825 191.882 140.691 191.296 140.691 190.76H140.091C140.091 191.397 140.25 192.065 140.556 192.761L141.105 192.519ZM140.691 190.76C140.691 190.154 140.791 189.575 140.993 189.023L140.429 188.817C140.203 189.438 140.091 190.086 140.091 190.76H140.691ZM140.99 189.029C141.214 188.457 141.549 187.961 141.997 187.538L141.585 187.102C141.073 187.586 140.687 188.156 140.431 188.811L140.99 189.029ZM141.994 187.541C142.625 186.96 143.482 186.458 144.577 186.04L144.364 185.48C143.219 185.916 142.29 186.453 141.588 187.099L141.994 187.541ZM144.577 186.04C145.654 185.63 146.988 185.42 148.591 185.42V184.82C146.94 184.82 145.528 185.036 144.364 185.48L144.577 186.04ZM148.591 185.42C149.435 185.42 150.333 185.46 151.286 185.539L151.336 184.941C150.368 184.86 149.453 184.82 148.591 184.82V185.42ZM151.609 185.213C151.498 183.96 151.076 182.942 150.323 182.188L149.898 182.612C150.531 183.245 150.91 184.12 151.012 185.267L151.609 185.213ZM150.327 182.192C149.558 181.393 148.426 181.02 146.991 181.02V181.62C148.328 181.62 149.277 181.967 149.895 182.608L150.327 182.192ZM146.991 181.02C146.437 181.02 145.872 181.075 145.294 181.185L145.407 181.775C145.95 181.671 146.477 181.62 146.991 181.62V181.02ZM145.308 181.183C144.741 181.264 144.291 181.361 143.968 181.478L144.173 182.042C144.437 181.946 144.84 181.856 145.393 181.777L145.308 181.183ZM143.963 181.48C143.617 181.613 143.41 181.66 143.311 181.66V182.26C143.531 182.26 143.831 182.174 144.178 182.04L143.963 181.48ZM143.311 181.66C143.121 181.66 142.951 181.596 142.788 181.454L142.393 181.906C142.657 182.137 142.966 182.26 143.311 182.26V181.66ZM142.803 181.468C142.63 181.296 142.571 181.141 142.571 181H141.971C141.971 181.339 142.124 181.638 142.378 181.892L142.803 181.468ZM142.571 181C142.571 180.791 142.617 180.644 142.689 180.539C142.76 180.435 142.872 180.346 143.05 180.283L142.851 179.717C142.576 179.814 142.348 179.972 142.193 180.201C142.038 180.429 141.971 180.702 141.971 181H142.571ZM143.035 180.288C143.478 180.157 144.07 180.013 144.813 179.853L144.688 179.267C143.938 179.427 143.329 179.576 142.866 179.712L143.035 180.288ZM144.811 179.854C145.567 179.698 146.293 179.62 146.991 179.62V179.02C146.248 179.02 145.481 179.102 144.69 179.266L144.811 179.854ZM146.991 179.62C149.125 179.62 150.625 180.205 151.561 181.314L152.02 180.926C150.93 179.635 149.229 179.02 146.991 179.02V179.62ZM151.564 181.316C152.547 182.451 153.051 183.936 153.051 185.8H153.651C153.651 183.824 153.114 182.189 152.017 180.924L151.564 181.316ZM153.051 185.8V189.44H153.651V185.8H153.051ZM153.051 189.44C153.051 190.365 153.146 191.157 153.344 191.807L153.918 191.633C153.742 191.057 153.651 190.328 153.651 189.44H153.051ZM153.349 191.823C153.574 192.443 153.9 192.996 154.326 193.478L154.776 193.082C154.401 192.657 154.113 192.17 153.913 191.617L153.349 191.823ZM154.338 193.492C154.468 193.622 154.531 193.772 154.531 193.96H155.131C155.131 193.615 155.006 193.311 154.763 193.068L154.338 193.492ZM154.531 193.96C154.531 194.136 154.464 194.303 154.298 194.468L154.723 194.892C154.984 194.631 155.131 194.317 155.131 193.96H154.531ZM154.298 194.468C154.169 194.598 154.019 194.66 153.831 194.66V195.26C154.176 195.26 154.479 195.136 154.723 194.892L154.298 194.468ZM153.831 194.66C153.654 194.66 153.488 194.593 153.323 194.428L152.898 194.852C153.16 195.114 153.474 195.26 153.831 195.26V194.66ZM145.271 193.3C146.463 193.3 147.601 193.036 148.682 192.51L148.419 191.97C147.42 192.457 146.371 192.7 145.271 192.7V193.3ZM148.688 192.507C149.772 191.951 150.738 191.12 151.588 190.024L151.113 189.656C150.31 190.694 149.409 191.463 148.414 191.973L148.688 192.507ZM151.651 189.84V187.24H151.051V189.84H151.651ZM151.375 186.941C150.381 186.86 149.453 186.82 148.591 186.82V187.42C149.435 187.42 150.347 187.46 151.326 187.539L151.375 186.941ZM148.591 186.82C146.031 186.82 144.144 187.343 143.018 188.468L143.443 188.892C144.397 187.937 146.083 187.42 148.591 187.42V186.82ZM143.018 188.468C142.675 188.811 142.422 189.179 142.271 189.572L142.831 189.788C142.946 189.488 143.146 189.189 143.443 188.892L143.018 188.468ZM142.264 189.592C142.148 189.968 142.091 190.358 142.091 190.76H142.691C142.691 190.416 142.74 190.085 142.837 189.768L142.264 189.592ZM142.091 190.76C142.091 191.387 142.36 191.964 142.853 192.486L143.289 192.074C142.875 191.636 142.691 191.2 142.691 190.76H142.091ZM142.858 192.492C143.416 193.05 144.24 193.3 145.271 193.3V192.7C144.327 192.7 143.685 192.47 143.283 192.068L142.858 192.492ZM181.758 194.72L181.533 194.918L181.546 194.933L181.561 194.946L181.758 194.72ZM180.518 182.28L180.302 182.488L180.306 182.492L180.518 182.28ZM175.238 182.16L175.084 181.903L175.238 182.16ZM172.678 184.28L172.456 184.079L172.378 184.164V184.28H172.678ZM172.398 194.72L172.611 194.932L172.618 194.925L172.624 194.918L172.398 194.72ZM170.958 194.72L170.733 194.918L170.746 194.933L170.761 194.946L170.958 194.72ZM169.718 182.28L169.502 182.488L169.506 182.492L169.718 182.28ZM164.398 182.24L164.555 182.496L164.56 182.493L164.398 182.24ZM161.798 184.4L161.576 184.199L161.498 184.284V184.4H161.798ZM161.518 194.72L161.731 194.932L161.738 194.925L161.744 194.918L161.518 194.72ZM160.078 194.72L159.853 194.918L159.866 194.933L159.881 194.946L160.078 194.72ZM160.078 179.6L159.881 179.374L159.873 179.381L159.866 179.388L160.078 179.6ZM161.518 179.6L161.731 179.388L161.518 179.6ZM161.798 181.68H161.498V182.31L161.988 181.913L161.798 181.68ZM164.478 180L164.603 180.273L164.61 180.27L164.478 180ZM172.118 182.08L171.841 182.195L172.005 182.589L172.321 182.302L172.118 182.08ZM174.998 180.08L174.867 179.81L174.864 179.812L174.998 180.08ZM180.798 179.84L180.679 180.115V180.115L180.798 179.84ZM182.718 181.72L182.453 181.86L182.458 181.87L182.718 181.72ZM183.198 194.72L183.411 194.932L183.418 194.925L183.424 194.918L183.198 194.72ZM182.478 194.7C182.289 194.7 182.118 194.636 181.956 194.494L181.561 194.946C181.825 195.177 182.134 195.3 182.478 195.3V194.7ZM181.984 194.522C181.842 194.36 181.778 194.189 181.778 194H181.178C181.178 194.344 181.301 194.653 181.533 194.918L181.984 194.522ZM181.778 194V185.6H181.178V194H181.778ZM181.778 185.6C181.778 184.002 181.456 182.794 180.731 182.068L180.306 182.492C180.861 183.046 181.178 184.052 181.178 185.6H181.778ZM180.735 182.072C180.058 181.366 179.177 181.02 178.118 181.02V181.62C179.034 181.62 179.752 181.914 180.302 182.488L180.735 182.072ZM178.118 181.02C177.072 181.02 176.059 181.318 175.084 181.903L175.393 182.417C176.284 181.882 177.192 181.62 178.118 181.62V181.02ZM175.084 181.903C174.124 182.479 173.248 183.205 172.456 184.079L172.901 184.481C173.655 183.649 174.486 182.961 175.393 182.417L175.084 181.903ZM172.378 184.28V194H172.978V184.28H172.378ZM172.378 194C172.378 194.189 172.315 194.36 172.173 194.522L172.624 194.918C172.855 194.653 172.978 194.344 172.978 194H172.378ZM172.186 194.508C172.062 194.632 171.902 194.7 171.678 194.7V195.3C172.042 195.3 172.361 195.182 172.611 194.932L172.186 194.508ZM171.678 194.7C171.489 194.7 171.318 194.636 171.156 194.494L170.761 194.946C171.025 195.177 171.334 195.3 171.678 195.3V194.7ZM171.184 194.522C171.042 194.36 170.978 194.189 170.978 194H170.378C170.378 194.344 170.501 194.653 170.733 194.918L171.184 194.522ZM170.978 194V185.6H170.378V194H170.978ZM170.978 185.6C170.978 184.002 170.656 182.794 169.931 182.068L169.506 182.492C170.061 183.046 170.378 184.052 170.378 185.6H170.978ZM169.935 182.072C169.258 181.366 168.377 181.02 167.318 181.02V181.62C168.234 181.62 168.952 181.914 169.502 182.488L169.935 182.072ZM167.318 181.02C166.266 181.02 165.238 181.348 164.237 181.987L164.56 182.493C165.479 181.905 166.397 181.62 167.318 181.62V181.02ZM164.242 181.984C163.257 182.586 162.368 183.324 161.576 184.199L162.021 184.601C162.775 183.769 163.62 183.067 164.555 182.496L164.242 181.984ZM161.498 184.4V194H162.098V184.4H161.498ZM161.498 194C161.498 194.189 161.435 194.36 161.293 194.522L161.744 194.918C161.975 194.653 162.098 194.344 162.098 194H161.498ZM161.306 194.508C161.182 194.632 161.022 194.7 160.798 194.7V195.3C161.162 195.3 161.481 195.182 161.731 194.932L161.306 194.508ZM160.798 194.7C160.609 194.7 160.438 194.636 160.276 194.494L159.881 194.946C160.145 195.177 160.454 195.3 160.798 195.3V194.7ZM160.304 194.522C160.162 194.36 160.098 194.189 160.098 194H159.498C159.498 194.344 159.621 194.653 159.853 194.918L160.304 194.522ZM160.098 194V180.32H159.498V194H160.098ZM160.098 180.32C160.098 180.097 160.167 179.936 160.291 179.812L159.866 179.388C159.617 179.637 159.498 179.957 159.498 180.32H160.098ZM160.276 179.826C160.438 179.684 160.609 179.62 160.798 179.62V179.02C160.454 179.02 160.145 179.143 159.881 179.374L160.276 179.826ZM160.798 179.62C161.022 179.62 161.182 179.688 161.306 179.812L161.731 179.388C161.481 179.138 161.162 179.02 160.798 179.02V179.62ZM161.306 179.812C161.43 179.936 161.498 180.097 161.498 180.32H162.098C162.098 179.957 161.98 179.637 161.731 179.388L161.306 179.812ZM161.498 180.32V181.68H162.098V180.32H161.498ZM161.988 181.913C162.823 181.234 163.695 180.688 164.603 180.273L164.354 179.727C163.396 180.165 162.481 180.739 161.609 181.447L161.988 181.913ZM164.61 180.27C165.505 179.835 166.407 179.62 167.318 179.62V179.02C166.309 179.02 165.318 179.259 164.347 179.73L164.61 180.27ZM167.318 179.62C168.322 179.62 169.227 179.8 170.038 180.155L170.279 179.605C169.383 179.213 168.395 179.02 167.318 179.02V179.62ZM170.038 180.155C170.803 180.489 171.409 181.153 171.841 182.195L172.396 181.965C171.921 180.82 171.221 180.017 170.279 179.605L170.038 180.155ZM172.321 182.302C173.209 181.492 174.146 180.842 175.133 180.348L174.864 179.812C173.824 180.332 172.842 181.015 171.916 181.858L172.321 182.302ZM175.13 180.35C176.134 179.861 177.129 179.62 178.118 179.62V179.02C177.028 179.02 175.943 179.286 174.867 179.81L175.13 180.35ZM178.118 179.62C179.069 179.62 179.921 179.787 180.679 180.115L180.918 179.565C180.075 179.2 179.141 179.02 178.118 179.02V179.62ZM180.679 180.115C181.406 180.43 181.999 181.003 182.453 181.86L182.984 181.58C182.478 180.624 181.791 179.943 180.918 179.565L180.679 180.115ZM182.458 181.87C182.927 182.683 183.178 183.914 183.178 185.6H183.778C183.778 183.872 183.524 182.517 182.978 181.57L182.458 181.87ZM183.178 185.6V194H183.778V185.6H183.178ZM183.178 194C183.178 194.189 183.115 194.36 182.973 194.522L183.424 194.918C183.655 194.653 183.778 194.344 183.778 194H183.178ZM182.986 194.508C182.862 194.632 182.702 194.7 182.478 194.7V195.3C182.842 195.3 183.161 195.182 183.411 194.932L182.986 194.508Z" fill="#97BF0D" mask="url(#path-12-outside-2_531_277)"/>
<mask id="path-14-outside-3_531_277" maskUnits="userSpaceOnUse" x="25" y="173" width="68" height="23" fill="black">
<rect fill="white" x="25" y="173" width="68" height="23"/>
<path d="M41.44 194.6C40.5333 193.373 39.48 192 38.28 190.48C37.1067 188.96 35.8933 187.413 34.64 185.84C33.3867 184.24 32.1733 182.693 31 181.2C29.8533 179.707 28.8267 178.387 27.92 177.24V194C27.92 194.267 27.8267 194.507 27.64 194.72C27.4533 194.907 27.2133 195 26.92 195C26.6533 195 26.4133 194.907 26.2 194.72C26.0133 194.507 25.92 194.267 25.92 194V174.6C25.92 174.307 26.0133 174.067 26.2 173.88C26.4133 173.693 26.64 173.6 26.88 173.6C27.4133 173.6 27.7733 173.733 27.96 174C28.6267 174.88 29.4933 176.013 30.56 177.4C31.6267 178.76 32.7867 180.253 34.04 181.88C35.32 183.48 36.6 185.107 37.88 186.76C39.1867 188.387 40.3867 189.92 41.48 191.36V174.6C41.48 174.307 41.5733 174.067 41.76 173.88C41.9733 173.693 42.2133 173.6 42.48 173.6C42.7733 173.6 43.0133 173.693 43.2 173.88C43.3867 174.067 43.48 174.307 43.48 174.6V194C43.48 194.267 43.3867 194.507 43.2 194.72C43.0133 194.907 42.7867 195 42.52 195C41.9867 195 41.6267 194.867 41.44 194.6ZM62.1106 194.64C61.524 194.027 61.0706 193.253 60.7506 192.32C59.844 193.173 58.844 193.84 57.7506 194.32C56.684 194.773 55.524 195 54.2706 195C53.044 195 52.0706 194.773 51.3506 194.32C50.6306 193.867 50.124 193.307 49.8306 192.64C49.5373 191.973 49.3906 191.347 49.3906 190.76C49.3906 190.12 49.4973 189.507 49.7106 188.92C49.9506 188.307 50.3106 187.773 50.7906 187.32C51.4573 186.707 52.3506 186.187 53.4706 185.76C54.5906 185.333 55.964 185.12 57.5906 185.12C58.444 185.12 59.3506 185.16 60.3106 185.24C60.204 184.04 59.804 183.093 59.1106 182.4C58.4173 181.68 57.3773 181.32 55.9906 181.32C55.4573 181.32 54.9106 181.373 54.3506 181.48C53.7906 181.56 53.364 181.653 53.0706 181.76C52.724 181.893 52.4706 181.96 52.3106 181.96C52.044 181.96 51.804 181.867 51.5906 181.68C51.3773 181.467 51.2706 181.24 51.2706 181C51.2706 180.493 51.4973 180.16 51.9506 180C52.404 179.867 53.004 179.72 53.7506 179.56C54.524 179.4 55.2706 179.32 55.9906 179.32C58.1773 179.32 59.7773 179.92 60.7906 181.12C61.8306 182.32 62.3506 183.88 62.3506 185.8V189.44C62.3506 190.347 62.444 191.107 62.6306 191.72C62.844 192.307 63.1506 192.827 63.5506 193.28C63.7373 193.467 63.8306 193.693 63.8306 193.96C63.8306 194.227 63.724 194.467 63.5106 194.68C63.324 194.867 63.0973 194.96 62.8306 194.96C62.564 194.96 62.324 194.853 62.1106 194.64ZM54.2706 193C55.4173 193 56.5106 192.747 57.5506 192.24C58.5906 191.707 59.524 190.907 60.3506 189.84V187.24C59.364 187.16 58.444 187.12 57.5906 187.12C55.0573 187.12 53.2706 187.64 52.2306 188.68C51.9106 189 51.684 189.333 51.5506 189.68C51.444 190.027 51.3906 190.387 51.3906 190.76C51.3906 191.293 51.6173 191.8 52.0706 192.28C52.5506 192.76 53.284 193 54.2706 193ZM91.4784 195C91.2118 195 90.9718 194.907 90.7584 194.72C90.5718 194.507 90.4784 194.267 90.4784 194V185.6C90.4784 184.027 90.1584 182.92 89.5184 182.28C88.9051 181.64 88.1051 181.32 87.1184 181.32C86.1318 181.32 85.1718 181.6 84.2384 182.16C83.3051 182.72 82.4518 183.427 81.6784 184.28V194C81.6784 194.267 81.5851 194.507 81.3984 194.72C81.2118 194.907 80.9718 195 80.6784 195C80.4118 195 80.1718 194.907 79.9584 194.72C79.7718 194.507 79.6784 194.267 79.6784 194V185.6C79.6784 184.027 79.3584 182.92 78.7184 182.28C78.1051 181.64 77.3051 181.32 76.3184 181.32C75.3318 181.32 74.3584 181.627 73.3984 182.24C72.4384 182.827 71.5718 183.547 70.7984 184.4V194C70.7984 194.267 70.7051 194.507 70.5184 194.72C70.3318 194.907 70.0918 195 69.7984 195C69.5318 195 69.2918 194.907 69.0784 194.72C68.8918 194.507 68.7984 194.267 68.7984 194V180.32C68.7984 180.027 68.8918 179.787 69.0784 179.6C69.2918 179.413 69.5318 179.32 69.7984 179.32C70.0918 179.32 70.3318 179.413 70.5184 179.6C70.7051 179.787 70.7984 180.027 70.7984 180.32V181.68C71.6518 180.987 72.5451 180.427 73.4784 180C74.4118 179.547 75.3584 179.32 76.3184 179.32C77.3584 179.32 78.3051 179.507 79.1584 179.88C80.0118 180.253 80.6651 180.987 81.1184 182.08C82.0251 181.253 82.9851 180.587 83.9984 180.08C85.0384 179.573 86.0784 179.32 87.1184 179.32C88.1051 179.32 88.9984 179.493 89.7984 179.84C90.5984 180.187 91.2384 180.813 91.7184 181.72C92.2251 182.6 92.4784 183.893 92.4784 185.6V194C92.4784 194.267 92.3851 194.507 92.1984 194.72C92.0118 194.907 91.7718 195 91.4784 195Z"/>
</mask>
<path d="M41.44 194.6C40.5333 193.373 39.48 192 38.28 190.48C37.1067 188.96 35.8933 187.413 34.64 185.84C33.3867 184.24 32.1733 182.693 31 181.2C29.8533 179.707 28.8267 178.387 27.92 177.24V194C27.92 194.267 27.8267 194.507 27.64 194.72C27.4533 194.907 27.2133 195 26.92 195C26.6533 195 26.4133 194.907 26.2 194.72C26.0133 194.507 25.92 194.267 25.92 194V174.6C25.92 174.307 26.0133 174.067 26.2 173.88C26.4133 173.693 26.64 173.6 26.88 173.6C27.4133 173.6 27.7733 173.733 27.96 174C28.6267 174.88 29.4933 176.013 30.56 177.4C31.6267 178.76 32.7867 180.253 34.04 181.88C35.32 183.48 36.6 185.107 37.88 186.76C39.1867 188.387 40.3867 189.92 41.48 191.36V174.6C41.48 174.307 41.5733 174.067 41.76 173.88C41.9733 173.693 42.2133 173.6 42.48 173.6C42.7733 173.6 43.0133 173.693 43.2 173.88C43.3867 174.067 43.48 174.307 43.48 174.6V194C43.48 194.267 43.3867 194.507 43.2 194.72C43.0133 194.907 42.7867 195 42.52 195C41.9867 195 41.6267 194.867 41.44 194.6ZM62.1106 194.64C61.524 194.027 61.0706 193.253 60.7506 192.32C59.844 193.173 58.844 193.84 57.7506 194.32C56.684 194.773 55.524 195 54.2706 195C53.044 195 52.0706 194.773 51.3506 194.32C50.6306 193.867 50.124 193.307 49.8306 192.64C49.5373 191.973 49.3906 191.347 49.3906 190.76C49.3906 190.12 49.4973 189.507 49.7106 188.92C49.9506 188.307 50.3106 187.773 50.7906 187.32C51.4573 186.707 52.3506 186.187 53.4706 185.76C54.5906 185.333 55.964 185.12 57.5906 185.12C58.444 185.12 59.3506 185.16 60.3106 185.24C60.204 184.04 59.804 183.093 59.1106 182.4C58.4173 181.68 57.3773 181.32 55.9906 181.32C55.4573 181.32 54.9106 181.373 54.3506 181.48C53.7906 181.56 53.364 181.653 53.0706 181.76C52.724 181.893 52.4706 181.96 52.3106 181.96C52.044 181.96 51.804 181.867 51.5906 181.68C51.3773 181.467 51.2706 181.24 51.2706 181C51.2706 180.493 51.4973 180.16 51.9506 180C52.404 179.867 53.004 179.72 53.7506 179.56C54.524 179.4 55.2706 179.32 55.9906 179.32C58.1773 179.32 59.7773 179.92 60.7906 181.12C61.8306 182.32 62.3506 183.88 62.3506 185.8V189.44C62.3506 190.347 62.444 191.107 62.6306 191.72C62.844 192.307 63.1506 192.827 63.5506 193.28C63.7373 193.467 63.8306 193.693 63.8306 193.96C63.8306 194.227 63.724 194.467 63.5106 194.68C63.324 194.867 63.0973 194.96 62.8306 194.96C62.564 194.96 62.324 194.853 62.1106 194.64ZM54.2706 193C55.4173 193 56.5106 192.747 57.5506 192.24C58.5906 191.707 59.524 190.907 60.3506 189.84V187.24C59.364 187.16 58.444 187.12 57.5906 187.12C55.0573 187.12 53.2706 187.64 52.2306 188.68C51.9106 189 51.684 189.333 51.5506 189.68C51.444 190.027 51.3906 190.387 51.3906 190.76C51.3906 191.293 51.6173 191.8 52.0706 192.28C52.5506 192.76 53.284 193 54.2706 193ZM91.4784 195C91.2118 195 90.9718 194.907 90.7584 194.72C90.5718 194.507 90.4784 194.267 90.4784 194V185.6C90.4784 184.027 90.1584 182.92 89.5184 182.28C88.9051 181.64 88.1051 181.32 87.1184 181.32C86.1318 181.32 85.1718 181.6 84.2384 182.16C83.3051 182.72 82.4518 183.427 81.6784 184.28V194C81.6784 194.267 81.5851 194.507 81.3984 194.72C81.2118 194.907 80.9718 195 80.6784 195C80.4118 195 80.1718 194.907 79.9584 194.72C79.7718 194.507 79.6784 194.267 79.6784 194V185.6C79.6784 184.027 79.3584 182.92 78.7184 182.28C78.1051 181.64 77.3051 181.32 76.3184 181.32C75.3318 181.32 74.3584 181.627 73.3984 182.24C72.4384 182.827 71.5718 183.547 70.7984 184.4V194C70.7984 194.267 70.7051 194.507 70.5184 194.72C70.3318 194.907 70.0918 195 69.7984 195C69.5318 195 69.2918 194.907 69.0784 194.72C68.8918 194.507 68.7984 194.267 68.7984 194V180.32C68.7984 180.027 68.8918 179.787 69.0784 179.6C69.2918 179.413 69.5318 179.32 69.7984 179.32C70.0918 179.32 70.3318 179.413 70.5184 179.6C70.7051 179.787 70.7984 180.027 70.7984 180.32V181.68C71.6518 180.987 72.5451 180.427 73.4784 180C74.4118 179.547 75.3584 179.32 76.3184 179.32C77.3584 179.32 78.3051 179.507 79.1584 179.88C80.0118 180.253 80.6651 180.987 81.1184 182.08C82.0251 181.253 82.9851 180.587 83.9984 180.08C85.0384 179.573 86.0784 179.32 87.1184 179.32C88.1051 179.32 88.9984 179.493 89.7984 179.84C90.5984 180.187 91.2384 180.813 91.7184 181.72C92.2251 182.6 92.4784 183.893 92.4784 185.6V194C92.4784 194.267 92.3851 194.507 92.1984 194.72C92.0118 194.907 91.7718 195 91.4784 195Z" fill="#D56C06"/>
<path d="M41.44 194.6L41.6859 194.428L41.6813 194.422L41.44 194.6ZM38.28 190.48L38.0425 190.663L38.0445 190.666L38.28 190.48ZM34.64 185.84L34.4038 186.025L34.4054 186.027L34.64 185.84ZM31 181.2L30.762 181.383L30.7641 181.385L31 181.2ZM27.92 177.24L28.1553 177.054L27.62 176.377V177.24H27.92ZM27.64 194.72L27.8521 194.932L27.8592 194.925L27.8658 194.918L27.64 194.72ZM26.2 194.72L25.9742 194.918L25.9874 194.933L26.0024 194.946L26.2 194.72ZM26.2 173.88L26.0024 173.654L25.9949 173.661L25.9879 173.668L26.2 173.88ZM27.96 174L27.7141 174.172L27.7209 174.181L27.96 174ZM30.56 177.4L30.3222 177.583L30.3239 177.585L30.56 177.4ZM34.04 181.88L33.8023 182.063L33.8057 182.067L34.04 181.88ZM37.88 186.76L37.6427 186.944L37.6461 186.948L37.88 186.76ZM41.48 191.36L41.2411 191.541L41.78 192.251V191.36H41.48ZM41.76 173.88L41.5624 173.654L41.5549 173.661L41.5479 173.668L41.76 173.88ZM43.2 194.72L43.4121 194.932L43.4192 194.925L43.4258 194.918L43.2 194.72ZM41.6813 194.422C40.7723 193.192 39.7169 191.816 38.5155 190.294L38.0445 190.666C39.2431 192.184 40.2944 193.555 41.1987 194.778L41.6813 194.422ZM38.5175 190.297C37.3432 188.775 36.1289 187.228 34.8746 185.653L34.4054 186.027C35.6578 187.599 36.8702 189.145 38.0425 190.663L38.5175 190.297ZM34.8762 185.655C33.6228 184.055 32.4093 182.508 31.2359 181.015L30.7641 181.385C31.9373 182.879 33.1506 184.425 34.4038 186.025L34.8762 185.655ZM31.2379 181.017C30.0906 179.523 29.0631 178.202 28.1553 177.054L27.6847 177.426C28.5903 178.571 29.616 179.89 30.7621 181.383L31.2379 181.017ZM27.62 177.24V194H28.22V177.24H27.62ZM27.62 194C27.62 194.189 27.5563 194.36 27.4142 194.522L27.8658 194.918C28.097 194.653 28.22 194.344 28.22 194H27.62ZM27.4279 194.508C27.304 194.632 27.1435 194.7 26.92 194.7V195.3C27.2832 195.3 27.6027 195.182 27.8521 194.932L27.4279 194.508ZM26.92 194.7C26.7308 194.7 26.5599 194.636 26.3976 194.494L26.0024 194.946C26.2667 195.177 26.5758 195.3 26.92 195.3V194.7ZM26.4258 194.522C26.2837 194.36 26.22 194.189 26.22 194H25.62C25.62 194.344 25.743 194.653 25.9742 194.918L26.4258 194.522ZM26.22 194V174.6H25.62V194H26.22ZM26.22 174.6C26.22 174.377 26.2882 174.216 26.4121 174.092L25.9879 173.668C25.7384 173.917 25.62 174.237 25.62 174.6H26.22ZM26.3976 174.106C26.5666 173.958 26.7254 173.9 26.88 173.9V173.3C26.5546 173.3 26.26 173.429 26.0024 173.654L26.3976 174.106ZM26.88 173.9C27.3786 173.9 27.6121 174.026 27.7142 174.172L28.2058 173.828C27.9345 173.44 27.4481 173.3 26.88 173.3V173.9ZM27.7209 174.181C28.3882 175.062 29.2553 176.196 30.3222 177.583L30.7978 177.217C29.7313 175.831 28.8652 174.698 28.1991 173.819L27.7209 174.181ZM30.3239 177.585C31.39 178.944 32.5495 180.437 33.8024 182.063L34.2776 181.697C33.0239 180.07 31.8633 178.576 30.7961 177.215L30.3239 177.585ZM33.8057 182.067C35.0847 183.666 36.3637 185.292 37.6428 186.944L38.1172 186.576C36.8363 184.922 35.5553 183.294 34.2743 181.693L33.8057 182.067ZM37.6461 186.948C38.9513 188.573 40.1496 190.104 41.2411 191.541L41.7189 191.179C40.6237 189.736 39.422 188.201 38.1139 186.572L37.6461 186.948ZM41.78 191.36V174.6H41.18V191.36H41.78ZM41.78 174.6C41.78 174.377 41.8482 174.216 41.9721 174.092L41.5479 173.668C41.2984 173.917 41.18 174.237 41.18 174.6H41.78ZM41.9576 174.106C42.1199 173.964 42.2908 173.9 42.48 173.9V173.3C42.1358 173.3 41.8267 173.423 41.5624 173.654L41.9576 174.106ZM42.48 173.9C42.7035 173.9 42.864 173.968 42.9879 174.092L43.4121 173.668C43.1627 173.418 42.8432 173.3 42.48 173.3V173.9ZM42.9879 174.092C43.1118 174.216 43.18 174.377 43.18 174.6H43.78C43.78 174.237 43.6616 173.917 43.4121 173.668L42.9879 174.092ZM43.18 174.6V194H43.78V174.6H43.18ZM43.18 194C43.18 194.189 43.1163 194.36 42.9742 194.522L43.4258 194.918C43.657 194.653 43.78 194.344 43.78 194H43.18ZM42.9879 194.508C42.8581 194.638 42.708 194.7 42.52 194.7V195.3C42.8653 195.3 43.1686 195.176 43.4121 194.932L42.9879 194.508ZM42.52 194.7C42.0214 194.7 41.7879 194.574 41.6858 194.428L41.1942 194.772C41.4655 195.16 41.9519 195.3 42.52 195.3V194.7ZM62.1106 194.64L61.8938 194.847L61.8985 194.852L62.1106 194.64ZM60.7506 192.32L61.0344 192.223L60.8836 191.783L60.545 192.102L60.7506 192.32ZM57.7506 194.32L57.868 194.596L57.8712 194.595L57.7506 194.32ZM51.3506 194.32L51.5105 194.066L51.3506 194.32ZM49.8306 192.64L50.1052 192.519L49.8306 192.64ZM49.7106 188.92L49.4312 188.811L49.4287 188.817L49.7106 188.92ZM50.7906 187.32L50.5875 187.099L50.5846 187.102L50.7906 187.32ZM53.4706 185.76L53.5774 186.04L53.4706 185.76ZM60.3106 185.24L60.2857 185.539L60.641 185.569L60.6094 185.213L60.3106 185.24ZM59.1106 182.4L58.8945 182.608L58.8985 182.612L59.1106 182.4ZM54.3506 181.48L54.3931 181.777L54.4068 181.775L54.3506 181.48ZM53.0706 181.76L52.9681 181.478L52.9629 181.48L53.0706 181.76ZM51.5906 181.68L51.3785 181.892L51.3856 181.899L51.3931 181.906L51.5906 181.68ZM51.9506 180L51.866 179.712L51.8583 179.714L51.8508 179.717L51.9506 180ZM53.7506 179.56L53.6898 179.266L53.6878 179.267L53.7506 179.56ZM60.7906 181.12L60.5614 181.314L60.5639 181.316L60.7906 181.12ZM62.6306 191.72L62.3436 191.807L62.346 191.815L62.3487 191.823L62.6306 191.72ZM63.5506 193.28L63.3257 193.478L63.3319 193.486L63.3385 193.492L63.5506 193.28ZM63.5106 194.68L63.7228 194.892L63.5106 194.68ZM57.5506 192.24L57.682 192.51L57.6875 192.507L57.5506 192.24ZM60.3506 189.84L60.5877 190.024L60.6506 189.943V189.84H60.3506ZM60.3506 187.24H60.6506V186.963L60.3749 186.941L60.3506 187.24ZM52.2306 188.68L52.4428 188.892L52.2306 188.68ZM51.5506 189.68L51.2706 189.572L51.2669 189.582L51.2639 189.592L51.5506 189.68ZM52.0706 192.28L51.8524 192.486L51.8585 192.492L52.0706 192.28ZM62.3274 194.433C61.7753 193.855 61.3426 193.122 61.0344 192.223L60.4668 192.417C60.7987 193.385 61.2726 194.198 61.8938 194.847L62.3274 194.433ZM60.545 192.102C59.6622 192.932 58.6907 193.58 57.63 194.045L57.8712 194.595C58.9972 194.1 60.0257 193.414 60.9562 192.538L60.545 192.102ZM57.6333 194.044C56.6067 194.48 55.4869 194.7 54.2706 194.7V195.3C55.561 195.3 56.7613 195.066 57.868 194.596L57.6333 194.044ZM54.2706 194.7C53.0769 194.7 52.1659 194.479 51.5105 194.066L51.1908 194.574C51.9754 195.068 53.0111 195.3 54.2706 195.3V194.7ZM51.5105 194.066C50.8324 193.639 50.3706 193.122 50.1052 192.519L49.556 192.761C49.8773 193.491 50.4288 194.094 51.1908 194.574L51.5105 194.066ZM50.1052 192.519C49.8247 191.882 49.6906 191.296 49.6906 190.76H49.0906C49.0906 191.397 49.2499 192.065 49.556 192.761L50.1052 192.519ZM49.6906 190.76C49.6906 190.154 49.7915 189.575 49.9926 189.023L49.4287 188.817C49.2031 189.438 49.0906 190.086 49.0906 190.76H49.6906ZM49.99 189.029C50.2138 188.457 50.5487 187.961 50.9966 187.538L50.5846 187.102C50.0725 187.586 49.6874 188.156 49.4313 188.811L49.99 189.029ZM50.9937 187.541C51.6249 186.96 52.4821 186.458 53.5774 186.04L53.3638 185.48C52.2191 185.916 51.2897 186.453 50.5875 187.099L50.9937 187.541ZM53.5774 186.04C54.6535 185.63 55.9883 185.42 57.5906 185.42V184.82C55.9397 184.82 54.5277 185.036 53.3638 185.48L53.5774 186.04ZM57.5906 185.42C58.4347 185.42 59.333 185.46 60.2857 185.539L60.3355 184.941C59.3683 184.86 58.4533 184.82 57.5906 184.82V185.42ZM60.6094 185.213C60.498 183.96 60.0765 182.942 59.3228 182.188L58.8985 182.612C59.5314 183.245 59.9099 184.12 60.0118 185.267L60.6094 185.213ZM59.3267 182.192C58.5578 181.393 57.4265 181.02 55.9906 181.02V181.62C57.3281 181.62 58.2768 181.967 58.8945 182.608L59.3267 182.192ZM55.9906 181.02C55.4372 181.02 54.8717 181.075 54.2945 181.185L54.4068 181.775C54.9495 181.671 55.4774 181.62 55.9906 181.62V181.02ZM54.3082 181.183C53.7414 181.264 53.2906 181.361 52.9681 181.478L53.1731 182.042C53.4373 181.946 53.8399 181.856 54.3931 181.777L54.3082 181.183ZM52.9629 181.48C52.6171 181.613 52.4098 181.66 52.3106 181.66V182.26C52.5315 182.26 52.8308 182.174 53.1783 182.04L52.9629 181.48ZM52.3106 181.66C52.1215 181.66 51.9506 181.596 51.7882 181.454L51.3931 181.906C51.6573 182.137 51.9665 182.26 52.3106 182.26V181.66ZM51.8028 181.468C51.6304 181.296 51.5706 181.141 51.5706 181H50.9706C50.9706 181.339 51.1241 181.638 51.3785 181.892L51.8028 181.468ZM51.5706 181C51.5706 180.791 51.617 180.644 51.6887 180.539C51.7595 180.435 51.8722 180.346 52.0505 180.283L51.8508 179.717C51.5757 179.814 51.3484 179.972 51.1925 180.201C51.0376 180.429 50.9706 180.702 50.9706 181H51.5706ZM52.0353 180.288C52.4784 180.157 53.0703 180.013 53.8135 179.853L53.6878 179.267C52.9376 179.427 52.3295 179.576 51.866 179.712L52.0353 180.288ZM53.8114 179.854C54.5667 179.698 55.2929 179.62 55.9906 179.62V179.02C55.2483 179.02 54.4813 179.102 53.6898 179.266L53.8114 179.854ZM55.9906 179.62C58.1252 179.62 59.6249 180.205 60.5614 181.314L61.0198 180.926C59.9297 179.635 58.2294 179.02 55.9906 179.02V179.62ZM60.5639 181.316C61.5472 182.451 62.0506 183.936 62.0506 185.8H62.6506C62.6506 183.824 62.114 182.189 61.0173 180.924L60.5639 181.316ZM62.0506 185.8V189.44H62.6506V185.8H62.0506ZM62.0506 189.44C62.0506 190.365 62.1456 191.157 62.3436 191.807L62.9176 191.633C62.7423 191.057 62.6506 190.328 62.6506 189.44H62.0506ZM62.3487 191.823C62.5744 192.443 62.9 192.996 63.3257 193.478L63.7756 193.082C63.4012 192.657 63.1135 192.17 62.9126 191.617L62.3487 191.823ZM63.3385 193.492C63.4683 193.622 63.5306 193.772 63.5306 193.96H64.1306C64.1306 193.615 64.0063 193.311 63.7628 193.068L63.3385 193.492ZM63.5306 193.96C63.5306 194.136 63.4636 194.303 63.2985 194.468L63.7228 194.892C63.9843 194.631 64.1306 194.317 64.1306 193.96H63.5306ZM63.2985 194.468C63.1687 194.598 63.0186 194.66 62.8306 194.66V195.26C63.1759 195.26 63.4792 195.136 63.7228 194.892L63.2985 194.468ZM62.8306 194.66C62.6542 194.66 62.4879 194.593 62.3228 194.428L61.8985 194.852C62.16 195.114 62.4737 195.26 62.8306 195.26V194.66ZM54.2706 193.3C55.4632 193.3 56.6015 193.036 57.682 192.51L57.4192 191.97C56.4198 192.457 55.3713 192.7 54.2706 192.7V193.3ZM57.6875 192.507C58.7722 191.951 59.7383 191.12 60.5877 190.024L60.1135 189.656C59.3096 190.694 58.409 191.463 57.4137 191.973L57.6875 192.507ZM60.6506 189.84V187.24H60.0506V189.84H60.6506ZM60.3749 186.941C59.3814 186.86 58.4532 186.82 57.5906 186.82V187.42C58.4347 187.42 59.3465 187.46 60.3264 187.539L60.3749 186.941ZM57.5906 186.82C55.0313 186.82 53.1438 187.343 52.0185 188.468L52.4428 188.892C53.3975 187.937 55.0833 187.42 57.5906 187.42V186.82ZM52.0185 188.468C51.6751 188.811 51.4219 189.179 51.2706 189.572L51.8306 189.788C51.946 189.488 52.1461 189.189 52.4428 188.892L52.0185 188.468ZM51.2639 189.592C51.1482 189.968 51.0906 190.358 51.0906 190.76H51.6906C51.6906 190.416 51.7397 190.085 51.8374 189.768L51.2639 189.592ZM51.0906 190.76C51.0906 191.387 51.3597 191.964 51.8525 192.486L52.2887 192.074C51.8748 191.636 51.6906 191.2 51.6906 190.76H51.0906ZM51.8585 192.492C52.416 193.05 53.2405 193.3 54.2706 193.3V192.7C53.3274 192.7 52.6853 192.47 52.2828 192.068L51.8585 192.492ZM90.7584 194.72L90.5327 194.918L90.5458 194.933L90.5609 194.946L90.7584 194.72ZM89.5184 182.28L89.3018 182.488L89.3063 182.492L89.5184 182.28ZM84.2384 182.16L84.0841 181.903L84.2384 182.16ZM81.6784 184.28L81.4561 184.079L81.3784 184.164V184.28H81.6784ZM81.3984 194.72L81.6106 194.932L81.6176 194.925L81.6242 194.918L81.3984 194.72ZM79.9584 194.72L79.7327 194.918L79.7458 194.933L79.7609 194.946L79.9584 194.72ZM78.7184 182.28L78.5018 182.488L78.5063 182.492L78.7184 182.28ZM73.3984 182.24L73.5549 182.496L73.56 182.493L73.3984 182.24ZM70.7984 184.4L70.5761 184.199L70.4984 184.284V184.4H70.7984ZM70.5184 194.72L70.7306 194.932L70.7376 194.925L70.7442 194.918L70.5184 194.72ZM69.0784 194.72L68.8527 194.918L68.8658 194.933L68.8809 194.946L69.0784 194.72ZM69.0784 179.6L68.8809 179.374L68.8734 179.381L68.8663 179.388L69.0784 179.6ZM70.5184 179.6L70.7306 179.388L70.5184 179.6ZM70.7984 181.68H70.4984V182.31L70.9876 181.913L70.7984 181.68ZM73.4784 180L73.6032 180.273L73.6095 180.27L73.4784 180ZM81.1184 182.08L80.8413 182.195L81.0049 182.589L81.3206 182.302L81.1184 182.08ZM83.9984 180.08L83.867 179.81L83.8643 179.812L83.9984 180.08ZM89.7984 179.84L89.6792 180.115V180.115L89.7984 179.84ZM91.7184 181.72L91.4531 181.86L91.4585 181.87L91.7184 181.72ZM92.1984 194.72L92.4106 194.932L92.4176 194.925L92.4242 194.918L92.1984 194.72ZM91.4784 194.7C91.2893 194.7 91.1184 194.636 90.956 194.494L90.5609 194.946C90.8252 195.177 91.1343 195.3 91.4784 195.3V194.7ZM90.9842 194.522C90.8421 194.36 90.7784 194.189 90.7784 194H90.1784C90.1784 194.344 90.3014 194.653 90.5327 194.918L90.9842 194.522ZM90.7784 194V185.6H90.1784V194H90.7784ZM90.7784 185.6C90.7784 184.002 90.4562 182.794 89.7306 182.068L89.3063 182.492C89.8606 183.046 90.1784 184.052 90.1784 185.6H90.7784ZM89.735 182.072C89.0584 181.366 88.1767 181.02 87.1184 181.02V181.62C88.0335 181.62 88.7518 181.914 89.3018 182.488L89.735 182.072ZM87.1184 181.02C86.0719 181.02 85.0591 181.318 84.0841 181.903L84.3928 182.417C85.2845 181.882 86.1916 181.62 87.1184 181.62V181.02ZM84.0841 181.903C83.1241 182.479 82.2481 183.205 81.4561 184.079L81.9007 184.481C82.6554 183.649 83.4861 182.961 84.3928 182.417L84.0841 181.903ZM81.3784 184.28V194H81.9784V184.28H81.3784ZM81.3784 194C81.3784 194.189 81.3148 194.36 81.1727 194.522L81.6242 194.918C81.8554 194.653 81.9784 194.344 81.9784 194H81.3784ZM81.1863 194.508C81.0624 194.632 80.9019 194.7 80.6784 194.7V195.3C81.0416 195.3 81.3611 195.182 81.6106 194.932L81.1863 194.508ZM80.6784 194.7C80.4893 194.7 80.3184 194.636 80.156 194.494L79.7609 194.946C80.0252 195.177 80.3343 195.3 80.6784 195.3V194.7ZM80.1842 194.522C80.0421 194.36 79.9784 194.189 79.9784 194H79.3784C79.3784 194.344 79.5014 194.653 79.7327 194.918L80.1842 194.522ZM79.9784 194V185.6H79.3784V194H79.9784ZM79.9784 185.6C79.9784 184.002 79.6562 182.794 78.9306 182.068L78.5063 182.492C79.0606 183.046 79.3784 184.052 79.3784 185.6H79.9784ZM78.935 182.072C78.2584 181.366 77.3767 181.02 76.3184 181.02V181.62C77.2335 181.62 77.9518 181.914 78.5018 182.488L78.935 182.072ZM76.3184 181.02C75.2661 181.02 74.2375 181.348 73.2369 181.987L73.56 182.493C74.4793 181.905 75.3974 181.62 76.3184 181.62V181.02ZM73.242 181.984C72.257 182.586 71.3683 183.324 70.5761 184.199L71.0207 184.601C71.7753 183.769 72.6199 183.067 73.5549 182.496L73.242 181.984ZM70.4984 184.4V194H71.0984V184.4H70.4984ZM70.4984 194C70.4984 194.189 70.4348 194.36 70.2927 194.522L70.7442 194.918C70.9754 194.653 71.0984 194.344 71.0984 194H70.4984ZM70.3063 194.508C70.1824 194.632 70.0219 194.7 69.7984 194.7V195.3C70.1616 195.3 70.4811 195.182 70.7306 194.932L70.3063 194.508ZM69.7984 194.7C69.6093 194.7 69.4384 194.636 69.276 194.494L68.8809 194.946C69.1452 195.177 69.4543 195.3 69.7984 195.3V194.7ZM69.3042 194.522C69.1621 194.36 69.0984 194.189 69.0984 194H68.4984C68.4984 194.344 68.6214 194.653 68.8527 194.918L69.3042 194.522ZM69.0984 194V180.32H68.4984V194H69.0984ZM69.0984 180.32C69.0984 180.097 69.1667 179.936 69.2906 179.812L68.8663 179.388C68.6169 179.637 68.4984 179.957 68.4984 180.32H69.0984ZM69.276 179.826C69.4384 179.684 69.6093 179.62 69.7984 179.62V179.02C69.4543 179.02 69.1452 179.143 68.8809 179.374L69.276 179.826ZM69.7984 179.62C70.0219 179.62 70.1824 179.688 70.3063 179.812L70.7306 179.388C70.4811 179.138 70.1616 179.02 69.7984 179.02V179.62ZM70.3063 179.812C70.4302 179.936 70.4984 180.097 70.4984 180.32H71.0984C71.0984 179.957 70.98 179.637 70.7306 179.388L70.3063 179.812ZM70.4984 180.32V181.68H71.0984V180.32H70.4984ZM70.9876 181.913C71.8226 181.234 72.6945 180.688 73.6032 180.273L73.3537 179.727C72.3957 180.165 71.4809 180.739 70.6093 181.447L70.9876 181.913ZM73.6095 180.27C74.5054 179.835 75.4074 179.62 76.3184 179.62V179.02C75.3094 179.02 74.3182 179.259 73.3474 179.73L73.6095 180.27ZM76.3184 179.62C77.3219 179.62 78.227 179.8 79.0382 180.155L79.2787 179.605C78.3832 179.213 77.395 179.02 76.3184 179.02V179.62ZM79.0382 180.155C79.8027 180.489 80.4093 181.153 80.8413 182.195L81.3956 181.965C80.9209 180.82 80.2208 180.017 79.2787 179.605L79.0382 180.155ZM81.3206 182.302C82.2085 181.492 83.1459 180.842 84.1326 180.348L83.8643 179.812C82.8243 180.332 81.8417 181.015 80.9163 181.858L81.3206 182.302ZM84.1298 180.35C85.1335 179.861 86.1289 179.62 87.1184 179.62V179.02C86.028 179.02 84.9433 179.286 83.867 179.81L84.1298 180.35ZM87.1184 179.62C88.0695 179.62 88.9215 179.787 89.6792 180.115L89.9177 179.565C89.0754 179.2 88.1407 179.02 87.1184 179.02V179.62ZM89.6792 180.115C90.406 180.43 90.9993 181.003 91.4533 181.86L91.9836 181.58C91.4776 180.624 90.7909 179.943 89.9177 179.565L89.6792 180.115ZM91.4585 181.87C91.9267 182.683 92.1784 183.914 92.1784 185.6H92.7784C92.7784 183.872 92.5235 182.517 91.9784 181.57L91.4585 181.87ZM92.1784 185.6V194H92.7784V185.6H92.1784ZM92.1784 194C92.1784 194.189 92.1148 194.36 91.9727 194.522L92.4242 194.918C92.6554 194.653 92.7784 194.344 92.7784 194H92.1784ZM91.9863 194.508C91.8624 194.632 91.7019 194.7 91.4784 194.7V195.3C91.8416 195.3 92.1611 195.182 92.4106 194.932L91.9863 194.508Z" fill="#D56C06" mask="url(#path-14-outside-3_531_277)"/>
</svg>
