<svg width="65" height="65" viewBox="0 0 65 65" fill="none" xmlns="http://www.w3.org/2000/svg">
<path d="M25.1043 3.84C14.3325 3.84 5.62012 12.5524 5.62012 23.3242C5.62012 34.0961 14.3325 42.8085 25.1043 42.8085C28.9502 42.8085 32.5094 41.6803 35.527 39.7641L49.6029 53.84L54.474 48.9689L40.5771 35.1079C43.0753 31.8307 44.5886 27.77 44.5886 23.3242C44.5886 12.5524 35.8762 3.84 25.1043 3.84ZM25.1043 8.42452C33.3556 8.42452 40.0041 15.073 40.0041 23.3242C40.0041 31.5755 33.3556 38.2239 25.1043 38.2239C16.8531 38.2239 10.2046 31.5755 10.2046 23.3242C10.2046 15.073 16.8531 8.42452 25.1043 8.42452Z" fill="#7F7F7F" fill-opacity="0.5"/>
</svg>
