<svg width="1512" height="982" viewBox="0 0 1512 982" fill="none" xmlns="http://www.w3.org/2000/svg">
<ellipse cx="756" cy="1295.58" rx="756" ry="726.418" fill="#ECE8D9"/>
<ellipse cx="843.344" cy="66.314" rx="212.12" ry="203.82" fill="#97BF02" fill-opacity="0.54"/>
<ellipse cx="419.103" cy="-107.18" rx="212.12" ry="203.82" fill="#97BF02" fill-opacity="0.54"/>
<ellipse cx="1087.03" cy="218.65" rx="212.12" ry="203.82" fill="#97BF02" fill-opacity="0.54"/>
<ellipse cx="645.903" cy="171.398" rx="198.175" ry="190.42" fill="#FFCC4B"/>
<ellipse cx="92.1698" cy="46.1867" rx="92.1698" ry="46.1867" transform="matrix(0.983052 -0.183325 0.197985 0.980205 613.165 258.001)" fill="#3C3C3C"/>
<rect width="190.545" height="49.1765" transform="matrix(0.983084 -0.183153 0.19817 0.980168 609.204 255.698)" fill="#FFCC4B"/>
<rect width="110.604" height="8.88205" rx="4.44102" transform="matrix(0.983052 -0.183325 0.197985 0.980205 790.839 271.845)" fill="#3C3C3C"/>
<ellipse cx="693.036" cy="268.446" rx="11.9988" ry="11.5293" fill="#D56C06"/>
<ellipse cx="665.347" cy="240.066" rx="4.61492" ry="4.43434" fill="#97BF0D"/>
<ellipse cx="722.572" cy="254.256" rx="4.61492" ry="4.43434" fill="#ECE8D9"/>
<ellipse cx="727.187" cy="279.976" rx="9.22985" ry="8.86868" fill="#97BF0D"/>
<ellipse cx="659.809" cy="287.958" rx="6.46089" ry="6.20808" fill="#ECE8D9"/>
<rect width="70.0571" height="28.4191" transform="matrix(0.984453 -0.175648 0.189739 0.981835 698.527 289.381)" fill="#3C3C3C"/>
<mask id="path-15-outside-1_614_276" maskUnits="userSpaceOnUse" x="643.095" y="381.281" width="160" height="54" fill="black">
<rect fill="white" x="643.095" y="381.281" width="160" height="54"/>
<path d="M645.459 422.281C645.006 422.281 644.598 422.122 644.235 421.805C643.918 421.442 643.759 421.034 643.759 420.581V387.601C643.759 387.148 643.895 386.762 644.167 386.445C644.485 386.082 644.847 385.901 645.255 385.901H664.295C664.794 385.901 665.202 386.06 665.519 386.377C665.837 386.694 665.995 387.102 665.995 387.601C665.995 388.054 665.837 388.462 665.519 388.825C665.202 389.142 664.794 389.301 664.295 389.301H647.159V401.133H661.371C661.87 401.133 662.278 401.292 662.595 401.609C662.913 401.926 663.071 402.334 663.071 402.833C663.071 403.286 662.913 403.694 662.595 404.057C662.278 404.374 661.87 404.533 661.371 404.533H647.159V418.881H664.431C664.93 418.881 665.338 419.04 665.655 419.357C665.973 419.674 666.131 420.082 666.131 420.581C666.131 421.034 665.973 421.442 665.655 421.805C665.338 422.122 664.93 422.281 664.431 422.281H645.459ZM694.592 421.669C693.595 420.626 692.824 419.312 692.28 417.725C690.739 419.176 689.039 420.309 687.18 421.125C685.367 421.896 683.395 422.281 681.264 422.281C679.179 422.281 677.524 421.896 676.3 421.125C675.076 420.354 674.215 419.402 673.716 418.269C673.217 417.136 672.968 416.07 672.968 415.073C672.968 413.985 673.149 412.942 673.512 411.945C673.92 410.902 674.532 409.996 675.348 409.225C676.481 408.182 678 407.298 679.904 406.573C681.808 405.848 684.143 405.485 686.908 405.485C688.359 405.485 689.9 405.553 691.532 405.689C691.351 403.649 690.671 402.04 689.492 400.861C688.313 399.637 686.545 399.025 684.188 399.025C683.281 399.025 682.352 399.116 681.4 399.297C680.448 399.433 679.723 399.592 679.224 399.773C678.635 400 678.204 400.113 677.932 400.113C677.479 400.113 677.071 399.954 676.708 399.637C676.345 399.274 676.164 398.889 676.164 398.481C676.164 397.62 676.549 397.053 677.32 396.781C678.091 396.554 679.111 396.305 680.38 396.033C681.695 395.761 682.964 395.625 684.188 395.625C687.905 395.625 690.625 396.645 692.348 398.685C694.116 400.725 695 403.377 695 406.641V412.829C695 414.37 695.159 415.662 695.476 416.705C695.839 417.702 696.36 418.586 697.04 419.357C697.357 419.674 697.516 420.06 697.516 420.513C697.516 420.966 697.335 421.374 696.972 421.737C696.655 422.054 696.269 422.213 695.816 422.213C695.363 422.213 694.955 422.032 694.592 421.669ZM681.264 418.881C683.213 418.881 685.072 418.45 686.84 417.589C688.608 416.682 690.195 415.322 691.6 413.509V409.089C689.923 408.953 688.359 408.885 686.908 408.885C682.601 408.885 679.564 409.769 677.796 411.537C677.252 412.081 676.867 412.648 676.64 413.237C676.459 413.826 676.368 414.438 676.368 415.073C676.368 415.98 676.753 416.841 677.524 417.657C678.34 418.473 679.587 418.881 681.264 418.881ZM719.153 422.281C714.982 422.281 712.013 421.42 710.245 419.697C708.477 417.929 707.593 415.572 707.593 412.625V399.025H703.309C702.856 399.025 702.448 398.866 702.085 398.549C701.768 398.186 701.609 397.778 701.609 397.325C701.609 396.826 701.768 396.418 702.085 396.101C702.448 395.784 702.856 395.625 703.309 395.625H707.593V388.757C707.593 388.258 707.752 387.85 708.069 387.533C708.432 387.216 708.84 387.057 709.293 387.057C709.792 387.057 710.2 387.216 710.517 387.533C710.834 387.85 710.993 388.258 710.993 388.757V395.625H720.037C720.536 395.625 720.944 395.784 721.261 396.101C721.578 396.418 721.737 396.826 721.737 397.325C721.737 397.778 721.578 398.186 721.261 398.549C720.944 398.866 720.536 399.025 720.037 399.025H710.993V412.625C710.993 416.796 713.713 418.881 719.153 418.881C719.652 418.881 720.06 419.062 720.377 419.425C720.694 419.742 720.853 420.128 720.853 420.581C720.853 421.034 720.672 421.442 720.309 421.805C719.992 422.122 719.606 422.281 719.153 422.281ZM732.04 381.685C732.811 381.685 733.468 382.002 734.012 382.637C734.556 383.226 734.828 384.042 734.828 385.085C734.828 386.128 734.556 386.921 734.012 387.465C733.468 388.009 732.834 388.281 732.108 388.281C731.292 388.281 730.59 388.009 730 387.465C729.456 386.876 729.184 386.082 729.184 385.085C729.184 384.042 729.456 383.226 730 382.637C730.544 382.002 731.224 381.685 732.04 381.685ZM730.408 397.325C730.408 396.826 730.567 396.418 730.884 396.101C731.247 395.784 731.655 395.625 732.108 395.625C732.607 395.625 733.015 395.784 733.332 396.101C733.65 396.418 733.808 396.826 733.808 397.325V420.581C733.808 421.034 733.65 421.442 733.332 421.805C733.015 422.122 732.607 422.281 732.108 422.281C731.655 422.281 731.247 422.122 730.884 421.805C730.567 421.442 730.408 421.034 730.408 420.581V397.325ZM767.021 422.281C766.568 422.281 766.16 422.122 765.797 421.805C765.48 421.442 765.321 421.034 765.321 420.581V406.981C765.321 404.17 764.777 402.153 763.689 400.929C762.646 399.66 761.218 399.025 759.405 399.025C757.501 399.025 755.688 399.546 753.965 400.589C752.242 401.586 750.656 402.81 749.205 404.261V420.581C749.205 421.034 749.046 421.442 748.729 421.805C748.412 422.122 748.004 422.281 747.505 422.281C747.052 422.281 746.644 422.122 746.281 421.805C745.964 421.442 745.805 421.034 745.805 420.581V397.325C745.805 396.826 745.964 396.418 746.281 396.101C746.644 395.784 747.052 395.625 747.505 395.625C748.004 395.625 748.412 395.784 748.729 396.101C749.046 396.418 749.205 396.826 749.205 397.325V399.773C750.746 398.549 752.356 397.552 754.033 396.781C755.71 396.01 757.501 395.625 759.405 395.625C761.128 395.625 762.692 395.965 764.097 396.645C765.502 397.325 766.613 398.504 767.429 400.181C768.29 401.813 768.721 404.08 768.721 406.981V420.581C768.721 421.034 768.562 421.442 768.245 421.805C767.928 422.122 767.52 422.281 767.021 422.281ZM784.842 434.589C784.388 434.589 783.98 434.408 783.618 434.045C783.3 433.728 783.142 433.342 783.142 432.889C783.142 432.436 783.3 432.028 783.618 431.665C783.98 431.348 784.388 431.189 784.842 431.189C789.692 431.189 793.228 429.92 795.45 427.381C797.716 424.888 798.85 421.578 798.85 417.453V417.181C797.354 418.586 795.722 419.652 793.954 420.377C792.186 421.102 790.372 421.465 788.514 421.465C786.655 421.465 784.842 421.057 783.074 420.241C781.351 419.425 779.923 418.133 778.79 416.365C777.702 414.597 777.158 412.33 777.158 409.565C777.158 406.709 777.815 404.238 779.13 402.153C780.444 400.068 782.144 398.458 784.23 397.325C786.36 396.192 788.559 395.625 790.826 395.625C792.412 395.625 793.818 395.761 795.042 396.033C796.311 396.305 797.58 396.69 798.85 397.189C798.94 396.69 799.144 396.305 799.462 396.033C799.779 395.761 800.142 395.625 800.55 395.625C801.048 395.625 801.456 395.784 801.774 396.101C802.091 396.418 802.25 396.826 802.25 397.325V417.453C802.25 422.621 800.867 426.769 798.102 429.897C795.336 433.025 790.916 434.589 784.842 434.589ZM788.514 418.065C790.463 418.065 792.344 417.566 794.158 416.569C795.971 415.526 797.535 414.03 798.85 412.081V400.929C797.444 400.294 796.152 399.818 794.974 399.501C793.795 399.184 792.412 399.025 790.826 399.025C789.103 399.025 787.448 399.456 785.862 400.317C784.275 401.178 782.983 402.402 781.986 403.989C781.034 405.576 780.558 407.434 780.558 409.565C780.558 411.514 780.943 413.124 781.714 414.393C782.484 415.662 783.482 416.592 784.706 417.181C785.93 417.77 787.199 418.065 788.514 418.065Z"/>
</mask>
<path d="M645.459 422.281C645.006 422.281 644.598 422.122 644.235 421.805C643.918 421.442 643.759 421.034 643.759 420.581V387.601C643.759 387.148 643.895 386.762 644.167 386.445C644.485 386.082 644.847 385.901 645.255 385.901H664.295C664.794 385.901 665.202 386.06 665.519 386.377C665.837 386.694 665.995 387.102 665.995 387.601C665.995 388.054 665.837 388.462 665.519 388.825C665.202 389.142 664.794 389.301 664.295 389.301H647.159V401.133H661.371C661.87 401.133 662.278 401.292 662.595 401.609C662.913 401.926 663.071 402.334 663.071 402.833C663.071 403.286 662.913 403.694 662.595 404.057C662.278 404.374 661.87 404.533 661.371 404.533H647.159V418.881H664.431C664.93 418.881 665.338 419.04 665.655 419.357C665.973 419.674 666.131 420.082 666.131 420.581C666.131 421.034 665.973 421.442 665.655 421.805C665.338 422.122 664.93 422.281 664.431 422.281H645.459ZM694.592 421.669C693.595 420.626 692.824 419.312 692.28 417.725C690.739 419.176 689.039 420.309 687.18 421.125C685.367 421.896 683.395 422.281 681.264 422.281C679.179 422.281 677.524 421.896 676.3 421.125C675.076 420.354 674.215 419.402 673.716 418.269C673.217 417.136 672.968 416.07 672.968 415.073C672.968 413.985 673.149 412.942 673.512 411.945C673.92 410.902 674.532 409.996 675.348 409.225C676.481 408.182 678 407.298 679.904 406.573C681.808 405.848 684.143 405.485 686.908 405.485C688.359 405.485 689.9 405.553 691.532 405.689C691.351 403.649 690.671 402.04 689.492 400.861C688.313 399.637 686.545 399.025 684.188 399.025C683.281 399.025 682.352 399.116 681.4 399.297C680.448 399.433 679.723 399.592 679.224 399.773C678.635 400 678.204 400.113 677.932 400.113C677.479 400.113 677.071 399.954 676.708 399.637C676.345 399.274 676.164 398.889 676.164 398.481C676.164 397.62 676.549 397.053 677.32 396.781C678.091 396.554 679.111 396.305 680.38 396.033C681.695 395.761 682.964 395.625 684.188 395.625C687.905 395.625 690.625 396.645 692.348 398.685C694.116 400.725 695 403.377 695 406.641V412.829C695 414.37 695.159 415.662 695.476 416.705C695.839 417.702 696.36 418.586 697.04 419.357C697.357 419.674 697.516 420.06 697.516 420.513C697.516 420.966 697.335 421.374 696.972 421.737C696.655 422.054 696.269 422.213 695.816 422.213C695.363 422.213 694.955 422.032 694.592 421.669ZM681.264 418.881C683.213 418.881 685.072 418.45 686.84 417.589C688.608 416.682 690.195 415.322 691.6 413.509V409.089C689.923 408.953 688.359 408.885 686.908 408.885C682.601 408.885 679.564 409.769 677.796 411.537C677.252 412.081 676.867 412.648 676.64 413.237C676.459 413.826 676.368 414.438 676.368 415.073C676.368 415.98 676.753 416.841 677.524 417.657C678.34 418.473 679.587 418.881 681.264 418.881ZM719.153 422.281C714.982 422.281 712.013 421.42 710.245 419.697C708.477 417.929 707.593 415.572 707.593 412.625V399.025H703.309C702.856 399.025 702.448 398.866 702.085 398.549C701.768 398.186 701.609 397.778 701.609 397.325C701.609 396.826 701.768 396.418 702.085 396.101C702.448 395.784 702.856 395.625 703.309 395.625H707.593V388.757C707.593 388.258 707.752 387.85 708.069 387.533C708.432 387.216 708.84 387.057 709.293 387.057C709.792 387.057 710.2 387.216 710.517 387.533C710.834 387.85 710.993 388.258 710.993 388.757V395.625H720.037C720.536 395.625 720.944 395.784 721.261 396.101C721.578 396.418 721.737 396.826 721.737 397.325C721.737 397.778 721.578 398.186 721.261 398.549C720.944 398.866 720.536 399.025 720.037 399.025H710.993V412.625C710.993 416.796 713.713 418.881 719.153 418.881C719.652 418.881 720.06 419.062 720.377 419.425C720.694 419.742 720.853 420.128 720.853 420.581C720.853 421.034 720.672 421.442 720.309 421.805C719.992 422.122 719.606 422.281 719.153 422.281ZM732.04 381.685C732.811 381.685 733.468 382.002 734.012 382.637C734.556 383.226 734.828 384.042 734.828 385.085C734.828 386.128 734.556 386.921 734.012 387.465C733.468 388.009 732.834 388.281 732.108 388.281C731.292 388.281 730.59 388.009 730 387.465C729.456 386.876 729.184 386.082 729.184 385.085C729.184 384.042 729.456 383.226 730 382.637C730.544 382.002 731.224 381.685 732.04 381.685ZM730.408 397.325C730.408 396.826 730.567 396.418 730.884 396.101C731.247 395.784 731.655 395.625 732.108 395.625C732.607 395.625 733.015 395.784 733.332 396.101C733.65 396.418 733.808 396.826 733.808 397.325V420.581C733.808 421.034 733.65 421.442 733.332 421.805C733.015 422.122 732.607 422.281 732.108 422.281C731.655 422.281 731.247 422.122 730.884 421.805C730.567 421.442 730.408 421.034 730.408 420.581V397.325ZM767.021 422.281C766.568 422.281 766.16 422.122 765.797 421.805C765.48 421.442 765.321 421.034 765.321 420.581V406.981C765.321 404.17 764.777 402.153 763.689 400.929C762.646 399.66 761.218 399.025 759.405 399.025C757.501 399.025 755.688 399.546 753.965 400.589C752.242 401.586 750.656 402.81 749.205 404.261V420.581C749.205 421.034 749.046 421.442 748.729 421.805C748.412 422.122 748.004 422.281 747.505 422.281C747.052 422.281 746.644 422.122 746.281 421.805C745.964 421.442 745.805 421.034 745.805 420.581V397.325C745.805 396.826 745.964 396.418 746.281 396.101C746.644 395.784 747.052 395.625 747.505 395.625C748.004 395.625 748.412 395.784 748.729 396.101C749.046 396.418 749.205 396.826 749.205 397.325V399.773C750.746 398.549 752.356 397.552 754.033 396.781C755.71 396.01 757.501 395.625 759.405 395.625C761.128 395.625 762.692 395.965 764.097 396.645C765.502 397.325 766.613 398.504 767.429 400.181C768.29 401.813 768.721 404.08 768.721 406.981V420.581C768.721 421.034 768.562 421.442 768.245 421.805C767.928 422.122 767.52 422.281 767.021 422.281ZM784.842 434.589C784.388 434.589 783.98 434.408 783.618 434.045C783.3 433.728 783.142 433.342 783.142 432.889C783.142 432.436 783.3 432.028 783.618 431.665C783.98 431.348 784.388 431.189 784.842 431.189C789.692 431.189 793.228 429.92 795.45 427.381C797.716 424.888 798.85 421.578 798.85 417.453V417.181C797.354 418.586 795.722 419.652 793.954 420.377C792.186 421.102 790.372 421.465 788.514 421.465C786.655 421.465 784.842 421.057 783.074 420.241C781.351 419.425 779.923 418.133 778.79 416.365C777.702 414.597 777.158 412.33 777.158 409.565C777.158 406.709 777.815 404.238 779.13 402.153C780.444 400.068 782.144 398.458 784.23 397.325C786.36 396.192 788.559 395.625 790.826 395.625C792.412 395.625 793.818 395.761 795.042 396.033C796.311 396.305 797.58 396.69 798.85 397.189C798.94 396.69 799.144 396.305 799.462 396.033C799.779 395.761 800.142 395.625 800.55 395.625C801.048 395.625 801.456 395.784 801.774 396.101C802.091 396.418 802.25 396.826 802.25 397.325V417.453C802.25 422.621 800.867 426.769 798.102 429.897C795.336 433.025 790.916 434.589 784.842 434.589ZM788.514 418.065C790.463 418.065 792.344 417.566 794.158 416.569C795.971 415.526 797.535 414.03 798.85 412.081V400.929C797.444 400.294 796.152 399.818 794.974 399.501C793.795 399.184 792.412 399.025 790.826 399.025C789.103 399.025 787.448 399.456 785.862 400.317C784.275 401.178 782.983 402.402 781.986 403.989C781.034 405.576 780.558 407.434 780.558 409.565C780.558 411.514 780.943 413.124 781.714 414.393C782.484 415.662 783.482 416.592 784.706 417.181C785.93 417.77 787.199 418.065 788.514 418.065Z" fill="#3C3C3C"/>
<path d="M644.235 421.805L643.934 422.069L643.952 422.089L643.972 422.106L644.235 421.805ZM644.167 386.445L643.866 386.182L643.864 386.185L644.167 386.445ZM665.519 386.377L665.236 386.66L665.236 386.66L665.519 386.377ZM665.519 388.825L665.802 389.108L665.811 389.099L665.82 389.089L665.519 388.825ZM647.159 389.301V388.901H646.759V389.301H647.159ZM647.159 401.133H646.759V401.533H647.159V401.133ZM662.595 404.057L662.878 404.34L662.887 404.331L662.896 404.321L662.595 404.057ZM647.159 404.533V404.133H646.759V404.533H647.159ZM647.159 418.881H646.759V419.281H647.159V418.881ZM665.655 421.805L665.938 422.088L665.947 422.079L665.956 422.069L665.655 421.805ZM645.459 421.881C645.109 421.881 644.793 421.762 644.499 421.504L643.972 422.106C644.402 422.483 644.903 422.681 645.459 422.681V421.881ZM644.536 421.542C644.278 421.247 644.159 420.931 644.159 420.581H643.359C643.359 421.138 643.557 421.638 643.934 422.069L644.536 421.542ZM644.159 420.581V387.601H643.359V420.581H644.159ZM644.159 387.601C644.159 387.235 644.267 386.944 644.471 386.705L643.864 386.185C643.524 386.581 643.359 387.061 643.359 387.601H644.159ZM644.468 386.709C644.725 386.415 644.984 386.301 645.255 386.301V385.501C644.711 385.501 644.244 385.75 643.866 386.182L644.468 386.709ZM645.255 386.301H664.295V385.501H645.255V386.301ZM664.295 386.301C664.701 386.301 665.003 386.426 665.236 386.66L665.802 386.094C665.401 385.693 664.887 385.501 664.295 385.501V386.301ZM665.236 386.66C665.47 386.894 665.595 387.196 665.595 387.601H666.395C666.395 387.009 666.203 386.495 665.802 386.094L665.236 386.66ZM665.595 387.601C665.595 387.951 665.476 388.267 665.218 388.562L665.82 389.089C666.197 388.658 666.395 388.158 666.395 387.601H665.595ZM665.236 388.542C665.003 388.776 664.701 388.901 664.295 388.901V389.701C664.887 389.701 665.401 389.509 665.802 389.108L665.236 388.542ZM664.295 388.901H647.159V389.701H664.295V388.901ZM646.759 389.301V401.133H647.559V389.301H646.759ZM647.159 401.533H661.371V400.733H647.159V401.533ZM661.371 401.533C661.777 401.533 662.079 401.658 662.312 401.892L662.878 401.326C662.477 400.925 661.963 400.733 661.371 400.733V401.533ZM662.312 401.892C662.546 402.126 662.671 402.428 662.671 402.833H663.471C663.471 402.241 663.279 401.727 662.878 401.326L662.312 401.892ZM662.671 402.833C662.671 403.183 662.552 403.499 662.294 403.794L662.896 404.321C663.273 403.89 663.471 403.39 663.471 402.833H662.671ZM662.312 403.774C662.079 404.008 661.777 404.133 661.371 404.133V404.933C661.963 404.933 662.477 404.741 662.878 404.34L662.312 403.774ZM661.371 404.133H647.159V404.933H661.371V404.133ZM646.759 404.533V418.881H647.559V404.533H646.759ZM647.159 419.281H664.431V418.481H647.159V419.281ZM664.431 419.281C664.837 419.281 665.139 419.406 665.372 419.64L665.938 419.074C665.537 418.673 665.023 418.481 664.431 418.481V419.281ZM665.372 419.64C665.606 419.874 665.731 420.176 665.731 420.581H666.531C666.531 419.989 666.339 419.475 665.938 419.074L665.372 419.64ZM665.731 420.581C665.731 420.931 665.612 421.247 665.354 421.542L665.956 422.069C666.333 421.638 666.531 421.138 666.531 420.581H665.731ZM665.372 421.522C665.139 421.756 664.837 421.881 664.431 421.881V422.681C665.023 422.681 665.537 422.489 665.938 422.088L665.372 421.522ZM664.431 421.881H645.459V422.681H664.431V421.881ZM694.592 421.669L694.303 421.946L694.309 421.952L694.592 421.669ZM692.28 417.725L692.658 417.595L692.457 417.009L692.006 417.434L692.28 417.725ZM687.18 421.125L687.336 421.493L687.341 421.491L687.18 421.125ZM676.3 421.125L676.513 420.787L676.513 420.787L676.3 421.125ZM673.716 418.269L674.082 418.108L674.082 418.108L673.716 418.269ZM673.512 411.945L673.139 411.799L673.136 411.808L673.512 411.945ZM675.348 409.225L675.077 408.931L675.073 408.934L675.348 409.225ZM679.904 406.573L680.046 406.947L680.046 406.947L679.904 406.573ZM691.532 405.689L691.499 406.088L691.972 406.127L691.93 405.654L691.532 405.689ZM689.492 400.861L689.204 401.139L689.209 401.144L689.492 400.861ZM681.4 399.297L681.456 399.693L681.466 399.692L681.475 399.69L681.4 399.297ZM679.224 399.773L679.087 399.397L679.08 399.4L679.224 399.773ZM676.708 399.637L676.425 399.92L676.434 399.929L676.444 399.938L676.708 399.637ZM677.32 396.781L677.207 396.397L677.197 396.4L677.187 396.404L677.32 396.781ZM680.38 396.033L680.299 395.641L680.296 395.642L680.38 396.033ZM692.348 398.685L692.042 398.943L692.046 398.947L692.348 398.685ZM695.476 416.705L695.093 416.822L695.096 416.832L695.1 416.842L695.476 416.705ZM697.04 419.357L696.74 419.622L696.748 419.631L696.757 419.64L697.04 419.357ZM696.972 421.737L697.255 422.02L697.255 422.02L696.972 421.737ZM686.84 417.589L687.015 417.949L687.022 417.945L686.84 417.589ZM691.6 413.509L691.916 413.754L692 413.646V413.509H691.6ZM691.6 409.089H692V408.72L691.632 408.69L691.6 409.089ZM677.796 411.537L678.079 411.82L678.079 411.82L677.796 411.537ZM676.64 413.237L676.267 413.094L676.262 413.106L676.258 413.119L676.64 413.237ZM677.524 417.657L677.233 417.932L677.241 417.94L677.524 417.657ZM694.881 421.393C693.93 420.398 693.186 419.136 692.658 417.595L691.901 417.855C692.461 419.487 693.259 420.855 694.303 421.946L694.881 421.393ZM692.006 417.434C690.496 418.855 688.834 419.962 687.019 420.759L687.341 421.491C689.243 420.656 690.981 419.497 692.554 418.016L692.006 417.434ZM687.023 420.757C685.263 421.505 683.345 421.881 681.264 421.881V422.681C683.444 422.681 685.47 422.287 687.336 421.493L687.023 420.757ZM681.264 421.881C679.222 421.881 677.651 421.503 676.513 420.787L676.087 421.464C677.397 422.288 679.135 422.681 681.264 422.681V421.881ZM676.513 420.787C675.345 420.051 674.543 419.157 674.082 418.108L673.35 418.43C673.886 419.648 674.807 420.658 676.087 421.464L676.513 420.787ZM674.082 418.108C673.6 417.014 673.368 416.003 673.368 415.073H672.568C672.568 416.138 672.834 417.258 673.35 418.43L674.082 418.108ZM673.368 415.073C673.368 414.031 673.541 413.034 673.888 412.082L673.136 411.808C672.757 412.851 672.568 413.94 672.568 415.073H673.368ZM673.884 412.091C674.271 411.103 674.849 410.246 675.623 409.516L675.073 408.934C674.214 409.745 673.569 410.702 673.139 411.799L673.884 412.091ZM675.619 409.52C676.705 408.52 678.175 407.66 680.046 406.947L679.761 406.199C677.825 406.937 676.258 407.845 675.077 408.931L675.619 409.52ZM680.046 406.947C681.892 406.244 684.175 405.885 686.908 405.885V405.085C684.11 405.085 681.724 405.452 679.761 406.199L680.046 406.947ZM686.908 405.885C688.346 405.885 689.876 405.953 691.499 406.088L691.565 405.291C689.923 405.154 688.371 405.085 686.908 405.085V405.885ZM691.93 405.654C691.743 403.542 691.034 401.837 689.775 400.578L689.209 401.144C690.307 402.242 690.958 403.756 691.133 405.725L691.93 405.654ZM689.78 400.584C688.501 399.255 686.611 398.625 684.188 398.625V399.425C686.48 399.425 688.126 400.019 689.204 401.139L689.78 400.584ZM684.188 398.625C683.254 398.625 682.3 398.718 681.325 398.904L681.475 399.69C682.404 399.513 683.308 399.425 684.188 399.425V398.625ZM681.343 398.901C680.382 399.038 679.625 399.202 679.087 399.397L679.361 400.149C679.82 399.982 680.514 399.828 681.456 399.693L681.343 398.901ZM679.08 399.4C678.492 399.626 678.123 399.713 677.932 399.713V400.513C678.285 400.513 678.777 400.374 679.367 400.146L679.08 399.4ZM677.932 399.713C677.582 399.713 677.266 399.594 676.971 399.336L676.444 399.938C676.875 400.315 677.375 400.513 677.932 400.513V399.713ZM676.991 399.354C676.683 399.046 676.564 398.757 676.564 398.481H675.764C675.764 399.021 676.008 399.503 676.425 399.92L676.991 399.354ZM676.564 398.481C676.564 398.11 676.646 397.837 676.784 397.635C676.92 397.435 677.132 397.272 677.453 397.158L677.187 396.404C676.737 396.563 676.371 396.819 676.122 397.185C675.874 397.55 675.764 397.991 675.764 398.481H676.564ZM677.433 397.165C678.19 396.942 679.199 396.695 680.464 396.424L680.296 395.642C679.022 395.915 677.991 396.167 677.207 396.397L677.433 397.165ZM680.461 396.425C681.751 396.158 682.994 396.025 684.188 396.025V395.225C682.934 395.225 681.638 395.364 680.299 395.641L680.461 396.425ZM684.188 396.025C687.836 396.025 690.422 397.025 692.042 398.943L692.653 398.427C690.828 396.266 687.975 395.225 684.188 395.225V396.025ZM692.046 398.947C693.738 400.9 694.6 403.452 694.6 406.641H695.4C695.4 403.302 694.494 400.55 692.65 398.423L692.046 398.947ZM694.6 406.641V412.829H695.4V406.641H694.6ZM694.6 412.829C694.6 414.395 694.761 415.729 695.093 416.822L695.859 416.589C695.556 415.596 695.4 414.346 695.4 412.829H694.6ZM695.1 416.842C695.479 417.885 696.026 418.812 696.74 419.622L697.34 419.092C696.694 418.361 696.198 417.52 695.852 416.568L695.1 416.842ZM696.757 419.64C696.998 419.881 697.116 420.165 697.116 420.513H697.916C697.916 419.955 697.716 419.467 697.323 419.074L696.757 419.64ZM697.116 420.513C697.116 420.846 696.987 421.156 696.689 421.454L697.255 422.02C697.682 421.593 697.916 421.087 697.916 420.513H697.116ZM696.689 421.454C696.448 421.696 696.164 421.813 695.816 421.813V422.613C696.374 422.613 696.862 422.413 697.255 422.02L696.689 421.454ZM695.816 421.813C695.483 421.813 695.173 421.685 694.875 421.386L694.309 421.952C694.736 422.379 695.242 422.613 695.816 422.613V421.813ZM681.264 419.281C683.274 419.281 685.193 418.836 687.015 417.949L686.665 417.23C684.951 418.065 683.152 418.481 681.264 418.481V419.281ZM687.022 417.945C688.85 417.008 690.48 415.607 691.916 413.754L691.284 413.264C689.909 415.038 688.366 416.357 686.657 417.233L687.022 417.945ZM692 413.509V409.089H691.2V413.509H692ZM691.632 408.69C689.946 408.554 688.371 408.485 686.908 408.485V409.285C688.346 409.285 689.899 409.353 691.568 409.488L691.632 408.69ZM686.908 408.485C682.567 408.485 679.395 409.373 677.513 411.254L678.079 411.82C679.733 410.166 682.636 409.285 686.908 409.285V408.485ZM677.513 411.254C676.938 411.829 676.517 412.442 676.267 413.094L677.013 413.381C677.216 412.854 677.566 412.333 678.079 411.82L677.513 411.254ZM676.258 413.119C676.064 413.748 675.968 414.4 675.968 415.073H676.768C676.768 414.477 676.853 413.905 677.022 413.355L676.258 413.119ZM675.968 415.073C675.968 416.105 676.41 417.06 677.233 417.932L677.815 417.382C677.097 416.622 676.768 415.855 676.768 415.073H675.968ZM677.241 417.94C678.16 418.859 679.529 419.281 681.264 419.281V418.481C679.644 418.481 678.519 418.087 677.807 417.374L677.241 417.94ZM710.245 419.697L709.962 419.98L709.966 419.984L710.245 419.697ZM707.593 399.025H707.993V398.625H707.593V399.025ZM702.085 398.549L701.784 398.813L701.802 398.833L701.822 398.85L702.085 398.549ZM702.085 396.101L701.822 395.8L701.812 395.809L701.802 395.818L702.085 396.101ZM707.593 395.625V396.025H707.993V395.625H707.593ZM708.069 387.533L707.806 387.232L707.796 387.241L707.786 387.25L708.069 387.533ZM710.517 387.533L710.8 387.25L710.8 387.25L710.517 387.533ZM710.993 395.625H710.593V396.025H710.993V395.625ZM721.261 398.549L721.544 398.832L721.553 398.823L721.562 398.813L721.261 398.549ZM710.993 399.025V398.625H710.593V399.025H710.993ZM720.377 419.425L720.076 419.689L720.085 419.699L720.094 419.708L720.377 419.425ZM720.309 421.805L720.026 421.522L720.026 421.522L720.309 421.805ZM719.153 421.881C715.019 421.881 712.18 421.024 710.524 419.411L709.966 419.984C711.846 421.815 714.946 422.681 719.153 422.681V421.881ZM710.528 419.414C708.848 417.735 707.993 415.486 707.993 412.625H707.193C707.193 415.657 708.106 418.124 709.962 419.98L710.528 419.414ZM707.993 412.625V399.025H707.193V412.625H707.993ZM707.593 398.625H703.309V399.425H707.593V398.625ZM703.309 398.625C702.959 398.625 702.643 398.506 702.349 398.248L701.822 398.85C702.252 399.227 702.752 399.425 703.309 399.425V398.625ZM702.386 398.286C702.128 397.991 702.009 397.675 702.009 397.325H701.209C701.209 397.882 701.407 398.382 701.784 398.813L702.386 398.286ZM702.009 397.325C702.009 396.92 702.134 396.618 702.368 396.384L701.802 395.818C701.401 396.219 701.209 396.733 701.209 397.325H702.009ZM702.349 396.402C702.643 396.144 702.959 396.025 703.309 396.025V395.225C702.752 395.225 702.252 395.423 701.822 395.8L702.349 396.402ZM703.309 396.025H707.593V395.225H703.309V396.025ZM707.993 395.625V388.757H707.193V395.625H707.993ZM707.993 388.757C707.993 388.352 708.118 388.05 708.352 387.816L707.786 387.25C707.385 387.651 707.193 388.165 707.193 388.757H707.993ZM708.333 387.834C708.627 387.576 708.943 387.457 709.293 387.457V386.657C708.736 386.657 708.236 386.855 707.806 387.232L708.333 387.834ZM709.293 387.457C709.699 387.457 710.001 387.582 710.234 387.816L710.8 387.25C710.399 386.849 709.885 386.657 709.293 386.657V387.457ZM710.234 387.816C710.468 388.05 710.593 388.352 710.593 388.757H711.393C711.393 388.165 711.201 387.651 710.8 387.25L710.234 387.816ZM710.593 388.757V395.625H711.393V388.757H710.593ZM710.993 396.025H720.037V395.225H710.993V396.025ZM720.037 396.025C720.443 396.025 720.745 396.15 720.978 396.384L721.544 395.818C721.143 395.417 720.629 395.225 720.037 395.225V396.025ZM720.978 396.384C721.212 396.618 721.337 396.92 721.337 397.325H722.137C722.137 396.733 721.945 396.219 721.544 395.818L720.978 396.384ZM721.337 397.325C721.337 397.675 721.218 397.991 720.96 398.286L721.562 398.813C721.939 398.382 722.137 397.882 722.137 397.325H721.337ZM720.978 398.266C720.745 398.5 720.443 398.625 720.037 398.625V399.425C720.629 399.425 721.143 399.233 721.544 398.832L720.978 398.266ZM720.037 398.625H710.993V399.425H720.037V398.625ZM710.593 399.025V412.625H711.393V399.025H710.593ZM710.593 412.625C710.593 414.805 711.309 416.5 712.79 417.635C714.25 418.754 716.393 419.281 719.153 419.281V418.481C716.473 418.481 714.536 417.965 713.277 417C712.037 416.049 711.393 414.616 711.393 412.625H710.593ZM719.153 419.281C719.541 419.281 719.838 419.416 720.076 419.689L720.678 419.162C720.282 418.709 719.763 418.481 719.153 418.481V419.281ZM720.094 419.708C720.336 419.949 720.453 420.233 720.453 420.581H721.253C721.253 420.023 721.053 419.535 720.66 419.142L720.094 419.708ZM720.453 420.581C720.453 420.914 720.325 421.224 720.026 421.522L720.592 422.088C721.019 421.661 721.253 421.155 721.253 420.581H720.453ZM720.026 421.522C719.785 421.764 719.502 421.881 719.153 421.881V422.681C719.711 422.681 720.199 422.481 720.592 422.088L720.026 421.522ZM734.012 382.637L733.709 382.897L733.713 382.903L733.718 382.908L734.012 382.637ZM734.012 387.465L734.295 387.748L734.295 387.748L734.012 387.465ZM730 387.465L729.706 387.736L729.717 387.748L729.729 387.759L730 387.465ZM730 382.637L730.294 382.908L730.299 382.903L730.304 382.897L730 382.637ZM730.884 396.101L730.621 395.8L730.611 395.809L730.601 395.818L730.884 396.101ZM733.332 421.805L733.615 422.088L733.624 422.079L733.633 422.069L733.332 421.805ZM730.884 421.805L730.583 422.069L730.601 422.089L730.621 422.106L730.884 421.805ZM732.04 382.085C732.683 382.085 733.233 382.343 733.709 382.897L734.316 382.377C733.703 381.662 732.938 381.285 732.04 381.285V382.085ZM733.718 382.908C734.176 383.404 734.428 384.112 734.428 385.085H735.228C735.228 383.973 734.937 383.049 734.306 382.366L733.718 382.908ZM734.428 385.085C734.428 386.06 734.175 386.737 733.729 387.182L734.295 387.748C734.938 387.105 735.228 386.195 735.228 385.085H734.428ZM733.729 387.182C733.255 387.656 732.721 387.881 732.108 387.881V388.681C732.947 388.681 733.681 388.362 734.295 387.748L733.729 387.182ZM732.108 387.881C731.391 387.881 730.786 387.646 730.272 387.171L729.729 387.759C730.394 388.373 731.194 388.681 732.108 388.681V387.881ZM730.294 387.194C729.834 386.695 729.584 386.007 729.584 385.085H728.784C728.784 386.157 729.079 387.056 729.706 387.736L730.294 387.194ZM729.584 385.085C729.584 384.112 729.837 383.404 730.294 382.908L729.706 382.366C729.076 383.049 728.784 383.973 728.784 385.085H729.584ZM730.304 382.897C730.774 382.349 731.344 382.085 732.04 382.085V381.285C731.104 381.285 730.314 381.656 729.697 382.377L730.304 382.897ZM730.808 397.325C730.808 396.92 730.933 396.618 731.167 396.384L730.601 395.818C730.2 396.219 730.008 396.733 730.008 397.325H730.808ZM731.148 396.402C731.442 396.144 731.758 396.025 732.108 396.025V395.225C731.552 395.225 731.051 395.423 730.621 395.8L731.148 396.402ZM732.108 396.025C732.514 396.025 732.816 396.15 733.049 396.384L733.615 395.818C733.214 395.417 732.7 395.225 732.108 395.225V396.025ZM733.049 396.384C733.283 396.618 733.408 396.92 733.408 397.325H734.208C734.208 396.733 734.016 396.219 733.615 395.818L733.049 396.384ZM733.408 397.325V420.581H734.208V397.325H733.408ZM733.408 420.581C733.408 420.931 733.289 421.247 733.031 421.542L733.633 422.069C734.01 421.638 734.208 421.138 734.208 420.581H733.408ZM733.049 421.522C732.816 421.756 732.514 421.881 732.108 421.881V422.681C732.7 422.681 733.214 422.489 733.615 422.088L733.049 421.522ZM732.108 421.881C731.758 421.881 731.442 421.762 731.148 421.504L730.621 422.106C731.051 422.483 731.552 422.681 732.108 422.681V421.881ZM731.185 421.542C730.927 421.247 730.808 420.931 730.808 420.581H730.008C730.008 421.138 730.206 421.638 730.583 422.069L731.185 421.542ZM730.808 420.581V397.325H730.008V420.581H730.808ZM765.797 421.805L765.496 422.069L765.513 422.089L765.534 422.106L765.797 421.805ZM763.689 400.929L763.38 401.183L763.385 401.189L763.39 401.195L763.689 400.929ZM753.965 400.589L754.165 400.935L754.172 400.931L753.965 400.589ZM749.205 404.261L748.922 403.978L748.805 404.095V404.261H749.205ZM748.729 421.805L749.012 422.088L749.021 422.079L749.03 422.069L748.729 421.805ZM746.281 421.805L745.98 422.069L745.997 422.089L746.018 422.106L746.281 421.805ZM746.281 396.101L746.018 395.8L746.007 395.809L745.998 395.818L746.281 396.101ZM748.729 396.101L749.012 395.818L748.729 396.101ZM749.205 399.773H748.805V400.602L749.454 400.086L749.205 399.773ZM754.033 396.781L753.866 396.418L753.866 396.418L754.033 396.781ZM764.097 396.645L763.923 397.005L763.923 397.005L764.097 396.645ZM767.429 400.181L767.069 400.356L767.075 400.368L767.429 400.181ZM768.245 421.805L768.528 422.088L768.537 422.079L768.546 422.069L768.245 421.805ZM767.021 421.881C766.671 421.881 766.355 421.762 766.06 421.504L765.534 422.106C765.964 422.483 766.464 422.681 767.021 422.681V421.881ZM766.098 421.542C765.84 421.247 765.721 420.931 765.721 420.581H764.921C764.921 421.138 765.119 421.638 765.496 422.069L766.098 421.542ZM765.721 420.581V406.981H764.921V420.581H765.721ZM765.721 406.981C765.721 404.137 765.174 401.998 763.988 400.663L763.39 401.195C764.38 402.309 764.921 404.204 764.921 406.981H765.721ZM763.998 400.675C762.871 399.303 761.324 398.625 759.405 398.625V399.425C761.113 399.425 762.422 400.017 763.38 401.183L763.998 400.675ZM759.405 398.625C757.424 398.625 755.539 399.169 753.758 400.247L754.172 400.931C755.836 399.924 757.578 399.425 759.405 399.425V398.625ZM753.764 400.243C752.011 401.258 750.397 402.504 748.922 403.978L749.488 404.544C750.915 403.117 752.474 401.915 754.165 400.935L753.764 400.243ZM748.805 404.261V420.581H749.605V404.261H748.805ZM748.805 420.581C748.805 420.931 748.686 421.247 748.428 421.542L749.03 422.069C749.407 421.638 749.605 421.138 749.605 420.581H748.805ZM748.446 421.522C748.212 421.756 747.91 421.881 747.505 421.881V422.681C748.097 422.681 748.611 422.489 749.012 422.088L748.446 421.522ZM747.505 421.881C747.155 421.881 746.839 421.762 746.544 421.504L746.018 422.106C746.448 422.483 746.948 422.681 747.505 422.681V421.881ZM746.582 421.542C746.324 421.247 746.205 420.931 746.205 420.581H745.405C745.405 421.138 745.603 421.638 745.98 422.069L746.582 421.542ZM746.205 420.581V397.325H745.405V420.581H746.205ZM746.205 397.325C746.205 396.92 746.33 396.618 746.564 396.384L745.998 395.818C745.597 396.219 745.405 396.733 745.405 397.325H746.205ZM746.544 396.402C746.839 396.144 747.155 396.025 747.505 396.025V395.225C746.948 395.225 746.448 395.423 746.018 395.8L746.544 396.402ZM747.505 396.025C747.91 396.025 748.212 396.15 748.446 396.384L749.012 395.818C748.611 395.417 748.097 395.225 747.505 395.225V396.025ZM748.446 396.384C748.68 396.618 748.805 396.92 748.805 397.325H749.605C749.605 396.733 749.413 396.219 749.012 395.818L748.446 396.384ZM748.805 397.325V399.773H749.605V397.325H748.805ZM749.454 400.086C750.972 398.881 752.554 397.901 754.2 397.145L753.866 396.418C752.158 397.203 750.521 398.217 748.956 399.46L749.454 400.086ZM754.2 397.145C755.823 396.399 757.557 396.025 759.405 396.025V395.225C757.445 395.225 755.597 395.622 753.866 396.418L754.2 397.145ZM759.405 396.025C761.074 396.025 762.577 396.354 763.923 397.005L764.271 396.285C762.806 395.576 761.182 395.225 759.405 395.225V396.025ZM763.923 397.005C765.232 397.639 766.285 398.743 767.069 400.356L767.789 400.006C766.941 398.264 765.772 397.011 764.271 396.285L763.923 397.005ZM767.075 400.368C767.894 401.919 768.321 404.111 768.321 406.981H769.121C769.121 404.048 768.687 401.708 767.783 399.994L767.075 400.368ZM768.321 406.981V420.581H769.121V406.981H768.321ZM768.321 420.581C768.321 420.931 768.202 421.247 767.944 421.542L768.546 422.069C768.923 421.638 769.121 421.138 769.121 420.581H768.321ZM767.962 421.522C767.728 421.756 767.426 421.881 767.021 421.881V422.681C767.613 422.681 768.127 422.489 768.528 422.088L767.962 421.522ZM783.618 431.665L783.354 431.364L783.334 431.382L783.317 431.402L783.618 431.665ZM795.45 427.381L795.154 427.112L795.149 427.118L795.45 427.381ZM798.85 417.181H799.25V416.257L798.576 416.89L798.85 417.181ZM793.954 420.377L794.106 420.747L794.106 420.747L793.954 420.377ZM783.074 420.241L782.902 420.603L782.906 420.604L783.074 420.241ZM778.79 416.365L778.449 416.575L778.453 416.581L778.79 416.365ZM779.13 402.153L778.791 401.94L778.791 401.94L779.13 402.153ZM784.23 397.325L784.042 396.972L784.039 396.974L784.23 397.325ZM795.042 396.033L794.955 396.424L794.958 396.424L795.042 396.033ZM798.85 397.189L798.703 397.561L799.156 397.739L799.243 397.261L798.85 397.189ZM799.462 396.033L799.722 396.337L799.722 396.337L799.462 396.033ZM798.102 429.897L798.401 430.162L798.401 430.162L798.102 429.897ZM794.158 416.569L794.35 416.92L794.357 416.916L794.158 416.569ZM798.85 412.081L799.181 412.305L799.25 412.203V412.081H798.85ZM798.85 400.929H799.25V400.671L799.014 400.565L798.85 400.929ZM785.862 400.317L785.671 399.966L785.671 399.966L785.862 400.317ZM781.986 403.989L781.647 403.776L781.643 403.783L781.986 403.989ZM781.714 414.393L781.372 414.601L781.372 414.601L781.714 414.393ZM784.706 417.181L784.879 416.821L784.879 416.821L784.706 417.181ZM784.842 434.189C784.509 434.189 784.199 434.061 783.901 433.762L783.335 434.328C783.762 434.755 784.268 434.989 784.842 434.989V434.189ZM783.901 433.762C783.659 433.521 783.542 433.238 783.542 432.889H782.742C782.742 433.447 782.942 433.935 783.335 434.328L783.901 433.762ZM783.542 432.889C783.542 432.539 783.661 432.223 783.919 431.929L783.317 431.402C782.94 431.832 782.742 432.332 782.742 432.889H783.542ZM783.881 431.966C784.176 431.708 784.492 431.589 784.842 431.589V430.789C784.285 430.789 783.785 430.987 783.354 431.364L783.881 431.966ZM784.842 431.589C789.756 431.589 793.425 430.303 795.751 427.645L795.149 427.118C793.032 429.537 789.629 430.789 784.842 430.789V431.589ZM795.746 427.65C798.093 425.068 799.25 421.655 799.25 417.453H798.45C798.45 421.502 797.339 424.708 795.154 427.112L795.746 427.65ZM799.25 417.453V417.181H798.45V417.453H799.25ZM798.576 416.89C797.113 418.264 795.521 419.302 793.802 420.007L794.106 420.747C795.922 420.002 797.595 418.909 799.124 417.473L798.576 416.89ZM793.802 420.007C792.081 420.713 790.319 421.065 788.514 421.065V421.865C790.426 421.865 792.291 421.492 794.106 420.747L793.802 420.007ZM788.514 421.065C786.716 421.065 784.959 420.671 783.241 419.878L782.906 420.604C784.724 421.443 786.594 421.865 788.514 421.865V421.065ZM783.245 419.88C781.597 419.099 780.224 417.861 779.126 416.149L778.453 416.581C779.622 418.405 781.105 419.751 782.902 420.603L783.245 419.88ZM779.13 416.155C778.092 414.468 777.558 412.28 777.558 409.565H776.758C776.758 412.381 777.311 414.726 778.449 416.575L779.13 416.155ZM777.558 409.565C777.558 406.772 778.2 404.378 779.468 402.366L778.791 401.94C777.43 404.099 776.758 406.646 776.758 409.565H777.558ZM779.468 402.366C780.748 400.337 782.398 398.776 784.421 397.677L784.039 396.974C781.891 398.141 780.141 399.799 778.791 401.94L779.468 402.366ZM784.418 397.678C786.494 396.574 788.629 396.025 790.826 396.025V395.225C788.489 395.225 786.226 395.81 784.042 396.972L784.418 397.678ZM790.826 396.025C792.39 396.025 793.766 396.159 794.955 396.424L795.128 395.643C793.87 395.363 792.434 395.225 790.826 395.225V396.025ZM794.958 396.424C796.205 396.691 797.453 397.07 798.703 397.561L798.996 396.817C797.707 396.311 796.417 395.919 795.125 395.642L794.958 396.424ZM799.243 397.261C799.321 396.832 799.488 396.537 799.722 396.337L799.201 395.729C798.8 396.073 798.56 396.548 798.456 397.118L799.243 397.261ZM799.722 396.337C799.969 396.125 800.24 396.025 800.55 396.025V395.225C800.044 395.225 799.589 395.397 799.201 395.729L799.722 396.337ZM800.55 396.025C800.955 396.025 801.257 396.15 801.491 396.384L802.057 395.818C801.656 395.417 801.142 395.225 800.55 395.225V396.025ZM801.491 396.384C801.724 396.618 801.85 396.92 801.85 397.325H802.65C802.65 396.733 802.458 396.219 802.057 395.818L801.491 396.384ZM801.85 397.325V417.453H802.65V397.325H801.85ZM801.85 417.453C801.85 422.548 800.488 426.594 797.802 429.632L798.401 430.162C801.246 426.945 802.65 422.695 802.65 417.453H801.85ZM797.802 429.632C795.142 432.641 790.855 434.189 784.842 434.189V434.989C790.978 434.989 795.531 433.409 798.401 430.162L797.802 429.632ZM788.514 418.465C790.535 418.465 792.482 417.947 794.35 416.92L793.965 416.219C792.207 417.186 790.391 417.665 788.514 417.665V418.465ZM794.357 416.916C796.23 415.839 797.837 414.298 799.181 412.305L798.518 411.857C797.233 413.763 795.712 415.214 793.958 416.222L794.357 416.916ZM799.25 412.081V400.929H798.45V412.081H799.25ZM799.014 400.565C797.594 399.923 796.282 399.439 795.078 399.115L794.87 399.887C796.023 400.198 797.294 400.666 798.685 401.294L799.014 400.565ZM795.078 399.115C793.857 398.786 792.438 398.625 790.826 398.625V399.425C792.387 399.425 793.733 399.581 794.87 399.887L795.078 399.115ZM790.826 398.625C789.033 398.625 787.313 399.074 785.671 399.966L786.053 400.669C787.584 399.838 789.173 399.425 790.826 399.425V398.625ZM785.671 399.966C784.021 400.861 782.679 402.134 781.647 403.776L782.324 404.202C783.287 402.671 784.529 401.496 786.053 400.669L785.671 399.966ZM781.643 403.783C780.648 405.441 780.158 407.373 780.158 409.565H780.958C780.958 407.496 781.419 405.71 782.329 404.195L781.643 403.783ZM780.158 409.565C780.158 411.565 780.553 413.252 781.372 414.601L782.056 414.186C781.333 412.995 780.958 411.464 780.958 409.565H780.158ZM781.372 414.601C782.179 415.93 783.232 416.916 784.532 417.542L784.879 416.821C783.731 416.268 782.79 415.395 782.056 414.186L781.372 414.601ZM784.532 417.542C785.808 418.156 787.137 418.465 788.514 418.465V417.665C787.261 417.665 786.051 417.385 784.879 416.821L784.532 417.542Z" fill="#3C3C3C" mask="url(#path-15-outside-1_614_276)"/>
<mask id="path-17-outside-2_614_276" maskUnits="userSpaceOnUse" x="778.083" y="461.502" width="68" height="23" fill="black">
<rect fill="white" x="778.083" y="461.502" width="68" height="23"/>
<path d="M794.523 483.102C793.617 481.875 792.563 480.502 791.363 478.982C790.19 477.462 788.977 475.915 787.723 474.342C786.47 472.742 785.257 471.195 784.083 469.702C782.937 468.208 781.91 466.888 781.003 465.742V482.502C781.003 482.768 780.91 483.008 780.723 483.222C780.537 483.408 780.297 483.502 780.003 483.502C779.737 483.502 779.497 483.408 779.283 483.222C779.097 483.008 779.003 482.768 779.003 482.502V463.102C779.003 462.808 779.097 462.568 779.283 462.382C779.497 462.195 779.723 462.102 779.963 462.102C780.497 462.102 780.857 462.235 781.043 462.502C781.71 463.382 782.577 464.515 783.643 465.902C784.71 467.262 785.87 468.755 787.123 470.382C788.403 471.982 789.683 473.608 790.963 475.262C792.27 476.888 793.47 478.422 794.563 479.862V463.102C794.563 462.808 794.657 462.568 794.843 462.382C795.057 462.195 795.297 462.102 795.563 462.102C795.857 462.102 796.097 462.195 796.283 462.382C796.47 462.568 796.563 462.808 796.563 463.102V482.502C796.563 482.768 796.47 483.008 796.283 483.222C796.097 483.408 795.87 483.502 795.603 483.502C795.07 483.502 794.71 483.368 794.523 483.102ZM815.194 483.142C814.607 482.528 814.154 481.755 813.834 480.822C812.927 481.675 811.927 482.342 810.834 482.822C809.767 483.275 808.607 483.502 807.354 483.502C806.127 483.502 805.154 483.275 804.434 482.822C803.714 482.368 803.207 481.808 802.914 481.142C802.621 480.475 802.474 479.848 802.474 479.262C802.474 478.622 802.581 478.008 802.794 477.422C803.034 476.808 803.394 476.275 803.874 475.822C804.541 475.208 805.434 474.688 806.554 474.262C807.674 473.835 809.047 473.622 810.674 473.622C811.527 473.622 812.434 473.662 813.394 473.742C813.287 472.542 812.887 471.595 812.194 470.902C811.501 470.182 810.461 469.822 809.074 469.822C808.541 469.822 807.994 469.875 807.434 469.982C806.874 470.062 806.447 470.155 806.154 470.262C805.807 470.395 805.554 470.462 805.394 470.462C805.127 470.462 804.887 470.368 804.674 470.182C804.461 469.968 804.354 469.742 804.354 469.502C804.354 468.995 804.581 468.662 805.034 468.502C805.487 468.368 806.087 468.222 806.834 468.062C807.607 467.902 808.354 467.822 809.074 467.822C811.261 467.822 812.861 468.422 813.874 469.622C814.914 470.822 815.434 472.382 815.434 474.302V477.942C815.434 478.848 815.527 479.608 815.714 480.222C815.927 480.808 816.234 481.328 816.634 481.782C816.821 481.968 816.914 482.195 816.914 482.462C816.914 482.728 816.807 482.968 816.594 483.182C816.407 483.368 816.181 483.462 815.914 483.462C815.647 483.462 815.407 483.355 815.194 483.142ZM807.354 481.502C808.501 481.502 809.594 481.248 810.634 480.742C811.674 480.208 812.607 479.408 813.434 478.342V475.742C812.447 475.662 811.527 475.622 810.674 475.622C808.141 475.622 806.354 476.142 805.314 477.182C804.994 477.502 804.767 477.835 804.634 478.182C804.527 478.528 804.474 478.888 804.474 479.262C804.474 479.795 804.701 480.302 805.154 480.782C805.634 481.262 806.367 481.502 807.354 481.502ZM844.562 483.502C844.295 483.502 844.055 483.408 843.842 483.222C843.655 483.008 843.562 482.768 843.562 482.502V474.102C843.562 472.528 843.242 471.422 842.602 470.782C841.989 470.142 841.189 469.822 840.202 469.822C839.215 469.822 838.255 470.102 837.322 470.662C836.389 471.222 835.535 471.928 834.762 472.782V482.502C834.762 482.768 834.669 483.008 834.482 483.222C834.295 483.408 834.055 483.502 833.762 483.502C833.495 483.502 833.255 483.408 833.042 483.222C832.855 483.008 832.762 482.768 832.762 482.502V474.102C832.762 472.528 832.442 471.422 831.802 470.782C831.189 470.142 830.389 469.822 829.402 469.822C828.415 469.822 827.442 470.128 826.482 470.742C825.522 471.328 824.655 472.048 823.882 472.902V482.502C823.882 482.768 823.789 483.008 823.602 483.222C823.415 483.408 823.175 483.502 822.882 483.502C822.615 483.502 822.375 483.408 822.162 483.222C821.975 483.008 821.882 482.768 821.882 482.502V468.822C821.882 468.528 821.975 468.288 822.162 468.102C822.375 467.915 822.615 467.822 822.882 467.822C823.175 467.822 823.415 467.915 823.602 468.102C823.789 468.288 823.882 468.528 823.882 468.822V470.182C824.735 469.488 825.629 468.928 826.562 468.502C827.495 468.048 828.442 467.822 829.402 467.822C830.442 467.822 831.389 468.008 832.242 468.382C833.095 468.755 833.749 469.488 834.202 470.582C835.109 469.755 836.069 469.088 837.082 468.582C838.122 468.075 839.162 467.822 840.202 467.822C841.189 467.822 842.082 467.995 842.882 468.342C843.682 468.688 844.322 469.315 844.802 470.222C845.309 471.102 845.562 472.395 845.562 474.102V482.502C845.562 482.768 845.469 483.008 845.282 483.222C845.095 483.408 844.855 483.502 844.562 483.502Z"/>
</mask>
<path d="M794.523 483.102C793.617 481.875 792.563 480.502 791.363 478.982C790.19 477.462 788.977 475.915 787.723 474.342C786.47 472.742 785.257 471.195 784.083 469.702C782.937 468.208 781.91 466.888 781.003 465.742V482.502C781.003 482.768 780.91 483.008 780.723 483.222C780.537 483.408 780.297 483.502 780.003 483.502C779.737 483.502 779.497 483.408 779.283 483.222C779.097 483.008 779.003 482.768 779.003 482.502V463.102C779.003 462.808 779.097 462.568 779.283 462.382C779.497 462.195 779.723 462.102 779.963 462.102C780.497 462.102 780.857 462.235 781.043 462.502C781.71 463.382 782.577 464.515 783.643 465.902C784.71 467.262 785.87 468.755 787.123 470.382C788.403 471.982 789.683 473.608 790.963 475.262C792.27 476.888 793.47 478.422 794.563 479.862V463.102C794.563 462.808 794.657 462.568 794.843 462.382C795.057 462.195 795.297 462.102 795.563 462.102C795.857 462.102 796.097 462.195 796.283 462.382C796.47 462.568 796.563 462.808 796.563 463.102V482.502C796.563 482.768 796.47 483.008 796.283 483.222C796.097 483.408 795.87 483.502 795.603 483.502C795.07 483.502 794.71 483.368 794.523 483.102ZM815.194 483.142C814.607 482.528 814.154 481.755 813.834 480.822C812.927 481.675 811.927 482.342 810.834 482.822C809.767 483.275 808.607 483.502 807.354 483.502C806.127 483.502 805.154 483.275 804.434 482.822C803.714 482.368 803.207 481.808 802.914 481.142C802.621 480.475 802.474 479.848 802.474 479.262C802.474 478.622 802.581 478.008 802.794 477.422C803.034 476.808 803.394 476.275 803.874 475.822C804.541 475.208 805.434 474.688 806.554 474.262C807.674 473.835 809.047 473.622 810.674 473.622C811.527 473.622 812.434 473.662 813.394 473.742C813.287 472.542 812.887 471.595 812.194 470.902C811.501 470.182 810.461 469.822 809.074 469.822C808.541 469.822 807.994 469.875 807.434 469.982C806.874 470.062 806.447 470.155 806.154 470.262C805.807 470.395 805.554 470.462 805.394 470.462C805.127 470.462 804.887 470.368 804.674 470.182C804.461 469.968 804.354 469.742 804.354 469.502C804.354 468.995 804.581 468.662 805.034 468.502C805.487 468.368 806.087 468.222 806.834 468.062C807.607 467.902 808.354 467.822 809.074 467.822C811.261 467.822 812.861 468.422 813.874 469.622C814.914 470.822 815.434 472.382 815.434 474.302V477.942C815.434 478.848 815.527 479.608 815.714 480.222C815.927 480.808 816.234 481.328 816.634 481.782C816.821 481.968 816.914 482.195 816.914 482.462C816.914 482.728 816.807 482.968 816.594 483.182C816.407 483.368 816.181 483.462 815.914 483.462C815.647 483.462 815.407 483.355 815.194 483.142ZM807.354 481.502C808.501 481.502 809.594 481.248 810.634 480.742C811.674 480.208 812.607 479.408 813.434 478.342V475.742C812.447 475.662 811.527 475.622 810.674 475.622C808.141 475.622 806.354 476.142 805.314 477.182C804.994 477.502 804.767 477.835 804.634 478.182C804.527 478.528 804.474 478.888 804.474 479.262C804.474 479.795 804.701 480.302 805.154 480.782C805.634 481.262 806.367 481.502 807.354 481.502ZM844.562 483.502C844.295 483.502 844.055 483.408 843.842 483.222C843.655 483.008 843.562 482.768 843.562 482.502V474.102C843.562 472.528 843.242 471.422 842.602 470.782C841.989 470.142 841.189 469.822 840.202 469.822C839.215 469.822 838.255 470.102 837.322 470.662C836.389 471.222 835.535 471.928 834.762 472.782V482.502C834.762 482.768 834.669 483.008 834.482 483.222C834.295 483.408 834.055 483.502 833.762 483.502C833.495 483.502 833.255 483.408 833.042 483.222C832.855 483.008 832.762 482.768 832.762 482.502V474.102C832.762 472.528 832.442 471.422 831.802 470.782C831.189 470.142 830.389 469.822 829.402 469.822C828.415 469.822 827.442 470.128 826.482 470.742C825.522 471.328 824.655 472.048 823.882 472.902V482.502C823.882 482.768 823.789 483.008 823.602 483.222C823.415 483.408 823.175 483.502 822.882 483.502C822.615 483.502 822.375 483.408 822.162 483.222C821.975 483.008 821.882 482.768 821.882 482.502V468.822C821.882 468.528 821.975 468.288 822.162 468.102C822.375 467.915 822.615 467.822 822.882 467.822C823.175 467.822 823.415 467.915 823.602 468.102C823.789 468.288 823.882 468.528 823.882 468.822V470.182C824.735 469.488 825.629 468.928 826.562 468.502C827.495 468.048 828.442 467.822 829.402 467.822C830.442 467.822 831.389 468.008 832.242 468.382C833.095 468.755 833.749 469.488 834.202 470.582C835.109 469.755 836.069 469.088 837.082 468.582C838.122 468.075 839.162 467.822 840.202 467.822C841.189 467.822 842.082 467.995 842.882 468.342C843.682 468.688 844.322 469.315 844.802 470.222C845.309 471.102 845.562 472.395 845.562 474.102V482.502C845.562 482.768 845.469 483.008 845.282 483.222C845.095 483.408 844.855 483.502 844.562 483.502Z" fill="#97BF0D"/>
<path d="M794.523 483.102L794.769 482.93L794.765 482.924L794.523 483.102ZM791.363 478.982L791.126 479.165L791.128 479.168L791.363 478.982ZM787.723 474.342L787.487 474.527L787.489 474.529L787.723 474.342ZM784.083 469.702L783.846 469.885L783.848 469.887L784.083 469.702ZM781.003 465.742L781.239 465.556L780.703 464.879V465.742H781.003ZM780.723 483.222L780.936 483.434L780.943 483.427L780.949 483.419L780.723 483.222ZM779.283 483.222L779.058 483.419L779.071 483.434L779.086 483.448L779.283 483.222ZM779.283 462.382L779.086 462.156L779.078 462.163L779.071 462.17L779.283 462.382ZM781.043 462.502L780.798 462.674L780.804 462.683L781.043 462.502ZM783.643 465.902L783.406 466.085L783.407 466.087L783.643 465.902ZM787.123 470.382L786.886 470.565L786.889 470.569L787.123 470.382ZM790.963 475.262L790.726 475.446L790.73 475.45L790.963 475.262ZM794.563 479.862L794.325 480.043L794.863 480.753V479.862H794.563ZM794.843 462.382L794.646 462.156L794.638 462.163L794.631 462.17L794.843 462.382ZM796.283 483.222L796.496 483.434L796.503 483.427L796.509 483.419L796.283 483.222ZM794.765 482.924C793.856 481.694 792.8 480.318 791.599 478.796L791.128 479.168C792.327 480.686 793.378 482.057 794.282 483.28L794.765 482.924ZM791.601 478.799C790.427 477.277 789.212 475.729 787.958 474.155L787.489 474.529C788.741 476.101 789.954 477.646 791.126 479.165L791.601 478.799ZM787.96 474.157C786.706 472.557 785.493 471.01 784.319 469.516L783.848 469.887C785.021 471.38 786.234 472.927 787.487 474.527L787.96 474.157ZM784.321 469.519C783.174 468.025 782.147 466.704 781.239 465.556L780.768 465.928C781.674 467.073 782.7 468.392 783.846 469.885L784.321 469.519ZM780.703 465.742V482.502H781.303V465.742H780.703ZM780.703 482.502C780.703 482.691 780.64 482.862 780.498 483.024L780.949 483.419C781.181 483.155 781.303 482.846 781.303 482.502H780.703ZM780.511 483.01C780.387 483.134 780.227 483.202 780.003 483.202V483.802C780.367 483.802 780.686 483.683 780.936 483.434L780.511 483.01ZM780.003 483.202C779.814 483.202 779.643 483.138 779.481 482.996L779.086 483.448C779.35 483.679 779.659 483.802 780.003 483.802V483.202ZM779.509 483.024C779.367 482.862 779.303 482.691 779.303 482.502H778.703C778.703 482.846 778.826 483.155 779.058 483.419L779.509 483.024ZM779.303 482.502V463.102H778.703V482.502H779.303ZM779.303 463.102C779.303 462.878 779.372 462.718 779.496 462.594L779.071 462.17C778.822 462.419 778.703 462.739 778.703 463.102H779.303ZM779.481 462.608C779.65 462.46 779.809 462.402 779.963 462.402V461.802C779.638 461.802 779.344 461.931 779.086 462.156L779.481 462.608ZM779.963 462.402C780.462 462.402 780.696 462.528 780.798 462.674L781.289 462.33C781.018 461.942 780.532 461.802 779.963 461.802V462.402ZM780.804 462.683C781.472 463.564 782.339 464.698 783.406 466.085L783.881 465.719C782.815 464.333 781.949 463.2 781.283 462.321L780.804 462.683ZM783.407 466.087C784.473 467.446 785.633 468.939 786.886 470.565L787.361 470.199C786.107 468.572 784.947 467.077 783.88 465.717L783.407 466.087ZM786.889 470.569C788.168 472.168 789.447 473.793 790.726 475.445L791.201 475.078C789.92 473.424 788.639 471.796 787.358 470.194L786.889 470.569ZM790.73 475.45C792.035 477.075 793.233 478.606 794.325 480.043L794.802 479.68C793.707 478.238 792.506 476.702 791.197 475.074L790.73 475.45ZM794.863 479.862V463.102H794.263V479.862H794.863ZM794.863 463.102C794.863 462.878 794.932 462.718 795.056 462.594L794.631 462.17C794.382 462.419 794.263 462.739 794.263 463.102H794.863ZM795.041 462.608C795.203 462.466 795.374 462.402 795.563 462.402V461.802C795.219 461.802 794.91 461.925 794.646 462.156L795.041 462.608ZM795.563 462.402C795.787 462.402 795.947 462.47 796.071 462.594L796.496 462.17C796.246 461.92 795.927 461.802 795.563 461.802V462.402ZM796.071 462.594C796.195 462.718 796.263 462.878 796.263 463.102H796.863C796.863 462.739 796.745 462.419 796.496 462.17L796.071 462.594ZM796.263 463.102V482.502H796.863V463.102H796.263ZM796.263 482.502C796.263 482.691 796.2 482.862 796.058 483.024L796.509 483.419C796.741 483.155 796.863 482.846 796.863 482.502H796.263ZM796.071 483.01C795.942 483.139 795.792 483.202 795.603 483.202V483.802C795.949 483.802 796.252 483.678 796.496 483.434L796.071 483.01ZM795.603 483.202C795.105 483.202 794.871 483.076 794.769 482.93L794.278 483.274C794.549 483.661 795.035 483.802 795.603 483.802V483.202ZM815.194 483.142L814.977 483.349L814.982 483.354L815.194 483.142ZM813.834 480.822L814.118 480.725L813.967 480.285L813.629 480.603L813.834 480.822ZM810.834 482.822L810.951 483.098L810.955 483.097L810.834 482.822ZM804.434 482.822L804.594 482.568L804.594 482.568L804.434 482.822ZM802.914 481.142L803.189 481.021L803.189 481.021L802.914 481.142ZM802.794 477.422L802.515 477.312L802.512 477.319L802.794 477.422ZM803.874 475.822L803.671 475.601L803.668 475.604L803.874 475.822ZM806.554 474.262L806.661 474.542L806.661 474.542L806.554 474.262ZM813.394 473.742L813.369 474.041L813.725 474.07L813.693 473.715L813.394 473.742ZM812.194 470.902L811.978 471.11L811.982 471.114L812.194 470.902ZM807.434 469.982L807.477 470.279L807.49 470.277L807.434 469.982ZM806.154 470.262L806.052 469.98L806.046 469.982L806.154 470.262ZM804.674 470.182L804.462 470.394L804.469 470.401L804.477 470.408L804.674 470.182ZM805.034 468.502L804.949 468.214L804.942 468.216L804.934 468.219L805.034 468.502ZM806.834 468.062L806.773 467.768L806.771 467.768L806.834 468.062ZM813.874 469.622L813.645 469.815L813.647 469.818L813.874 469.622ZM815.714 480.222L815.427 480.309L815.429 480.317L815.432 480.324L815.714 480.222ZM816.634 481.782L816.409 481.98L816.415 481.987L816.422 481.994L816.634 481.782ZM816.594 483.182L816.806 483.394L816.806 483.394L816.594 483.182ZM810.634 480.742L810.766 481.012L810.771 481.009L810.634 480.742ZM813.434 478.342L813.671 478.526L813.734 478.444V478.342H813.434ZM813.434 475.742H813.734V475.465L813.458 475.443L813.434 475.742ZM805.314 477.182L805.526 477.394L805.526 477.394L805.314 477.182ZM804.634 478.182L804.354 478.074L804.35 478.084L804.347 478.094L804.634 478.182ZM805.154 480.782L804.936 480.988L804.942 480.994L805.154 480.782ZM815.411 482.934C814.859 482.357 814.426 481.623 814.118 480.725L813.55 480.919C813.882 481.887 814.356 482.7 814.977 483.349L815.411 482.934ZM813.629 480.603C812.746 481.434 811.774 482.081 810.714 482.547L810.955 483.097C812.081 482.602 813.109 481.916 814.04 481.04L813.629 480.603ZM810.717 482.546C809.69 482.982 808.57 483.202 807.354 483.202V483.802C808.644 483.802 809.845 483.568 810.951 483.098L810.717 482.546ZM807.354 483.202C806.16 483.202 805.249 482.981 804.594 482.568L804.274 483.076C805.059 483.57 806.095 483.802 807.354 483.802V483.202ZM804.594 482.568C803.916 482.141 803.454 481.624 803.189 481.021L802.64 481.263C802.961 481.993 803.512 482.596 804.274 483.076L804.594 482.568ZM803.189 481.021C802.908 480.383 802.774 479.798 802.774 479.262H802.174C802.174 479.899 802.333 480.567 802.64 481.263L803.189 481.021ZM802.774 479.262C802.774 478.656 802.875 478.077 803.076 477.524L802.512 477.319C802.287 477.94 802.174 478.588 802.174 479.262H802.774ZM803.073 477.531C803.297 476.959 803.632 476.463 804.08 476.04L803.668 475.604C803.156 476.087 802.771 476.658 802.515 477.313L803.073 477.531ZM804.077 476.043C804.708 475.462 805.566 474.959 806.661 474.542L806.447 473.981C805.303 474.418 804.373 474.955 803.671 475.601L804.077 476.043ZM806.661 474.542C807.737 474.132 809.072 473.922 810.674 473.922V473.322C809.023 473.322 807.611 473.538 806.447 473.981L806.661 474.542ZM810.674 473.922C811.518 473.922 812.416 473.961 813.369 474.041L813.419 473.443C812.452 473.362 811.537 473.322 810.674 473.322V473.922ZM813.693 473.715C813.582 472.462 813.16 471.443 812.406 470.69L811.982 471.114C812.615 471.747 812.993 472.622 813.095 473.768L813.693 473.715ZM812.41 470.694C811.641 469.895 810.51 469.522 809.074 469.522V470.122C810.412 470.122 811.36 470.468 811.978 471.11L812.41 470.694ZM809.074 469.522C808.521 469.522 807.955 469.577 807.378 469.687L807.49 470.277C808.033 470.173 808.561 470.122 809.074 470.122V469.522ZM807.392 469.685C806.825 469.766 806.374 469.863 806.052 469.98L806.257 470.544C806.521 470.448 806.923 470.358 807.477 470.279L807.392 469.685ZM806.046 469.982C805.701 470.115 805.493 470.162 805.394 470.162V470.762C805.615 470.762 805.914 470.675 806.262 470.542L806.046 469.982ZM805.394 470.162C805.205 470.162 805.034 470.098 804.872 469.956L804.477 470.408C804.741 470.639 805.05 470.762 805.394 470.762V470.162ZM804.886 469.97C804.714 469.797 804.654 469.643 804.654 469.502H804.054C804.054 469.841 804.208 470.14 804.462 470.394L804.886 469.97ZM804.654 469.502C804.654 469.293 804.7 469.146 804.772 469.041C804.843 468.936 804.956 468.848 805.134 468.785L804.934 468.219C804.659 468.316 804.432 468.474 804.276 468.703C804.121 468.931 804.054 469.204 804.054 469.502H804.654ZM805.119 468.79C805.562 468.659 806.154 468.514 806.897 468.355L806.771 467.768C806.021 467.929 805.413 468.078 804.949 468.214L805.119 468.79ZM806.895 468.356C807.65 468.199 808.376 468.122 809.074 468.122V467.522C808.332 467.522 807.565 467.604 806.773 467.768L806.895 468.356ZM809.074 468.122C811.209 468.122 812.708 468.706 813.645 469.815L814.103 469.428C813.013 468.137 811.313 467.522 809.074 467.522V468.122ZM813.647 469.818C814.631 470.953 815.134 472.438 815.134 474.302H815.734C815.734 472.325 815.197 470.691 814.101 469.425L813.647 469.818ZM815.134 474.302V477.942H815.734V474.302H815.134ZM815.134 477.942C815.134 478.867 815.229 479.659 815.427 480.309L816.001 480.134C815.826 479.558 815.734 478.83 815.734 477.942H815.134ZM815.432 480.324C815.658 480.945 815.984 481.498 816.409 481.98L816.859 481.583C816.485 481.159 816.197 480.672 815.996 480.119L815.432 480.324ZM816.422 481.994C816.552 482.124 816.614 482.274 816.614 482.462H817.214C817.214 482.117 817.09 481.813 816.846 481.57L816.422 481.994ZM816.614 482.462C816.614 482.638 816.547 482.805 816.382 482.97L816.806 483.394C817.068 483.132 817.214 482.819 817.214 482.462H816.614ZM816.382 482.97C816.252 483.099 816.102 483.162 815.914 483.162V483.762C816.259 483.762 816.563 483.638 816.806 483.394L816.382 482.97ZM815.914 483.162C815.738 483.162 815.571 483.095 815.406 482.93L814.982 483.354C815.244 483.616 815.557 483.762 815.914 483.762V483.162ZM807.354 481.802C808.547 481.802 809.685 481.538 810.766 481.012L810.503 480.472C809.503 480.959 808.455 481.202 807.354 481.202V481.802ZM810.771 481.009C811.856 480.453 812.822 479.622 813.671 478.526L813.197 478.158C812.393 479.195 811.493 479.964 810.497 480.475L810.771 481.009ZM813.734 478.342V475.742H813.134V478.342H813.734ZM813.458 475.443C812.465 475.362 811.537 475.322 810.674 475.322V475.922C811.518 475.922 812.43 475.961 813.41 476.041L813.458 475.443ZM810.674 475.322C808.115 475.322 806.227 475.844 805.102 476.97L805.526 477.394C806.481 476.439 808.167 475.922 810.674 475.922V475.322ZM805.102 476.97C804.759 477.313 804.505 477.681 804.354 478.074L804.914 478.29C805.029 477.99 805.23 477.691 805.526 477.394L805.102 476.97ZM804.347 478.094C804.232 478.47 804.174 478.859 804.174 479.262H804.774C804.774 478.918 804.823 478.587 804.921 478.27L804.347 478.094ZM804.174 479.262C804.174 479.889 804.443 480.466 804.936 480.988L805.372 480.576C804.958 480.138 804.774 479.701 804.774 479.262H804.174ZM804.942 480.994C805.499 481.551 806.324 481.802 807.354 481.802V481.202C806.411 481.202 805.769 480.972 805.366 480.57L804.942 480.994ZM843.842 483.222L843.616 483.419L843.629 483.434L843.644 483.448L843.842 483.222ZM842.602 470.782L842.385 470.989L842.39 470.994L842.602 470.782ZM837.322 470.662L837.168 470.405L837.168 470.405L837.322 470.662ZM834.762 472.782L834.54 472.58L834.462 472.666V472.782H834.762ZM834.482 483.222L834.694 483.434L834.701 483.427L834.708 483.419L834.482 483.222ZM833.042 483.222L832.816 483.419L832.829 483.434L832.844 483.448L833.042 483.222ZM831.802 470.782L831.585 470.989L831.59 470.994L831.802 470.782ZM826.482 470.742L826.638 470.998L826.643 470.995L826.482 470.742ZM823.882 472.902L823.66 472.7L823.582 472.786V472.902H823.882ZM823.602 483.222L823.814 483.434L823.821 483.427L823.828 483.419L823.602 483.222ZM822.162 483.222L821.936 483.419L821.949 483.434L821.964 483.448L822.162 483.222ZM822.162 468.102L821.964 467.876L821.957 467.883L821.95 467.89L822.162 468.102ZM823.602 468.102L823.814 467.89L823.602 468.102ZM823.882 470.182H823.582V470.812L824.071 470.415L823.882 470.182ZM826.562 468.502L826.687 468.775L826.693 468.772L826.562 468.502ZM834.202 470.582L833.925 470.697L834.088 471.091L834.404 470.804L834.202 470.582ZM837.082 468.582L836.951 468.312L836.948 468.314L837.082 468.582ZM842.882 468.342L842.763 468.617L842.763 468.617L842.882 468.342ZM844.802 470.222L844.537 470.362L844.542 470.372L844.802 470.222ZM845.282 483.222L845.494 483.434L845.501 483.427L845.508 483.419L845.282 483.222ZM844.562 483.202C844.373 483.202 844.202 483.138 844.039 482.996L843.644 483.448C843.909 483.679 844.218 483.802 844.562 483.802V483.202ZM844.068 483.024C843.926 482.862 843.862 482.691 843.862 482.502H843.262C843.262 482.846 843.385 483.155 843.616 483.419L844.068 483.024ZM843.862 482.502V474.102H843.262V482.502H843.862ZM843.862 474.102C843.862 472.503 843.54 471.295 842.814 470.57L842.39 470.994C842.944 471.548 843.262 472.554 843.262 474.102H843.862ZM842.819 470.574C842.142 469.868 841.26 469.522 840.202 469.522V470.122C841.117 470.122 841.835 470.415 842.385 470.989L842.819 470.574ZM840.202 469.522C839.155 469.522 838.143 469.82 837.168 470.405L837.476 470.919C838.368 470.384 839.275 470.122 840.202 470.122V469.522ZM837.168 470.405C836.208 470.981 835.332 471.706 834.54 472.58L834.984 472.983C835.739 472.151 836.57 471.463 837.476 470.919L837.168 470.405ZM834.462 472.782V482.502H835.062V472.782H834.462ZM834.462 482.502C834.462 482.691 834.398 482.862 834.256 483.024L834.708 483.419C834.939 483.155 835.062 482.846 835.062 482.502H834.462ZM834.27 483.01C834.146 483.134 833.985 483.202 833.762 483.202V483.802C834.125 483.802 834.445 483.683 834.694 483.434L834.27 483.01ZM833.762 483.202C833.573 483.202 833.402 483.138 833.239 482.996L832.844 483.448C833.109 483.679 833.418 483.802 833.762 483.802V483.202ZM833.268 483.024C833.126 482.862 833.062 482.691 833.062 482.502H832.462C832.462 482.846 832.585 483.155 832.816 483.419L833.268 483.024ZM833.062 482.502V474.102H832.462V482.502H833.062ZM833.062 474.102C833.062 472.503 832.74 471.295 832.014 470.57L831.59 470.994C832.144 471.548 832.462 472.554 832.462 474.102H833.062ZM832.019 470.574C831.342 469.868 830.46 469.522 829.402 469.522V470.122C830.317 470.122 831.035 470.415 831.585 470.989L832.019 470.574ZM829.402 469.522C828.35 469.522 827.321 469.85 826.32 470.489L826.643 470.995C827.563 470.407 828.481 470.122 829.402 470.122V469.522ZM826.325 470.486C825.34 471.088 824.452 471.826 823.66 472.7L824.104 473.103C824.859 472.271 825.703 471.569 826.638 470.998L826.325 470.486ZM823.582 472.902V482.502H824.182V472.902H823.582ZM823.582 482.502C823.582 482.691 823.518 482.862 823.376 483.024L823.828 483.419C824.059 483.155 824.182 482.846 824.182 482.502H823.582ZM823.39 483.01C823.266 483.134 823.105 483.202 822.882 483.202V483.802C823.245 483.802 823.565 483.683 823.814 483.434L823.39 483.01ZM822.882 483.202C822.693 483.202 822.522 483.138 822.359 482.996L821.964 483.448C822.229 483.679 822.538 483.802 822.882 483.802V483.202ZM822.388 483.024C822.246 482.862 822.182 482.691 822.182 482.502H821.582C821.582 482.846 821.705 483.155 821.936 483.419L822.388 483.024ZM822.182 482.502V468.822H821.582V482.502H822.182ZM822.182 468.822C822.182 468.598 822.25 468.438 822.374 468.314L821.95 467.89C821.7 468.139 821.582 468.459 821.582 468.822H822.182ZM822.359 468.328C822.522 468.186 822.693 468.122 822.882 468.122V467.522C822.538 467.522 822.229 467.645 821.964 467.876L822.359 468.328ZM822.882 468.122C823.105 468.122 823.266 468.19 823.39 468.314L823.814 467.89C823.565 467.64 823.245 467.522 822.882 467.522V468.122ZM823.39 468.314C823.514 468.438 823.582 468.598 823.582 468.822H824.182C824.182 468.459 824.063 468.139 823.814 467.89L823.39 468.314ZM823.582 468.822V470.182H824.182V468.822H823.582ZM824.071 470.415C824.906 469.736 825.778 469.19 826.687 468.775L826.437 468.229C825.479 468.667 824.564 469.241 823.693 469.949L824.071 470.415ZM826.693 468.772C827.589 468.337 828.491 468.122 829.402 468.122V467.522C828.393 467.522 827.402 467.76 826.431 468.232L826.693 468.772ZM829.402 468.122C830.405 468.122 831.31 468.302 832.122 468.657L832.362 468.107C831.467 467.715 830.478 467.522 829.402 467.522V468.122ZM832.122 468.657C832.886 468.991 833.493 469.655 833.925 470.697L834.479 470.467C834.004 469.322 833.304 468.519 832.362 468.107L832.122 468.657ZM834.404 470.804C835.292 469.994 836.229 469.344 837.216 468.85L836.948 468.314C835.908 468.833 834.925 469.516 834 470.36L834.404 470.804ZM837.213 468.852C838.217 468.363 839.212 468.122 840.202 468.122V467.522C839.112 467.522 838.027 467.788 836.951 468.312L837.213 468.852ZM840.202 468.122C841.153 468.122 842.005 468.289 842.763 468.617L843.001 468.067C842.159 467.702 841.224 467.522 840.202 467.522V468.122ZM842.763 468.617C843.49 468.932 844.083 469.505 844.537 470.362L845.067 470.081C844.561 469.126 843.874 468.445 843.001 468.067L842.763 468.617ZM844.542 470.372C845.01 471.185 845.262 472.416 845.262 474.102H845.862C845.862 472.374 845.607 471.019 845.062 470.072L844.542 470.372ZM845.262 474.102V482.502H845.862V474.102H845.262ZM845.262 482.502C845.262 482.691 845.198 482.862 845.056 483.024L845.508 483.419C845.739 483.155 845.862 482.846 845.862 482.502H845.262ZM845.07 483.01C844.946 483.134 844.785 483.202 844.562 483.202V483.802C844.925 483.802 845.245 483.683 845.494 483.434L845.07 483.01Z" fill="#97BF0D" mask="url(#path-17-outside-2_614_276)"/>
<mask id="path-19-outside-3_614_276" maskUnits="userSpaceOnUse" x="644.499" y="461.502" width="68" height="23" fill="black">
<rect fill="white" x="644.499" y="461.502" width="68" height="23"/>
<path d="M660.939 483.102C660.032 481.875 658.979 480.502 657.779 478.982C656.606 477.462 655.392 475.915 654.139 474.342C652.886 472.742 651.672 471.195 650.499 469.702C649.352 468.208 648.326 466.888 647.419 465.742V482.502C647.419 482.768 647.326 483.008 647.139 483.222C646.952 483.408 646.712 483.502 646.419 483.502C646.152 483.502 645.912 483.408 645.699 483.222C645.512 483.008 645.419 482.768 645.419 482.502V463.102C645.419 462.808 645.512 462.568 645.699 462.382C645.912 462.195 646.139 462.102 646.379 462.102C646.912 462.102 647.272 462.235 647.459 462.502C648.126 463.382 648.992 464.515 650.059 465.902C651.126 467.262 652.286 468.755 653.539 470.382C654.819 471.982 656.099 473.608 657.379 475.262C658.686 476.888 659.886 478.422 660.979 479.862V463.102C660.979 462.808 661.072 462.568 661.259 462.382C661.472 462.195 661.712 462.102 661.979 462.102C662.272 462.102 662.512 462.195 662.699 462.382C662.886 462.568 662.979 462.808 662.979 463.102V482.502C662.979 482.768 662.886 483.008 662.699 483.222C662.512 483.408 662.286 483.502 662.019 483.502C661.486 483.502 661.126 483.368 660.939 483.102ZM681.61 483.142C681.023 482.528 680.57 481.755 680.25 480.822C679.343 481.675 678.343 482.342 677.25 482.822C676.183 483.275 675.023 483.502 673.77 483.502C672.543 483.502 671.57 483.275 670.85 482.822C670.13 482.368 669.623 481.808 669.33 481.142C669.036 480.475 668.89 479.848 668.89 479.262C668.89 478.622 668.996 478.008 669.21 477.422C669.45 476.808 669.81 476.275 670.29 475.822C670.956 475.208 671.85 474.688 672.97 474.262C674.09 473.835 675.463 473.622 677.09 473.622C677.943 473.622 678.85 473.662 679.81 473.742C679.703 472.542 679.303 471.595 678.61 470.902C677.916 470.182 676.876 469.822 675.49 469.822C674.956 469.822 674.41 469.875 673.85 469.982C673.29 470.062 672.863 470.155 672.57 470.262C672.223 470.395 671.97 470.462 671.81 470.462C671.543 470.462 671.303 470.368 671.09 470.182C670.876 469.968 670.77 469.742 670.77 469.502C670.77 468.995 670.996 468.662 671.45 468.502C671.903 468.368 672.503 468.222 673.25 468.062C674.023 467.902 674.77 467.822 675.49 467.822C677.676 467.822 679.276 468.422 680.29 469.622C681.33 470.822 681.85 472.382 681.85 474.302V477.942C681.85 478.848 681.943 479.608 682.13 480.222C682.343 480.808 682.65 481.328 683.05 481.782C683.236 481.968 683.33 482.195 683.33 482.462C683.33 482.728 683.223 482.968 683.01 483.182C682.823 483.368 682.596 483.462 682.33 483.462C682.063 483.462 681.823 483.355 681.61 483.142ZM673.77 481.502C674.916 481.502 676.01 481.248 677.05 480.742C678.09 480.208 679.023 479.408 679.85 478.342V475.742C678.863 475.662 677.943 475.622 677.09 475.622C674.556 475.622 672.77 476.142 671.73 477.182C671.41 477.502 671.183 477.835 671.05 478.182C670.943 478.528 670.89 478.888 670.89 479.262C670.89 479.795 671.116 480.302 671.57 480.782C672.05 481.262 672.783 481.502 673.77 481.502ZM710.977 483.502C710.711 483.502 710.471 483.408 710.257 483.222C710.071 483.008 709.977 482.768 709.977 482.502V474.102C709.977 472.528 709.657 471.422 709.017 470.782C708.404 470.142 707.604 469.822 706.617 469.822C705.631 469.822 704.671 470.102 703.737 470.662C702.804 471.222 701.951 471.928 701.177 472.782V482.502C701.177 482.768 701.084 483.008 700.897 483.222C700.711 483.408 700.471 483.502 700.177 483.502C699.911 483.502 699.671 483.408 699.457 483.222C699.271 483.008 699.177 482.768 699.177 482.502V474.102C699.177 472.528 698.857 471.422 698.217 470.782C697.604 470.142 696.804 469.822 695.817 469.822C694.831 469.822 693.857 470.128 692.897 470.742C691.937 471.328 691.071 472.048 690.297 472.902V482.502C690.297 482.768 690.204 483.008 690.017 483.222C689.831 483.408 689.591 483.502 689.297 483.502C689.031 483.502 688.791 483.408 688.577 483.222C688.391 483.008 688.297 482.768 688.297 482.502V468.822C688.297 468.528 688.391 468.288 688.577 468.102C688.791 467.915 689.031 467.822 689.297 467.822C689.591 467.822 689.831 467.915 690.017 468.102C690.204 468.288 690.297 468.528 690.297 468.822V470.182C691.151 469.488 692.044 468.928 692.977 468.502C693.911 468.048 694.857 467.822 695.817 467.822C696.857 467.822 697.804 468.008 698.657 468.382C699.511 468.755 700.164 469.488 700.617 470.582C701.524 469.755 702.484 469.088 703.497 468.582C704.537 468.075 705.577 467.822 706.617 467.822C707.604 467.822 708.497 467.995 709.297 468.342C710.097 468.688 710.737 469.315 711.217 470.222C711.724 471.102 711.977 472.395 711.977 474.102V482.502C711.977 482.768 711.884 483.008 711.697 483.222C711.511 483.408 711.271 483.502 710.977 483.502Z"/>
</mask>
<path d="M660.939 483.102C660.032 481.875 658.979 480.502 657.779 478.982C656.606 477.462 655.392 475.915 654.139 474.342C652.886 472.742 651.672 471.195 650.499 469.702C649.352 468.208 648.326 466.888 647.419 465.742V482.502C647.419 482.768 647.326 483.008 647.139 483.222C646.952 483.408 646.712 483.502 646.419 483.502C646.152 483.502 645.912 483.408 645.699 483.222C645.512 483.008 645.419 482.768 645.419 482.502V463.102C645.419 462.808 645.512 462.568 645.699 462.382C645.912 462.195 646.139 462.102 646.379 462.102C646.912 462.102 647.272 462.235 647.459 462.502C648.126 463.382 648.992 464.515 650.059 465.902C651.126 467.262 652.286 468.755 653.539 470.382C654.819 471.982 656.099 473.608 657.379 475.262C658.686 476.888 659.886 478.422 660.979 479.862V463.102C660.979 462.808 661.072 462.568 661.259 462.382C661.472 462.195 661.712 462.102 661.979 462.102C662.272 462.102 662.512 462.195 662.699 462.382C662.886 462.568 662.979 462.808 662.979 463.102V482.502C662.979 482.768 662.886 483.008 662.699 483.222C662.512 483.408 662.286 483.502 662.019 483.502C661.486 483.502 661.126 483.368 660.939 483.102ZM681.61 483.142C681.023 482.528 680.57 481.755 680.25 480.822C679.343 481.675 678.343 482.342 677.25 482.822C676.183 483.275 675.023 483.502 673.77 483.502C672.543 483.502 671.57 483.275 670.85 482.822C670.13 482.368 669.623 481.808 669.33 481.142C669.036 480.475 668.89 479.848 668.89 479.262C668.89 478.622 668.996 478.008 669.21 477.422C669.45 476.808 669.81 476.275 670.29 475.822C670.956 475.208 671.85 474.688 672.97 474.262C674.09 473.835 675.463 473.622 677.09 473.622C677.943 473.622 678.85 473.662 679.81 473.742C679.703 472.542 679.303 471.595 678.61 470.902C677.916 470.182 676.876 469.822 675.49 469.822C674.956 469.822 674.41 469.875 673.85 469.982C673.29 470.062 672.863 470.155 672.57 470.262C672.223 470.395 671.97 470.462 671.81 470.462C671.543 470.462 671.303 470.368 671.09 470.182C670.876 469.968 670.77 469.742 670.77 469.502C670.77 468.995 670.996 468.662 671.45 468.502C671.903 468.368 672.503 468.222 673.25 468.062C674.023 467.902 674.77 467.822 675.49 467.822C677.676 467.822 679.276 468.422 680.29 469.622C681.33 470.822 681.85 472.382 681.85 474.302V477.942C681.85 478.848 681.943 479.608 682.13 480.222C682.343 480.808 682.65 481.328 683.05 481.782C683.236 481.968 683.33 482.195 683.33 482.462C683.33 482.728 683.223 482.968 683.01 483.182C682.823 483.368 682.596 483.462 682.33 483.462C682.063 483.462 681.823 483.355 681.61 483.142ZM673.77 481.502C674.916 481.502 676.01 481.248 677.05 480.742C678.09 480.208 679.023 479.408 679.85 478.342V475.742C678.863 475.662 677.943 475.622 677.09 475.622C674.556 475.622 672.77 476.142 671.73 477.182C671.41 477.502 671.183 477.835 671.05 478.182C670.943 478.528 670.89 478.888 670.89 479.262C670.89 479.795 671.116 480.302 671.57 480.782C672.05 481.262 672.783 481.502 673.77 481.502ZM710.977 483.502C710.711 483.502 710.471 483.408 710.257 483.222C710.071 483.008 709.977 482.768 709.977 482.502V474.102C709.977 472.528 709.657 471.422 709.017 470.782C708.404 470.142 707.604 469.822 706.617 469.822C705.631 469.822 704.671 470.102 703.737 470.662C702.804 471.222 701.951 471.928 701.177 472.782V482.502C701.177 482.768 701.084 483.008 700.897 483.222C700.711 483.408 700.471 483.502 700.177 483.502C699.911 483.502 699.671 483.408 699.457 483.222C699.271 483.008 699.177 482.768 699.177 482.502V474.102C699.177 472.528 698.857 471.422 698.217 470.782C697.604 470.142 696.804 469.822 695.817 469.822C694.831 469.822 693.857 470.128 692.897 470.742C691.937 471.328 691.071 472.048 690.297 472.902V482.502C690.297 482.768 690.204 483.008 690.017 483.222C689.831 483.408 689.591 483.502 689.297 483.502C689.031 483.502 688.791 483.408 688.577 483.222C688.391 483.008 688.297 482.768 688.297 482.502V468.822C688.297 468.528 688.391 468.288 688.577 468.102C688.791 467.915 689.031 467.822 689.297 467.822C689.591 467.822 689.831 467.915 690.017 468.102C690.204 468.288 690.297 468.528 690.297 468.822V470.182C691.151 469.488 692.044 468.928 692.977 468.502C693.911 468.048 694.857 467.822 695.817 467.822C696.857 467.822 697.804 468.008 698.657 468.382C699.511 468.755 700.164 469.488 700.617 470.582C701.524 469.755 702.484 469.088 703.497 468.582C704.537 468.075 705.577 467.822 706.617 467.822C707.604 467.822 708.497 467.995 709.297 468.342C710.097 468.688 710.737 469.315 711.217 470.222C711.724 471.102 711.977 472.395 711.977 474.102V482.502C711.977 482.768 711.884 483.008 711.697 483.222C711.511 483.408 711.271 483.502 710.977 483.502Z" fill="#D56C06"/>
<path d="M660.939 483.102L661.185 482.93L661.18 482.924L660.939 483.102ZM657.779 478.982L657.542 479.165L657.544 479.168L657.779 478.982ZM654.139 474.342L653.903 474.527L653.904 474.529L654.139 474.342ZM650.499 469.702L650.261 469.885L650.263 469.887L650.499 469.702ZM647.419 465.742L647.654 465.556L647.119 464.879V465.742H647.419ZM647.139 483.222L647.351 483.434L647.358 483.427L647.365 483.419L647.139 483.222ZM645.699 483.222L645.473 483.419L645.486 483.434L645.501 483.448L645.699 483.222ZM645.699 462.382L645.501 462.156L645.494 462.163L645.487 462.17L645.699 462.382ZM647.459 462.502L647.213 462.674L647.22 462.683L647.459 462.502ZM650.059 465.902L649.821 466.085L649.823 466.087L650.059 465.902ZM653.539 470.382L653.301 470.565L653.305 470.569L653.539 470.382ZM657.379 475.262L657.142 475.446L657.145 475.45L657.379 475.262ZM660.979 479.862L660.74 480.043L661.279 480.753V479.862H660.979ZM661.259 462.382L661.061 462.156L661.054 462.163L661.047 462.17L661.259 462.382ZM662.699 483.222L662.911 483.434L662.918 483.427L662.925 483.419L662.699 483.222ZM661.18 482.924C660.271 481.694 659.216 480.318 658.014 478.796L657.544 479.168C658.742 480.686 659.793 482.057 660.698 483.28L661.18 482.924ZM658.017 478.799C656.842 477.277 655.628 475.729 654.374 474.155L653.904 474.529C655.157 476.101 656.369 477.646 657.542 479.165L658.017 478.799ZM654.375 474.157C653.122 472.557 651.908 471.01 650.735 469.516L650.263 469.887C651.436 471.38 652.65 472.927 653.903 474.527L654.375 474.157ZM650.737 469.519C649.59 468.025 648.562 466.704 647.654 465.556L647.184 465.928C648.089 467.073 649.115 468.392 650.261 469.885L650.737 469.519ZM647.119 465.742V482.502H647.719V465.742H647.119ZM647.119 482.502C647.119 482.691 647.055 482.862 646.913 483.024L647.365 483.419C647.596 483.155 647.719 482.846 647.719 482.502H647.119ZM646.927 483.01C646.803 483.134 646.642 483.202 646.419 483.202V483.802C646.782 483.802 647.102 483.683 647.351 483.434L646.927 483.01ZM646.419 483.202C646.23 483.202 646.059 483.138 645.897 482.996L645.501 483.448C645.766 483.679 646.075 483.802 646.419 483.802V483.202ZM645.925 483.024C645.783 482.862 645.719 482.691 645.719 482.502H645.119C645.119 482.846 645.242 483.155 645.473 483.419L645.925 483.024ZM645.719 482.502V463.102H645.119V482.502H645.719ZM645.719 463.102C645.719 462.878 645.787 462.718 645.911 462.594L645.487 462.17C645.237 462.419 645.119 462.739 645.119 463.102H645.719ZM645.897 462.608C646.066 462.46 646.224 462.402 646.379 462.402V461.802C646.054 461.802 645.759 461.931 645.501 462.156L645.897 462.608ZM646.379 462.402C646.878 462.402 647.111 462.528 647.213 462.674L647.705 462.33C647.434 461.942 646.947 461.802 646.379 461.802V462.402ZM647.22 462.683C647.887 463.564 648.754 464.698 649.821 466.085L650.297 465.719C649.23 464.333 648.364 463.2 647.698 462.321L647.22 462.683ZM649.823 466.087C650.889 467.446 652.048 468.939 653.301 470.565L653.777 470.199C652.523 468.572 651.362 467.077 650.295 465.717L649.823 466.087ZM653.305 470.569C654.584 472.168 655.863 473.793 657.142 475.445L657.616 475.078C656.335 473.424 655.054 471.796 653.773 470.194L653.305 470.569ZM657.145 475.45C658.45 477.075 659.649 478.606 660.74 480.043L661.218 479.68C660.123 478.238 658.921 476.702 657.613 475.074L657.145 475.45ZM661.279 479.862V463.102H660.679V479.862H661.279ZM661.279 463.102C661.279 462.878 661.347 462.718 661.471 462.594L661.047 462.17C660.797 462.419 660.679 462.739 660.679 463.102H661.279ZM661.457 462.608C661.619 462.466 661.79 462.402 661.979 462.402V461.802C661.635 461.802 661.326 461.925 661.061 462.156L661.457 462.608ZM661.979 462.402C662.202 462.402 662.363 462.47 662.487 462.594L662.911 462.17C662.662 461.92 662.342 461.802 661.979 461.802V462.402ZM662.487 462.594C662.611 462.718 662.679 462.878 662.679 463.102H663.279C663.279 462.739 663.161 462.419 662.911 462.17L662.487 462.594ZM662.679 463.102V482.502H663.279V463.102H662.679ZM662.679 482.502C662.679 482.691 662.615 482.862 662.473 483.024L662.925 483.419C663.156 483.155 663.279 482.846 663.279 482.502H662.679ZM662.487 483.01C662.357 483.139 662.207 483.202 662.019 483.202V483.802C662.364 483.802 662.668 483.678 662.911 483.434L662.487 483.01ZM662.019 483.202C661.52 483.202 661.287 483.076 661.185 482.93L660.693 483.274C660.964 483.661 661.451 483.802 662.019 483.802V483.202ZM681.61 483.142L681.393 483.349L681.398 483.354L681.61 483.142ZM680.25 480.822L680.533 480.725L680.383 480.285L680.044 480.603L680.25 480.822ZM677.25 482.822L677.367 483.098L677.37 483.097L677.25 482.822ZM670.85 482.822L671.009 482.568L671.009 482.568L670.85 482.822ZM669.33 481.142L669.604 481.021L669.604 481.021L669.33 481.142ZM669.21 477.422L668.93 477.312L668.928 477.319L669.21 477.422ZM670.29 475.822L670.087 475.601L670.084 475.604L670.29 475.822ZM672.97 474.262L673.076 474.542L673.076 474.542L672.97 474.262ZM679.81 473.742L679.785 474.041L680.14 474.07L680.108 473.715L679.81 473.742ZM678.61 470.902L678.394 471.11L678.398 471.114L678.61 470.902ZM673.85 469.982L673.892 470.279L673.906 470.277L673.85 469.982ZM672.57 470.262L672.467 469.98L672.462 469.982L672.57 470.262ZM671.09 470.182L670.878 470.394L670.885 470.401L670.892 470.408L671.09 470.182ZM671.45 468.502L671.365 468.214L671.357 468.216L671.35 468.219L671.45 468.502ZM673.25 468.062L673.189 467.768L673.187 467.768L673.25 468.062ZM680.29 469.622L680.06 469.815L680.063 469.818L680.29 469.622ZM682.13 480.222L681.843 480.309L681.845 480.317L681.848 480.324L682.13 480.222ZM683.05 481.782L682.825 481.98L682.831 481.987L682.838 481.994L683.05 481.782ZM683.01 483.182L683.222 483.394L683.222 483.394L683.01 483.182ZM677.05 480.742L677.181 481.012L677.187 481.009L677.05 480.742ZM679.85 478.342L680.087 478.526L680.15 478.444V478.342H679.85ZM679.85 475.742H680.15V475.465L679.874 475.443L679.85 475.742ZM671.73 477.182L671.942 477.394L671.942 477.394L671.73 477.182ZM671.05 478.182L670.77 478.074L670.766 478.084L670.763 478.094L671.05 478.182ZM671.57 480.782L671.351 480.988L671.358 480.994L671.57 480.782ZM681.826 482.934C681.274 482.357 680.842 481.623 680.533 480.725L679.966 480.919C680.298 481.887 680.772 482.7 681.393 483.349L681.826 482.934ZM680.044 480.603C679.161 481.434 678.19 482.081 677.129 482.547L677.37 483.097C678.496 482.602 679.525 481.916 680.455 481.04L680.044 480.603ZM677.132 482.546C676.106 482.982 674.986 483.202 673.77 483.202V483.802C675.06 483.802 676.26 483.568 677.367 483.098L677.132 482.546ZM673.77 483.202C672.576 483.202 671.665 482.981 671.009 482.568L670.69 483.076C671.474 483.57 672.51 483.802 673.77 483.802V483.202ZM671.009 482.568C670.331 482.141 669.87 481.624 669.604 481.021L669.055 481.263C669.376 481.993 669.928 482.596 670.69 483.076L671.009 482.568ZM669.604 481.021C669.324 480.383 669.19 479.798 669.19 479.262H668.59C668.59 479.899 668.749 480.567 669.055 481.263L669.604 481.021ZM669.19 479.262C669.19 478.656 669.291 478.077 669.492 477.524L668.928 477.319C668.702 477.94 668.59 478.588 668.59 479.262H669.19ZM669.489 477.531C669.713 476.959 670.048 476.463 670.496 476.04L670.084 475.604C669.572 476.087 669.186 476.658 668.93 477.313L669.489 477.531ZM670.493 476.043C671.124 475.462 671.981 474.959 673.076 474.542L672.863 473.981C671.718 474.418 670.789 474.955 670.087 475.601L670.493 476.043ZM673.076 474.542C674.153 474.132 675.487 473.922 677.09 473.922V473.322C675.439 473.322 674.027 473.538 672.863 473.981L673.076 474.542ZM677.09 473.922C677.934 473.922 678.832 473.961 679.785 474.041L679.835 473.443C678.867 473.362 677.952 473.322 677.09 473.322V473.922ZM680.108 473.715C679.997 472.462 679.576 471.443 678.822 470.69L678.398 471.114C679.03 471.747 679.409 472.622 679.511 473.768L680.108 473.715ZM678.826 470.694C678.057 469.895 676.925 469.522 675.49 469.522V470.122C676.827 470.122 677.776 470.468 678.394 471.11L678.826 470.694ZM675.49 469.522C674.936 469.522 674.371 469.577 673.794 469.687L673.906 470.277C674.449 470.173 674.976 470.122 675.49 470.122V469.522ZM673.807 469.685C673.24 469.766 672.79 469.863 672.467 469.98L672.672 470.544C672.936 470.448 673.339 470.358 673.892 470.279L673.807 469.685ZM672.462 469.982C672.116 470.115 671.909 470.162 671.81 470.162V470.762C672.03 470.762 672.33 470.675 672.677 470.542L672.462 469.982ZM671.81 470.162C671.62 470.162 671.45 470.098 671.287 469.956L670.892 470.408C671.156 470.639 671.465 470.762 671.81 470.762V470.162ZM671.302 469.97C671.129 469.797 671.07 469.643 671.07 469.502H670.47C670.47 469.841 670.623 470.14 670.878 470.394L671.302 469.97ZM671.07 469.502C671.07 469.293 671.116 469.146 671.188 469.041C671.259 468.936 671.371 468.848 671.549 468.785L671.35 468.219C671.075 468.316 670.847 468.474 670.692 468.703C670.537 468.931 670.47 469.204 670.47 469.502H671.07ZM671.534 468.79C671.977 468.659 672.569 468.514 673.313 468.355L673.187 467.768C672.437 467.929 671.829 468.078 671.365 468.214L671.534 468.79ZM673.31 468.356C674.066 468.199 674.792 468.122 675.49 468.122V467.522C674.747 467.522 673.98 467.604 673.189 467.768L673.31 468.356ZM675.49 468.122C677.624 468.122 679.124 468.706 680.06 469.815L680.519 469.428C679.429 468.137 677.728 467.522 675.49 467.522V468.122ZM680.063 469.818C681.046 470.953 681.55 472.438 681.55 474.302H682.15C682.15 472.325 681.613 470.691 680.516 469.425L680.063 469.818ZM681.55 474.302V477.942H682.15V474.302H681.55ZM681.55 477.942C681.55 478.867 681.645 479.659 681.843 480.309L682.417 480.134C682.241 479.558 682.15 478.83 682.15 477.942H681.55ZM681.848 480.324C682.073 480.945 682.399 481.498 682.825 481.98L683.275 481.583C682.9 481.159 682.613 480.672 682.412 480.119L681.848 480.324ZM682.838 481.994C682.967 482.124 683.03 482.274 683.03 482.462H683.63C683.63 482.117 683.505 481.813 683.262 481.57L682.838 481.994ZM683.03 482.462C683.03 482.638 682.963 482.805 682.798 482.97L683.222 483.394C683.483 483.132 683.63 482.819 683.63 482.462H683.03ZM682.798 482.97C682.668 483.099 682.518 483.162 682.33 483.162V483.762C682.675 483.762 682.978 483.638 683.222 483.394L682.798 482.97ZM682.33 483.162C682.153 483.162 681.987 483.095 681.822 482.93L681.398 483.354C681.659 483.616 681.973 483.762 682.33 483.762V483.162ZM673.77 481.802C674.962 481.802 676.1 481.538 677.181 481.012L676.918 480.472C675.919 480.959 674.87 481.202 673.77 481.202V481.802ZM677.187 481.009C678.271 480.453 679.237 479.622 680.087 478.526L679.613 478.158C678.809 479.195 677.908 479.964 676.913 480.475L677.187 481.009ZM680.15 478.342V475.742H679.55V478.342H680.15ZM679.874 475.443C678.88 475.362 677.952 475.322 677.09 475.322V475.922C677.934 475.922 678.846 475.961 679.825 476.041L679.874 475.443ZM677.09 475.322C674.53 475.322 672.643 475.844 671.518 476.97L671.942 477.394C672.896 476.439 674.582 475.922 677.09 475.922V475.322ZM671.518 476.97C671.174 477.313 670.921 477.681 670.77 478.074L671.33 478.29C671.445 477.99 671.645 477.691 671.942 477.394L671.518 476.97ZM670.763 478.094C670.647 478.47 670.59 478.859 670.59 479.262H671.19C671.19 478.918 671.239 478.587 671.336 478.27L670.763 478.094ZM670.59 479.262C670.59 479.889 670.859 480.466 671.352 480.988L671.788 480.576C671.374 480.138 671.19 479.701 671.19 479.262H670.59ZM671.358 480.994C671.915 481.551 672.74 481.802 673.77 481.802V481.202C672.826 481.202 672.184 480.972 671.782 480.57L671.358 480.994ZM710.257 483.222L710.032 483.419L710.045 483.434L710.06 483.448L710.257 483.222ZM709.017 470.782L708.801 470.989L708.805 470.994L709.017 470.782ZM703.737 470.662L703.583 470.405L703.583 470.405L703.737 470.662ZM701.177 472.782L700.955 472.58L700.877 472.666V472.782H701.177ZM700.897 483.222L701.11 483.434L701.117 483.427L701.123 483.419L700.897 483.222ZM699.457 483.222L699.232 483.419L699.245 483.434L699.26 483.448L699.457 483.222ZM698.217 470.782L698.001 470.989L698.005 470.994L698.217 470.782ZM692.897 470.742L693.054 470.998L693.059 470.995L692.897 470.742ZM690.297 472.902L690.075 472.7L689.997 472.786V472.902H690.297ZM690.017 483.222L690.23 483.434L690.237 483.427L690.243 483.419L690.017 483.222ZM688.577 483.222L688.352 483.419L688.365 483.434L688.38 483.448L688.577 483.222ZM688.577 468.102L688.38 467.876L688.372 467.883L688.365 467.89L688.577 468.102ZM690.017 468.102L690.23 467.89L690.017 468.102ZM690.297 470.182H689.997V470.812L690.487 470.415L690.297 470.182ZM692.977 468.502L693.102 468.775L693.109 468.772L692.977 468.502ZM700.617 470.582L700.34 470.697L700.504 471.091L700.82 470.804L700.617 470.582ZM703.497 468.582L703.366 468.312L703.363 468.314L703.497 468.582ZM709.297 468.342L709.178 468.617L709.178 468.617L709.297 468.342ZM711.217 470.222L710.952 470.362L710.957 470.372L711.217 470.222ZM711.697 483.222L711.91 483.434L711.917 483.427L711.923 483.419L711.697 483.222ZM710.977 483.202C710.788 483.202 710.617 483.138 710.455 482.996L710.06 483.448C710.324 483.679 710.633 483.802 710.977 483.802V483.202ZM710.483 483.024C710.341 482.862 710.277 482.691 710.277 482.502H709.677C709.677 482.846 709.8 483.155 710.032 483.419L710.483 483.024ZM710.277 482.502V474.102H709.677V482.502H710.277ZM710.277 474.102C710.277 472.503 709.955 471.295 709.23 470.57L708.805 470.994C709.36 471.548 709.677 472.554 709.677 474.102H710.277ZM709.234 470.574C708.557 469.868 707.676 469.522 706.617 469.522V470.122C707.533 470.122 708.251 470.415 708.801 470.989L709.234 470.574ZM706.617 469.522C705.571 469.522 704.558 469.82 703.583 470.405L703.892 470.919C704.783 470.384 705.691 470.122 706.617 470.122V469.522ZM703.583 470.405C702.623 470.981 701.747 471.706 700.955 472.58L701.4 472.983C702.154 472.151 702.985 471.463 703.892 470.919L703.583 470.405ZM700.877 472.782V482.502H701.477V472.782H700.877ZM700.877 482.502C700.877 482.691 700.814 482.862 700.672 483.024L701.123 483.419C701.354 483.155 701.477 482.846 701.477 482.502H700.877ZM700.685 483.01C700.561 483.134 700.401 483.202 700.177 483.202V483.802C700.541 483.802 700.86 483.683 701.11 483.434L700.685 483.01ZM700.177 483.202C699.988 483.202 699.817 483.138 699.655 482.996L699.26 483.448C699.524 483.679 699.833 483.802 700.177 483.802V483.202ZM699.683 483.024C699.541 482.862 699.477 482.691 699.477 482.502H698.877C698.877 482.846 699 483.155 699.232 483.419L699.683 483.024ZM699.477 482.502V474.102H698.877V482.502H699.477ZM699.477 474.102C699.477 472.503 699.155 471.295 698.43 470.57L698.005 470.994C698.56 471.548 698.877 472.554 698.877 474.102H699.477ZM698.434 470.574C697.757 469.868 696.876 469.522 695.817 469.522V470.122C696.733 470.122 697.451 470.415 698.001 470.989L698.434 470.574ZM695.817 469.522C694.765 469.522 693.737 469.85 692.736 470.489L693.059 470.995C693.978 470.407 694.896 470.122 695.817 470.122V469.522ZM692.741 470.486C691.756 471.088 690.867 471.826 690.075 472.7L690.52 473.103C691.274 472.271 692.119 471.569 693.054 470.998L692.741 470.486ZM689.997 472.902V482.502H690.597V472.902H689.997ZM689.997 482.502C689.997 482.691 689.934 482.862 689.792 483.024L690.243 483.419C690.474 483.155 690.597 482.846 690.597 482.502H689.997ZM689.805 483.01C689.681 483.134 689.521 483.202 689.297 483.202V483.802C689.661 483.802 689.98 483.683 690.23 483.434L689.805 483.01ZM689.297 483.202C689.108 483.202 688.937 483.138 688.775 482.996L688.38 483.448C688.644 483.679 688.953 483.802 689.297 483.802V483.202ZM688.803 483.024C688.661 482.862 688.597 482.691 688.597 482.502H687.997C687.997 482.846 688.12 483.155 688.352 483.419L688.803 483.024ZM688.597 482.502V468.822H687.997V482.502H688.597ZM688.597 468.822C688.597 468.598 688.666 468.438 688.79 468.314L688.365 467.89C688.116 468.139 687.997 468.459 687.997 468.822H688.597ZM688.775 468.328C688.937 468.186 689.108 468.122 689.297 468.122V467.522C688.953 467.522 688.644 467.645 688.38 467.876L688.775 468.328ZM689.297 468.122C689.521 468.122 689.681 468.19 689.805 468.314L690.23 467.89C689.98 467.64 689.661 467.522 689.297 467.522V468.122ZM689.805 468.314C689.929 468.438 689.997 468.598 689.997 468.822H690.597C690.597 468.459 690.479 468.139 690.23 467.89L689.805 468.314ZM689.997 468.822V470.182H690.597V468.822H689.997ZM690.487 470.415C691.322 469.736 692.194 469.19 693.102 468.775L692.853 468.229C691.895 468.667 690.98 469.241 690.108 469.949L690.487 470.415ZM693.109 468.772C694.004 468.337 694.906 468.122 695.817 468.122V467.522C694.808 467.522 693.817 467.76 692.846 468.232L693.109 468.772ZM695.817 468.122C696.821 468.122 697.726 468.302 698.537 468.657L698.778 468.107C697.882 467.715 696.894 467.522 695.817 467.522V468.122ZM698.537 468.657C699.302 468.991 699.908 469.655 700.34 470.697L700.895 470.467C700.42 469.322 699.72 468.519 698.778 468.107L698.537 468.657ZM700.82 470.804C701.708 469.994 702.645 469.344 703.632 468.85L703.363 468.314C702.323 468.833 701.341 469.516 700.415 470.36L700.82 470.804ZM703.629 468.852C704.633 468.363 705.628 468.122 706.617 468.122V467.522C705.527 467.522 704.442 467.788 703.366 468.312L703.629 468.852ZM706.617 468.122C707.568 468.122 708.42 468.289 709.178 468.617L709.417 468.067C708.574 467.702 707.64 467.522 706.617 467.522V468.122ZM709.178 468.617C709.905 468.932 710.498 469.505 710.952 470.362L711.483 470.081C710.977 469.126 710.29 468.445 709.417 468.067L709.178 468.617ZM710.957 470.372C711.426 471.185 711.677 472.416 711.677 474.102H712.277C712.277 472.374 712.023 471.019 711.477 470.072L710.957 470.372ZM711.677 474.102V482.502H712.277V474.102H711.677ZM711.677 482.502C711.677 482.691 711.614 482.862 711.472 483.024L711.923 483.419C712.154 483.155 712.277 482.846 712.277 482.502H711.677ZM711.485 483.01C711.361 483.134 711.201 483.202 710.977 483.202V483.802C711.341 483.802 711.66 483.683 711.91 483.434L711.485 483.01Z" fill="#D56C06" mask="url(#path-19-outside-3_614_276)"/>
</svg>
