<svg width="65" height="64" viewBox="0 0 65 64" fill="none" xmlns="http://www.w3.org/2000/svg">
<path d="M53.1666 55.3333H41.1666C39.3253 55.3333 37.8333 53.8987 37.8333 52.1282V40.5898C37.8333 39.1731 36.64 38.0257 35.1666 38.0257H29.8333C28.36 38.0257 27.1666 39.1731 27.1666 40.5898V52.1282C27.1666 53.8987 25.6747 55.3333 23.8333 55.3333H11.8333C9.992 55.3333 8.5 53.8987 8.5 52.1282V27.6577C8.5 24.7103 9.90533 21.9257 12.312 20.1026L31.2613 5.74488C31.988 5.19616 33.012 5.19616 33.7373 5.74488L52.6893 20.1026C55.096 21.9257 56.5 24.709 56.5 27.6551V52.1282C56.5 53.8987 55.008 55.3333 53.1666 55.3333Z" fill="#DCDCDC"/>
</svg>
