<svg width="65" height="64" viewBox="0 0 65 64" fill="none" xmlns="http://www.w3.org/2000/svg">
<path d="M25.1042 3.84C14.3324 3.84 5.62 12.5524 5.62 23.3242C5.62 34.0961 14.3324 42.8085 25.1042 42.8085C28.95 42.8085 32.5093 41.6803 35.5269 39.7641L49.6028 53.84L54.4738 48.9689L40.577 35.1079C43.0752 31.8307 44.5885 27.77 44.5885 23.3242C44.5885 12.5524 35.8761 3.84 25.1042 3.84ZM25.1042 8.42452C33.3555 8.42452 40.0039 15.073 40.0039 23.3242C40.0039 31.5755 33.3555 38.2239 25.1042 38.2239C16.853 38.2239 10.2045 31.5755 10.2045 23.3242C10.2045 15.073 16.853 8.42452 25.1042 8.42452Z" fill="#DCDCDC"/>
</svg>
